<?xml version="1.0" encoding="utf-8" standalone="no"?>
<!DOCTYPE svg PUBLIC "-//W3C//DTD SVG 1.1//EN"
  "http://www.w3.org/Graphics/SVG/1.1/DTD/svg11.dtd">
<svg xmlns:xlink="http://www.w3.org/1999/xlink" width="864pt" height="360pt" viewBox="0 0 864 360" xmlns="http://www.w3.org/2000/svg" version="1.1">
 <metadata>
  <rdf:RDF xmlns:dc="http://purl.org/dc/elements/1.1/" xmlns:cc="http://creativecommons.org/ns#" xmlns:rdf="http://www.w3.org/1999/02/22-rdf-syntax-ns#">
   <cc:Work>
    <dc:type rdf:resource="http://purl.org/dc/dcmitype/StillImage"/>
    <dc:date>2026-03-23T23:19:47.331537</dc:date>
    <dc:format>image/svg+xml</dc:format>
    <dc:creator>
     <cc:Agent>
      <dc:title>Matplotlib v3.10.7, https://matplotlib.org/</dc:title>
     </cc:Agent>
    </dc:creator>
   </cc:Work>
  </rdf:RDF>
 </metadata>
 <defs>
  <style type="text/css">*{stroke-linejoin: round; stroke-linecap: butt}</style>
 </defs>
 <g id="figure_1">
  <g id="patch_1">
   <path d="M 0 360 
L 864 360 
L 864 0 
L 0 0 
z
" style="fill: #ffffff"/>
  </g>
  <g id="axes_1">
   <g id="patch_2">
    <path d="M 108 320.4 
L 777.6 320.4 
L 777.6 43.2 
L 108 43.2 
z
" style="fill: #ffffff"/>
   </g>
   <g id="matplotlib.axis_1">
    <g id="xtick_1">
     <g id="line2d_1">
      <defs>
       <path id="m7ca5485374" d="M 0 0 
L 0 3.5 
" style="stroke: #000000; stroke-width: 0.8"/>
      </defs>
      <g>
       <use xlink:href="#m7ca5485374" x="138.436364" y="320.4" style="stroke: #000000; stroke-width: 0.8"/>
      </g>
     </g>
     <g id="text_1">
      <!-- 0 -->
      <g transform="translate(135.255114 334.998438) scale(0.1 -0.1)">
       <defs>
        <path id="DejaVuSans-30" d="M 2034 4250 
Q 1547 4250 1301 3770 
Q 1056 3291 1056 2328 
Q 1056 1369 1301 889 
Q 1547 409 2034 409 
Q 2525 409 2770 889 
Q 3016 1369 3016 2328 
Q 3016 3291 2770 3770 
Q 2525 4250 2034 4250 
z
M 2034 4750 
Q 2819 4750 3233 4129 
Q 3647 3509 3647 2328 
Q 3647 1150 3233 529 
Q 2819 -91 2034 -91 
Q 1250 -91 836 529 
Q 422 1150 422 2328 
Q 422 3509 836 4129 
Q 1250 4750 2034 4750 
z
" transform="scale(0.015625)"/>
       </defs>
       <use xlink:href="#DejaVuSans-30"/>
      </g>
     </g>
    </g>
    <g id="xtick_2">
     <g id="line2d_2">
      <g>
       <use xlink:href="#m7ca5485374" x="260.303686" y="320.4" style="stroke: #000000; stroke-width: 0.8"/>
      </g>
     </g>
     <g id="text_2">
      <!-- 200 -->
      <g transform="translate(250.759936 334.998438) scale(0.1 -0.1)">
       <defs>
        <path id="DejaVuSans-32" d="M 1228 531 
L 3431 531 
L 3431 0 
L 469 0 
L 469 531 
Q 828 903 1448 1529 
Q 2069 2156 2228 2338 
Q 2531 2678 2651 2914 
Q 2772 3150 2772 3378 
Q 2772 3750 2511 3984 
Q 2250 4219 1831 4219 
Q 1534 4219 1204 4116 
Q 875 4013 500 3803 
L 500 4441 
Q 881 4594 1212 4672 
Q 1544 4750 1819 4750 
Q 2544 4750 2975 4387 
Q 3406 4025 3406 3419 
Q 3406 3131 3298 2873 
Q 3191 2616 2906 2266 
Q 2828 2175 2409 1742 
Q 1991 1309 1228 531 
z
" transform="scale(0.015625)"/>
       </defs>
       <use xlink:href="#DejaVuSans-32"/>
       <use xlink:href="#DejaVuSans-30" transform="translate(63.623047 0)"/>
       <use xlink:href="#DejaVuSans-30" transform="translate(127.246094 0)"/>
      </g>
     </g>
    </g>
    <g id="xtick_3">
     <g id="line2d_3">
      <g>
       <use xlink:href="#m7ca5485374" x="382.171007" y="320.4" style="stroke: #000000; stroke-width: 0.8"/>
      </g>
     </g>
     <g id="text_3">
      <!-- 400 -->
      <g transform="translate(372.627257 334.998438) scale(0.1 -0.1)">
       <defs>
        <path id="DejaVuSans-34" d="M 2419 4116 
L 825 1625 
L 2419 1625 
L 2419 4116 
z
M 2253 4666 
L 3047 4666 
L 3047 1625 
L 3713 1625 
L 3713 1100 
L 3047 1100 
L 3047 0 
L 2419 0 
L 2419 1100 
L 313 1100 
L 313 1709 
L 2253 4666 
z
" transform="scale(0.015625)"/>
       </defs>
       <use xlink:href="#DejaVuSans-34"/>
       <use xlink:href="#DejaVuSans-30" transform="translate(63.623047 0)"/>
       <use xlink:href="#DejaVuSans-30" transform="translate(127.246094 0)"/>
      </g>
     </g>
    </g>
    <g id="xtick_4">
     <g id="line2d_4">
      <g>
       <use xlink:href="#m7ca5485374" x="504.038329" y="320.4" style="stroke: #000000; stroke-width: 0.8"/>
      </g>
     </g>
     <g id="text_4">
      <!-- 600 -->
      <g transform="translate(494.494579 334.998438) scale(0.1 -0.1)">
       <defs>
        <path id="DejaVuSans-36" d="M 2113 2584 
Q 1688 2584 1439 2293 
Q 1191 2003 1191 1497 
Q 1191 994 1439 701 
Q 1688 409 2113 409 
Q 2538 409 2786 701 
Q 3034 994 3034 1497 
Q 3034 2003 2786 2293 
Q 2538 2584 2113 2584 
z
M 3366 4563 
L 3366 3988 
Q 3128 4100 2886 4159 
Q 2644 4219 2406 4219 
Q 1781 4219 1451 3797 
Q 1122 3375 1075 2522 
Q 1259 2794 1537 2939 
Q 1816 3084 2150 3084 
Q 2853 3084 3261 2657 
Q 3669 2231 3669 1497 
Q 3669 778 3244 343 
Q 2819 -91 2113 -91 
Q 1303 -91 875 529 
Q 447 1150 447 2328 
Q 447 3434 972 4092 
Q 1497 4750 2381 4750 
Q 2619 4750 2861 4703 
Q 3103 4656 3366 4563 
z
" transform="scale(0.015625)"/>
       </defs>
       <use xlink:href="#DejaVuSans-36"/>
       <use xlink:href="#DejaVuSans-30" transform="translate(63.623047 0)"/>
       <use xlink:href="#DejaVuSans-30" transform="translate(127.246094 0)"/>
      </g>
     </g>
    </g>
    <g id="xtick_5">
     <g id="line2d_5">
      <g>
       <use xlink:href="#m7ca5485374" x="625.905651" y="320.4" style="stroke: #000000; stroke-width: 0.8"/>
      </g>
     </g>
     <g id="text_5">
      <!-- 800 -->
      <g transform="translate(616.361901 334.998438) scale(0.1 -0.1)">
       <defs>
        <path id="DejaVuSans-38" d="M 2034 2216 
Q 1584 2216 1326 1975 
Q 1069 1734 1069 1313 
Q 1069 891 1326 650 
Q 1584 409 2034 409 
Q 2484 409 2743 651 
Q 3003 894 3003 1313 
Q 3003 1734 2745 1975 
Q 2488 2216 2034 2216 
z
M 1403 2484 
Q 997 2584 770 2862 
Q 544 3141 544 3541 
Q 544 4100 942 4425 
Q 1341 4750 2034 4750 
Q 2731 4750 3128 4425 
Q 3525 4100 3525 3541 
Q 3525 3141 3298 2862 
Q 3072 2584 2669 2484 
Q 3125 2378 3379 2068 
Q 3634 1759 3634 1313 
Q 3634 634 3220 271 
Q 2806 -91 2034 -91 
Q 1263 -91 848 271 
Q 434 634 434 1313 
Q 434 1759 690 2068 
Q 947 2378 1403 2484 
z
M 1172 3481 
Q 1172 3119 1398 2916 
Q 1625 2713 2034 2713 
Q 2441 2713 2670 2916 
Q 2900 3119 2900 3481 
Q 2900 3844 2670 4047 
Q 2441 4250 2034 4250 
Q 1625 4250 1398 4047 
Q 1172 3844 1172 3481 
z
" transform="scale(0.015625)"/>
       </defs>
       <use xlink:href="#DejaVuSans-38"/>
       <use xlink:href="#DejaVuSans-30" transform="translate(63.623047 0)"/>
       <use xlink:href="#DejaVuSans-30" transform="translate(127.246094 0)"/>
      </g>
     </g>
    </g>
    <g id="xtick_6">
     <g id="line2d_6">
      <g>
       <use xlink:href="#m7ca5485374" x="747.772973" y="320.4" style="stroke: #000000; stroke-width: 0.8"/>
      </g>
     </g>
     <g id="text_6">
      <!-- 1000 -->
      <g transform="translate(735.047973 334.998438) scale(0.1 -0.1)">
       <defs>
        <path id="DejaVuSans-31" d="M 794 531 
L 1825 531 
L 1825 4091 
L 703 3866 
L 703 4441 
L 1819 4666 
L 2450 4666 
L 2450 531 
L 3481 531 
L 3481 0 
L 794 0 
L 794 531 
z
" transform="scale(0.015625)"/>
       </defs>
       <use xlink:href="#DejaVuSans-31"/>
       <use xlink:href="#DejaVuSans-30" transform="translate(63.623047 0)"/>
       <use xlink:href="#DejaVuSans-30" transform="translate(127.246094 0)"/>
       <use xlink:href="#DejaVuSans-30" transform="translate(190.869141 0)"/>
      </g>
     </g>
    </g>
    <g id="text_7">
     <!-- Steps -->
     <g transform="translate(428.810156 348.676562) scale(0.1 -0.1)">
      <defs>
       <path id="DejaVuSans-53" d="M 3425 4513 
L 3425 3897 
Q 3066 4069 2747 4153 
Q 2428 4238 2131 4238 
Q 1616 4238 1336 4038 
Q 1056 3838 1056 3469 
Q 1056 3159 1242 3001 
Q 1428 2844 1947 2747 
L 2328 2669 
Q 3034 2534 3370 2195 
Q 3706 1856 3706 1288 
Q 3706 609 3251 259 
Q 2797 -91 1919 -91 
Q 1588 -91 1214 -16 
Q 841 59 441 206 
L 441 856 
Q 825 641 1194 531 
Q 1563 422 1919 422 
Q 2459 422 2753 634 
Q 3047 847 3047 1241 
Q 3047 1584 2836 1778 
Q 2625 1972 2144 2069 
L 1759 2144 
Q 1053 2284 737 2584 
Q 422 2884 422 3419 
Q 422 4038 858 4394 
Q 1294 4750 2059 4750 
Q 2388 4750 2728 4690 
Q 3069 4631 3425 4513 
z
" transform="scale(0.015625)"/>
       <path id="DejaVuSans-74" d="M 1172 4494 
L 1172 3500 
L 2356 3500 
L 2356 3053 
L 1172 3053 
L 1172 1153 
Q 1172 725 1289 603 
Q 1406 481 1766 481 
L 2356 481 
L 2356 0 
L 1766 0 
Q 1100 0 847 248 
Q 594 497 594 1153 
L 594 3053 
L 172 3053 
L 172 3500 
L 594 3500 
L 594 4494 
L 1172 4494 
z
" transform="scale(0.015625)"/>
       <path id="DejaVuSans-65" d="M 3597 1894 
L 3597 1613 
L 953 1613 
Q 991 1019 1311 708 
Q 1631 397 2203 397 
Q 2534 397 2845 478 
Q 3156 559 3463 722 
L 3463 178 
Q 3153 47 2828 -22 
Q 2503 -91 2169 -91 
Q 1331 -91 842 396 
Q 353 884 353 1716 
Q 353 2575 817 3079 
Q 1281 3584 2069 3584 
Q 2775 3584 3186 3129 
Q 3597 2675 3597 1894 
z
M 3022 2063 
Q 3016 2534 2758 2815 
Q 2500 3097 2075 3097 
Q 1594 3097 1305 2825 
Q 1016 2553 972 2059 
L 3022 2063 
z
" transform="scale(0.015625)"/>
       <path id="DejaVuSans-70" d="M 1159 525 
L 1159 -1331 
L 581 -1331 
L 581 3500 
L 1159 3500 
L 1159 2969 
Q 1341 3281 1617 3432 
Q 1894 3584 2278 3584 
Q 2916 3584 3314 3078 
Q 3713 2572 3713 1747 
Q 3713 922 3314 415 
Q 2916 -91 2278 -91 
Q 1894 -91 1617 61 
Q 1341 213 1159 525 
z
M 3116 1747 
Q 3116 2381 2855 2742 
Q 2594 3103 2138 3103 
Q 1681 3103 1420 2742 
Q 1159 2381 1159 1747 
Q 1159 1113 1420 752 
Q 1681 391 2138 391 
Q 2594 391 2855 752 
Q 3116 1113 3116 1747 
z
" transform="scale(0.015625)"/>
       <path id="DejaVuSans-73" d="M 2834 3397 
L 2834 2853 
Q 2591 2978 2328 3040 
Q 2066 3103 1784 3103 
Q 1356 3103 1142 2972 
Q 928 2841 928 2578 
Q 928 2378 1081 2264 
Q 1234 2150 1697 2047 
L 1894 2003 
Q 2506 1872 2764 1633 
Q 3022 1394 3022 966 
Q 3022 478 2636 193 
Q 2250 -91 1575 -91 
Q 1294 -91 989 -36 
Q 684 19 347 128 
L 347 722 
Q 666 556 975 473 
Q 1284 391 1588 391 
Q 1994 391 2212 530 
Q 2431 669 2431 922 
Q 2431 1156 2273 1281 
Q 2116 1406 1581 1522 
L 1381 1569 
Q 847 1681 609 1914 
Q 372 2147 372 2553 
Q 372 3047 722 3315 
Q 1072 3584 1716 3584 
Q 2034 3584 2315 3537 
Q 2597 3491 2834 3397 
z
" transform="scale(0.015625)"/>
      </defs>
      <use xlink:href="#DejaVuSans-53"/>
      <use xlink:href="#DejaVuSans-74" transform="translate(63.476562 0)"/>
      <use xlink:href="#DejaVuSans-65" transform="translate(102.685547 0)"/>
      <use xlink:href="#DejaVuSans-70" transform="translate(164.208984 0)"/>
      <use xlink:href="#DejaVuSans-73" transform="translate(227.685547 0)"/>
     </g>
    </g>
   </g>
   <g id="matplotlib.axis_2">
    <g id="ytick_1">
     <g id="line2d_7">
      <defs>
       <path id="md70b2fadb8" d="M 0 0 
L -3.5 0 
" style="stroke: #000000; stroke-width: 0.8"/>
      </defs>
      <g>
       <use xlink:href="#md70b2fadb8" x="108" y="276.355621" style="stroke: #000000; stroke-width: 0.8"/>
      </g>
     </g>
     <g id="text_8">
      <!-- 0.2 -->
      <g transform="translate(85.096875 280.15484) scale(0.1 -0.1)">
       <defs>
        <path id="DejaVuSans-2e" d="M 684 794 
L 1344 794 
L 1344 0 
L 684 0 
L 684 794 
z
" transform="scale(0.015625)"/>
       </defs>
       <use xlink:href="#DejaVuSans-30"/>
       <use xlink:href="#DejaVuSans-2e" transform="translate(63.623047 0)"/>
       <use xlink:href="#DejaVuSans-32" transform="translate(95.410156 0)"/>
      </g>
     </g>
    </g>
    <g id="ytick_2">
     <g id="line2d_8">
      <g>
       <use xlink:href="#md70b2fadb8" x="108" y="217.026604" style="stroke: #000000; stroke-width: 0.8"/>
      </g>
     </g>
     <g id="text_9">
      <!-- 0.4 -->
      <g transform="translate(85.096875 220.825823) scale(0.1 -0.1)">
       <use xlink:href="#DejaVuSans-30"/>
       <use xlink:href="#DejaVuSans-2e" transform="translate(63.623047 0)"/>
       <use xlink:href="#DejaVuSans-34" transform="translate(95.410156 0)"/>
      </g>
     </g>
    </g>
    <g id="ytick_3">
     <g id="line2d_9">
      <g>
       <use xlink:href="#md70b2fadb8" x="108" y="157.697587" style="stroke: #000000; stroke-width: 0.8"/>
      </g>
     </g>
     <g id="text_10">
      <!-- 0.6 -->
      <g transform="translate(85.096875 161.496806) scale(0.1 -0.1)">
       <use xlink:href="#DejaVuSans-30"/>
       <use xlink:href="#DejaVuSans-2e" transform="translate(63.623047 0)"/>
       <use xlink:href="#DejaVuSans-36" transform="translate(95.410156 0)"/>
      </g>
     </g>
    </g>
    <g id="ytick_4">
     <g id="line2d_10">
      <g>
       <use xlink:href="#md70b2fadb8" x="108" y="98.36857" style="stroke: #000000; stroke-width: 0.8"/>
      </g>
     </g>
     <g id="text_11">
      <!-- 0.8 -->
      <g transform="translate(85.096875 102.167788) scale(0.1 -0.1)">
       <use xlink:href="#DejaVuSans-30"/>
       <use xlink:href="#DejaVuSans-2e" transform="translate(63.623047 0)"/>
       <use xlink:href="#DejaVuSans-38" transform="translate(95.410156 0)"/>
      </g>
     </g>
    </g>
    <g id="text_12">
     <!-- % Optimal Action -->
     <g transform="translate(79.017187 225.171094) rotate(-90) scale(0.1 -0.1)">
      <defs>
       <path id="DejaVuSans-25" d="M 4653 2053 
Q 4381 2053 4226 1822 
Q 4072 1591 4072 1178 
Q 4072 772 4226 539 
Q 4381 306 4653 306 
Q 4919 306 5073 539 
Q 5228 772 5228 1178 
Q 5228 1588 5073 1820 
Q 4919 2053 4653 2053 
z
M 4653 2450 
Q 5147 2450 5437 2106 
Q 5728 1763 5728 1178 
Q 5728 594 5436 251 
Q 5144 -91 4653 -91 
Q 4153 -91 3862 251 
Q 3572 594 3572 1178 
Q 3572 1766 3864 2108 
Q 4156 2450 4653 2450 
z
M 1428 4353 
Q 1159 4353 1004 4120 
Q 850 3888 850 3481 
Q 850 3069 1003 2837 
Q 1156 2606 1428 2606 
Q 1700 2606 1854 2837 
Q 2009 3069 2009 3481 
Q 2009 3884 1853 4118 
Q 1697 4353 1428 4353 
z
M 4250 4750 
L 4750 4750 
L 1831 -91 
L 1331 -91 
L 4250 4750 
z
M 1428 4750 
Q 1922 4750 2215 4408 
Q 2509 4066 2509 3481 
Q 2509 2891 2217 2550 
Q 1925 2209 1428 2209 
Q 931 2209 642 2551 
Q 353 2894 353 3481 
Q 353 4063 643 4406 
Q 934 4750 1428 4750 
z
" transform="scale(0.015625)"/>
       <path id="DejaVuSans-20" transform="scale(0.015625)"/>
       <path id="DejaVuSans-4f" d="M 2522 4238 
Q 1834 4238 1429 3725 
Q 1025 3213 1025 2328 
Q 1025 1447 1429 934 
Q 1834 422 2522 422 
Q 3209 422 3611 934 
Q 4013 1447 4013 2328 
Q 4013 3213 3611 3725 
Q 3209 4238 2522 4238 
z
M 2522 4750 
Q 3503 4750 4090 4092 
Q 4678 3434 4678 2328 
Q 4678 1225 4090 567 
Q 3503 -91 2522 -91 
Q 1538 -91 948 565 
Q 359 1222 359 2328 
Q 359 3434 948 4092 
Q 1538 4750 2522 4750 
z
" transform="scale(0.015625)"/>
       <path id="DejaVuSans-69" d="M 603 3500 
L 1178 3500 
L 1178 0 
L 603 0 
L 603 3500 
z
M 603 4863 
L 1178 4863 
L 1178 4134 
L 603 4134 
L 603 4863 
z
" transform="scale(0.015625)"/>
       <path id="DejaVuSans-6d" d="M 3328 2828 
Q 3544 3216 3844 3400 
Q 4144 3584 4550 3584 
Q 5097 3584 5394 3201 
Q 5691 2819 5691 2113 
L 5691 0 
L 5113 0 
L 5113 2094 
Q 5113 2597 4934 2840 
Q 4756 3084 4391 3084 
Q 3944 3084 3684 2787 
Q 3425 2491 3425 1978 
L 3425 0 
L 2847 0 
L 2847 2094 
Q 2847 2600 2669 2842 
Q 2491 3084 2119 3084 
Q 1678 3084 1418 2786 
Q 1159 2488 1159 1978 
L 1159 0 
L 581 0 
L 581 3500 
L 1159 3500 
L 1159 2956 
Q 1356 3278 1631 3431 
Q 1906 3584 2284 3584 
Q 2666 3584 2933 3390 
Q 3200 3197 3328 2828 
z
" transform="scale(0.015625)"/>
       <path id="DejaVuSans-61" d="M 2194 1759 
Q 1497 1759 1228 1600 
Q 959 1441 959 1056 
Q 959 750 1161 570 
Q 1363 391 1709 391 
Q 2188 391 2477 730 
Q 2766 1069 2766 1631 
L 2766 1759 
L 2194 1759 
z
M 3341 1997 
L 3341 0 
L 2766 0 
L 2766 531 
Q 2569 213 2275 61 
Q 1981 -91 1556 -91 
Q 1019 -91 701 211 
Q 384 513 384 1019 
Q 384 1609 779 1909 
Q 1175 2209 1959 2209 
L 2766 2209 
L 2766 2266 
Q 2766 2663 2505 2880 
Q 2244 3097 1772 3097 
Q 1472 3097 1187 3025 
Q 903 2953 641 2809 
L 641 3341 
Q 956 3463 1253 3523 
Q 1550 3584 1831 3584 
Q 2591 3584 2966 3190 
Q 3341 2797 3341 1997 
z
" transform="scale(0.015625)"/>
       <path id="DejaVuSans-6c" d="M 603 4863 
L 1178 4863 
L 1178 0 
L 603 0 
L 603 4863 
z
" transform="scale(0.015625)"/>
       <path id="DejaVuSans-41" d="M 2188 4044 
L 1331 1722 
L 3047 1722 
L 2188 4044 
z
M 1831 4666 
L 2547 4666 
L 4325 0 
L 3669 0 
L 3244 1197 
L 1141 1197 
L 716 0 
L 50 0 
L 1831 4666 
z
" transform="scale(0.015625)"/>
       <path id="DejaVuSans-63" d="M 3122 3366 
L 3122 2828 
Q 2878 2963 2633 3030 
Q 2388 3097 2138 3097 
Q 1578 3097 1268 2742 
Q 959 2388 959 1747 
Q 959 1106 1268 751 
Q 1578 397 2138 397 
Q 2388 397 2633 464 
Q 2878 531 3122 666 
L 3122 134 
Q 2881 22 2623 -34 
Q 2366 -91 2075 -91 
Q 1284 -91 818 406 
Q 353 903 353 1747 
Q 353 2603 823 3093 
Q 1294 3584 2113 3584 
Q 2378 3584 2631 3529 
Q 2884 3475 3122 3366 
z
" transform="scale(0.015625)"/>
       <path id="DejaVuSans-6f" d="M 1959 3097 
Q 1497 3097 1228 2736 
Q 959 2375 959 1747 
Q 959 1119 1226 758 
Q 1494 397 1959 397 
Q 2419 397 2687 759 
Q 2956 1122 2956 1747 
Q 2956 2369 2687 2733 
Q 2419 3097 1959 3097 
z
M 1959 3584 
Q 2709 3584 3137 3096 
Q 3566 2609 3566 1747 
Q 3566 888 3137 398 
Q 2709 -91 1959 -91 
Q 1206 -91 779 398 
Q 353 888 353 1747 
Q 353 2609 779 3096 
Q 1206 3584 1959 3584 
z
" transform="scale(0.015625)"/>
       <path id="DejaVuSans-6e" d="M 3513 2113 
L 3513 0 
L 2938 0 
L 2938 2094 
Q 2938 2591 2744 2837 
Q 2550 3084 2163 3084 
Q 1697 3084 1428 2787 
Q 1159 2491 1159 1978 
L 1159 0 
L 581 0 
L 581 3500 
L 1159 3500 
L 1159 2956 
Q 1366 3272 1645 3428 
Q 1925 3584 2291 3584 
Q 2894 3584 3203 3211 
Q 3513 2838 3513 2113 
z
" transform="scale(0.015625)"/>
      </defs>
      <use xlink:href="#DejaVuSans-25"/>
      <use xlink:href="#DejaVuSans-20" transform="translate(95.019531 0)"/>
      <use xlink:href="#DejaVuSans-4f" transform="translate(126.806641 0)"/>
      <use xlink:href="#DejaVuSans-70" transform="translate(205.517578 0)"/>
      <use xlink:href="#DejaVuSans-74" transform="translate(268.994141 0)"/>
      <use xlink:href="#DejaVuSans-69" transform="translate(308.203125 0)"/>
      <use xlink:href="#DejaVuSans-6d" transform="translate(335.986328 0)"/>
      <use xlink:href="#DejaVuSans-61" transform="translate(433.398438 0)"/>
      <use xlink:href="#DejaVuSans-6c" transform="translate(494.677734 0)"/>
      <use xlink:href="#DejaVuSans-20" transform="translate(522.460938 0)"/>
      <use xlink:href="#DejaVuSans-41" transform="translate(554.248047 0)"/>
      <use xlink:href="#DejaVuSans-63" transform="translate(620.90625 0)"/>
      <use xlink:href="#DejaVuSans-74" transform="translate(675.886719 0)"/>
      <use xlink:href="#DejaVuSans-69" transform="translate(715.095703 0)"/>
      <use xlink:href="#DejaVuSans-6f" transform="translate(742.878906 0)"/>
      <use xlink:href="#DejaVuSans-6e" transform="translate(804.060547 0)"/>
     </g>
    </g>
   </g>
   <g id="line2d_11">
    <path d="M 138.436364 306.168452 
L 139.0457 292.967746 
L 139.655037 283.623426 
L 140.264373 279.322072 
L 142.092383 260.930077 
L 142.70172 259.891819 
L 143.311057 254.997175 
L 143.920393 254.552207 
L 144.52973 250.695821 
L 145.139066 249.805886 
L 145.748403 244.911242 
L 146.967076 241.499823 
L 147.576413 238.236727 
L 148.185749 237.19847 
L 148.795086 238.97834 
L 149.404423 234.232019 
L 150.013759 235.863567 
L 151.232432 232.155503 
L 151.841769 229.337375 
L 152.451106 231.265568 
L 153.669779 226.815892 
L 154.279115 222.959506 
L 154.888452 224.591054 
L 155.497789 223.404473 
L 156.716462 219.548087 
L 157.325799 219.399765 
L 157.935135 218.806474 
L 158.544472 217.916539 
L 159.153808 217.768217 
L 159.763145 213.763508 
L 160.372482 214.356798 
L 160.981818 216.284991 
L 161.591155 213.615185 
L 162.200491 212.280283 
L 162.809828 213.31854 
L 163.419165 211.093702 
L 164.028501 210.352089 
L 164.637838 210.648735 
L 165.247174 210.055444 
L 165.856511 210.352089 
L 167.075184 207.533961 
L 167.684521 209.610477 
L 168.293857 207.385639 
L 168.903194 206.940671 
L 169.512531 209.758799 
L 170.121867 201.897705 
L 170.731204 203.232607 
L 171.340541 202.046027 
L 171.949877 201.452737 
L 172.559214 202.490995 
L 173.16855 203.232607 
L 173.777887 200.562802 
L 174.387224 200.859447 
L 174.99656 198.931254 
L 175.605897 196.261448 
L 176.215233 196.558093 
L 176.82457 197.151383 
L 177.433907 195.074868 
L 178.043243 195.964803 
L 178.65258 194.481577 
L 179.871253 196.40977 
L 180.48059 195.519835 
L 181.089926 192.701707 
L 181.699263 191.366804 
L 182.3086 193.294997 
L 182.917936 192.701707 
L 183.527273 189.883579 
L 184.136609 189.586933 
L 184.745946 187.06545 
L 185.355283 188.548676 
L 185.964619 188.103708 
L 186.573956 188.252031 
L 187.183292 188.103708 
L 187.792629 187.06545 
L 188.401966 187.955386 
L 189.011302 187.807063 
L 189.620639 183.505709 
L 190.229975 184.988935 
L 190.839312 184.543967 
L 191.448649 183.802354 
L 192.057985 186.768805 
L 192.667322 183.505709 
L 193.276658 184.395644 
L 193.885995 183.950677 
L 194.495332 182.764097 
L 195.104668 186.47216 
L 195.714005 181.577516 
L 196.323342 179.797646 
L 196.932678 181.280871 
L 197.542015 179.204356 
L 198.151351 183.209064 
L 199.979361 176.682872 
L 200.588698 177.72113 
L 201.198034 173.716421 
L 201.807371 175.792937 
L 202.416708 172.529841 
L 203.026044 177.276162 
L 203.635381 177.572808 
L 204.244717 174.309712 
L 204.854054 172.381519 
L 205.463391 174.161389 
L 206.072727 173.864744 
L 206.682064 170.008358 
L 207.2914 173.123131 
L 207.900737 174.606357 
L 208.510074 174.013067 
L 209.11941 172.529841 
L 209.728747 169.56339 
L 210.338084 168.673455 
L 210.94742 169.860035 
L 211.556757 171.343261 
L 212.166093 171.936551 
L 212.77543 168.821778 
L 213.994103 171.343261 
L 214.60344 172.084873 
L 215.212776 167.486875 
L 215.822113 170.453325 
L 216.43145 168.228487 
L 217.650123 161.998941 
L 218.259459 164.817069 
L 218.868796 164.965391 
L 219.478133 166.893584 
L 220.087469 161.998941 
L 220.696806 163.927134 
L 221.306143 163.333843 
L 221.915479 161.257328 
L 222.524816 163.482166 
L 223.134152 161.109005 
L 223.743489 163.482166 
L 224.352826 161.998941 
L 224.962162 161.40565 
L 225.571499 161.702295 
L 226.180835 159.477457 
L 226.790172 158.142554 
L 227.399509 159.329135 
L 228.008845 162.888876 
L 228.618182 160.515715 
L 229.227518 159.180812 
L 229.836855 158.290877 
L 230.446192 156.066039 
L 231.055528 158.735845 
L 231.664865 157.697587 
L 232.274201 153.099588 
L 233.492875 157.104297 
L 234.102211 153.841201 
L 234.711548 151.616363 
L 235.930221 155.769394 
L 236.539558 155.176104 
L 237.148894 158.290877 
L 238.367568 151.46804 
L 238.976904 153.099588 
L 239.586241 151.319717 
L 240.195577 151.616363 
L 240.804914 150.726427 
L 241.414251 153.692878 
L 242.023587 151.171395 
L 243.24226 155.917716 
L 243.851597 149.984815 
L 244.460934 151.171395 
L 245.07027 151.319717 
L 245.679607 149.539847 
L 246.288943 148.353267 
L 246.89828 146.870041 
L 247.507617 147.463331 
L 248.116953 145.683461 
L 248.72629 147.611654 
L 249.335627 148.501589 
L 249.944963 147.908299 
L 250.5543 149.68817 
L 251.163636 144.941848 
L 251.772973 146.870041 
L 253.600983 141.678752 
L 254.210319 145.238493 
L 254.819656 143.161978 
L 255.428993 142.568687 
L 256.038329 142.420365 
L 256.647666 141.53043 
L 257.257002 145.831783 
L 257.866339 139.898882 
L 258.475676 143.161978 
L 259.085012 145.683461 
L 259.694349 141.975397 
L 260.303686 143.013655 
L 260.913022 141.085462 
L 261.522359 140.343849 
L 262.741032 142.420365 
L 263.350369 141.53043 
L 263.959705 141.827075 
L 264.569042 140.788817 
L 265.178378 137.525721 
L 265.787715 140.047204 
L 266.397052 139.157269 
L 267.006388 138.712301 
L 267.615725 139.008946 
L 268.225061 137.822366 
L 268.834398 138.860624 
L 269.443735 138.119011 
L 270.053071 139.157269 
L 270.662408 141.382107 
L 271.271744 141.382107 
L 272.490418 138.415656 
L 273.099754 137.674044 
L 274.318428 141.678752 
L 274.927764 137.080753 
L 275.537101 140.047204 
L 276.146437 138.415656 
L 276.755774 140.195527 
L 277.365111 139.008946 
L 277.974447 136.932431 
L 278.583784 137.674044 
L 279.19312 136.487463 
L 279.802457 140.343849 
L 280.411794 141.678752 
L 281.630467 135.300883 
L 282.239803 138.119011 
L 282.84914 134.707593 
L 283.458477 139.305592 
L 284.067813 137.970689 
L 284.67715 137.674044 
L 285.286486 135.745851 
L 285.895823 135.300883 
L 286.50516 135.004238 
L 287.114496 137.822366 
L 287.723833 136.190818 
L 288.33317 133.076045 
L 288.942506 135.15256 
L 289.551843 136.635786 
L 290.161179 133.817657 
L 290.770516 135.449205 
L 291.379853 134.855915 
L 291.989189 132.334432 
L 292.598526 134.707593 
L 293.817199 136.487463 
L 295.035872 129.664626 
L 295.645209 134.262625 
L 296.254545 131.592819 
L 296.863882 133.817657 
L 297.473219 134.114303 
L 298.082555 134.114303 
L 298.691892 130.406239 
L 299.301229 132.631077 
L 299.910565 136.487463 
L 301.129238 130.702884 
L 301.738575 130.851207 
L 302.347912 133.37269 
L 303.566585 131.444497 
L 304.175921 129.961271 
L 304.785258 131.147852 
L 305.394595 128.923014 
L 306.003931 130.554562 
L 306.613268 132.7794 
L 307.222604 131.296174 
L 307.831941 131.296174 
L 308.441278 128.181401 
L 309.050614 130.851207 
L 309.659951 128.478046 
L 310.269287 133.521012 
L 310.878624 130.257916 
L 311.487961 129.812949 
L 312.097297 130.406239 
L 312.706634 130.554562 
L 313.315971 130.257916 
L 313.925307 126.99482 
L 314.534644 127.588111 
L 315.14398 127.143143 
L 315.753317 127.588111 
L 316.362654 130.109594 
L 316.97199 129.961271 
L 317.581327 132.631077 
L 318.190663 126.99482 
L 318.8 125.21495 
L 319.409337 128.478046 
L 320.018673 126.549853 
L 320.62801 129.516304 
L 321.237346 123.583402 
L 321.846683 130.109594 
L 322.45602 125.363273 
L 323.065356 129.812949 
L 324.284029 126.104885 
L 324.893366 128.329723 
L 325.502703 125.21495 
L 326.112039 125.21495 
L 326.721376 130.257916 
L 327.330713 130.999529 
L 327.940049 127.439788 
L 328.549386 130.109594 
L 329.158722 125.066627 
L 329.768059 126.698175 
L 330.377396 125.363273 
L 330.986732 126.549853 
L 331.596069 123.731725 
L 332.814742 127.143143 
L 333.424079 126.846498 
L 334.033415 122.693467 
L 334.642752 125.363273 
L 335.252088 126.549853 
L 335.861425 123.731725 
L 336.470762 125.363273 
L 337.080098 125.066627 
L 337.689435 122.545144 
L 338.298771 122.990112 
L 338.908108 125.066627 
L 339.517445 122.396822 
L 340.126781 124.02837 
L 340.736118 124.62166 
L 341.345455 125.511595 
L 341.954791 123.583402 
L 342.564128 122.545144 
L 343.173464 125.21495 
L 343.782801 124.918305 
L 344.392138 122.693467 
L 345.001474 124.473337 
L 345.610811 121.061919 
L 346.220147 124.325015 
L 346.829484 124.02837 
L 347.438821 123.583402 
L 348.048157 121.061919 
L 348.657494 123.435079 
L 349.26683 120.765274 
L 349.876167 120.320306 
L 350.485504 121.655209 
L 351.09484 120.023661 
L 351.704177 119.578693 
L 352.313514 120.765274 
L 352.92285 124.473337 
L 353.532187 123.880047 
L 354.141523 118.540436 
L 354.75086 122.693467 
L 355.360197 119.430371 
L 355.969533 124.325015 
L 356.57887 120.913596 
L 357.188206 121.803531 
L 357.797543 118.688758 
L 358.40688 123.880047 
L 359.016216 123.286757 
L 360.234889 122.693467 
L 360.844226 120.468629 
L 361.453563 121.506886 
L 362.062899 118.392113 
L 362.672236 124.918305 
L 363.281572 121.506886 
L 363.890909 120.616951 
L 364.500246 121.655209 
L 365.109582 119.875338 
L 365.718919 120.023661 
L 366.328256 122.841789 
L 366.937592 121.061919 
L 367.546929 120.023661 
L 368.156265 121.803531 
L 368.765602 122.100177 
L 369.374939 119.875338 
L 369.984275 121.506886 
L 370.593612 121.803531 
L 371.202948 123.880047 
L 371.812285 119.430371 
L 372.421622 121.655209 
L 373.030958 121.061919 
L 373.640295 121.358564 
L 374.249631 118.688758 
L 374.858968 120.023661 
L 375.468305 118.392113 
L 376.077641 119.875338 
L 377.296314 121.506886 
L 377.905651 119.875338 
L 378.514988 115.722307 
L 379.124324 119.133726 
L 379.733661 116.167275 
L 380.342998 117.6505 
L 380.952334 116.760565 
L 381.561671 116.46392 
L 382.171007 117.947145 
L 382.780344 118.24379 
L 383.389681 118.688758 
L 383.999017 115.27734 
L 384.608354 117.353855 
L 385.21769 115.573985 
L 385.827027 116.46392 
L 386.436364 117.947145 
L 387.0457 113.794114 
L 387.655037 116.908888 
L 388.264373 118.985403 
L 388.87371 113.200824 
L 390.092383 120.765274 
L 390.70172 116.167275 
L 391.311057 118.392113 
L 391.920393 116.908888 
L 392.52973 117.05721 
L 393.139066 118.688758 
L 393.748403 115.129017 
L 394.35774 112.904179 
L 394.967076 115.87063 
L 395.576413 117.502178 
L 396.185749 115.425662 
L 396.795086 114.980695 
L 397.404423 113.794114 
L 398.013759 116.167275 
L 398.623096 117.798823 
L 399.232432 113.497469 
L 400.451106 115.425662 
L 401.060442 117.502178 
L 401.669779 117.6505 
L 402.279115 114.387404 
L 402.888452 114.239082 
L 403.497789 113.794114 
L 404.107125 112.755856 
L 404.716462 114.832372 
L 405.325799 113.794114 
L 405.935135 113.200824 
L 406.544472 112.904179 
L 407.153808 115.425662 
L 407.763145 114.387404 
L 408.372482 113.794114 
L 408.981818 110.679341 
L 409.591155 114.387404 
L 410.200491 117.05721 
L 410.809828 113.794114 
L 411.419165 112.607534 
L 412.028501 115.129017 
L 412.637838 114.980695 
L 413.247174 113.794114 
L 413.856511 111.717599 
L 414.465848 114.239082 
L 415.075184 116.167275 
L 415.684521 115.87063 
L 416.293857 111.717599 
L 416.903194 111.420954 
L 417.512531 113.052501 
L 418.121867 115.87063 
L 418.731204 117.05721 
L 419.340541 114.684049 
L 419.949877 114.387404 
L 420.559214 112.310889 
L 421.777887 109.196115 
L 422.387224 114.684049 
L 422.99656 111.124308 
L 423.605897 112.607534 
L 424.215233 116.612242 
L 424.82457 116.908888 
L 425.433907 113.942437 
L 426.65258 112.607534 
L 427.261916 111.272631 
L 427.871253 112.607534 
L 428.48059 112.310889 
L 429.089926 112.755856 
L 429.699263 112.755856 
L 430.3086 113.645792 
L 430.917936 113.645792 
L 431.527273 113.052501 
L 432.136609 111.865921 
L 432.745946 113.497469 
L 433.355283 113.942437 
L 433.964619 112.014244 
L 434.573956 115.27734 
L 435.792629 110.827663 
L 436.401966 113.645792 
L 437.011302 112.162566 
L 437.620639 115.87063 
L 438.229975 109.937728 
L 438.839312 109.789406 
L 439.448649 108.751148 
L 440.057985 110.679341 
L 440.667322 111.272631 
L 441.276658 108.89947 
L 441.885995 114.090759 
L 442.495332 113.497469 
L 443.104668 109.937728 
L 443.714005 113.349147 
L 444.323342 111.717599 
L 444.932678 113.645792 
L 445.542015 110.234373 
L 446.760688 114.239082 
L 447.370025 109.49276 
L 447.979361 111.272631 
L 448.588698 111.420954 
L 449.198034 109.937728 
L 449.807371 113.942437 
L 450.416708 112.607534 
L 451.026044 108.89947 
L 451.635381 111.717599 
L 452.244717 111.717599 
L 452.854054 108.751148 
L 453.463391 107.861212 
L 454.072727 113.645792 
L 454.682064 108.89947 
L 455.2914 110.679341 
L 455.900737 111.420954 
L 456.510074 107.71289 
L 457.728747 112.310889 
L 458.338084 109.49276 
L 458.94742 108.30618 
L 459.556757 106.822955 
L 460.166093 108.602825 
L 460.77543 110.827663 
L 461.384767 110.975986 
L 461.994103 108.454503 
L 462.60344 111.569276 
L 463.212776 113.794114 
L 463.822113 110.827663 
L 464.43145 110.086051 
L 465.040786 111.420954 
L 465.650123 108.751148 
L 466.868796 110.086051 
L 467.478133 107.861212 
L 468.087469 109.196115 
L 468.696806 109.937728 
L 469.306143 108.157858 
L 469.915479 111.124308 
L 470.524816 108.009535 
L 471.134152 106.229665 
L 471.743489 105.933019 
L 472.352826 106.674632 
L 472.962162 108.602825 
L 473.571499 107.71289 
L 474.180835 111.124308 
L 474.790172 108.30618 
L 475.399509 109.047793 
L 476.008845 111.272631 
L 476.618182 108.89947 
L 477.227518 110.382696 
L 477.836855 109.641083 
L 478.446192 107.416245 
L 479.055528 108.751148 
L 479.664865 107.71289 
L 480.274201 108.751148 
L 480.883538 109.49276 
L 481.492875 106.229665 
L 482.102211 107.71289 
L 482.711548 104.746439 
L 483.320885 109.344438 
L 484.539558 107.267922 
L 485.758231 109.49276 
L 486.367568 113.052501 
L 486.976904 108.751148 
L 487.586241 109.196115 
L 488.804914 111.124308 
L 489.414251 108.454503 
L 490.023587 110.827663 
L 490.632924 105.784697 
L 491.24226 106.674632 
L 491.851597 109.937728 
L 492.460934 109.937728 
L 493.07027 108.157858 
L 493.679607 107.416245 
L 494.288943 105.339729 
L 494.89828 109.49276 
L 495.507617 110.975986 
L 496.116953 105.488052 
L 496.72629 107.71289 
L 497.335627 108.602825 
L 497.944963 106.822955 
L 498.5543 109.641083 
L 499.163636 111.420954 
L 499.772973 106.822955 
L 500.991646 110.234373 
L 501.600983 109.789406 
L 502.210319 105.636374 
L 502.819656 105.933019 
L 503.428993 106.674632 
L 504.038329 104.746439 
L 504.647666 106.52631 
L 505.257002 106.971277 
L 505.866339 106.081342 
L 506.475676 107.267922 
L 507.085012 106.971277 
L 507.694349 107.71289 
L 508.303686 105.339729 
L 508.913022 106.377987 
L 509.522359 106.52631 
L 510.131695 105.933019 
L 510.741032 106.971277 
L 511.350369 107.416245 
L 511.959705 104.301471 
L 512.569042 104.894762 
L 513.178378 107.861212 
L 513.787715 107.1196 
L 514.397052 105.043084 
L 515.006388 106.674632 
L 515.615725 105.339729 
L 516.225061 107.861212 
L 516.834398 106.377987 
L 517.443735 108.602825 
L 518.053071 105.339729 
L 518.662408 109.641083 
L 519.271744 106.229665 
L 519.881081 105.784697 
L 520.490418 108.009535 
L 521.099754 107.267922 
L 521.709091 105.191407 
L 522.318428 106.674632 
L 522.927764 107.861212 
L 523.537101 105.191407 
L 524.146437 109.937728 
L 524.755774 107.1196 
L 525.365111 105.339729 
L 525.974447 104.894762 
L 526.583784 105.784697 
L 527.19312 104.598117 
L 527.802457 101.483343 
L 528.411794 103.411536 
L 529.02113 107.564567 
L 529.630467 104.746439 
L 530.239803 106.822955 
L 530.84914 105.339729 
L 531.458477 106.52631 
L 532.067813 107.1196 
L 532.67715 106.52631 
L 533.286486 103.263214 
L 533.895823 105.488052 
L 534.50516 103.559859 
L 535.114496 100.593408 
L 535.723833 106.52631 
L 536.33317 102.669923 
L 536.942506 105.636374 
L 537.551843 106.822955 
L 538.161179 106.229665 
L 538.770516 107.267922 
L 539.379853 104.746439 
L 539.989189 101.631666 
L 540.598526 105.043084 
L 541.207862 101.186698 
L 541.817199 106.377987 
L 542.426536 104.449794 
L 543.035872 102.076633 
L 543.645209 105.043084 
L 544.254545 101.779988 
L 544.863882 106.971277 
L 545.473219 104.153149 
L 546.082555 104.153149 
L 546.691892 103.114891 
L 547.301229 105.636374 
L 547.910565 105.043084 
L 548.519902 105.339729 
L 549.129238 102.669923 
L 549.738575 103.559859 
L 550.347912 105.191407 
L 550.957248 103.114891 
L 551.566585 105.933019 
L 552.785258 98.665215 
L 553.394595 102.669923 
L 554.003931 103.559859 
L 554.613268 103.263214 
L 555.222604 104.449794 
L 555.831941 103.708181 
L 556.441278 105.488052 
L 557.050614 105.784697 
L 557.659951 102.669923 
L 558.269287 101.186698 
L 558.878624 104.153149 
L 559.487961 102.669923 
L 560.097297 101.483343 
L 560.706634 102.818246 
L 561.315971 101.483343 
L 561.925307 101.928311 
L 562.534644 101.928311 
L 563.14398 105.933019 
L 563.753317 105.784697 
L 564.362654 102.224956 
L 564.97199 103.856504 
L 565.581327 102.669923 
L 566.190663 103.411536 
L 566.8 103.114891 
L 567.409337 105.191407 
L 568.018673 99.406828 
L 568.62801 103.411536 
L 569.237346 101.335021 
L 569.846683 101.483343 
L 570.45602 102.818246 
L 571.065356 104.598117 
L 571.674693 102.224956 
L 572.284029 103.411536 
L 572.893366 105.784697 
L 573.502703 105.339729 
L 574.112039 102.076633 
L 574.721376 103.114891 
L 575.330713 101.928311 
L 575.940049 101.483343 
L 576.549386 101.928311 
L 577.158722 103.411536 
L 577.768059 103.114891 
L 578.377396 104.301471 
L 578.986732 100.296763 
L 579.596069 102.521601 
L 580.205405 101.483343 
L 580.814742 105.191407 
L 581.424079 102.373278 
L 582.033415 103.856504 
L 582.642752 101.038376 
L 583.252088 104.746439 
L 583.861425 103.263214 
L 584.470762 102.076633 
L 585.080098 102.076633 
L 586.298771 102.373278 
L 586.908108 104.301471 
L 587.517445 103.114891 
L 588.126781 100.890053 
L 588.736118 99.703473 
L 589.345455 100.74173 
L 589.954791 104.598117 
L 590.564128 100.445085 
L 591.173464 100.593408 
L 591.782801 99.851795 
L 592.392138 105.043084 
L 593.001474 101.038376 
L 593.610811 99.851795 
L 594.220147 100.890053 
L 594.829484 102.373278 
L 595.438821 102.373278 
L 596.048157 100.890053 
L 596.657494 102.373278 
L 597.26683 103.263214 
L 597.876167 101.928311 
L 598.485504 98.665215 
L 599.09484 99.851795 
L 599.704177 99.851795 
L 600.313514 101.186698 
L 600.92285 98.220247 
L 601.532187 103.263214 
L 602.141523 98.813537 
L 602.75086 102.373278 
L 603.360197 101.928311 
L 603.969533 104.301471 
L 605.188206 99.55515 
L 606.40688 100.445085 
L 607.016216 98.813537 
L 607.625553 101.779988 
L 608.234889 101.335021 
L 608.844226 101.779988 
L 609.453563 101.779988 
L 610.062899 100.890053 
L 610.672236 104.449794 
L 611.281572 100.445085 
L 611.890909 100.593408 
L 612.500246 96.737022 
L 613.109582 102.521601 
L 613.718919 99.406828 
L 614.328256 100.000118 
L 614.937592 100.000118 
L 615.546929 98.813537 
L 616.156265 98.220247 
L 617.374939 99.851795 
L 617.984275 100.74173 
L 618.593612 100.74173 
L 619.202948 99.406828 
L 619.812285 99.406828 
L 620.421622 100.890053 
L 621.030958 98.516892 
L 621.640295 101.779988 
L 622.249631 98.813537 
L 622.858968 98.96186 
L 623.468305 101.779988 
L 624.077641 102.966569 
L 624.686978 100.593408 
L 625.296314 102.373278 
L 625.905651 101.631666 
L 626.514988 100.445085 
L 627.733661 105.339729 
L 628.342998 98.96186 
L 628.952334 98.071925 
L 629.561671 96.885344 
L 630.171007 99.55515 
L 630.780344 98.96186 
L 631.389681 98.96186 
L 631.999017 99.110182 
L 632.608354 100.000118 
L 633.21769 98.813537 
L 633.827027 97.923602 
L 634.436364 102.966569 
L 635.0457 98.96186 
L 635.655037 99.851795 
L 636.264373 101.928311 
L 636.87371 101.631666 
L 637.483047 98.071925 
L 638.092383 101.483343 
L 638.70172 98.813537 
L 639.311057 98.071925 
L 639.920393 103.856504 
L 640.52973 97.626957 
L 641.139066 96.885344 
L 642.35774 101.335021 
L 642.967076 101.631666 
L 643.576413 100.593408 
L 644.185749 96.885344 
L 644.795086 102.373278 
L 645.404423 101.779988 
L 646.013759 100.74173 
L 646.623096 101.038376 
L 647.232432 98.516892 
L 647.841769 100.593408 
L 648.451106 101.335021 
L 649.060442 99.110182 
L 649.669779 101.928311 
L 650.279115 102.521601 
L 650.888452 101.928311 
L 651.497789 99.406828 
L 652.107125 98.516892 
L 652.716462 104.449794 
L 653.935135 98.96186 
L 654.544472 101.483343 
L 655.153808 100.000118 
L 655.763145 97.478634 
L 656.372482 103.559859 
L 656.981818 99.851795 
L 657.591155 98.96186 
L 658.200491 100.14844 
L 659.419165 101.928311 
L 660.028501 97.626957 
L 660.637838 97.330312 
L 661.247174 99.703473 
L 661.856511 99.406828 
L 662.465848 99.703473 
L 663.075184 101.335021 
L 663.684521 100.445085 
L 664.293857 101.335021 
L 664.903194 104.004826 
L 665.512531 93.622248 
L 666.731204 101.038376 
L 667.340541 96.737022 
L 667.949877 100.445085 
L 668.559214 98.516892 
L 669.16855 99.406828 
L 669.777887 98.813537 
L 670.387224 99.851795 
L 670.99656 97.923602 
L 671.605897 98.071925 
L 672.215233 97.330312 
L 672.82457 98.36857 
L 673.433907 99.703473 
L 674.043243 99.703473 
L 674.65258 95.995409 
L 675.261916 98.220247 
L 675.871253 97.626957 
L 676.48059 96.737022 
L 677.089926 98.36857 
L 677.699263 100.890053 
L 678.3086 101.631666 
L 678.917936 99.703473 
L 679.527273 98.96186 
L 680.136609 96.737022 
L 680.745946 102.076633 
L 681.355283 100.74173 
L 681.964619 100.14844 
L 682.573956 97.478634 
L 683.183292 98.071925 
L 683.792629 95.402119 
L 684.401966 97.330312 
L 685.011302 97.478634 
L 685.620639 98.220247 
L 686.229975 100.593408 
L 686.839312 99.406828 
L 687.448649 96.588699 
L 688.057985 98.96186 
L 688.667322 97.923602 
L 689.276658 99.110182 
L 689.885995 95.105474 
L 690.495332 99.258505 
L 691.104668 100.14844 
L 691.714005 98.36857 
L 692.323342 100.593408 
L 692.932678 97.478634 
L 694.151351 98.36857 
L 694.760688 97.181989 
L 695.370025 99.110182 
L 695.979361 102.966569 
L 696.588698 96.588699 
L 697.198034 96.737022 
L 697.807371 96.737022 
L 698.416708 96.292054 
L 699.026044 104.004826 
L 699.635381 97.033667 
L 700.244717 98.665215 
L 700.854054 97.626957 
L 702.072727 99.703473 
L 702.682064 98.071925 
L 703.2914 99.258505 
L 705.11941 97.626957 
L 705.728747 98.071925 
L 706.338084 103.708181 
L 706.94742 95.105474 
L 707.556757 100.890053 
L 708.166093 95.698764 
L 708.77543 99.406828 
L 709.384767 98.516892 
L 709.994103 96.588699 
L 710.60344 95.105474 
L 711.822113 98.071925 
L 712.43145 98.071925 
L 713.040786 99.851795 
L 713.650123 97.033667 
L 714.259459 94.957151 
L 714.868796 99.110182 
L 715.478133 96.588699 
L 716.087469 98.516892 
L 716.696806 99.406828 
L 717.306143 97.478634 
L 717.915479 99.110182 
L 718.524816 99.258505 
L 719.134152 99.55515 
L 719.743489 101.335021 
L 720.352826 95.550441 
L 720.962162 98.96186 
L 721.571499 97.923602 
L 722.180835 94.808829 
L 722.790172 101.186698 
L 723.399509 99.110182 
L 724.008845 97.626957 
L 724.618182 98.220247 
L 725.227518 99.406828 
L 725.836855 101.928311 
L 726.446192 98.220247 
L 727.055528 99.258505 
L 727.664865 96.292054 
L 728.274201 95.995409 
L 728.883538 98.071925 
L 729.492875 97.923602 
L 730.102211 98.220247 
L 730.711548 95.995409 
L 731.320885 98.516892 
L 731.930221 98.516892 
L 732.539558 100.14844 
L 733.148894 94.660506 
L 733.758231 102.076633 
L 734.367568 97.923602 
L 734.976904 96.885344 
L 735.586241 97.77528 
L 736.195577 96.143732 
L 736.804914 100.890053 
L 737.414251 99.703473 
L 738.023587 96.885344 
L 738.632924 102.966569 
L 739.24226 97.330312 
L 739.851597 97.478634 
L 740.460934 96.588699 
L 741.07027 99.258505 
L 741.679607 97.478634 
L 742.288943 96.588699 
L 742.89828 99.258505 
L 743.507617 98.96186 
L 744.116953 96.588699 
L 744.72629 99.406828 
L 745.335627 95.995409 
L 745.944963 97.923602 
L 746.5543 94.660506 
L 747.163636 96.440377 
L 747.163636 96.440377 
" clip-path="url(#pc67d3aa5b0)" style="fill: none; stroke: #1f77b4; stroke-width: 1.5; stroke-linecap: square"/>
   </g>
   <g id="line2d_12">
    <path d="M 138.436364 304.091936 
L 139.0457 306.910065 
L 139.655037 303.202001 
L 140.264373 305.278517 
L 140.87371 306.61342 
L 141.483047 306.316775 
L 142.092383 306.316775 
L 142.70172 307.8 
L 143.311057 307.20671 
L 143.920393 306.020129 
L 144.52973 205.754091 
L 145.139066 257.07369 
L 145.748403 279.173749 
L 146.35774 285.403296 
L 146.967076 294.302649 
L 147.576413 297.269099 
L 148.185749 296.379164 
L 148.795086 291.187875 
L 149.404423 288.073102 
L 150.013759 285.996586 
L 150.623096 284.661683 
L 151.232432 280.508652 
L 151.841769 283.178458 
L 152.451106 270.571042 
L 153.060442 275.317363 
L 153.669779 272.944202 
L 154.279115 272.054267 
L 154.888452 271.6093 
L 155.497789 272.350912 
L 156.107125 274.130783 
L 156.716462 265.973043 
L 157.325799 271.460977 
L 157.935135 266.121366 
L 158.544472 271.6093 
L 159.153808 265.379753 
L 159.763145 271.016009 
L 160.372482 265.528075 
L 160.981818 261.078399 
L 161.591155 262.85827 
L 162.200491 262.561624 
L 162.809828 254.255562 
L 163.419165 256.183755 
L 164.028501 253.662272 
L 164.637838 254.70053 
L 165.247174 260.485109 
L 165.856511 254.552207 
L 166.465848 252.475692 
L 167.075184 249.064273 
L 167.684521 259.298529 
L 169.512531 242.093114 
L 170.121867 245.504532 
L 170.731204 246.839435 
L 171.340541 248.470983 
L 171.949877 243.279694 
L 172.559214 244.466274 
L 173.16855 242.093114 
L 173.777887 242.389759 
L 174.387224 235.121954 
L 174.99656 233.045438 
L 175.605897 235.270277 
L 176.215233 233.787051 
L 176.82457 237.050147 
L 177.433907 236.753502 
L 178.043243 229.485697 
L 178.65258 231.265568 
L 179.261916 226.519247 
L 179.871253 228.299117 
L 180.48059 222.959506 
L 181.089926 230.968923 
L 181.699263 222.06957 
L 182.3086 223.997763 
L 182.917936 223.997763 
L 183.527273 227.557504 
L 184.136609 221.772925 
L 184.745946 217.471572 
L 185.355283 218.361507 
L 185.964619 218.361507 
L 186.573956 215.246733 
L 187.183292 217.323249 
L 187.792629 212.428605 
L 188.401966 215.543378 
L 189.011302 211.390347 
L 189.620639 212.280283 
L 190.229975 206.940671 
L 190.839312 211.983637 
L 191.448649 209.610477 
L 192.057985 212.13196 
L 192.667322 208.868864 
L 193.276658 204.122543 
L 193.885995 204.419188 
L 194.495332 207.385639 
L 195.104668 205.1608 
L 195.714005 200.859447 
L 196.323342 199.672866 
L 196.932678 201.749382 
L 197.542015 195.519835 
L 198.151351 190.921836 
L 198.760688 192.850029 
L 199.370025 190.773514 
L 199.979361 192.256739 
L 200.588698 190.625191 
L 201.198034 195.074868 
L 201.807371 190.773514 
L 202.416708 189.141966 
L 203.026044 190.773514 
L 203.635381 190.476869 
L 204.244717 187.213773 
L 204.854054 185.433902 
L 205.463391 187.807063 
L 206.072727 187.65874 
L 207.2914 183.357387 
L 207.900737 185.137257 
L 208.510074 186.175515 
L 209.11941 179.501001 
L 209.728747 180.539258 
L 210.338084 174.013067 
L 210.94742 183.950677 
L 211.556757 180.687581 
L 212.166093 175.644614 
L 212.77543 177.869453 
L 213.384767 175.644614 
L 213.994103 179.204356 
L 214.60344 177.72113 
L 215.822113 167.486875 
L 216.43145 166.745262 
L 217.040786 172.084873 
L 217.650123 171.343261 
L 218.259459 173.419776 
L 218.868796 171.491583 
L 219.478133 171.343261 
L 220.087469 171.343261 
L 220.696806 170.305003 
L 221.306143 165.410359 
L 221.915479 166.300294 
L 222.524816 160.367393 
L 223.134152 163.630489 
L 223.743489 160.960683 
L 224.352826 160.367393 
L 224.962162 160.515715 
L 225.571499 154.434491 
L 226.180835 161.257328 
L 226.790172 163.037198 
L 227.399509 160.070747 
L 228.008845 163.037198 
L 228.618182 159.03249 
L 229.227518 152.951265 
L 229.836855 156.214361 
L 230.446192 156.511006 
L 231.055528 159.03249 
L 231.664865 156.659329 
L 232.274201 156.214361 
L 232.883538 155.621071 
L 233.492875 153.544556 
L 234.711548 154.582813 
L 235.320885 153.692878 
L 235.930221 153.544556 
L 236.539558 148.353267 
L 237.148894 149.836492 
L 237.758231 144.941848 
L 238.367568 145.980106 
L 238.976904 146.425074 
L 239.586241 145.535138 
L 240.195577 143.013655 
L 241.414251 141.233785 
L 242.023587 145.831783 
L 242.632924 147.463331 
L 243.24226 144.051913 
L 243.851597 146.573396 
L 244.460934 146.721719 
L 245.07027 141.53043 
L 245.679607 144.793526 
L 246.288943 145.238493 
L 246.89828 140.195527 
L 247.507617 141.382107 
L 248.116953 141.085462 
L 248.72629 136.190818 
L 249.335627 139.305592 
L 250.5543 134.855915 
L 251.163636 137.970689 
L 251.772973 137.229076 
L 252.38231 131.889464 
L 252.991646 130.702884 
L 253.600983 133.076045 
L 254.210319 130.406239 
L 254.819656 132.7794 
L 255.428993 132.631077 
L 256.038329 127.588111 
L 257.257002 135.449205 
L 257.866339 127.588111 
L 258.475676 130.109594 
L 259.085012 131.444497 
L 259.694349 128.626368 
L 260.303686 129.219659 
L 260.913022 128.181401 
L 261.522359 126.549853 
L 262.131695 128.774691 
L 262.741032 126.846498 
L 263.350369 130.109594 
L 263.959705 129.219659 
L 264.569042 125.80824 
L 265.178378 124.176692 
L 266.397052 128.033078 
L 267.006388 126.99482 
L 267.615725 129.071336 
L 268.225061 128.626368 
L 269.443735 124.176692 
L 270.053071 124.473337 
L 270.662408 125.066627 
L 271.881081 120.023661 
L 272.490418 122.841789 
L 273.099754 119.727016 
L 273.709091 119.875338 
L 274.318428 116.908888 
L 274.927764 121.061919 
L 275.537101 119.875338 
L 276.146437 118.985403 
L 276.755774 115.87063 
L 277.365111 117.947145 
L 277.974447 119.578693 
L 278.583784 120.468629 
L 279.19312 120.171984 
L 279.802457 118.837081 
L 280.411794 116.760565 
L 281.02113 116.315597 
L 282.239803 118.985403 
L 282.84914 113.497469 
L 283.458477 112.607534 
L 284.067813 111.124308 
L 284.67715 113.942437 
L 285.286486 115.722307 
L 285.895823 112.459211 
L 286.50516 113.052501 
L 287.114496 114.239082 
L 287.723833 109.196115 
L 288.33317 116.018952 
L 288.942506 108.30618 
L 289.551843 113.052501 
L 290.161179 107.564567 
L 290.770516 108.157858 
L 291.379853 110.531018 
L 291.989189 109.047793 
L 292.598526 108.602825 
L 293.207862 109.49276 
L 293.817199 108.89947 
L 294.426536 105.933019 
L 295.035872 108.009535 
L 295.645209 107.71289 
L 296.254545 106.377987 
L 296.863882 102.966569 
L 298.082555 108.751148 
L 298.691892 106.377987 
L 299.301229 104.894762 
L 299.910565 105.784697 
L 300.519902 102.669923 
L 301.129238 105.933019 
L 301.738575 107.1196 
L 302.347912 102.224956 
L 302.957248 101.483343 
L 303.566585 104.301471 
L 304.175921 103.114891 
L 304.785258 104.449794 
L 305.394595 103.856504 
L 306.003931 105.339729 
L 306.613268 104.004826 
L 307.222604 103.856504 
L 307.831941 102.818246 
L 308.441278 102.966569 
L 309.050614 102.818246 
L 309.659951 101.631666 
L 310.269287 101.928311 
L 310.878624 99.258505 
L 311.487961 102.076633 
L 312.097297 100.000118 
L 312.706634 102.224956 
L 313.315971 101.335021 
L 313.925307 95.847087 
L 314.534644 97.626957 
L 315.14398 98.220247 
L 315.753317 95.995409 
L 316.362654 97.033667 
L 316.97199 98.96186 
L 317.581327 98.516892 
L 318.190663 99.406828 
L 318.8 100.000118 
L 319.409337 95.995409 
L 320.62801 93.918893 
L 321.237346 97.77528 
L 321.846683 96.292054 
L 322.45602 95.847087 
L 323.674693 99.258505 
L 324.284029 96.143732 
L 324.893366 97.77528 
L 325.502703 95.995409 
L 326.112039 95.550441 
L 326.721376 94.363861 
L 327.330713 94.957151 
L 327.940049 97.478634 
L 328.549386 93.325603 
L 329.158722 91.842378 
L 330.377396 93.473926 
L 330.986732 94.215539 
L 331.596069 92.583991 
L 332.205405 93.325603 
L 332.814742 95.402119 
L 333.424079 93.325603 
L 334.033415 92.287345 
L 334.642752 93.918893 
L 335.252088 94.957151 
L 335.861425 93.918893 
L 336.470762 94.215539 
L 337.080098 95.402119 
L 337.689435 93.622248 
L 338.298771 95.105474 
L 338.908108 94.957151 
L 339.517445 95.550441 
L 340.126781 92.139023 
L 340.736118 94.808829 
L 341.345455 94.660506 
L 341.954791 93.325603 
L 342.564128 93.770571 
L 343.173464 94.363861 
L 343.782801 93.177281 
L 344.392138 90.21083 
L 345.001474 92.435668 
L 345.610811 95.253796 
L 346.220147 95.995409 
L 346.829484 93.622248 
L 347.438821 94.512184 
L 348.048157 94.660506 
L 348.657494 96.292054 
L 349.26683 92.732313 
L 349.876167 92.139023 
L 350.485504 89.914185 
L 351.09484 91.694055 
L 352.92285 89.320895 
L 353.532187 90.359152 
L 354.141523 91.9907 
L 354.75086 92.435668 
L 355.360197 92.139023 
L 355.969533 89.172572 
L 356.57887 87.541024 
L 357.188206 89.61754 
L 357.797543 87.392702 
L 358.40688 88.875927 
L 359.625553 87.837669 
L 360.234889 86.057799 
L 360.844226 88.134314 
L 361.453563 89.172572 
L 362.062899 87.985992 
L 362.672236 88.727604 
L 363.281572 87.689347 
L 363.890909 85.019541 
L 364.500246 86.354444 
L 365.109582 85.612831 
L 365.718919 87.096057 
L 366.328256 85.019541 
L 366.937592 90.507475 
L 367.546929 88.282637 
L 368.156265 86.502766 
L 368.765602 88.727604 
L 369.374939 87.244379 
L 369.984275 86.799411 
L 370.593612 87.392702 
L 371.202948 86.057799 
L 371.812285 85.316186 
L 372.421622 85.909476 
L 373.030958 85.019541 
L 373.640295 83.832961 
L 374.249631 84.426251 
L 374.858968 82.349735 
L 375.468305 81.4598 
L 376.077641 82.05309 
L 376.686978 84.722896 
L 377.296314 83.387993 
L 377.905651 82.943025 
L 378.514988 82.349735 
L 379.124324 82.64638 
L 379.733661 83.536315 
L 380.342998 82.349735 
L 380.952334 82.349735 
L 381.561671 81.608122 
L 382.171007 82.05309 
L 382.780344 79.679929 
L 383.389681 79.976574 
L 383.999017 82.943025 
L 384.608354 83.536315 
L 385.21769 82.64638 
L 385.827027 83.23967 
L 386.436364 84.871218 
L 387.655037 82.349735 
L 388.264373 81.311477 
L 388.87371 83.536315 
L 389.483047 81.4598 
L 390.092383 82.05309 
L 390.70172 80.718187 
L 391.311057 80.421542 
L 391.920393 79.828252 
L 392.52973 77.306769 
L 393.139066 79.531607 
L 393.748403 79.679929 
L 394.35774 82.943025 
L 394.967076 81.756445 
L 395.576413 79.086639 
L 396.185749 79.234962 
L 396.795086 80.569865 
L 397.404423 81.311477 
L 398.013759 81.163155 
L 398.623096 80.86651 
L 399.232432 79.531607 
L 399.841769 79.828252 
L 400.451106 79.828252 
L 401.060442 79.086639 
L 401.669779 78.641672 
L 402.888452 77.158446 
L 403.497789 77.010124 
L 404.107125 77.751736 
L 404.716462 79.383284 
L 405.325799 78.493349 
L 405.935135 81.756445 
L 406.544472 77.900059 
L 407.153808 78.641672 
L 407.763145 77.603414 
L 408.981818 76.565156 
L 409.591155 78.493349 
L 410.200491 79.531607 
L 410.809828 78.345026 
L 411.419165 78.938317 
L 412.028501 78.641672 
L 412.637838 76.565156 
L 413.247174 75.971866 
L 413.856511 77.306769 
L 414.465848 78.196704 
L 415.075184 76.120188 
L 415.684521 74.636963 
L 416.293857 76.565156 
L 416.903194 77.603414 
L 417.512531 78.048381 
L 418.121867 77.751736 
L 418.731204 77.900059 
L 419.340541 75.526898 
L 419.949877 74.48864 
L 420.559214 75.823543 
L 421.16855 74.340318 
L 421.777887 75.526898 
L 422.387224 77.306769 
L 422.99656 75.081931 
L 423.605897 74.340318 
L 424.215233 71.818835 
L 425.433907 74.48864 
L 426.043243 73.30206 
L 426.65258 74.785285 
L 427.871253 75.675221 
L 428.48059 74.785285 
L 429.089926 74.191995 
L 429.699263 72.11548 
L 430.917936 74.043673 
L 431.527273 75.823543 
L 432.136609 71.818835 
L 432.745946 75.675221 
L 433.355283 75.230253 
L 433.964619 74.48864 
L 434.573956 74.191995 
L 435.183292 71.818835 
L 435.792629 71.52219 
L 436.401966 72.11548 
L 437.620639 70.483932 
L 438.229975 71.077222 
L 438.839312 71.077222 
L 439.448649 74.191995 
L 440.057985 72.11548 
L 440.667322 74.48864 
L 441.276658 74.48864 
L 441.885995 74.043673 
L 442.495332 74.191995 
L 443.104668 73.005415 
L 443.714005 73.450383 
L 444.323342 73.30206 
L 444.932678 73.747028 
L 445.542015 73.89535 
L 446.151351 73.30206 
L 446.760688 73.450383 
L 447.370025 74.043673 
L 447.979361 71.225544 
L 448.588698 71.818835 
L 449.198034 71.967157 
L 449.807371 73.30206 
L 450.416708 72.560447 
L 451.026044 72.263802 
L 451.635381 75.526898 
L 452.244717 72.263802 
L 452.854054 71.225544 
L 453.463391 71.967157 
L 454.072727 71.818835 
L 454.682064 72.263802 
L 455.900737 70.187287 
L 456.510074 70.780577 
L 457.11941 72.11548 
L 457.728747 72.263802 
L 458.338084 70.632254 
L 458.94742 73.30206 
L 459.556757 72.263802 
L 460.166093 70.780577 
L 460.77543 69.742319 
L 461.384767 69.149029 
L 461.994103 70.928899 
L 462.60344 69.890642 
L 463.212776 70.187287 
L 463.822113 70.632254 
L 465.040786 70.335609 
L 465.650123 69.149029 
L 466.259459 68.704061 
L 466.868796 68.407416 
L 467.478133 68.852384 
L 468.087469 67.220836 
L 468.696806 69.297351 
L 469.306143 68.555739 
L 469.915479 70.780577 
L 470.524816 69.000706 
L 471.134152 68.555739 
L 471.743489 69.149029 
L 472.352826 69.297351 
L 472.962162 68.852384 
L 473.571499 68.259094 
L 474.790172 69.890642 
L 475.399509 69.445674 
L 477.836855 71.967157 
L 478.446192 71.670512 
L 479.055528 70.928899 
L 479.664865 69.593996 
L 480.274201 69.593996 
L 480.883538 72.11548 
L 481.492875 70.335609 
L 482.102211 69.742319 
L 482.711548 68.852384 
L 483.320885 68.852384 
L 483.930221 70.038964 
L 484.539558 71.670512 
L 485.148894 69.890642 
L 485.758231 70.780577 
L 486.367568 70.632254 
L 486.976904 69.593996 
L 488.195577 70.187287 
L 488.804914 66.775868 
L 489.414251 67.814126 
L 490.023587 67.665803 
L 491.24226 68.555739 
L 491.851597 67.517481 
L 492.460934 68.555739 
L 493.07027 70.038964 
L 493.679607 68.852384 
L 494.288943 69.742319 
L 494.89828 67.962448 
L 495.507617 68.407416 
L 496.116953 70.038964 
L 496.72629 69.742319 
L 497.335627 70.187287 
L 497.944963 67.665803 
L 498.5543 66.182578 
L 499.163636 68.407416 
L 499.772973 66.775868 
L 500.38231 66.924191 
L 500.991646 66.330901 
L 501.600983 66.034255 
L 502.210319 67.517481 
L 502.819656 66.182578 
L 503.428993 67.220836 
L 504.038329 67.369158 
L 504.647666 66.775868 
L 505.257002 66.479223 
L 505.866339 68.704061 
L 506.475676 69.297351 
L 507.085012 68.110771 
L 507.694349 67.962448 
L 508.913022 66.479223 
L 509.522359 67.369158 
L 510.131695 67.369158 
L 510.741032 66.479223 
L 511.350369 66.479223 
L 511.959705 64.995998 
L 512.569042 64.254385 
L 513.178378 65.440965 
L 513.787715 65.589288 
L 514.397052 66.479223 
L 515.006388 66.627546 
L 515.615725 66.330901 
L 516.225061 66.330901 
L 516.834398 67.665803 
L 517.443735 67.369158 
L 518.053071 67.665803 
L 518.662408 66.627546 
L 519.271744 66.182578 
L 519.881081 65.440965 
L 520.490418 65.73761 
L 521.709091 63.067805 
L 522.318428 65.14432 
L 522.927764 64.847675 
L 523.537101 64.699353 
L 524.146437 64.995998 
L 524.755774 63.95774 
L 525.365111 64.106062 
L 525.974447 64.106062 
L 526.583784 64.402707 
L 527.19312 63.661095 
L 527.802457 64.402707 
L 528.411794 67.517481 
L 529.02113 65.14432 
L 529.630467 65.589288 
L 530.239803 67.220836 
L 530.84914 65.885933 
L 531.458477 64.995998 
L 532.067813 66.775868 
L 532.67715 66.182578 
L 533.286486 66.627546 
L 533.895823 66.775868 
L 534.50516 66.034255 
L 535.114496 66.627546 
L 535.723833 64.106062 
L 536.33317 63.809417 
L 536.942506 65.14432 
L 537.551843 63.809417 
L 538.161179 64.106062 
L 538.770516 63.809417 
L 539.379853 64.847675 
L 539.989189 67.220836 
L 540.598526 65.885933 
L 541.207862 66.479223 
L 541.817199 65.885933 
L 542.426536 66.330901 
L 543.035872 65.292643 
L 543.645209 67.814126 
L 544.254545 67.517481 
L 544.863882 66.627546 
L 545.473219 66.775868 
L 546.082555 65.292643 
L 546.691892 64.847675 
L 547.301229 65.14432 
L 548.519902 66.182578 
L 549.129238 64.847675 
L 549.738575 66.182578 
L 550.347912 65.885933 
L 550.957248 65.885933 
L 551.566585 66.627546 
L 552.175921 65.292643 
L 552.785258 64.254385 
L 553.394595 64.995998 
L 554.003931 65.292643 
L 554.613268 63.809417 
L 555.831941 64.402707 
L 556.441278 62.77116 
L 557.050614 63.661095 
L 557.659951 64.847675 
L 558.269287 65.589288 
L 558.878624 65.73761 
L 559.487961 65.14432 
L 560.097297 66.627546 
L 560.706634 65.14432 
L 561.315971 64.995998 
L 561.925307 67.517481 
L 562.534644 66.034255 
L 563.753317 67.962448 
L 564.362654 68.110771 
L 564.97199 66.775868 
L 565.581327 66.479223 
L 566.190663 66.034255 
L 566.8 67.072513 
L 567.409337 64.847675 
L 568.018673 65.885933 
L 568.62801 65.292643 
L 569.237346 66.182578 
L 569.846683 66.182578 
L 570.45602 67.220836 
L 571.065356 67.220836 
L 571.674693 66.479223 
L 572.284029 64.847675 
L 572.893366 65.440965 
L 574.112039 64.847675 
L 574.721376 64.106062 
L 575.330713 66.034255 
L 575.940049 65.292643 
L 576.549386 66.034255 
L 577.158722 66.034255 
L 577.768059 65.73761 
L 578.377396 64.847675 
L 578.986732 65.14432 
L 579.596069 64.55103 
L 580.205405 65.589288 
L 580.814742 64.402707 
L 581.424079 64.847675 
L 582.033415 63.95774 
L 582.642752 64.995998 
L 583.252088 64.55103 
L 583.861425 64.995998 
L 584.470762 65.292643 
L 585.080098 64.55103 
L 585.689435 64.847675 
L 586.298771 64.699353 
L 586.908108 62.919482 
L 587.517445 64.106062 
L 588.126781 62.919482 
L 588.736118 62.177869 
L 589.345455 62.474514 
L 589.954791 62.326192 
L 590.564128 63.216127 
L 591.173464 62.919482 
L 592.392138 63.95774 
L 593.001474 63.067805 
L 593.610811 63.36445 
L 594.220147 64.254385 
L 594.829484 64.847675 
L 595.438821 64.106062 
L 596.048157 63.661095 
L 596.657494 63.809417 
L 597.26683 64.55103 
L 597.876167 64.847675 
L 598.485504 64.699353 
L 599.09484 63.661095 
L 599.704177 63.809417 
L 600.313514 64.254385 
L 600.92285 64.402707 
L 601.532187 63.809417 
L 602.141523 64.55103 
L 602.75086 63.512772 
L 603.360197 63.512772 
L 603.969533 62.919482 
L 604.57887 62.622837 
L 605.797543 65.14432 
L 606.40688 63.809417 
L 607.016216 64.254385 
L 607.625553 65.14432 
L 608.234889 65.14432 
L 610.062899 63.216127 
L 610.672236 62.474514 
L 611.281572 62.622837 
L 611.890909 63.512772 
L 612.500246 63.36445 
L 613.109582 64.847675 
L 613.718919 64.55103 
L 614.328256 63.36445 
L 614.937592 64.106062 
L 615.546929 63.36445 
L 616.156265 64.55103 
L 616.765602 63.512772 
L 617.374939 63.36445 
L 617.984275 62.326192 
L 618.593612 63.067805 
L 619.202948 62.622837 
L 619.812285 62.77116 
L 620.421622 62.177869 
L 621.030958 62.622837 
L 621.640295 62.029547 
L 622.249631 62.622837 
L 622.858968 62.029547 
L 623.468305 62.622837 
L 624.077641 62.77116 
L 624.686978 62.326192 
L 625.296314 62.77116 
L 625.905651 63.661095 
L 626.514988 61.881224 
L 627.124324 61.584579 
L 627.733661 62.029547 
L 628.342998 62.622837 
L 628.952334 61.584579 
L 629.561671 60.991289 
L 630.171007 60.694644 
L 630.780344 60.546321 
L 631.389681 61.287934 
L 631.999017 60.991289 
L 632.608354 62.326192 
L 633.827027 60.397999 
L 634.436364 60.842966 
L 635.0457 60.991289 
L 635.655037 61.436257 
L 636.264373 61.436257 
L 636.87371 60.397999 
L 637.483047 61.881224 
L 638.092383 60.397999 
L 638.70172 62.326192 
L 639.311057 62.474514 
L 639.920393 61.436257 
L 640.52973 61.287934 
L 641.748403 60.694644 
L 642.35774 59.656386 
L 642.967076 59.359741 
L 644.185749 60.249676 
L 644.795086 59.359741 
L 645.404423 59.211418 
L 646.013759 59.211418 
L 646.623096 60.101354 
L 647.232432 60.546321 
L 647.841769 59.656386 
L 648.451106 59.656386 
L 649.060442 58.469806 
L 649.669779 57.579871 
L 650.279115 58.766451 
L 650.888452 58.469806 
L 651.497789 59.063096 
L 652.107125 58.914773 
L 652.716462 58.914773 
L 653.325799 59.656386 
L 653.935135 60.694644 
L 654.544472 60.249676 
L 655.153808 61.287934 
L 655.763145 59.804709 
L 656.372482 59.804709 
L 656.981818 59.359741 
L 657.591155 60.397999 
L 658.200491 59.953031 
L 658.809828 60.546321 
L 659.419165 61.584579 
L 660.028501 60.842966 
L 660.637838 60.842966 
L 661.247174 60.546321 
L 661.856511 61.732902 
L 663.075184 60.694644 
L 663.684521 60.842966 
L 664.293857 59.063096 
L 664.903194 59.804709 
L 665.512531 60.101354 
L 666.121867 58.914773 
L 666.731204 58.618128 
L 667.340541 59.211418 
L 667.949877 59.359741 
L 668.559214 58.766451 
L 669.16855 58.618128 
L 669.777887 59.359741 
L 670.387224 58.618128 
L 670.99656 58.321483 
L 672.82457 60.694644 
L 673.433907 59.953031 
L 674.043243 59.508064 
L 674.65258 59.953031 
L 675.261916 59.063096 
L 675.871253 60.694644 
L 676.48059 60.694644 
L 677.089926 59.211418 
L 677.699263 59.211418 
L 678.3086 59.953031 
L 679.527273 59.953031 
L 680.136609 58.618128 
L 680.745946 59.804709 
L 681.355283 59.359741 
L 681.964619 59.508064 
L 682.573956 58.469806 
L 683.183292 59.804709 
L 683.792629 59.656386 
L 684.401966 58.321483 
L 685.011302 58.321483 
L 685.620639 58.173161 
L 686.229975 58.321483 
L 686.839312 59.508064 
L 687.448649 57.431548 
L 688.057985 57.283225 
L 688.667322 57.579871 
L 689.276658 58.024838 
L 689.885995 59.211418 
L 690.495332 57.728193 
L 691.104668 57.728193 
L 691.714005 58.914773 
L 692.323342 58.914773 
L 693.542015 59.508064 
L 694.151351 58.469806 
L 694.760688 58.469806 
L 695.370025 58.321483 
L 695.979361 58.321483 
L 696.588698 58.618128 
L 697.198034 57.876516 
L 697.807371 59.953031 
L 698.416708 57.728193 
L 699.026044 57.283225 
L 699.635381 57.728193 
L 700.244717 59.211418 
L 700.854054 58.469806 
L 701.463391 59.063096 
L 702.072727 58.024838 
L 702.682064 59.063096 
L 703.2914 58.173161 
L 703.900737 58.618128 
L 704.510074 58.914773 
L 705.11941 58.914773 
L 705.728747 58.173161 
L 706.338084 57.876516 
L 706.94742 57.728193 
L 707.556757 57.134903 
L 708.166093 57.431548 
L 708.77543 58.173161 
L 709.384767 57.876516 
L 709.994103 58.469806 
L 710.60344 58.618128 
L 711.212776 58.618128 
L 711.822113 58.173161 
L 712.43145 57.876516 
L 713.040786 58.618128 
L 713.650123 57.876516 
L 714.868796 59.211418 
L 715.478133 58.024838 
L 716.087469 58.914773 
L 716.696806 57.728193 
L 717.306143 57.579871 
L 717.915479 57.134903 
L 718.524816 56.541613 
L 719.134152 56.689935 
L 719.743489 57.579871 
L 720.352826 55.948323 
L 720.962162 56.096645 
L 721.571499 56.541613 
L 722.180835 56.689935 
L 722.790172 56.096645 
L 723.399509 57.134903 
L 724.008845 56.98658 
L 724.618182 57.431548 
L 725.227518 57.579871 
L 725.836855 56.838258 
L 726.446192 57.876516 
L 727.055528 58.321483 
L 727.664865 58.024838 
L 728.274201 57.431548 
L 728.883538 57.728193 
L 729.492875 57.134903 
L 730.102211 57.431548 
L 730.711548 57.579871 
L 731.320885 58.024838 
L 731.930221 56.838258 
L 732.539558 57.876516 
L 733.148894 57.728193 
L 733.758231 57.134903 
L 734.367568 58.024838 
L 734.976904 57.134903 
L 735.586241 57.876516 
L 736.195577 57.134903 
L 736.804914 57.283225 
L 737.414251 56.98658 
L 738.023587 56.39329 
L 738.632924 56.838258 
L 739.24226 55.8 
L 739.851597 56.98658 
L 740.460934 57.283225 
L 741.07027 57.283225 
L 741.679607 57.876516 
L 742.288943 57.579871 
L 742.89828 56.98658 
L 743.507617 56.98658 
L 744.116953 56.838258 
L 744.72629 57.134903 
L 745.335627 57.283225 
L 745.944963 56.689935 
L 746.5543 56.98658 
L 747.163636 58.024838 
L 747.163636 58.024838 
" clip-path="url(#pc67d3aa5b0)" style="fill: none; stroke: #ff7f0e; stroke-width: 1.5; stroke-linecap: square"/>
   </g>
   <g id="patch_3">
    <path d="M 108 320.4 
L 108 43.2 
" style="fill: none; stroke: #000000; stroke-width: 0.8; stroke-linejoin: miter; stroke-linecap: square"/>
   </g>
   <g id="patch_4">
    <path d="M 777.6 320.4 
L 777.6 43.2 
" style="fill: none; stroke: #000000; stroke-width: 0.8; stroke-linejoin: miter; stroke-linecap: square"/>
   </g>
   <g id="patch_5">
    <path d="M 108 320.4 
L 777.6 320.4 
" style="fill: none; stroke: #000000; stroke-width: 0.8; stroke-linejoin: miter; stroke-linecap: square"/>
   </g>
   <g id="patch_6">
    <path d="M 108 43.2 
L 777.6 43.2 
" style="fill: none; stroke: #000000; stroke-width: 0.8; stroke-linejoin: miter; stroke-linecap: square"/>
   </g>
   <g id="text_13">
    <!-- Optimal Action Percentage -->
    <g transform="translate(362.708438 37.2) scale(0.12 -0.12)">
     <defs>
      <path id="DejaVuSans-50" d="M 1259 4147 
L 1259 2394 
L 2053 2394 
Q 2494 2394 2734 2622 
Q 2975 2850 2975 3272 
Q 2975 3691 2734 3919 
Q 2494 4147 2053 4147 
L 1259 4147 
z
M 628 4666 
L 2053 4666 
Q 2838 4666 3239 4311 
Q 3641 3956 3641 3272 
Q 3641 2581 3239 2228 
Q 2838 1875 2053 1875 
L 1259 1875 
L 1259 0 
L 628 0 
L 628 4666 
z
" transform="scale(0.015625)"/>
      <path id="DejaVuSans-72" d="M 2631 2963 
Q 2534 3019 2420 3045 
Q 2306 3072 2169 3072 
Q 1681 3072 1420 2755 
Q 1159 2438 1159 1844 
L 1159 0 
L 581 0 
L 581 3500 
L 1159 3500 
L 1159 2956 
Q 1341 3275 1631 3429 
Q 1922 3584 2338 3584 
Q 2397 3584 2469 3576 
Q 2541 3569 2628 3553 
L 2631 2963 
z
" transform="scale(0.015625)"/>
      <path id="DejaVuSans-67" d="M 2906 1791 
Q 2906 2416 2648 2759 
Q 2391 3103 1925 3103 
Q 1463 3103 1205 2759 
Q 947 2416 947 1791 
Q 947 1169 1205 825 
Q 1463 481 1925 481 
Q 2391 481 2648 825 
Q 2906 1169 2906 1791 
z
M 3481 434 
Q 3481 -459 3084 -895 
Q 2688 -1331 1869 -1331 
Q 1566 -1331 1297 -1286 
Q 1028 -1241 775 -1147 
L 775 -588 
Q 1028 -725 1275 -790 
Q 1522 -856 1778 -856 
Q 2344 -856 2625 -561 
Q 2906 -266 2906 331 
L 2906 616 
Q 2728 306 2450 153 
Q 2172 0 1784 0 
Q 1141 0 747 490 
Q 353 981 353 1791 
Q 353 2603 747 3093 
Q 1141 3584 1784 3584 
Q 2172 3584 2450 3431 
Q 2728 3278 2906 2969 
L 2906 3500 
L 3481 3500 
L 3481 434 
z
" transform="scale(0.015625)"/>
     </defs>
     <use xlink:href="#DejaVuSans-4f"/>
     <use xlink:href="#DejaVuSans-70" transform="translate(78.710938 0)"/>
     <use xlink:href="#DejaVuSans-74" transform="translate(142.1875 0)"/>
     <use xlink:href="#DejaVuSans-69" transform="translate(181.396484 0)"/>
     <use xlink:href="#DejaVuSans-6d" transform="translate(209.179688 0)"/>
     <use xlink:href="#DejaVuSans-61" transform="translate(306.591797 0)"/>
     <use xlink:href="#DejaVuSans-6c" transform="translate(367.871094 0)"/>
     <use xlink:href="#DejaVuSans-20" transform="translate(395.654297 0)"/>
     <use xlink:href="#DejaVuSans-41" transform="translate(427.441406 0)"/>
     <use xlink:href="#DejaVuSans-63" transform="translate(494.099609 0)"/>
     <use xlink:href="#DejaVuSans-74" transform="translate(549.080078 0)"/>
     <use xlink:href="#DejaVuSans-69" transform="translate(588.289062 0)"/>
     <use xlink:href="#DejaVuSans-6f" transform="translate(616.072266 0)"/>
     <use xlink:href="#DejaVuSans-6e" transform="translate(677.253906 0)"/>
     <use xlink:href="#DejaVuSans-20" transform="translate(740.632812 0)"/>
     <use xlink:href="#DejaVuSans-50" transform="translate(772.419922 0)"/>
     <use xlink:href="#DejaVuSans-65" transform="translate(829.097656 0)"/>
     <use xlink:href="#DejaVuSans-72" transform="translate(890.621094 0)"/>
     <use xlink:href="#DejaVuSans-63" transform="translate(929.484375 0)"/>
     <use xlink:href="#DejaVuSans-65" transform="translate(984.464844 0)"/>
     <use xlink:href="#DejaVuSans-6e" transform="translate(1045.988281 0)"/>
     <use xlink:href="#DejaVuSans-74" transform="translate(1109.367188 0)"/>
     <use xlink:href="#DejaVuSans-61" transform="translate(1148.576172 0)"/>
     <use xlink:href="#DejaVuSans-67" transform="translate(1209.855469 0)"/>
     <use xlink:href="#DejaVuSans-65" transform="translate(1273.332031 0)"/>
    </g>
   </g>
   <g id="legend_1">
    <g id="patch_7">
     <path d="M 115 80.55625 
L 218.2 80.55625 
Q 220.2 80.55625 220.2 78.55625 
L 220.2 50.2 
Q 220.2 48.2 218.2 48.2 
L 115 48.2 
Q 113 48.2 113 50.2 
L 113 78.55625 
Q 113 80.55625 115 80.55625 
z
" style="fill: #ffffff; opacity: 0.8; stroke: #cccccc; stroke-linejoin: miter"/>
    </g>
    <g id="line2d_13">
     <path d="M 117 56.298437 
L 127 56.298437 
L 137 56.298437 
" style="fill: none; stroke: #1f77b4; stroke-width: 1.5; stroke-linecap: square"/>
    </g>
    <g id="text_14">
     <!-- $\epsilon = 0.1$, $Q_1 = 0$ -->
     <g transform="translate(145 59.798437) scale(0.1 -0.1)">
      <defs>
       <path id="DejaVuSans-Oblique-3b5" d="M 1263 1888 
Q 925 1963 778 2166 
Q 669 2309 669 2503 
Q 669 3034 1175 3344 
Q 1575 3588 2188 3588 
Q 2425 3588 2684 3550 
Q 2944 3513 3234 3438 
L 3134 2916 
Q 2847 3006 2606 3047 
Q 2359 3088 2138 3088 
Q 1766 3088 1522 2944 
Q 1228 2772 1228 2522 
Q 1228 2356 1381 2241 
Q 1563 2103 1925 2103 
L 2409 2103 
L 2319 1628 
L 1856 1628 
Q 1425 1628 1172 1469 
Q 828 1253 828 916 
Q 828 703 1013 563 
Q 1244 388 1716 388 
Q 2006 388 2284 444 
Q 2563 503 2806 619 
L 2700 84 
Q 2403 -3 2131 -47 
Q 1859 -91 1609 -91 
Q 866 -91 516 194 
Q 250 413 250 781 
Q 250 1278 600 1584 
Q 859 1813 1263 1888 
z
" transform="scale(0.015625)"/>
       <path id="DejaVuSans-3d" d="M 678 2906 
L 4684 2906 
L 4684 2381 
L 678 2381 
L 678 2906 
z
M 678 1631 
L 4684 1631 
L 4684 1100 
L 678 1100 
L 678 1631 
z
" transform="scale(0.015625)"/>
       <path id="DejaVuSans-2c" d="M 750 794 
L 1409 794 
L 1409 256 
L 897 -744 
L 494 -744 
L 750 256 
L 750 794 
z
" transform="scale(0.015625)"/>
       <path id="DejaVuSans-Oblique-51" d="M 2309 -84 
Q 2275 -88 2237 -89 
Q 2200 -91 2125 -91 
Q 1250 -91 756 411 
Q 263 913 263 1797 
Q 263 2319 452 2844 
Q 641 3369 978 3788 
Q 1369 4269 1858 4509 
Q 2347 4750 2938 4750 
Q 3794 4750 4287 4245 
Q 4781 3741 4781 2869 
Q 4781 1928 4265 1147 
Q 3750 366 2919 44 
L 3553 -825 
L 2847 -825 
L 2309 -84 
z
M 2919 4238 
Q 2400 4238 2003 3986 
Q 1606 3734 1313 3219 
Q 1125 2891 1026 2522 
Q 928 2153 928 1778 
Q 928 1128 1239 775 
Q 1550 422 2119 422 
Q 2631 422 3032 676 
Q 3434 931 3719 1434 
Q 3909 1772 4009 2142 
Q 4109 2513 4109 2881 
Q 4109 3528 3796 3883 
Q 3484 4238 2919 4238 
z
" transform="scale(0.015625)"/>
      </defs>
      <use xlink:href="#DejaVuSans-Oblique-3b5" transform="translate(0 0.78125)"/>
      <use xlink:href="#DejaVuSans-3d" transform="translate(73.535156 0.78125)"/>
      <use xlink:href="#DejaVuSans-30" transform="translate(176.806641 0.78125)"/>
      <use xlink:href="#DejaVuSans-2e" transform="translate(240.429688 0.78125)"/>
      <use xlink:href="#DejaVuSans-31" transform="translate(272.216797 0.78125)"/>
      <use xlink:href="#DejaVuSans-2c" transform="translate(335.839844 0.78125)"/>
      <use xlink:href="#DejaVuSans-20" transform="translate(367.626953 0.78125)"/>
      <use xlink:href="#DejaVuSans-Oblique-51" transform="translate(399.414062 0.78125)"/>
      <use xlink:href="#DejaVuSans-31" transform="translate(478.125 -15.625) scale(0.7)"/>
      <use xlink:href="#DejaVuSans-3d" transform="translate(544.87793 0.78125)"/>
      <use xlink:href="#DejaVuSans-30" transform="translate(648.149414 0.78125)"/>
     </g>
    </g>
    <g id="line2d_14">
     <path d="M 117 70.976562 
L 127 70.976562 
L 137 70.976562 
" style="fill: none; stroke: #ff7f0e; stroke-width: 1.5; stroke-linecap: square"/>
    </g>
    <g id="text_15">
     <!-- $\epsilon = 0$, $Q_1 = 5$ -->
     <g transform="translate(145 74.476562) scale(0.1 -0.1)">
      <defs>
       <path id="DejaVuSans-35" d="M 691 4666 
L 3169 4666 
L 3169 4134 
L 1269 4134 
L 1269 2991 
Q 1406 3038 1543 3061 
Q 1681 3084 1819 3084 
Q 2600 3084 3056 2656 
Q 3513 2228 3513 1497 
Q 3513 744 3044 326 
Q 2575 -91 1722 -91 
Q 1428 -91 1123 -41 
Q 819 9 494 109 
L 494 744 
Q 775 591 1075 516 
Q 1375 441 1709 441 
Q 2250 441 2565 725 
Q 2881 1009 2881 1497 
Q 2881 1984 2565 2268 
Q 2250 2553 1709 2553 
Q 1456 2553 1204 2497 
Q 953 2441 691 2322 
L 691 4666 
z
" transform="scale(0.015625)"/>
      </defs>
      <use xlink:href="#DejaVuSans-Oblique-3b5" transform="translate(0 0.78125)"/>
      <use xlink:href="#DejaVuSans-3d" transform="translate(73.535156 0.78125)"/>
      <use xlink:href="#DejaVuSans-30" transform="translate(176.806641 0.78125)"/>
      <use xlink:href="#DejaVuSans-2c" transform="translate(240.429688 0.78125)"/>
      <use xlink:href="#DejaVuSans-20" transform="translate(272.216797 0.78125)"/>
      <use xlink:href="#DejaVuSans-Oblique-51" transform="translate(304.003906 0.78125)"/>
      <use xlink:href="#DejaVuSans-31" transform="translate(382.714844 -15.625) scale(0.7)"/>
      <use xlink:href="#DejaVuSans-3d" transform="translate(449.467773 0.78125)"/>
      <use xlink:href="#DejaVuSans-35" transform="translate(552.739258 0.78125)"/>
     </g>
    </g>
   </g>
  </g>
 </g>
 <defs>
  <clipPath id="pc67d3aa5b0">
   <rect x="108" y="43.2" width="669.6" height="277.2"/>
  </clipPath>
 </defs>
</svg>
