<?xml version="1.0" encoding="utf-8" standalone="no"?>
<!DOCTYPE svg PUBLIC "-//W3C//DTD SVG 1.1//EN"
  "http://www.w3.org/Graphics/SVG/1.1/DTD/svg11.dtd">
<svg xmlns:xlink="http://www.w3.org/1999/xlink" width="864pt" height="360pt" viewBox="0 0 864 360" xmlns="http://www.w3.org/2000/svg" version="1.1">
 <metadata>
  <rdf:RDF xmlns:dc="http://purl.org/dc/elements/1.1/" xmlns:cc="http://creativecommons.org/ns#" xmlns:rdf="http://www.w3.org/1999/02/22-rdf-syntax-ns#">
   <cc:Work>
    <dc:type rdf:resource="http://purl.org/dc/dcmitype/StillImage"/>
    <dc:date>2026-03-23T23:17:59.197320</dc:date>
    <dc:format>image/svg+xml</dc:format>
    <dc:creator>
     <cc:Agent>
      <dc:title>Matplotlib v3.10.7, https://matplotlib.org/</dc:title>
     </cc:Agent>
    </dc:creator>
   </cc:Work>
  </rdf:RDF>
 </metadata>
 <defs>
  <style type="text/css">*{stroke-linejoin: round; stroke-linecap: butt}</style>
 </defs>
 <g id="figure_1">
  <g id="patch_1">
   <path d="M 0 360 
L 864 360 
L 864 0 
L 0 0 
z
" style="fill: #ffffff"/>
  </g>
  <g id="axes_1">
   <g id="patch_2">
    <path d="M 108 320.4 
L 777.6 320.4 
L 777.6 43.2 
L 108 43.2 
z
" style="fill: #ffffff"/>
   </g>
   <g id="matplotlib.axis_1">
    <g id="xtick_1">
     <g id="line2d_1">
      <defs>
       <path id="mbd31f86bbf" d="M 0 0 
L 0 3.5 
" style="stroke: #000000; stroke-width: 0.8"/>
      </defs>
      <g>
       <use xlink:href="#mbd31f86bbf" x="138.436364" y="320.4" style="stroke: #000000; stroke-width: 0.8"/>
      </g>
     </g>
     <g id="text_1">
      <!-- 0 -->
      <g transform="translate(135.255114 334.998438) scale(0.1 -0.1)">
       <defs>
        <path id="DejaVuSans-30" d="M 2034 4250 
Q 1547 4250 1301 3770 
Q 1056 3291 1056 2328 
Q 1056 1369 1301 889 
Q 1547 409 2034 409 
Q 2525 409 2770 889 
Q 3016 1369 3016 2328 
Q 3016 3291 2770 3770 
Q 2525 4250 2034 4250 
z
M 2034 4750 
Q 2819 4750 3233 4129 
Q 3647 3509 3647 2328 
Q 3647 1150 3233 529 
Q 2819 -91 2034 -91 
Q 1250 -91 836 529 
Q 422 1150 422 2328 
Q 422 3509 836 4129 
Q 1250 4750 2034 4750 
z
" transform="scale(0.015625)"/>
       </defs>
       <use xlink:href="#DejaVuSans-30"/>
      </g>
     </g>
    </g>
    <g id="xtick_2">
     <g id="line2d_2">
      <g>
       <use xlink:href="#mbd31f86bbf" x="260.303686" y="320.4" style="stroke: #000000; stroke-width: 0.8"/>
      </g>
     </g>
     <g id="text_2">
      <!-- 200 -->
      <g transform="translate(250.759936 334.998438) scale(0.1 -0.1)">
       <defs>
        <path id="DejaVuSans-32" d="M 1228 531 
L 3431 531 
L 3431 0 
L 469 0 
L 469 531 
Q 828 903 1448 1529 
Q 2069 2156 2228 2338 
Q 2531 2678 2651 2914 
Q 2772 3150 2772 3378 
Q 2772 3750 2511 3984 
Q 2250 4219 1831 4219 
Q 1534 4219 1204 4116 
Q 875 4013 500 3803 
L 500 4441 
Q 881 4594 1212 4672 
Q 1544 4750 1819 4750 
Q 2544 4750 2975 4387 
Q 3406 4025 3406 3419 
Q 3406 3131 3298 2873 
Q 3191 2616 2906 2266 
Q 2828 2175 2409 1742 
Q 1991 1309 1228 531 
z
" transform="scale(0.015625)"/>
       </defs>
       <use xlink:href="#DejaVuSans-32"/>
       <use xlink:href="#DejaVuSans-30" transform="translate(63.623047 0)"/>
       <use xlink:href="#DejaVuSans-30" transform="translate(127.246094 0)"/>
      </g>
     </g>
    </g>
    <g id="xtick_3">
     <g id="line2d_3">
      <g>
       <use xlink:href="#mbd31f86bbf" x="382.171007" y="320.4" style="stroke: #000000; stroke-width: 0.8"/>
      </g>
     </g>
     <g id="text_3">
      <!-- 400 -->
      <g transform="translate(372.627257 334.998438) scale(0.1 -0.1)">
       <defs>
        <path id="DejaVuSans-34" d="M 2419 4116 
L 825 1625 
L 2419 1625 
L 2419 4116 
z
M 2253 4666 
L 3047 4666 
L 3047 1625 
L 3713 1625 
L 3713 1100 
L 3047 1100 
L 3047 0 
L 2419 0 
L 2419 1100 
L 313 1100 
L 313 1709 
L 2253 4666 
z
" transform="scale(0.015625)"/>
       </defs>
       <use xlink:href="#DejaVuSans-34"/>
       <use xlink:href="#DejaVuSans-30" transform="translate(63.623047 0)"/>
       <use xlink:href="#DejaVuSans-30" transform="translate(127.246094 0)"/>
      </g>
     </g>
    </g>
    <g id="xtick_4">
     <g id="line2d_4">
      <g>
       <use xlink:href="#mbd31f86bbf" x="504.038329" y="320.4" style="stroke: #000000; stroke-width: 0.8"/>
      </g>
     </g>
     <g id="text_4">
      <!-- 600 -->
      <g transform="translate(494.494579 334.998438) scale(0.1 -0.1)">
       <defs>
        <path id="DejaVuSans-36" d="M 2113 2584 
Q 1688 2584 1439 2293 
Q 1191 2003 1191 1497 
Q 1191 994 1439 701 
Q 1688 409 2113 409 
Q 2538 409 2786 701 
Q 3034 994 3034 1497 
Q 3034 2003 2786 2293 
Q 2538 2584 2113 2584 
z
M 3366 4563 
L 3366 3988 
Q 3128 4100 2886 4159 
Q 2644 4219 2406 4219 
Q 1781 4219 1451 3797 
Q 1122 3375 1075 2522 
Q 1259 2794 1537 2939 
Q 1816 3084 2150 3084 
Q 2853 3084 3261 2657 
Q 3669 2231 3669 1497 
Q 3669 778 3244 343 
Q 2819 -91 2113 -91 
Q 1303 -91 875 529 
Q 447 1150 447 2328 
Q 447 3434 972 4092 
Q 1497 4750 2381 4750 
Q 2619 4750 2861 4703 
Q 3103 4656 3366 4563 
z
" transform="scale(0.015625)"/>
       </defs>
       <use xlink:href="#DejaVuSans-36"/>
       <use xlink:href="#DejaVuSans-30" transform="translate(63.623047 0)"/>
       <use xlink:href="#DejaVuSans-30" transform="translate(127.246094 0)"/>
      </g>
     </g>
    </g>
    <g id="xtick_5">
     <g id="line2d_5">
      <g>
       <use xlink:href="#mbd31f86bbf" x="625.905651" y="320.4" style="stroke: #000000; stroke-width: 0.8"/>
      </g>
     </g>
     <g id="text_5">
      <!-- 800 -->
      <g transform="translate(616.361901 334.998438) scale(0.1 -0.1)">
       <defs>
        <path id="DejaVuSans-38" d="M 2034 2216 
Q 1584 2216 1326 1975 
Q 1069 1734 1069 1313 
Q 1069 891 1326 650 
Q 1584 409 2034 409 
Q 2484 409 2743 651 
Q 3003 894 3003 1313 
Q 3003 1734 2745 1975 
Q 2488 2216 2034 2216 
z
M 1403 2484 
Q 997 2584 770 2862 
Q 544 3141 544 3541 
Q 544 4100 942 4425 
Q 1341 4750 2034 4750 
Q 2731 4750 3128 4425 
Q 3525 4100 3525 3541 
Q 3525 3141 3298 2862 
Q 3072 2584 2669 2484 
Q 3125 2378 3379 2068 
Q 3634 1759 3634 1313 
Q 3634 634 3220 271 
Q 2806 -91 2034 -91 
Q 1263 -91 848 271 
Q 434 634 434 1313 
Q 434 1759 690 2068 
Q 947 2378 1403 2484 
z
M 1172 3481 
Q 1172 3119 1398 2916 
Q 1625 2713 2034 2713 
Q 2441 2713 2670 2916 
Q 2900 3119 2900 3481 
Q 2900 3844 2670 4047 
Q 2441 4250 2034 4250 
Q 1625 4250 1398 4047 
Q 1172 3844 1172 3481 
z
" transform="scale(0.015625)"/>
       </defs>
       <use xlink:href="#DejaVuSans-38"/>
       <use xlink:href="#DejaVuSans-30" transform="translate(63.623047 0)"/>
       <use xlink:href="#DejaVuSans-30" transform="translate(127.246094 0)"/>
      </g>
     </g>
    </g>
    <g id="xtick_6">
     <g id="line2d_6">
      <g>
       <use xlink:href="#mbd31f86bbf" x="747.772973" y="320.4" style="stroke: #000000; stroke-width: 0.8"/>
      </g>
     </g>
     <g id="text_6">
      <!-- 1000 -->
      <g transform="translate(735.047973 334.998438) scale(0.1 -0.1)">
       <defs>
        <path id="DejaVuSans-31" d="M 794 531 
L 1825 531 
L 1825 4091 
L 703 3866 
L 703 4441 
L 1819 4666 
L 2450 4666 
L 2450 531 
L 3481 531 
L 3481 0 
L 794 0 
L 794 531 
z
" transform="scale(0.015625)"/>
       </defs>
       <use xlink:href="#DejaVuSans-31"/>
       <use xlink:href="#DejaVuSans-30" transform="translate(63.623047 0)"/>
       <use xlink:href="#DejaVuSans-30" transform="translate(127.246094 0)"/>
       <use xlink:href="#DejaVuSans-30" transform="translate(190.869141 0)"/>
      </g>
     </g>
    </g>
    <g id="text_7">
     <!-- Steps -->
     <g transform="translate(428.810156 348.676562) scale(0.1 -0.1)">
      <defs>
       <path id="DejaVuSans-53" d="M 3425 4513 
L 3425 3897 
Q 3066 4069 2747 4153 
Q 2428 4238 2131 4238 
Q 1616 4238 1336 4038 
Q 1056 3838 1056 3469 
Q 1056 3159 1242 3001 
Q 1428 2844 1947 2747 
L 2328 2669 
Q 3034 2534 3370 2195 
Q 3706 1856 3706 1288 
Q 3706 609 3251 259 
Q 2797 -91 1919 -91 
Q 1588 -91 1214 -16 
Q 841 59 441 206 
L 441 856 
Q 825 641 1194 531 
Q 1563 422 1919 422 
Q 2459 422 2753 634 
Q 3047 847 3047 1241 
Q 3047 1584 2836 1778 
Q 2625 1972 2144 2069 
L 1759 2144 
Q 1053 2284 737 2584 
Q 422 2884 422 3419 
Q 422 4038 858 4394 
Q 1294 4750 2059 4750 
Q 2388 4750 2728 4690 
Q 3069 4631 3425 4513 
z
" transform="scale(0.015625)"/>
       <path id="DejaVuSans-74" d="M 1172 4494 
L 1172 3500 
L 2356 3500 
L 2356 3053 
L 1172 3053 
L 1172 1153 
Q 1172 725 1289 603 
Q 1406 481 1766 481 
L 2356 481 
L 2356 0 
L 1766 0 
Q 1100 0 847 248 
Q 594 497 594 1153 
L 594 3053 
L 172 3053 
L 172 3500 
L 594 3500 
L 594 4494 
L 1172 4494 
z
" transform="scale(0.015625)"/>
       <path id="DejaVuSans-65" d="M 3597 1894 
L 3597 1613 
L 953 1613 
Q 991 1019 1311 708 
Q 1631 397 2203 397 
Q 2534 397 2845 478 
Q 3156 559 3463 722 
L 3463 178 
Q 3153 47 2828 -22 
Q 2503 -91 2169 -91 
Q 1331 -91 842 396 
Q 353 884 353 1716 
Q 353 2575 817 3079 
Q 1281 3584 2069 3584 
Q 2775 3584 3186 3129 
Q 3597 2675 3597 1894 
z
M 3022 2063 
Q 3016 2534 2758 2815 
Q 2500 3097 2075 3097 
Q 1594 3097 1305 2825 
Q 1016 2553 972 2059 
L 3022 2063 
z
" transform="scale(0.015625)"/>
       <path id="DejaVuSans-70" d="M 1159 525 
L 1159 -1331 
L 581 -1331 
L 581 3500 
L 1159 3500 
L 1159 2969 
Q 1341 3281 1617 3432 
Q 1894 3584 2278 3584 
Q 2916 3584 3314 3078 
Q 3713 2572 3713 1747 
Q 3713 922 3314 415 
Q 2916 -91 2278 -91 
Q 1894 -91 1617 61 
Q 1341 213 1159 525 
z
M 3116 1747 
Q 3116 2381 2855 2742 
Q 2594 3103 2138 3103 
Q 1681 3103 1420 2742 
Q 1159 2381 1159 1747 
Q 1159 1113 1420 752 
Q 1681 391 2138 391 
Q 2594 391 2855 752 
Q 3116 1113 3116 1747 
z
" transform="scale(0.015625)"/>
       <path id="DejaVuSans-73" d="M 2834 3397 
L 2834 2853 
Q 2591 2978 2328 3040 
Q 2066 3103 1784 3103 
Q 1356 3103 1142 2972 
Q 928 2841 928 2578 
Q 928 2378 1081 2264 
Q 1234 2150 1697 2047 
L 1894 2003 
Q 2506 1872 2764 1633 
Q 3022 1394 3022 966 
Q 3022 478 2636 193 
Q 2250 -91 1575 -91 
Q 1294 -91 989 -36 
Q 684 19 347 128 
L 347 722 
Q 666 556 975 473 
Q 1284 391 1588 391 
Q 1994 391 2212 530 
Q 2431 669 2431 922 
Q 2431 1156 2273 1281 
Q 2116 1406 1581 1522 
L 1381 1569 
Q 847 1681 609 1914 
Q 372 2147 372 2553 
Q 372 3047 722 3315 
Q 1072 3584 1716 3584 
Q 2034 3584 2315 3537 
Q 2597 3491 2834 3397 
z
" transform="scale(0.015625)"/>
      </defs>
      <use xlink:href="#DejaVuSans-53"/>
      <use xlink:href="#DejaVuSans-74" transform="translate(63.476562 0)"/>
      <use xlink:href="#DejaVuSans-65" transform="translate(102.685547 0)"/>
      <use xlink:href="#DejaVuSans-70" transform="translate(164.208984 0)"/>
      <use xlink:href="#DejaVuSans-73" transform="translate(227.685547 0)"/>
     </g>
    </g>
   </g>
   <g id="matplotlib.axis_2">
    <g id="ytick_1">
     <g id="line2d_7">
      <defs>
       <path id="m91fbcec9f9" d="M 0 0 
L -3.5 0 
" style="stroke: #000000; stroke-width: 0.8"/>
      </defs>
      <g>
       <use xlink:href="#m91fbcec9f9" x="108" y="275.127907" style="stroke: #000000; stroke-width: 0.8"/>
      </g>
     </g>
     <g id="text_8">
      <!-- 0.2 -->
      <g transform="translate(85.096875 278.927126) scale(0.1 -0.1)">
       <defs>
        <path id="DejaVuSans-2e" d="M 684 794 
L 1344 794 
L 1344 0 
L 684 0 
L 684 794 
z
" transform="scale(0.015625)"/>
       </defs>
       <use xlink:href="#DejaVuSans-30"/>
       <use xlink:href="#DejaVuSans-2e" transform="translate(63.623047 0)"/>
       <use xlink:href="#DejaVuSans-32" transform="translate(95.410156 0)"/>
      </g>
     </g>
    </g>
    <g id="ytick_2">
     <g id="line2d_8">
      <g>
       <use xlink:href="#m91fbcec9f9" x="108" y="216.523256" style="stroke: #000000; stroke-width: 0.8"/>
      </g>
     </g>
     <g id="text_9">
      <!-- 0.4 -->
      <g transform="translate(85.096875 220.322475) scale(0.1 -0.1)">
       <use xlink:href="#DejaVuSans-30"/>
       <use xlink:href="#DejaVuSans-2e" transform="translate(63.623047 0)"/>
       <use xlink:href="#DejaVuSans-34" transform="translate(95.410156 0)"/>
      </g>
     </g>
    </g>
    <g id="ytick_3">
     <g id="line2d_9">
      <g>
       <use xlink:href="#m91fbcec9f9" x="108" y="157.918605" style="stroke: #000000; stroke-width: 0.8"/>
      </g>
     </g>
     <g id="text_10">
      <!-- 0.6 -->
      <g transform="translate(85.096875 161.717823) scale(0.1 -0.1)">
       <use xlink:href="#DejaVuSans-30"/>
       <use xlink:href="#DejaVuSans-2e" transform="translate(63.623047 0)"/>
       <use xlink:href="#DejaVuSans-36" transform="translate(95.410156 0)"/>
      </g>
     </g>
    </g>
    <g id="ytick_4">
     <g id="line2d_10">
      <g>
       <use xlink:href="#m91fbcec9f9" x="108" y="99.313953" style="stroke: #000000; stroke-width: 0.8"/>
      </g>
     </g>
     <g id="text_11">
      <!-- 0.8 -->
      <g transform="translate(85.096875 103.113172) scale(0.1 -0.1)">
       <use xlink:href="#DejaVuSans-30"/>
       <use xlink:href="#DejaVuSans-2e" transform="translate(63.623047 0)"/>
       <use xlink:href="#DejaVuSans-38" transform="translate(95.410156 0)"/>
      </g>
     </g>
    </g>
    <g id="text_12">
     <!-- % Optimal Action -->
     <g transform="translate(79.017187 225.171094) rotate(-90) scale(0.1 -0.1)">
      <defs>
       <path id="DejaVuSans-25" d="M 4653 2053 
Q 4381 2053 4226 1822 
Q 4072 1591 4072 1178 
Q 4072 772 4226 539 
Q 4381 306 4653 306 
Q 4919 306 5073 539 
Q 5228 772 5228 1178 
Q 5228 1588 5073 1820 
Q 4919 2053 4653 2053 
z
M 4653 2450 
Q 5147 2450 5437 2106 
Q 5728 1763 5728 1178 
Q 5728 594 5436 251 
Q 5144 -91 4653 -91 
Q 4153 -91 3862 251 
Q 3572 594 3572 1178 
Q 3572 1766 3864 2108 
Q 4156 2450 4653 2450 
z
M 1428 4353 
Q 1159 4353 1004 4120 
Q 850 3888 850 3481 
Q 850 3069 1003 2837 
Q 1156 2606 1428 2606 
Q 1700 2606 1854 2837 
Q 2009 3069 2009 3481 
Q 2009 3884 1853 4118 
Q 1697 4353 1428 4353 
z
M 4250 4750 
L 4750 4750 
L 1831 -91 
L 1331 -91 
L 4250 4750 
z
M 1428 4750 
Q 1922 4750 2215 4408 
Q 2509 4066 2509 3481 
Q 2509 2891 2217 2550 
Q 1925 2209 1428 2209 
Q 931 2209 642 2551 
Q 353 2894 353 3481 
Q 353 4063 643 4406 
Q 934 4750 1428 4750 
z
" transform="scale(0.015625)"/>
       <path id="DejaVuSans-20" transform="scale(0.015625)"/>
       <path id="DejaVuSans-4f" d="M 2522 4238 
Q 1834 4238 1429 3725 
Q 1025 3213 1025 2328 
Q 1025 1447 1429 934 
Q 1834 422 2522 422 
Q 3209 422 3611 934 
Q 4013 1447 4013 2328 
Q 4013 3213 3611 3725 
Q 3209 4238 2522 4238 
z
M 2522 4750 
Q 3503 4750 4090 4092 
Q 4678 3434 4678 2328 
Q 4678 1225 4090 567 
Q 3503 -91 2522 -91 
Q 1538 -91 948 565 
Q 359 1222 359 2328 
Q 359 3434 948 4092 
Q 1538 4750 2522 4750 
z
" transform="scale(0.015625)"/>
       <path id="DejaVuSans-69" d="M 603 3500 
L 1178 3500 
L 1178 0 
L 603 0 
L 603 3500 
z
M 603 4863 
L 1178 4863 
L 1178 4134 
L 603 4134 
L 603 4863 
z
" transform="scale(0.015625)"/>
       <path id="DejaVuSans-6d" d="M 3328 2828 
Q 3544 3216 3844 3400 
Q 4144 3584 4550 3584 
Q 5097 3584 5394 3201 
Q 5691 2819 5691 2113 
L 5691 0 
L 5113 0 
L 5113 2094 
Q 5113 2597 4934 2840 
Q 4756 3084 4391 3084 
Q 3944 3084 3684 2787 
Q 3425 2491 3425 1978 
L 3425 0 
L 2847 0 
L 2847 2094 
Q 2847 2600 2669 2842 
Q 2491 3084 2119 3084 
Q 1678 3084 1418 2786 
Q 1159 2488 1159 1978 
L 1159 0 
L 581 0 
L 581 3500 
L 1159 3500 
L 1159 2956 
Q 1356 3278 1631 3431 
Q 1906 3584 2284 3584 
Q 2666 3584 2933 3390 
Q 3200 3197 3328 2828 
z
" transform="scale(0.015625)"/>
       <path id="DejaVuSans-61" d="M 2194 1759 
Q 1497 1759 1228 1600 
Q 959 1441 959 1056 
Q 959 750 1161 570 
Q 1363 391 1709 391 
Q 2188 391 2477 730 
Q 2766 1069 2766 1631 
L 2766 1759 
L 2194 1759 
z
M 3341 1997 
L 3341 0 
L 2766 0 
L 2766 531 
Q 2569 213 2275 61 
Q 1981 -91 1556 -91 
Q 1019 -91 701 211 
Q 384 513 384 1019 
Q 384 1609 779 1909 
Q 1175 2209 1959 2209 
L 2766 2209 
L 2766 2266 
Q 2766 2663 2505 2880 
Q 2244 3097 1772 3097 
Q 1472 3097 1187 3025 
Q 903 2953 641 2809 
L 641 3341 
Q 956 3463 1253 3523 
Q 1550 3584 1831 3584 
Q 2591 3584 2966 3190 
Q 3341 2797 3341 1997 
z
" transform="scale(0.015625)"/>
       <path id="DejaVuSans-6c" d="M 603 4863 
L 1178 4863 
L 1178 0 
L 603 0 
L 603 4863 
z
" transform="scale(0.015625)"/>
       <path id="DejaVuSans-41" d="M 2188 4044 
L 1331 1722 
L 3047 1722 
L 2188 4044 
z
M 1831 4666 
L 2547 4666 
L 4325 0 
L 3669 0 
L 3244 1197 
L 1141 1197 
L 716 0 
L 50 0 
L 1831 4666 
z
" transform="scale(0.015625)"/>
       <path id="DejaVuSans-63" d="M 3122 3366 
L 3122 2828 
Q 2878 2963 2633 3030 
Q 2388 3097 2138 3097 
Q 1578 3097 1268 2742 
Q 959 2388 959 1747 
Q 959 1106 1268 751 
Q 1578 397 2138 397 
Q 2388 397 2633 464 
Q 2878 531 3122 666 
L 3122 134 
Q 2881 22 2623 -34 
Q 2366 -91 2075 -91 
Q 1284 -91 818 406 
Q 353 903 353 1747 
Q 353 2603 823 3093 
Q 1294 3584 2113 3584 
Q 2378 3584 2631 3529 
Q 2884 3475 3122 3366 
z
" transform="scale(0.015625)"/>
       <path id="DejaVuSans-6f" d="M 1959 3097 
Q 1497 3097 1228 2736 
Q 959 2375 959 1747 
Q 959 1119 1226 758 
Q 1494 397 1959 397 
Q 2419 397 2687 759 
Q 2956 1122 2956 1747 
Q 2956 2369 2687 2733 
Q 2419 3097 1959 3097 
z
M 1959 3584 
Q 2709 3584 3137 3096 
Q 3566 2609 3566 1747 
Q 3566 888 3137 398 
Q 2709 -91 1959 -91 
Q 1206 -91 779 398 
Q 353 888 353 1747 
Q 353 2609 779 3096 
Q 1206 3584 1959 3584 
z
" transform="scale(0.015625)"/>
       <path id="DejaVuSans-6e" d="M 3513 2113 
L 3513 0 
L 2938 0 
L 2938 2094 
Q 2938 2591 2744 2837 
Q 2550 3084 2163 3084 
Q 1697 3084 1428 2787 
Q 1159 2491 1159 1978 
L 1159 0 
L 581 0 
L 581 3500 
L 1159 3500 
L 1159 2956 
Q 1366 3272 1645 3428 
Q 1925 3584 2291 3584 
Q 2894 3584 3203 3211 
Q 3513 2838 3513 2113 
z
" transform="scale(0.015625)"/>
      </defs>
      <use xlink:href="#DejaVuSans-25"/>
      <use xlink:href="#DejaVuSans-20" transform="translate(95.019531 0)"/>
      <use xlink:href="#DejaVuSans-4f" transform="translate(126.806641 0)"/>
      <use xlink:href="#DejaVuSans-70" transform="translate(205.517578 0)"/>
      <use xlink:href="#DejaVuSans-74" transform="translate(268.994141 0)"/>
      <use xlink:href="#DejaVuSans-69" transform="translate(308.203125 0)"/>
      <use xlink:href="#DejaVuSans-6d" transform="translate(335.986328 0)"/>
      <use xlink:href="#DejaVuSans-61" transform="translate(433.398438 0)"/>
      <use xlink:href="#DejaVuSans-6c" transform="translate(494.677734 0)"/>
      <use xlink:href="#DejaVuSans-20" transform="translate(522.460938 0)"/>
      <use xlink:href="#DejaVuSans-41" transform="translate(554.248047 0)"/>
      <use xlink:href="#DejaVuSans-63" transform="translate(620.90625 0)"/>
      <use xlink:href="#DejaVuSans-74" transform="translate(675.886719 0)"/>
      <use xlink:href="#DejaVuSans-69" transform="translate(715.095703 0)"/>
      <use xlink:href="#DejaVuSans-6f" transform="translate(742.878906 0)"/>
      <use xlink:href="#DejaVuSans-6e" transform="translate(804.060547 0)"/>
     </g>
    </g>
   </g>
   <g id="line2d_11">
    <path d="M 138.436364 304.430233 
L 139.0457 289.486047 
L 141.483047 267.216279 
L 142.092383 265.897674 
L 142.70172 262.82093 
L 143.311057 258.27907 
L 143.920393 254.616279 
L 144.52973 251.686047 
L 145.139066 249.781395 
L 146.35774 242.162791 
L 146.967076 240.697674 
L 147.576413 240.990698 
L 148.185749 237.474419 
L 148.795086 237.034884 
L 149.404423 235.276744 
L 150.013759 237.913953 
L 150.623096 234.397674 
L 151.841769 232.786047 
L 152.451106 231.32093 
L 153.060442 229.416279 
L 153.669779 226.193023 
L 154.279115 226.925581 
L 154.888452 224.288372 
L 155.497789 223.848837 
L 156.716462 221.065116 
L 157.325799 217.109302 
L 157.935135 219.013953 
L 158.544472 218.72093 
L 159.153808 215.351163 
L 159.763145 215.05814 
L 160.372482 216.523256 
L 160.981818 214.618605 
L 161.591155 213.3 
L 162.200491 210.955814 
L 162.809828 213.739535 
L 163.419165 213.006977 
L 164.028501 212.567442 
L 164.637838 209.344186 
L 165.247174 209.490698 
L 165.856511 209.197674 
L 166.465848 206.853488 
L 167.075184 206.12093 
L 167.684521 208.465116 
L 168.293857 206.267442 
L 168.903194 201.725581 
L 169.512531 204.069767 
L 170.121867 202.165116 
L 170.731204 202.604651 
L 171.340541 201.139535 
L 171.949877 199.967442 
L 172.559214 198.209302 
L 173.16855 197.916279 
L 173.777887 198.209302 
L 174.387224 200.113953 
L 174.99656 195.718605 
L 175.605897 195.718605 
L 176.215233 195.865116 
L 176.82457 196.304651 
L 177.433907 197.476744 
L 178.043243 194.546512 
L 178.65258 193.813953 
L 179.261916 192.202326 
L 179.871253 194.546512 
L 180.48059 190.444186 
L 181.089926 189.418605 
L 181.699263 189.565116 
L 182.3086 190.004651 
L 182.917936 187.806977 
L 183.527273 190.883721 
L 184.136609 192.055814 
L 184.745946 189.272093 
L 185.355283 187.22093 
L 185.964619 186.195349 
L 186.573956 186.927907 
L 187.183292 186.488372 
L 187.792629 186.195349 
L 188.401966 184.583721 
L 189.620639 185.902326 
L 190.229975 184.583721 
L 190.839312 186.634884 
L 191.448649 184.144186 
L 192.057985 185.902326 
L 192.667322 183.704651 
L 193.276658 182.386047 
L 193.885995 181.653488 
L 194.495332 183.851163 
L 195.104668 181.506977 
L 195.714005 180.04186 
L 196.323342 181.506977 
L 196.932678 180.627907 
L 197.542015 177.844186 
L 198.151351 180.481395 
L 198.760688 177.844186 
L 199.370025 177.990698 
L 199.979361 179.455814 
L 201.198034 173.888372 
L 201.807371 172.569767 
L 202.416708 177.111628 
L 203.026044 175.5 
L 203.635381 172.716279 
L 204.244717 176.672093 
L 204.854054 174.767442 
L 205.463391 176.965116 
L 206.072727 175.060465 
L 206.682064 177.551163 
L 207.2914 172.569767 
L 207.900737 171.983721 
L 208.510074 171.837209 
L 209.11941 171.983721 
L 209.728747 169.053488 
L 210.338084 173.009302 
L 210.94742 166.123256 
L 211.556757 171.104651 
L 212.166093 169.346512 
L 212.77543 168.467442 
L 213.384767 166.709302 
L 213.994103 169.932558 
L 214.60344 167.148837 
L 215.822113 163.632558 
L 216.43145 164.804651 
L 217.040786 165.244186 
L 217.650123 165.830233 
L 218.868796 163.632558 
L 219.478133 163.339535 
L 220.087469 162.753488 
L 220.696806 160.848837 
L 221.306143 165.683721 
L 221.915479 160.995349 
L 222.524816 162.02093 
L 223.134152 163.486047 
L 223.743489 160.555814 
L 224.352826 162.167442 
L 224.962162 161.288372 
L 225.571499 158.065116 
L 226.790172 162.02093 
L 227.399509 159.823256 
L 228.008845 160.995349 
L 228.618182 156.746512 
L 229.227518 156.160465 
L 229.836855 156.746512 
L 230.446192 156.893023 
L 231.055528 153.230233 
L 231.664865 155.72093 
L 232.274201 157.039535 
L 232.883538 151.765116 
L 233.492875 156.6 
L 234.102211 155.867442 
L 234.711548 155.574419 
L 235.320885 159.090698 
L 235.930221 159.237209 
L 236.539558 155.427907 
L 237.758231 155.427907 
L 238.367568 153.669767 
L 238.976904 153.962791 
L 239.586241 155.72093 
L 240.195577 152.497674 
L 240.804914 153.376744 
L 241.414251 151.911628 
L 242.023587 152.790698 
L 243.24226 149.713953 
L 243.851597 150.006977 
L 244.460934 148.688372 
L 245.07027 151.17907 
L 245.679607 148.834884 
L 246.288943 148.981395 
L 246.89828 152.790698 
L 247.507617 146.930233 
L 248.116953 150.3 
L 249.335627 148.102326 
L 249.944963 146.783721 
L 250.5543 149.274419 
L 251.163636 149.42093 
L 251.772973 148.834884 
L 252.38231 151.032558 
L 252.991646 146.051163 
L 254.210319 148.102326 
L 254.819656 146.783721 
L 255.428993 145.172093 
L 256.038329 148.981395 
L 256.647666 145.904651 
L 258.475676 149.860465 
L 259.085012 145.611628 
L 259.694349 146.637209 
L 260.303686 146.344186 
L 260.913022 146.344186 
L 261.522359 144.439535 
L 262.131695 145.025581 
L 262.741032 147.369767 
L 263.350369 147.223256 
L 263.959705 145.172093 
L 264.569042 142.095349 
L 265.178378 144.146512 
L 265.787715 144.87907 
L 266.397052 144.146512 
L 267.006388 144.732558 
L 267.615725 142.681395 
L 268.225061 139.311628 
L 268.834398 140.190698 
L 269.443735 142.095349 
L 270.053071 144.732558 
L 270.662408 142.974419 
L 271.271744 144.439535 
L 271.881081 141.655814 
L 272.490418 140.483721 
L 273.099754 144.732558 
L 273.709091 139.45814 
L 274.318428 140.337209 
L 274.927764 139.45814 
L 275.537101 139.45814 
L 276.146437 139.751163 
L 276.755774 140.483721 
L 277.365111 140.044186 
L 277.974447 140.337209 
L 278.583784 137.113953 
L 279.19312 141.802326 
L 279.802457 139.45814 
L 280.411794 139.45814 
L 281.02113 139.311628 
L 281.630467 140.190698 
L 282.239803 137.260465 
L 282.84914 139.604651 
L 283.458477 136.82093 
L 284.067813 133.011628 
L 284.67715 138.872093 
L 285.286486 136.381395 
L 285.895823 137.113953 
L 286.50516 135.795349 
L 287.114496 134.037209 
L 287.723833 137.7 
L 288.33317 133.744186 
L 289.551843 135.355814 
L 290.161179 135.209302 
L 290.770516 131.693023 
L 291.379853 131.693023 
L 291.989189 134.330233 
L 292.598526 132.865116 
L 293.207862 133.597674 
L 293.817199 135.648837 
L 294.426536 136.967442 
L 295.035872 134.037209 
L 296.254545 135.355814 
L 296.863882 133.744186 
L 297.473219 129.202326 
L 298.082555 132.718605 
L 298.691892 132.425581 
L 299.301229 130.081395 
L 299.910565 134.476744 
L 300.519902 136.234884 
L 301.129238 134.037209 
L 301.738575 130.667442 
L 302.347912 130.52093 
L 302.957248 131.839535 
L 303.566585 135.94186 
L 304.175921 131.4 
L 304.785258 130.667442 
L 305.394595 133.597674 
L 306.003931 130.52093 
L 306.613268 130.813953 
L 307.222604 131.253488 
L 307.831941 133.15814 
L 308.441278 132.425581 
L 309.050614 134.476744 
L 309.659951 127.883721 
L 310.269287 133.304651 
L 311.487961 131.4 
L 312.097297 132.425581 
L 312.706634 129.348837 
L 313.315971 130.52093 
L 313.925307 129.64186 
L 314.534644 130.081395 
L 315.14398 129.788372 
L 315.753317 132.572093 
L 316.362654 128.469767 
L 316.97199 132.718605 
L 317.581327 128.323256 
L 318.190663 126.125581 
L 318.8 130.667442 
L 319.409337 128.030233 
L 320.018673 128.762791 
L 320.62801 133.15814 
L 321.237346 127.004651 
L 321.846683 130.52093 
L 322.45602 130.813953 
L 323.065356 125.686047 
L 323.674693 125.539535 
L 324.284029 129.348837 
L 324.893366 127.297674 
L 325.502703 128.030233 
L 326.112039 128.030233 
L 326.721376 126.565116 
L 327.330713 125.393023 
L 327.940049 126.711628 
L 328.549386 127.444186 
L 329.158722 125.97907 
L 329.768059 123.927907 
L 330.377396 124.660465 
L 330.986732 128.469767 
L 331.596069 125.832558 
L 332.205405 124.806977 
L 332.814742 128.469767 
L 333.424079 127.590698 
L 334.033415 127.151163 
L 334.642752 127.737209 
L 335.252088 124.074419 
L 335.861425 127.737209 
L 336.470762 126.565116 
L 337.080098 126.272093 
L 337.689435 124.806977 
L 338.298771 124.660465 
L 338.908108 125.686047 
L 339.517445 127.737209 
L 340.126781 124.22093 
L 340.736118 126.272093 
L 341.345455 122.902326 
L 341.954791 124.074419 
L 342.564128 126.711628 
L 343.173464 124.367442 
L 343.782801 129.055814 
L 344.392138 123.634884 
L 345.001474 125.97907 
L 345.610811 126.125581 
L 346.220147 123.927907 
L 346.829484 127.151163 
L 347.438821 126.565116 
L 348.048157 131.253488 
L 348.657494 125.1 
L 349.26683 126.272093 
L 351.09484 124.22093 
L 351.704177 124.660465 
L 352.313514 120.55814 
L 352.92285 126.418605 
L 353.532187 121.144186 
L 354.141523 122.902326 
L 354.75086 122.609302 
L 355.360197 120.851163 
L 355.969533 122.755814 
L 356.57887 122.023256 
L 357.188206 126.125581 
L 357.797543 122.316279 
L 358.40688 122.316279 
L 359.016216 122.609302 
L 359.625553 123.195349 
L 360.234889 123.488372 
L 360.844226 122.169767 
L 361.453563 121.437209 
L 362.062899 119.972093 
L 362.672236 124.660465 
L 363.281572 123.34186 
L 363.890909 124.074419 
L 364.500246 123.34186 
L 365.109582 121.437209 
L 366.328256 121.437209 
L 366.937592 119.386047 
L 367.546929 120.55814 
L 368.156265 118.946512 
L 368.765602 120.704651 
L 369.374939 123.048837 
L 369.984275 122.023256 
L 370.593612 121.876744 
L 371.202948 123.048837 
L 371.812285 119.093023 
L 372.421622 122.316279 
L 373.030958 119.67907 
L 373.640295 119.239535 
L 374.249631 117.774419 
L 374.858968 121.583721 
L 375.468305 120.118605 
L 376.077641 121.876744 
L 376.686978 121.437209 
L 377.296314 119.239535 
L 377.905651 118.506977 
L 378.514988 118.067442 
L 379.124324 119.972093 
L 379.733661 122.316279 
L 380.342998 121.290698 
L 380.952334 118.067442 
L 381.561671 119.093023 
L 382.171007 121.437209 
L 382.780344 119.093023 
L 383.389681 120.118605 
L 383.999017 120.704651 
L 384.608354 119.093023 
L 385.21769 120.265116 
L 385.827027 120.411628 
L 386.436364 116.016279 
L 387.0457 119.532558 
L 387.655037 114.990698 
L 388.264373 117.334884 
L 388.87371 116.748837 
L 389.483047 115.723256 
L 390.092383 112.646512 
L 390.70172 118.360465 
L 391.311057 116.309302 
L 391.920393 117.188372 
L 392.52973 120.851163 
L 393.139066 117.188372 
L 393.748403 117.334884 
L 394.35774 118.946512 
L 394.967076 114.404651 
L 395.576413 115.869767 
L 396.185749 116.895349 
L 396.795086 115.723256 
L 397.404423 116.602326 
L 398.623096 114.404651 
L 399.232432 115.283721 
L 399.841769 114.844186 
L 400.451106 118.213953 
L 401.060442 120.851163 
L 401.669779 114.844186 
L 402.279115 118.653488 
L 402.888452 115.723256 
L 403.497789 119.532558 
L 404.107125 118.213953 
L 404.716462 114.990698 
L 405.325799 117.334884 
L 405.935135 114.990698 
L 406.544472 113.818605 
L 407.153808 122.169767 
L 407.763145 117.334884 
L 408.372482 115.430233 
L 408.981818 116.748837 
L 409.591155 114.551163 
L 410.200491 116.602326 
L 410.809828 115.283721 
L 411.419165 116.016279 
L 412.028501 117.774419 
L 412.637838 116.016279 
L 413.247174 116.602326 
L 413.856511 118.067442 
L 415.075184 113.818605 
L 416.293857 116.748837 
L 416.903194 116.455814 
L 417.512531 118.360465 
L 418.121867 116.162791 
L 418.731204 117.481395 
L 419.340541 115.723256 
L 419.949877 119.825581 
L 420.559214 116.455814 
L 421.16855 119.239535 
L 421.777887 115.137209 
L 422.387224 116.895349 
L 422.99656 119.093023 
L 423.605897 117.774419 
L 424.215233 114.844186 
L 424.82457 117.92093 
L 425.433907 116.309302 
L 426.043243 117.188372 
L 426.65258 113.965116 
L 427.261916 116.895349 
L 427.871253 117.04186 
L 428.48059 118.946512 
L 429.089926 116.748837 
L 429.699263 112.353488 
L 430.917936 115.137209 
L 432.136609 116.895349 
L 432.745946 118.213953 
L 433.355283 117.92093 
L 433.964619 114.844186 
L 434.573956 114.25814 
L 435.183292 113.086047 
L 435.792629 117.04186 
L 436.401966 116.309302 
L 437.011302 116.602326 
L 437.620639 115.576744 
L 438.229975 116.748837 
L 438.839312 115.430233 
L 439.448649 117.481395 
L 440.057985 115.723256 
L 440.667322 113.525581 
L 441.885995 115.137209 
L 442.495332 116.895349 
L 444.323342 113.818605 
L 444.932678 113.672093 
L 445.542015 110.74186 
L 446.151351 117.334884 
L 446.760688 117.04186 
L 447.370025 114.25814 
L 447.979361 113.232558 
L 448.588698 115.723256 
L 449.807371 114.111628 
L 450.416708 114.404651 
L 451.026044 115.283721 
L 451.635381 113.525581 
L 452.244717 118.946512 
L 452.854054 115.430233 
L 453.463391 114.697674 
L 454.072727 113.232558 
L 454.682064 115.283721 
L 455.2914 115.430233 
L 455.900737 113.086047 
L 456.510074 114.551163 
L 457.11941 112.5 
L 457.728747 113.232558 
L 458.338084 115.576744 
L 458.94742 115.723256 
L 459.556757 112.793023 
L 460.166093 114.990698 
L 460.77543 113.086047 
L 461.384767 112.646512 
L 461.994103 112.5 
L 462.60344 111.767442 
L 463.212776 111.327907 
L 464.43145 114.697674 
L 465.040786 111.327907 
L 465.650123 113.086047 
L 466.259459 107.518605 
L 466.868796 114.990698 
L 467.478133 116.895349 
L 468.087469 109.569767 
L 468.696806 114.551163 
L 469.306143 110.448837 
L 469.915479 111.767442 
L 470.524816 109.862791 
L 471.134152 112.939535 
L 471.743489 111.474419 
L 472.352826 110.74186 
L 472.962162 108.983721 
L 473.571499 110.302326 
L 474.180835 112.353488 
L 474.790172 113.672093 
L 476.008845 112.206977 
L 476.618182 112.793023 
L 477.227518 112.5 
L 477.836855 111.034884 
L 478.446192 113.525581 
L 479.055528 111.181395 
L 480.274201 112.793023 
L 480.883538 109.862791 
L 481.492875 112.5 
L 482.102211 111.62093 
L 482.711548 113.525581 
L 483.320885 114.551163 
L 483.930221 110.74186 
L 484.539558 115.137209 
L 485.148894 113.818605 
L 485.758231 110.302326 
L 486.367568 111.327907 
L 486.976904 111.474419 
L 487.586241 108.837209 
L 488.195577 111.913953 
L 488.804914 110.302326 
L 489.414251 108.251163 
L 490.023587 114.25814 
L 490.632924 113.232558 
L 491.24226 112.793023 
L 491.851597 112.793023 
L 492.460934 111.034884 
L 493.679607 114.25814 
L 494.288943 110.595349 
L 494.89828 112.646512 
L 495.507617 110.74186 
L 496.116953 111.62093 
L 496.72629 111.767442 
L 497.335627 112.793023 
L 497.944963 107.95814 
L 498.5543 111.62093 
L 499.163636 109.423256 
L 499.772973 111.034884 
L 500.38231 111.767442 
L 500.991646 110.448837 
L 501.600983 111.181395 
L 502.210319 112.206977 
L 502.819656 110.595349 
L 503.428993 112.206977 
L 504.038329 108.544186 
L 504.647666 112.353488 
L 505.257002 110.595349 
L 506.475676 108.251163 
L 507.085012 109.276744 
L 507.694349 113.965116 
L 508.303686 110.448837 
L 508.913022 110.448837 
L 509.522359 112.060465 
L 510.131695 109.716279 
L 510.741032 110.448837 
L 511.350369 114.844186 
L 511.959705 111.913953 
L 512.569042 110.155814 
L 513.178378 112.939535 
L 513.787715 110.009302 
L 514.397052 111.181395 
L 515.006388 112.060465 
L 516.225061 107.518605 
L 516.834398 111.62093 
L 517.443735 109.130233 
L 518.053071 105.906977 
L 518.662408 109.130233 
L 519.271744 110.888372 
L 519.881081 110.888372 
L 520.490418 109.423256 
L 521.099754 112.353488 
L 521.709091 108.837209 
L 522.318428 111.034884 
L 522.927764 108.837209 
L 524.755774 113.525581 
L 525.365111 110.009302 
L 525.974447 111.767442 
L 526.583784 111.181395 
L 527.19312 105.613953 
L 527.802457 112.793023 
L 528.411794 112.353488 
L 529.02113 107.811628 
L 529.630467 108.251163 
L 530.239803 106.786047 
L 530.84914 110.009302 
L 531.458477 107.372093 
L 532.067813 109.130233 
L 532.67715 108.397674 
L 533.286486 113.965116 
L 533.895823 106.493023 
L 534.50516 106.2 
L 535.114496 105.613953 
L 535.723833 108.983721 
L 536.33317 106.053488 
L 536.942506 106.346512 
L 537.551843 106.932558 
L 538.161179 106.493023 
L 538.770516 111.181395 
L 539.379853 108.544186 
L 539.989189 108.397674 
L 540.598526 107.811628 
L 541.207862 107.518605 
L 541.817199 110.155814 
L 542.426536 108.251163 
L 543.035872 106.932558 
L 543.645209 107.811628 
L 544.254545 106.493023 
L 544.863882 110.302326 
L 545.473219 109.276744 
L 546.082555 110.155814 
L 546.691892 110.155814 
L 547.301229 108.397674 
L 547.910565 107.225581 
L 548.519902 107.07907 
L 549.738575 109.862791 
L 550.347912 110.302326 
L 550.957248 106.932558 
L 551.566585 106.932558 
L 552.175921 108.544186 
L 552.785258 106.786047 
L 553.394595 105.467442 
L 554.003931 107.95814 
L 554.613268 104.734884 
L 555.222604 110.155814 
L 555.831941 109.569767 
L 556.441278 105.760465 
L 557.050614 104.002326 
L 558.269287 109.276744 
L 558.878624 104.881395 
L 559.487961 107.372093 
L 560.097297 108.690698 
L 560.706634 109.569767 
L 561.315971 106.493023 
L 561.925307 107.07907 
L 562.534644 108.690698 
L 563.14398 108.544186 
L 563.753317 102.976744 
L 564.362654 105.174419 
L 564.97199 108.837209 
L 565.581327 105.32093 
L 566.190663 107.07907 
L 566.8 106.053488 
L 567.409337 106.493023 
L 568.018673 107.665116 
L 568.62801 105.906977 
L 569.237346 106.639535 
L 569.846683 107.07907 
L 570.45602 104.881395 
L 571.065356 108.104651 
L 571.674693 110.448837 
L 572.284029 105.32093 
L 572.893366 107.07907 
L 573.502703 106.639535 
L 574.112039 105.027907 
L 574.721376 108.251163 
L 575.330713 105.906977 
L 575.940049 104.588372 
L 576.549386 108.544186 
L 577.158722 106.786047 
L 577.768059 105.760465 
L 578.377396 106.639535 
L 578.986732 105.467442 
L 579.596069 107.225581 
L 580.205405 106.346512 
L 580.814742 103.562791 
L 581.424079 105.613953 
L 582.033415 104.734884 
L 582.642752 105.32093 
L 583.252088 107.811628 
L 583.861425 107.518605 
L 584.470762 107.95814 
L 585.080098 105.32093 
L 585.689435 103.416279 
L 586.298771 107.95814 
L 586.908108 110.009302 
L 587.517445 109.276744 
L 588.126781 107.811628 
L 588.736118 111.034884 
L 589.954791 103.416279 
L 590.564128 105.906977 
L 591.173464 104.588372 
L 591.782801 105.613953 
L 592.392138 107.225581 
L 593.610811 105.906977 
L 594.220147 104.734884 
L 594.829484 108.544186 
L 596.048157 103.269767 
L 596.657494 105.613953 
L 597.26683 106.053488 
L 597.876167 107.665116 
L 599.09484 105.613953 
L 599.704177 105.613953 
L 600.313514 107.07907 
L 600.92285 103.562791 
L 601.532187 105.906977 
L 602.141523 109.716279 
L 602.75086 105.32093 
L 603.360197 106.2 
L 603.969533 104.881395 
L 604.57887 102.683721 
L 605.188206 105.027907 
L 605.797543 105.760465 
L 606.40688 106.053488 
L 607.016216 106.2 
L 607.625553 108.544186 
L 608.234889 101.951163 
L 608.844226 105.467442 
L 609.453563 105.906977 
L 610.062899 103.269767 
L 610.672236 108.104651 
L 611.281572 102.537209 
L 611.890909 107.225581 
L 612.500246 107.07907 
L 613.109582 105.174419 
L 613.718919 105.32093 
L 614.328256 105.613953 
L 614.937592 101.804651 
L 615.546929 105.760465 
L 616.156265 105.174419 
L 616.765602 105.760465 
L 617.374939 107.518605 
L 617.984275 104.002326 
L 618.593612 108.983721 
L 619.202948 107.518605 
L 619.812285 109.276744 
L 620.421622 107.225581 
L 621.030958 103.416279 
L 621.640295 104.44186 
L 622.249631 107.811628 
L 622.858968 106.493023 
L 623.468305 104.148837 
L 624.077641 106.2 
L 624.686978 103.123256 
L 625.296314 104.148837 
L 625.905651 101.365116 
L 626.514988 105.906977 
L 627.124324 106.639535 
L 627.733661 103.123256 
L 628.342998 104.295349 
L 628.952334 102.976744 
L 629.561671 103.709302 
L 630.171007 106.2 
L 630.780344 105.613953 
L 631.389681 105.32093 
L 631.999017 106.493023 
L 633.21769 102.683721 
L 633.827027 104.588372 
L 634.436364 101.218605 
L 635.0457 102.537209 
L 635.655037 104.881395 
L 636.264373 103.709302 
L 636.87371 102.830233 
L 637.483047 103.562791 
L 638.092383 109.569767 
L 638.70172 102.830233 
L 639.311057 105.174419 
L 639.920393 103.269767 
L 640.52973 106.493023 
L 641.139066 104.734884 
L 642.35774 105.760465 
L 642.967076 105.760465 
L 643.576413 105.027907 
L 644.185749 103.855814 
L 644.795086 105.760465 
L 645.404423 106.053488 
L 646.013759 105.613953 
L 646.623096 104.002326 
L 647.232432 104.734884 
L 647.841769 106.053488 
L 648.451106 103.709302 
L 649.060442 105.613953 
L 649.669779 102.390698 
L 650.279115 104.44186 
L 650.888452 100.486047 
L 651.497789 101.365116 
L 652.107125 104.734884 
L 652.716462 104.148837 
L 653.325799 106.346512 
L 653.935135 104.002326 
L 654.544472 104.881395 
L 655.153808 103.269767 
L 655.763145 109.276744 
L 656.372482 103.416279 
L 656.981818 103.416279 
L 657.591155 106.2 
L 658.200491 104.002326 
L 658.809828 104.44186 
L 660.028501 101.365116 
L 660.637838 104.881395 
L 661.247174 104.002326 
L 662.465848 101.65814 
L 663.684521 105.174419 
L 664.293857 102.830233 
L 664.903194 105.174419 
L 666.121867 103.709302 
L 666.731204 105.467442 
L 667.340541 103.123256 
L 667.949877 106.932558 
L 668.559214 104.588372 
L 669.16855 99.9 
L 669.777887 102.830233 
L 670.387224 105.027907 
L 670.99656 101.218605 
L 671.605897 103.709302 
L 672.215233 100.486047 
L 672.82457 104.148837 
L 673.433907 103.416279 
L 674.043243 102.097674 
L 674.65258 101.65814 
L 675.261916 105.613953 
L 675.871253 102.097674 
L 676.48059 103.562791 
L 677.089926 106.639535 
L 677.699263 101.365116 
L 678.3086 103.416279 
L 678.917936 104.148837 
L 679.527273 102.683721 
L 680.136609 104.881395 
L 680.745946 102.537209 
L 681.355283 101.65814 
L 681.964619 101.218605 
L 682.573956 104.44186 
L 683.183292 102.244186 
L 683.792629 99.606977 
L 684.401966 103.562791 
L 685.011302 102.390698 
L 685.620639 100.632558 
L 686.229975 102.830233 
L 686.839312 100.925581 
L 687.448649 100.046512 
L 688.057985 100.925581 
L 688.667322 98.581395 
L 689.276658 102.390698 
L 690.495332 105.906977 
L 691.104668 101.365116 
L 691.714005 98.874419 
L 692.323342 102.390698 
L 692.932678 102.097674 
L 693.542015 101.218605 
L 694.151351 101.218605 
L 694.760688 100.77907 
L 695.370025 98.581395 
L 695.979361 102.830233 
L 696.588698 101.365116 
L 697.198034 101.218605 
L 697.807371 101.65814 
L 698.416708 102.976744 
L 699.026044 102.390698 
L 699.635381 105.174419 
L 700.244717 99.606977 
L 700.854054 100.046512 
L 701.463391 100.77907 
L 702.072727 103.709302 
L 702.682064 103.855814 
L 703.2914 99.313953 
L 703.900737 99.753488 
L 704.510074 102.830233 
L 705.11941 100.193023 
L 705.728747 99.753488 
L 706.338084 98.581395 
L 706.94742 99.167442 
L 707.556757 103.416279 
L 708.166093 101.218605 
L 708.77543 99.460465 
L 709.384767 99.167442 
L 709.994103 102.097674 
L 710.60344 99.9 
L 711.212776 101.804651 
L 711.822113 101.511628 
L 712.43145 98.581395 
L 713.040786 100.77907 
L 713.650123 101.804651 
L 714.259459 101.65814 
L 714.868796 97.848837 
L 715.478133 99.460465 
L 716.087469 95.651163 
L 716.696806 101.218605 
L 717.306143 99.167442 
L 717.915479 101.218605 
L 718.524816 100.193023 
L 719.134152 100.339535 
L 719.743489 96.823256 
L 720.352826 99.313953 
L 720.962162 101.072093 
L 721.571499 99.9 
L 722.180835 97.262791 
L 722.790172 100.046512 
L 723.399509 100.77907 
L 724.008845 96.969767 
L 724.618182 100.925581 
L 725.227518 102.390698 
L 725.836855 101.511628 
L 726.446192 100.339535 
L 727.055528 100.046512 
L 727.664865 100.632558 
L 728.274201 100.046512 
L 728.883538 101.804651 
L 729.492875 100.339535 
L 730.102211 101.365116 
L 730.711548 97.409302 
L 731.320885 100.925581 
L 731.930221 99.02093 
L 732.539558 97.848837 
L 733.148894 100.632558 
L 733.758231 100.046512 
L 734.367568 97.262791 
L 734.976904 99.167442 
L 735.586241 98.727907 
L 736.195577 100.046512 
L 736.804914 101.65814 
L 737.414251 99.606977 
L 738.023587 97.116279 
L 738.632924 96.823256 
L 739.24226 99.753488 
L 739.851597 98.727907 
L 740.460934 99.753488 
L 741.07027 100.046512 
L 741.679607 96.383721 
L 742.288943 99.313953 
L 742.89828 102.976744 
L 743.507617 96.530233 
L 744.116953 98.434884 
L 744.72629 101.804651 
L 745.335627 96.530233 
L 745.944963 100.046512 
L 746.5543 98.874419 
L 747.163636 98.581395 
L 747.163636 98.581395 
" clip-path="url(#pfdb50b0cb6)" style="fill: none; stroke: #1f77b4; stroke-width: 1.5; stroke-linecap: square"/>
   </g>
   <g id="line2d_12">
    <path d="M 138.436364 306.627907 
L 139.655037 302.37907 
L 140.264373 303.551163 
L 140.87371 302.672093 
L 141.483047 302.965116 
L 142.092383 304.430233 
L 142.70172 304.430233 
L 143.311057 307.8 
L 143.920393 304.576744 
L 144.52973 207 
L 145.139066 253.004651 
L 145.748403 281.134884 
L 146.35774 289.486047 
L 146.967076 294.174419 
L 147.576413 294.174419 
L 148.185749 296.372093 
L 148.795086 297.544186 
L 149.404423 289.925581 
L 150.013759 286.555814 
L 150.623096 279.669767 
L 151.232432 276.593023 
L 151.841769 275.127907 
L 152.451106 274.54186 
L 153.669779 273.955814 
L 154.279115 268.681395 
L 154.888452 275.567442 
L 156.107125 267.509302 
L 156.716462 268.095349 
L 157.325799 266.630233 
L 157.935135 271.318605 
L 158.544472 267.216279 
L 159.153808 270.439535 
L 159.763145 262.381395 
L 160.372482 270.293023 
L 160.981818 269.12093 
L 161.591155 264.872093 
L 162.200491 259.15814 
L 162.809828 264.286047 
L 163.419165 261.355814 
L 164.028501 256.813953 
L 164.637838 258.865116 
L 165.247174 263.406977 
L 165.856511 259.744186 
L 167.075184 246.997674 
L 167.684521 256.227907 
L 168.293857 249.634884 
L 168.903194 252.418605 
L 169.512531 249.927907 
L 170.121867 249.781395 
L 170.731204 251.686047 
L 171.340541 244.506977 
L 171.949877 247.876744 
L 172.559214 248.755814 
L 173.16855 245.093023 
L 173.777887 243.04186 
L 174.387224 239.672093 
L 174.99656 241.430233 
L 175.605897 238.5 
L 176.215233 238.793023 
L 176.82457 235.569767 
L 177.433907 241.576744 
L 178.043243 231.027907 
L 178.65258 229.562791 
L 179.261916 233.95814 
L 179.871253 232.493023 
L 180.48059 226.632558 
L 181.089926 228.830233 
L 181.699263 225.606977 
L 182.3086 223.409302 
L 182.917936 226.486047 
L 183.527273 219.893023 
L 184.136609 227.072093 
L 184.745946 219.013953 
L 185.355283 227.072093 
L 185.964619 220.186047 
L 186.573956 225.167442 
L 187.183292 213.593023 
L 187.792629 213.886047 
L 188.401966 220.47907 
L 189.011302 215.351163 
L 189.620639 219.893023 
L 190.229975 211.688372 
L 190.839312 214.032558 
L 191.448649 202.897674 
L 192.057985 214.17907 
L 192.667322 212.860465 
L 193.276658 211.102326 
L 193.885995 211.395349 
L 195.104668 205.681395 
L 195.714005 203.776744 
L 196.323342 200.846512 
L 196.932678 203.483721 
L 197.542015 201.872093 
L 198.151351 202.751163 
L 198.760688 197.330233 
L 199.370025 190.590698 
L 199.979361 201.139535 
L 200.588698 195.718605 
L 201.198034 195.718605 
L 201.807371 196.597674 
L 202.416708 193.374419 
L 203.026044 193.813953 
L 203.635381 191.469767 
L 204.244717 192.348837 
L 204.854054 186.048837 
L 205.463391 191.762791 
L 206.072727 190.883721 
L 207.2914 184.583721 
L 207.900737 184.290698 
L 208.510074 184.437209 
L 209.11941 182.825581 
L 209.728747 184.876744 
L 210.338084 184.437209 
L 210.94742 185.902326 
L 211.556757 185.316279 
L 212.166093 181.506977 
L 212.77543 182.386047 
L 213.384767 180.92093 
L 213.994103 177.25814 
L 214.60344 179.748837 
L 215.212776 175.646512 
L 215.822113 175.060465 
L 216.43145 175.206977 
L 217.040786 175.060465 
L 218.259459 168.760465 
L 218.868796 167.734884 
L 219.478133 170.95814 
L 220.087469 168.027907 
L 220.696806 175.5 
L 221.306143 173.888372 
L 221.915479 169.932558 
L 222.524816 168.32093 
L 223.134152 165.537209 
L 223.743489 165.244186 
L 224.352826 161.874419 
L 225.571499 165.683721 
L 226.180835 159.383721 
L 226.790172 167.002326 
L 227.399509 156.746512 
L 228.008845 163.486047 
L 228.618182 162.606977 
L 229.836855 155.867442 
L 230.446192 160.995349 
L 231.055528 160.409302 
L 231.664865 154.109302 
L 232.274201 152.937209 
L 232.883538 153.083721 
L 233.492875 153.962791 
L 234.102211 151.765116 
L 234.711548 152.937209 
L 235.320885 153.669767 
L 235.930221 152.351163 
L 236.539558 149.713953 
L 237.148894 150.153488 
L 237.758231 148.54186 
L 238.367568 144.87907 
L 238.976904 147.076744 
L 239.586241 149.713953 
L 240.195577 148.395349 
L 240.804914 148.981395 
L 241.414251 143.413953 
L 242.023587 146.930233 
L 242.632924 148.688372 
L 243.24226 143.413953 
L 243.851597 141.655814 
L 244.460934 147.076744 
L 245.07027 147.076744 
L 245.679607 142.388372 
L 246.288943 144.586047 
L 247.507617 145.172093 
L 248.116953 144.732558 
L 248.72629 142.095349 
L 249.335627 141.948837 
L 249.944963 140.630233 
L 250.5543 138.57907 
L 251.163636 137.260465 
L 251.772973 134.916279 
L 252.38231 137.993023 
L 252.991646 139.311628 
L 253.600983 137.553488 
L 254.210319 137.113953 
L 254.819656 132.865116 
L 255.428993 132.27907 
L 256.038329 133.304651 
L 256.647666 129.202326 
L 257.257002 128.469767 
L 257.866339 130.667442 
L 258.475676 131.253488 
L 259.085012 127.737209 
L 259.694349 127.737209 
L 260.303686 134.623256 
L 261.522359 128.323256 
L 262.131695 126.125581 
L 262.741032 125.539535 
L 263.350369 128.030233 
L 263.959705 128.762791 
L 264.569042 126.711628 
L 265.178378 128.030233 
L 265.787715 128.616279 
L 266.397052 127.297674 
L 267.006388 127.883721 
L 267.615725 123.781395 
L 268.225061 124.513953 
L 268.834398 123.634884 
L 269.443735 128.909302 
L 270.053071 121.876744 
L 270.662408 125.1 
L 271.271744 123.781395 
L 271.881081 123.34186 
L 272.490418 126.418605 
L 273.099754 125.393023 
L 273.709091 120.411628 
L 274.318428 123.048837 
L 274.927764 123.34186 
L 275.537101 124.074419 
L 276.146437 122.902326 
L 276.755774 119.67907 
L 277.365111 123.488372 
L 278.583784 117.627907 
L 279.19312 119.532558 
L 279.802457 116.748837 
L 280.411794 119.67907 
L 281.02113 120.997674 
L 281.630467 120.265116 
L 282.239803 117.627907 
L 282.84914 119.239535 
L 283.458477 122.023256 
L 284.067813 118.360465 
L 284.67715 117.334884 
L 285.286486 116.895349 
L 285.895823 116.162791 
L 286.50516 114.697674 
L 287.114496 113.672093 
L 287.723833 115.137209 
L 288.33317 115.723256 
L 288.942506 113.818605 
L 289.551843 113.525581 
L 290.161179 110.595349 
L 290.770516 116.309302 
L 291.379853 118.8 
L 291.989189 119.093023 
L 292.598526 112.646512 
L 293.207862 112.939535 
L 293.817199 114.25814 
L 294.426536 114.25814 
L 295.035872 110.302326 
L 295.645209 111.327907 
L 296.254545 109.569767 
L 296.863882 106.346512 
L 297.473219 108.690698 
L 298.082555 107.225581 
L 299.301229 110.448837 
L 299.910565 107.518605 
L 300.519902 110.009302 
L 301.129238 110.009302 
L 301.738575 109.130233 
L 302.347912 107.225581 
L 302.957248 110.155814 
L 303.566585 109.423256 
L 304.175921 104.148837 
L 304.785258 106.346512 
L 305.394595 106.493023 
L 306.003931 104.881395 
L 306.613268 102.683721 
L 307.222604 101.365116 
L 307.831941 104.734884 
L 308.441278 102.830233 
L 309.050614 102.097674 
L 309.659951 104.734884 
L 310.269287 102.683721 
L 310.878624 103.855814 
L 311.487961 102.683721 
L 312.097297 100.632558 
L 312.706634 101.65814 
L 313.315971 105.613953 
L 313.925307 105.906977 
L 314.534644 101.511628 
L 315.14398 101.951163 
L 315.753317 102.537209 
L 316.362654 102.244186 
L 316.97199 96.823256 
L 317.581327 102.683721 
L 318.190663 100.925581 
L 318.8 101.218605 
L 319.409337 100.046512 
L 320.018673 98.581395 
L 321.237346 96.969767 
L 321.846683 97.702326 
L 322.45602 97.848837 
L 323.065356 99.167442 
L 323.674693 99.460465 
L 324.284029 100.046512 
L 324.893366 98.874419 
L 325.502703 98.14186 
L 326.112039 96.090698 
L 326.721376 97.116279 
L 327.330713 96.530233 
L 327.940049 95.504651 
L 328.549386 96.530233 
L 329.158722 94.332558 
L 329.768059 95.797674 
L 330.377396 94.772093 
L 330.986732 90.962791 
L 331.596069 95.35814 
L 332.205405 93.6 
L 332.814742 95.651163 
L 333.424079 94.039535 
L 334.033415 91.695349 
L 335.252088 95.504651 
L 335.861425 94.186047 
L 336.470762 96.969767 
L 337.080098 97.995349 
L 337.689435 95.504651 
L 338.298771 98.14186 
L 338.908108 94.332558 
L 339.517445 94.772093 
L 340.126781 93.160465 
L 340.736118 94.47907 
L 341.345455 93.160465 
L 341.954791 95.944186 
L 342.564128 92.427907 
L 343.173464 91.255814 
L 343.782801 93.160465 
L 345.610811 89.497674 
L 346.220147 91.695349 
L 346.829484 90.669767 
L 347.438821 91.988372 
L 348.048157 94.332558 
L 348.657494 91.255814 
L 349.26683 92.281395 
L 349.876167 90.523256 
L 350.485504 90.669767 
L 351.09484 90.962791 
L 351.704177 90.962791 
L 352.313514 86.713953 
L 352.92285 87.886047 
L 353.532187 85.248837 
L 354.141523 88.325581 
L 355.360197 86.567442 
L 355.969533 86.860465 
L 356.57887 86.860465 
L 357.188206 88.765116 
L 357.797543 88.911628 
L 358.40688 85.834884 
L 359.016216 87.739535 
L 359.625553 87.153488 
L 360.234889 88.325581 
L 360.844226 86.127907 
L 361.453563 88.17907 
L 362.062899 89.351163 
L 362.672236 89.351163 
L 363.281572 89.05814 
L 363.890909 85.395349 
L 364.500246 85.981395 
L 365.109582 84.955814 
L 365.718919 84.809302 
L 366.328256 83.637209 
L 367.546929 84.223256 
L 368.156265 82.611628 
L 368.765602 83.930233 
L 369.374939 84.809302 
L 369.984275 83.197674 
L 370.593612 84.076744 
L 371.202948 83.051163 
L 371.812285 83.490698 
L 372.421622 86.42093 
L 373.030958 83.930233 
L 374.249631 81.732558 
L 374.858968 80.560465 
L 375.468305 83.197674 
L 376.077641 79.534884 
L 377.296314 84.516279 
L 377.905651 82.025581 
L 378.514988 80.706977 
L 379.124324 82.025581 
L 379.733661 79.827907 
L 380.952334 82.611628 
L 381.561671 81.293023 
L 382.171007 82.75814 
L 383.389681 78.655814 
L 383.999017 79.681395 
L 384.608354 81.146512 
L 385.21769 81.732558 
L 385.827027 81.87907 
L 386.436364 79.827907 
L 387.0457 79.827907 
L 387.655037 79.974419 
L 388.264373 82.172093 
L 388.87371 80.706977 
L 389.483047 81 
L 390.092383 80.853488 
L 390.70172 80.267442 
L 391.311057 82.318605 
L 391.920393 79.681395 
L 392.52973 80.560465 
L 393.139066 78.216279 
L 393.748403 78.069767 
L 394.35774 78.948837 
L 394.967076 77.337209 
L 395.576413 79.24186 
L 396.185749 80.413953 
L 396.795086 79.974419 
L 398.013759 78.069767 
L 398.623096 78.069767 
L 399.232432 78.802326 
L 399.841769 77.776744 
L 400.451106 76.165116 
L 401.060442 78.362791 
L 401.669779 78.362791 
L 403.497789 75.432558 
L 404.107125 78.216279 
L 404.716462 79.827907 
L 405.325799 79.24186 
L 405.935135 80.706977 
L 406.544472 79.534884 
L 407.153808 79.388372 
L 407.763145 78.509302 
L 408.372482 79.681395 
L 408.981818 76.751163 
L 409.591155 77.483721 
L 410.200491 79.827907 
L 410.809828 77.776744 
L 411.419165 77.190698 
L 412.028501 76.018605 
L 412.637838 74.260465 
L 413.247174 75.286047 
L 413.856511 78.948837 
L 414.465848 79.827907 
L 415.075184 78.069767 
L 415.684521 77.776744 
L 416.293857 77.044186 
L 416.903194 75.725581 
L 417.512531 77.337209 
L 418.121867 76.018605 
L 418.731204 73.381395 
L 419.340541 74.553488 
L 419.949877 75.286047 
L 420.559214 74.260465 
L 421.16855 76.018605 
L 421.777887 76.604651 
L 422.387224 77.483721 
L 422.99656 76.018605 
L 423.605897 75.432558 
L 424.215233 76.165116 
L 424.82457 76.45814 
L 425.433907 76.604651 
L 426.043243 76.165116 
L 426.65258 74.260465 
L 427.261916 74.993023 
L 427.871253 74.406977 
L 428.48059 76.165116 
L 429.089926 75.286047 
L 429.699263 75.432558 
L 430.3086 74.260465 
L 430.917936 73.967442 
L 431.527273 73.381395 
L 432.136609 73.967442 
L 432.745946 73.527907 
L 433.964619 76.604651 
L 434.573956 76.751163 
L 435.183292 73.381395 
L 435.792629 72.94186 
L 437.011302 74.113953 
L 437.620639 73.674419 
L 438.229975 71.476744 
L 438.839312 74.993023 
L 439.448649 70.890698 
L 440.057985 71.476744 
L 440.667322 72.502326 
L 441.276658 72.209302 
L 442.495332 73.82093 
L 443.104668 73.967442 
L 443.714005 76.45814 
L 444.323342 75.139535 
L 444.932678 76.165116 
L 445.542015 73.234884 
L 446.151351 73.381395 
L 447.370025 73.088372 
L 447.979361 73.674419 
L 448.588698 72.502326 
L 449.198034 71.769767 
L 449.807371 69.865116 
L 450.416708 71.037209 
L 451.026044 71.037209 
L 451.635381 71.916279 
L 452.244717 73.234884 
L 453.463391 74.993023 
L 454.072727 73.381395 
L 454.682064 75.432558 
L 455.2914 75.139535 
L 455.900737 74.406977 
L 456.510074 75.139535 
L 457.11941 74.846512 
L 457.728747 72.209302 
L 458.338084 73.088372 
L 458.94742 73.527907 
L 459.556757 73.088372 
L 460.166093 71.769767 
L 460.77543 70.011628 
L 461.384767 69.572093 
L 461.994103 69.27907 
L 462.60344 67.960465 
L 463.212776 69.27907 
L 463.822113 68.986047 
L 464.43145 68.106977 
L 465.040786 68.4 
L 465.650123 71.476744 
L 466.259459 71.330233 
L 466.868796 71.623256 
L 467.478133 72.062791 
L 468.087469 70.011628 
L 468.696806 71.476744 
L 469.306143 69.865116 
L 469.915479 71.183721 
L 470.524816 69.718605 
L 471.134152 70.744186 
L 471.743489 69.865116 
L 472.352826 71.183721 
L 472.962162 70.15814 
L 473.571499 68.253488 
L 474.180835 68.693023 
L 475.399509 68.986047 
L 476.008845 69.572093 
L 476.618182 68.986047 
L 477.227518 69.132558 
L 477.836855 67.813953 
L 478.446192 67.374419 
L 479.055528 69.425581 
L 480.274201 67.667442 
L 480.883538 68.4 
L 481.492875 68.693023 
L 482.102211 69.132558 
L 482.711548 68.106977 
L 483.320885 70.011628 
L 483.930221 68.4 
L 484.539558 70.011628 
L 485.148894 68.839535 
L 485.758231 66.788372 
L 486.367568 66.934884 
L 486.976904 66.495349 
L 487.586241 66.202326 
L 488.195577 67.374419 
L 488.804914 67.813953 
L 489.414251 67.52093 
L 490.023587 66.788372 
L 490.632924 66.788372 
L 491.24226 65.616279 
L 491.851597 65.616279 
L 493.07027 68.546512 
L 493.679607 68.4 
L 494.89828 67.374419 
L 495.507617 67.960465 
L 496.116953 67.081395 
L 496.72629 67.374419 
L 497.335627 64.151163 
L 497.944963 65.762791 
L 498.5543 66.348837 
L 499.163636 66.348837 
L 499.772973 65.616279 
L 500.38231 65.176744 
L 500.991646 65.030233 
L 501.600983 64.444186 
L 502.210319 66.495349 
L 502.819656 66.788372 
L 503.428993 64.590698 
L 504.647666 65.469767 
L 505.257002 65.323256 
L 505.866339 65.616279 
L 506.475676 65.469767 
L 507.694349 67.960465 
L 508.303686 68.546512 
L 508.913022 68.546512 
L 509.522359 69.132558 
L 510.131695 68.4 
L 510.741032 68.693023 
L 511.350369 68.546512 
L 511.959705 67.813953 
L 512.569042 68.693023 
L 513.178378 67.667442 
L 513.787715 65.762791 
L 514.397052 68.693023 
L 515.006388 67.52093 
L 515.615725 65.909302 
L 516.225061 66.055814 
L 516.834398 66.788372 
L 517.443735 67.813953 
L 518.053071 67.081395 
L 518.662408 65.176744 
L 519.271744 66.055814 
L 519.881081 66.202326 
L 521.099754 67.667442 
L 521.709091 64.737209 
L 522.318428 67.813953 
L 522.927764 67.52093 
L 523.537101 66.495349 
L 524.146437 66.348837 
L 524.755774 65.323256 
L 525.365111 64.737209 
L 525.974447 67.374419 
L 526.583784 65.469767 
L 527.19312 65.909302 
L 527.802457 64.297674 
L 528.411794 63.565116 
L 529.02113 63.272093 
L 529.630467 62.1 
L 530.84914 65.030233 
L 531.458477 62.97907 
L 532.067813 64.004651 
L 532.67715 65.909302 
L 533.286486 65.909302 
L 534.50516 64.737209 
L 535.114496 64.883721 
L 535.723833 63.125581 
L 536.942506 64.444186 
L 537.551843 63.711628 
L 538.161179 64.297674 
L 538.770516 64.590698 
L 539.379853 64.004651 
L 539.989189 65.176744 
L 540.598526 63.418605 
L 541.207862 63.125581 
L 541.817199 62.97907 
L 542.426536 63.125581 
L 543.035872 63.711628 
L 543.645209 63.565116 
L 544.254545 62.97907 
L 544.863882 63.418605 
L 545.473219 64.004651 
L 546.082555 64.151163 
L 546.691892 63.85814 
L 547.301229 63.125581 
L 547.910565 63.85814 
L 548.519902 64.004651 
L 549.129238 65.030233 
L 549.738575 64.444186 
L 550.347912 63.418605 
L 550.957248 64.444186 
L 551.566585 64.151163 
L 552.175921 64.297674 
L 552.785258 63.418605 
L 554.003931 63.418605 
L 554.613268 63.85814 
L 555.222604 64.444186 
L 555.831941 64.444186 
L 556.441278 63.125581 
L 557.050614 63.85814 
L 557.659951 62.97907 
L 558.269287 64.297674 
L 558.878624 62.832558 
L 559.487961 62.393023 
L 560.097297 63.418605 
L 560.706634 62.1 
L 561.315971 61.953488 
L 561.925307 62.246512 
L 562.534644 61.953488 
L 563.14398 63.418605 
L 564.362654 62.832558 
L 564.97199 63.272093 
L 565.581327 62.539535 
L 566.190663 63.85814 
L 566.8 61.660465 
L 567.409337 62.97907 
L 568.018673 61.074419 
L 568.62801 63.272093 
L 569.237346 63.565116 
L 569.846683 62.832558 
L 570.45602 61.806977 
L 571.065356 62.246512 
L 571.674693 61.953488 
L 572.284029 62.686047 
L 572.893366 61.953488 
L 573.502703 59.902326 
L 574.112039 61.513953 
L 574.721376 61.074419 
L 575.330713 61.953488 
L 576.549386 60.927907 
L 577.158722 61.513953 
L 577.768059 60.634884 
L 578.377396 60.195349 
L 578.986732 60.488372 
L 579.596069 60.927907 
L 580.205405 63.272093 
L 580.814742 60.488372 
L 581.424079 59.902326 
L 582.642752 59.902326 
L 583.252088 60.195349 
L 583.861425 59.316279 
L 584.470762 59.316279 
L 585.080098 59.462791 
L 585.689435 60.927907 
L 586.298771 60.634884 
L 586.908108 62.1 
L 587.517445 62.539535 
L 588.126781 61.953488 
L 588.736118 61.660465 
L 589.345455 61.074419 
L 589.954791 60.781395 
L 590.564128 60.781395 
L 591.173464 59.169767 
L 591.782801 59.902326 
L 592.392138 60.048837 
L 593.001474 60.488372 
L 593.610811 59.902326 
L 594.220147 59.609302 
L 594.829484 60.048837 
L 595.438821 60.34186 
L 596.048157 59.462791 
L 596.657494 59.316279 
L 597.26683 58.290698 
L 597.876167 59.755814 
L 598.485504 58.730233 
L 599.09484 58.437209 
L 599.704177 59.755814 
L 600.313514 59.023256 
L 600.92285 58.730233 
L 601.532187 59.755814 
L 602.141523 58.730233 
L 602.75086 59.316279 
L 603.360197 58.583721 
L 603.969533 59.902326 
L 604.57887 58.730233 
L 605.188206 60.634884 
L 605.797543 59.462791 
L 606.40688 60.488372 
L 607.625553 61.074419 
L 608.234889 59.902326 
L 608.844226 59.023256 
L 609.453563 59.609302 
L 610.062899 59.609302 
L 610.672236 60.488372 
L 611.281572 60.927907 
L 611.890909 60.927907 
L 612.500246 59.609302 
L 613.718919 60.927907 
L 614.328256 59.609302 
L 615.546929 59.316279 
L 616.156265 59.316279 
L 616.765602 59.902326 
L 617.374939 58.730233 
L 617.984275 58.876744 
L 618.593612 58.144186 
L 619.202948 59.609302 
L 619.812285 60.195349 
L 620.421622 59.023256 
L 621.030958 58.437209 
L 621.640295 60.634884 
L 622.249631 60.488372 
L 622.858968 60.488372 
L 623.468305 60.781395 
L 624.077641 60.781395 
L 624.686978 60.048837 
L 625.296314 60.048837 
L 625.905651 58.730233 
L 626.514988 60.195349 
L 627.124324 59.462791 
L 627.733661 60.34186 
L 628.342998 60.34186 
L 628.952334 60.195349 
L 629.561671 59.462791 
L 630.171007 59.462791 
L 630.780344 60.195349 
L 631.999017 59.902326 
L 632.608354 59.902326 
L 633.21769 59.462791 
L 633.827027 59.169767 
L 634.436364 59.902326 
L 635.0457 58.583721 
L 636.264373 59.755814 
L 636.87371 59.462791 
L 638.092383 58.290698 
L 638.70172 60.634884 
L 639.311057 58.730233 
L 639.920393 58.290698 
L 640.52973 57.265116 
L 641.139066 59.316279 
L 642.35774 58.144186 
L 642.967076 59.169767 
L 643.576413 58.437209 
L 644.185749 59.462791 
L 645.404423 59.462791 
L 646.013759 60.195349 
L 646.623096 58.876744 
L 647.232432 58.583721 
L 647.841769 59.462791 
L 648.451106 58.730233 
L 649.060442 59.462791 
L 649.669779 58.730233 
L 650.279115 59.609302 
L 650.888452 59.023256 
L 651.497789 58.730233 
L 652.107125 59.462791 
L 652.716462 59.902326 
L 653.325799 57.851163 
L 653.935135 60.195349 
L 654.544472 58.876744 
L 655.153808 58.290698 
L 655.763145 58.876744 
L 656.372482 58.437209 
L 656.981818 58.730233 
L 657.591155 58.876744 
L 658.200491 58.876744 
L 658.809828 58.144186 
L 659.419165 59.023256 
L 660.028501 60.781395 
L 660.637838 58.583721 
L 661.247174 57.997674 
L 661.856511 57.997674 
L 662.465848 57.118605 
L 663.075184 58.437209 
L 664.293857 59.755814 
L 664.903194 58.144186 
L 665.512531 58.437209 
L 666.121867 57.704651 
L 666.731204 57.411628 
L 667.340541 58.437209 
L 667.949877 57.55814 
L 668.559214 57.851163 
L 669.16855 57.704651 
L 669.777887 58.876744 
L 670.387224 59.023256 
L 670.99656 59.462791 
L 672.215233 57.851163 
L 672.82457 58.730233 
L 673.433907 57.704651 
L 674.043243 57.265116 
L 674.65258 57.851163 
L 675.261916 57.411628 
L 676.48059 57.704651 
L 677.089926 58.876744 
L 677.699263 56.532558 
L 678.3086 58.290698 
L 678.917936 58.583721 
L 679.527273 59.169767 
L 680.136609 58.730233 
L 680.745946 58.583721 
L 681.355283 58.144186 
L 682.573956 56.67907 
L 683.183292 57.411628 
L 683.792629 57.704651 
L 684.401966 57.265116 
L 685.011302 58.437209 
L 685.620639 56.972093 
L 686.229975 57.118605 
L 687.448649 57.118605 
L 688.057985 57.997674 
L 688.667322 58.144186 
L 689.276658 57.411628 
L 689.885995 58.876744 
L 691.104668 57.265116 
L 691.714005 58.583721 
L 692.323342 58.437209 
L 692.932678 57.411628 
L 693.542015 58.583721 
L 694.151351 57.997674 
L 694.760688 58.583721 
L 695.370025 58.144186 
L 695.979361 58.730233 
L 696.588698 59.023256 
L 697.198034 58.437209 
L 697.807371 59.023256 
L 698.416708 58.583721 
L 699.026044 57.851163 
L 699.635381 57.851163 
L 700.244717 58.290698 
L 700.854054 57.997674 
L 701.463391 58.144186 
L 702.072727 57.704651 
L 702.682064 57.851163 
L 703.2914 57.851163 
L 703.900737 57.997674 
L 704.510074 59.609302 
L 705.11941 58.290698 
L 705.728747 58.730233 
L 706.338084 58.583721 
L 706.94742 58.730233 
L 707.556757 59.169767 
L 708.166093 58.583721 
L 708.77543 57.411628 
L 709.384767 56.825581 
L 709.994103 55.946512 
L 710.60344 56.239535 
L 711.822113 57.118605 
L 712.43145 57.265116 
L 713.040786 56.972093 
L 713.650123 56.972093 
L 714.868796 56.093023 
L 715.478133 57.118605 
L 716.087469 56.67907 
L 716.696806 56.67907 
L 717.306143 56.093023 
L 717.915479 56.239535 
L 718.524816 55.8 
L 719.134152 56.825581 
L 719.743489 57.265116 
L 720.352826 56.532558 
L 720.962162 56.825581 
L 721.571499 56.972093 
L 722.180835 56.239535 
L 722.790172 57.118605 
L 724.008845 56.825581 
L 724.618182 57.411628 
L 725.836855 57.411628 
L 726.446192 57.704651 
L 727.055528 56.972093 
L 727.664865 57.851163 
L 728.274201 59.023256 
L 728.883538 58.437209 
L 729.492875 58.730233 
L 730.711548 57.118605 
L 731.320885 57.851163 
L 731.930221 57.55814 
L 732.539558 56.239535 
L 733.148894 56.972093 
L 733.758231 58.144186 
L 734.976904 57.55814 
L 735.586241 56.972093 
L 736.195577 57.118605 
L 736.804914 57.411628 
L 737.414251 57.411628 
L 738.023587 57.851163 
L 739.24226 58.437209 
L 739.851597 57.851163 
L 740.460934 58.144186 
L 741.07027 59.462791 
L 741.679607 57.997674 
L 742.288943 57.55814 
L 742.89828 57.265116 
L 743.507617 57.411628 
L 744.116953 58.290698 
L 744.72629 57.265116 
L 745.335627 57.411628 
L 745.944963 57.411628 
L 746.5543 57.118605 
L 747.163636 57.851163 
L 747.163636 57.851163 
" clip-path="url(#pfdb50b0cb6)" style="fill: none; stroke: #ff7f0e; stroke-width: 1.5; stroke-linecap: square"/>
   </g>
   <g id="patch_3">
    <path d="M 108 320.4 
L 108 43.2 
" style="fill: none; stroke: #000000; stroke-width: 0.8; stroke-linejoin: miter; stroke-linecap: square"/>
   </g>
   <g id="patch_4">
    <path d="M 777.6 320.4 
L 777.6 43.2 
" style="fill: none; stroke: #000000; stroke-width: 0.8; stroke-linejoin: miter; stroke-linecap: square"/>
   </g>
   <g id="patch_5">
    <path d="M 108 320.4 
L 777.6 320.4 
" style="fill: none; stroke: #000000; stroke-width: 0.8; stroke-linejoin: miter; stroke-linecap: square"/>
   </g>
   <g id="patch_6">
    <path d="M 108 43.2 
L 777.6 43.2 
" style="fill: none; stroke: #000000; stroke-width: 0.8; stroke-linejoin: miter; stroke-linecap: square"/>
   </g>
   <g id="text_13">
    <!-- Optimal Action Percentage -->
    <g transform="translate(362.708438 37.2) scale(0.12 -0.12)">
     <defs>
      <path id="DejaVuSans-50" d="M 1259 4147 
L 1259 2394 
L 2053 2394 
Q 2494 2394 2734 2622 
Q 2975 2850 2975 3272 
Q 2975 3691 2734 3919 
Q 2494 4147 2053 4147 
L 1259 4147 
z
M 628 4666 
L 2053 4666 
Q 2838 4666 3239 4311 
Q 3641 3956 3641 3272 
Q 3641 2581 3239 2228 
Q 2838 1875 2053 1875 
L 1259 1875 
L 1259 0 
L 628 0 
L 628 4666 
z
" transform="scale(0.015625)"/>
      <path id="DejaVuSans-72" d="M 2631 2963 
Q 2534 3019 2420 3045 
Q 2306 3072 2169 3072 
Q 1681 3072 1420 2755 
Q 1159 2438 1159 1844 
L 1159 0 
L 581 0 
L 581 3500 
L 1159 3500 
L 1159 2956 
Q 1341 3275 1631 3429 
Q 1922 3584 2338 3584 
Q 2397 3584 2469 3576 
Q 2541 3569 2628 3553 
L 2631 2963 
z
" transform="scale(0.015625)"/>
      <path id="DejaVuSans-67" d="M 2906 1791 
Q 2906 2416 2648 2759 
Q 2391 3103 1925 3103 
Q 1463 3103 1205 2759 
Q 947 2416 947 1791 
Q 947 1169 1205 825 
Q 1463 481 1925 481 
Q 2391 481 2648 825 
Q 2906 1169 2906 1791 
z
M 3481 434 
Q 3481 -459 3084 -895 
Q 2688 -1331 1869 -1331 
Q 1566 -1331 1297 -1286 
Q 1028 -1241 775 -1147 
L 775 -588 
Q 1028 -725 1275 -790 
Q 1522 -856 1778 -856 
Q 2344 -856 2625 -561 
Q 2906 -266 2906 331 
L 2906 616 
Q 2728 306 2450 153 
Q 2172 0 1784 0 
Q 1141 0 747 490 
Q 353 981 353 1791 
Q 353 2603 747 3093 
Q 1141 3584 1784 3584 
Q 2172 3584 2450 3431 
Q 2728 3278 2906 2969 
L 2906 3500 
L 3481 3500 
L 3481 434 
z
" transform="scale(0.015625)"/>
     </defs>
     <use xlink:href="#DejaVuSans-4f"/>
     <use xlink:href="#DejaVuSans-70" transform="translate(78.710938 0)"/>
     <use xlink:href="#DejaVuSans-74" transform="translate(142.1875 0)"/>
     <use xlink:href="#DejaVuSans-69" transform="translate(181.396484 0)"/>
     <use xlink:href="#DejaVuSans-6d" transform="translate(209.179688 0)"/>
     <use xlink:href="#DejaVuSans-61" transform="translate(306.591797 0)"/>
     <use xlink:href="#DejaVuSans-6c" transform="translate(367.871094 0)"/>
     <use xlink:href="#DejaVuSans-20" transform="translate(395.654297 0)"/>
     <use xlink:href="#DejaVuSans-41" transform="translate(427.441406 0)"/>
     <use xlink:href="#DejaVuSans-63" transform="translate(494.099609 0)"/>
     <use xlink:href="#DejaVuSans-74" transform="translate(549.080078 0)"/>
     <use xlink:href="#DejaVuSans-69" transform="translate(588.289062 0)"/>
     <use xlink:href="#DejaVuSans-6f" transform="translate(616.072266 0)"/>
     <use xlink:href="#DejaVuSans-6e" transform="translate(677.253906 0)"/>
     <use xlink:href="#DejaVuSans-20" transform="translate(740.632812 0)"/>
     <use xlink:href="#DejaVuSans-50" transform="translate(772.419922 0)"/>
     <use xlink:href="#DejaVuSans-65" transform="translate(829.097656 0)"/>
     <use xlink:href="#DejaVuSans-72" transform="translate(890.621094 0)"/>
     <use xlink:href="#DejaVuSans-63" transform="translate(929.484375 0)"/>
     <use xlink:href="#DejaVuSans-65" transform="translate(984.464844 0)"/>
     <use xlink:href="#DejaVuSans-6e" transform="translate(1045.988281 0)"/>
     <use xlink:href="#DejaVuSans-74" transform="translate(1109.367188 0)"/>
     <use xlink:href="#DejaVuSans-61" transform="translate(1148.576172 0)"/>
     <use xlink:href="#DejaVuSans-67" transform="translate(1209.855469 0)"/>
     <use xlink:href="#DejaVuSans-65" transform="translate(1273.332031 0)"/>
    </g>
   </g>
   <g id="legend_1">
    <g id="patch_7">
     <path d="M 115 80.55625 
L 224.732813 80.55625 
Q 226.732813 80.55625 226.732813 78.55625 
L 226.732813 50.2 
Q 226.732813 48.2 224.732813 48.2 
L 115 48.2 
Q 113 48.2 113 50.2 
L 113 78.55625 
Q 113 80.55625 115 80.55625 
z
" style="fill: #ffffff; opacity: 0.8; stroke: #cccccc; stroke-linejoin: miter"/>
    </g>
    <g id="line2d_13">
     <path d="M 117 56.298437 
L 127 56.298437 
L 137 56.298437 
" style="fill: none; stroke: #1f77b4; stroke-width: 1.5; stroke-linecap: square"/>
    </g>
    <g id="text_14">
     <!-- ε = 0.1, Q1 = 0 -->
     <g transform="translate(145 59.798437) scale(0.1 -0.1)">
      <defs>
       <path id="DejaVuSans-3b5" d="M 1234 1888 
Q 884 1963 697 2166 
Q 509 2366 509 2656 
Q 509 3097 866 3344 
Q 1219 3588 1831 3588 
Q 2069 3588 2334 3550 
Q 2600 3513 2906 3438 
L 2906 2916 
Q 2603 3006 2353 3047 
Q 2100 3088 1878 3088 
Q 1506 3088 1291 2944 
Q 1072 2800 1072 2600 
Q 1072 2381 1284 2241 
Q 1494 2103 1856 2103 
L 2341 2103 
L 2341 1628 
L 1878 1628 
Q 1450 1628 1225 1469 
Q 981 1294 981 1019 
Q 981 738 1244 563 
Q 1509 388 1981 388 
Q 2272 388 2538 444 
Q 2803 503 3025 619 
L 3025 84 
Q 2744 -3 2481 -47 
Q 2216 -91 1966 -91 
Q 1222 -91 819 194 
Q 416 478 416 1019 
Q 416 1356 631 1584 
Q 847 1813 1234 1888 
z
" transform="scale(0.015625)"/>
       <path id="DejaVuSans-3d" d="M 678 2906 
L 4684 2906 
L 4684 2381 
L 678 2381 
L 678 2906 
z
M 678 1631 
L 4684 1631 
L 4684 1100 
L 678 1100 
L 678 1631 
z
" transform="scale(0.015625)"/>
       <path id="DejaVuSans-2c" d="M 750 794 
L 1409 794 
L 1409 256 
L 897 -744 
L 494 -744 
L 750 256 
L 750 794 
z
" transform="scale(0.015625)"/>
       <path id="DejaVuSans-51" d="M 2522 4238 
Q 1834 4238 1429 3725 
Q 1025 3213 1025 2328 
Q 1025 1447 1429 934 
Q 1834 422 2522 422 
Q 3209 422 3611 934 
Q 4013 1447 4013 2328 
Q 4013 3213 3611 3725 
Q 3209 4238 2522 4238 
z
M 3406 84 
L 4238 -825 
L 3475 -825 
L 2784 -78 
Q 2681 -84 2626 -87 
Q 2572 -91 2522 -91 
Q 1538 -91 948 567 
Q 359 1225 359 2328 
Q 359 3434 948 4092 
Q 1538 4750 2522 4750 
Q 3503 4750 4090 4092 
Q 4678 3434 4678 2328 
Q 4678 1516 4351 937 
Q 4025 359 3406 84 
z
" transform="scale(0.015625)"/>
      </defs>
      <use xlink:href="#DejaVuSans-3b5"/>
      <use xlink:href="#DejaVuSans-20" transform="translate(54.052734 0)"/>
      <use xlink:href="#DejaVuSans-3d" transform="translate(85.839844 0)"/>
      <use xlink:href="#DejaVuSans-20" transform="translate(169.628906 0)"/>
      <use xlink:href="#DejaVuSans-30" transform="translate(201.416016 0)"/>
      <use xlink:href="#DejaVuSans-2e" transform="translate(265.039062 0)"/>
      <use xlink:href="#DejaVuSans-31" transform="translate(296.826172 0)"/>
      <use xlink:href="#DejaVuSans-2c" transform="translate(360.449219 0)"/>
      <use xlink:href="#DejaVuSans-20" transform="translate(392.236328 0)"/>
      <use xlink:href="#DejaVuSans-51" transform="translate(424.023438 0)"/>
      <use xlink:href="#DejaVuSans-31" transform="translate(502.734375 0)"/>
      <use xlink:href="#DejaVuSans-20" transform="translate(566.357422 0)"/>
      <use xlink:href="#DejaVuSans-3d" transform="translate(598.144531 0)"/>
      <use xlink:href="#DejaVuSans-20" transform="translate(681.933594 0)"/>
      <use xlink:href="#DejaVuSans-30" transform="translate(713.720703 0)"/>
     </g>
    </g>
    <g id="line2d_14">
     <path d="M 117 70.976562 
L 127 70.976562 
L 137 70.976562 
" style="fill: none; stroke: #ff7f0e; stroke-width: 1.5; stroke-linecap: square"/>
    </g>
    <g id="text_15">
     <!-- ε = 0, Q1 = 5 -->
     <g transform="translate(145 74.476562) scale(0.1 -0.1)">
      <defs>
       <path id="DejaVuSans-35" d="M 691 4666 
L 3169 4666 
L 3169 4134 
L 1269 4134 
L 1269 2991 
Q 1406 3038 1543 3061 
Q 1681 3084 1819 3084 
Q 2600 3084 3056 2656 
Q 3513 2228 3513 1497 
Q 3513 744 3044 326 
Q 2575 -91 1722 -91 
Q 1428 -91 1123 -41 
Q 819 9 494 109 
L 494 744 
Q 775 591 1075 516 
Q 1375 441 1709 441 
Q 2250 441 2565 725 
Q 2881 1009 2881 1497 
Q 2881 1984 2565 2268 
Q 2250 2553 1709 2553 
Q 1456 2553 1204 2497 
Q 953 2441 691 2322 
L 691 4666 
z
" transform="scale(0.015625)"/>
      </defs>
      <use xlink:href="#DejaVuSans-3b5"/>
      <use xlink:href="#DejaVuSans-20" transform="translate(54.052734 0)"/>
      <use xlink:href="#DejaVuSans-3d" transform="translate(85.839844 0)"/>
      <use xlink:href="#DejaVuSans-20" transform="translate(169.628906 0)"/>
      <use xlink:href="#DejaVuSans-30" transform="translate(201.416016 0)"/>
      <use xlink:href="#DejaVuSans-2c" transform="translate(265.039062 0)"/>
      <use xlink:href="#DejaVuSans-20" transform="translate(296.826172 0)"/>
      <use xlink:href="#DejaVuSans-51" transform="translate(328.613281 0)"/>
      <use xlink:href="#DejaVuSans-31" transform="translate(407.324219 0)"/>
      <use xlink:href="#DejaVuSans-20" transform="translate(470.947266 0)"/>
      <use xlink:href="#DejaVuSans-3d" transform="translate(502.734375 0)"/>
      <use xlink:href="#DejaVuSans-20" transform="translate(586.523438 0)"/>
      <use xlink:href="#DejaVuSans-35" transform="translate(618.310547 0)"/>
     </g>
    </g>
   </g>
  </g>
 </g>
 <defs>
  <clipPath id="pfdb50b0cb6">
   <rect x="108" y="43.2" width="669.6" height="277.2"/>
  </clipPath>
 </defs>
</svg>
