<?xml version="1.0" encoding="utf-8" standalone="no"?>
<!DOCTYPE svg PUBLIC "-//W3C//DTD SVG 1.1//EN"
  "http://www.w3.org/Graphics/SVG/1.1/DTD/svg11.dtd">
<svg xmlns:xlink="http://www.w3.org/1999/xlink" width="864pt" height="360pt" viewBox="0 0 864 360" xmlns="http://www.w3.org/2000/svg" version="1.1">
 <metadata>
  <rdf:RDF xmlns:dc="http://purl.org/dc/elements/1.1/" xmlns:cc="http://creativecommons.org/ns#" xmlns:rdf="http://www.w3.org/1999/02/22-rdf-syntax-ns#">
   <cc:Work>
    <dc:type rdf:resource="http://purl.org/dc/dcmitype/StillImage"/>
    <dc:date>2026-03-23T23:19:47.261186</dc:date>
    <dc:format>image/svg+xml</dc:format>
    <dc:creator>
     <cc:Agent>
      <dc:title>Matplotlib v3.10.7, https://matplotlib.org/</dc:title>
     </cc:Agent>
    </dc:creator>
   </cc:Work>
  </rdf:RDF>
 </metadata>
 <defs>
  <style type="text/css">*{stroke-linejoin: round; stroke-linecap: butt}</style>
 </defs>
 <g id="figure_1">
  <g id="patch_1">
   <path d="M 0 360 
L 864 360 
L 864 0 
L 0 0 
z
" style="fill: #ffffff"/>
  </g>
  <g id="axes_1">
   <g id="patch_2">
    <path d="M 108 320.4 
L 777.6 320.4 
L 777.6 43.2 
L 108 43.2 
z
" style="fill: #ffffff"/>
   </g>
   <g id="matplotlib.axis_1">
    <g id="xtick_1">
     <g id="line2d_1">
      <defs>
       <path id="me1a11241ac" d="M 0 0 
L 0 3.5 
" style="stroke: #000000; stroke-width: 0.8"/>
      </defs>
      <g>
       <use xlink:href="#me1a11241ac" x="138.436364" y="320.4" style="stroke: #000000; stroke-width: 0.8"/>
      </g>
     </g>
     <g id="text_1">
      <!-- 0 -->
      <g transform="translate(135.255114 334.998438) scale(0.1 -0.1)">
       <defs>
        <path id="DejaVuSans-30" d="M 2034 4250 
Q 1547 4250 1301 3770 
Q 1056 3291 1056 2328 
Q 1056 1369 1301 889 
Q 1547 409 2034 409 
Q 2525 409 2770 889 
Q 3016 1369 3016 2328 
Q 3016 3291 2770 3770 
Q 2525 4250 2034 4250 
z
M 2034 4750 
Q 2819 4750 3233 4129 
Q 3647 3509 3647 2328 
Q 3647 1150 3233 529 
Q 2819 -91 2034 -91 
Q 1250 -91 836 529 
Q 422 1150 422 2328 
Q 422 3509 836 4129 
Q 1250 4750 2034 4750 
z
" transform="scale(0.015625)"/>
       </defs>
       <use xlink:href="#DejaVuSans-30"/>
      </g>
     </g>
    </g>
    <g id="xtick_2">
     <g id="line2d_2">
      <g>
       <use xlink:href="#me1a11241ac" x="260.303686" y="320.4" style="stroke: #000000; stroke-width: 0.8"/>
      </g>
     </g>
     <g id="text_2">
      <!-- 200 -->
      <g transform="translate(250.759936 334.998438) scale(0.1 -0.1)">
       <defs>
        <path id="DejaVuSans-32" d="M 1228 531 
L 3431 531 
L 3431 0 
L 469 0 
L 469 531 
Q 828 903 1448 1529 
Q 2069 2156 2228 2338 
Q 2531 2678 2651 2914 
Q 2772 3150 2772 3378 
Q 2772 3750 2511 3984 
Q 2250 4219 1831 4219 
Q 1534 4219 1204 4116 
Q 875 4013 500 3803 
L 500 4441 
Q 881 4594 1212 4672 
Q 1544 4750 1819 4750 
Q 2544 4750 2975 4387 
Q 3406 4025 3406 3419 
Q 3406 3131 3298 2873 
Q 3191 2616 2906 2266 
Q 2828 2175 2409 1742 
Q 1991 1309 1228 531 
z
" transform="scale(0.015625)"/>
       </defs>
       <use xlink:href="#DejaVuSans-32"/>
       <use xlink:href="#DejaVuSans-30" transform="translate(63.623047 0)"/>
       <use xlink:href="#DejaVuSans-30" transform="translate(127.246094 0)"/>
      </g>
     </g>
    </g>
    <g id="xtick_3">
     <g id="line2d_3">
      <g>
       <use xlink:href="#me1a11241ac" x="382.171007" y="320.4" style="stroke: #000000; stroke-width: 0.8"/>
      </g>
     </g>
     <g id="text_3">
      <!-- 400 -->
      <g transform="translate(372.627257 334.998438) scale(0.1 -0.1)">
       <defs>
        <path id="DejaVuSans-34" d="M 2419 4116 
L 825 1625 
L 2419 1625 
L 2419 4116 
z
M 2253 4666 
L 3047 4666 
L 3047 1625 
L 3713 1625 
L 3713 1100 
L 3047 1100 
L 3047 0 
L 2419 0 
L 2419 1100 
L 313 1100 
L 313 1709 
L 2253 4666 
z
" transform="scale(0.015625)"/>
       </defs>
       <use xlink:href="#DejaVuSans-34"/>
       <use xlink:href="#DejaVuSans-30" transform="translate(63.623047 0)"/>
       <use xlink:href="#DejaVuSans-30" transform="translate(127.246094 0)"/>
      </g>
     </g>
    </g>
    <g id="xtick_4">
     <g id="line2d_4">
      <g>
       <use xlink:href="#me1a11241ac" x="504.038329" y="320.4" style="stroke: #000000; stroke-width: 0.8"/>
      </g>
     </g>
     <g id="text_4">
      <!-- 600 -->
      <g transform="translate(494.494579 334.998438) scale(0.1 -0.1)">
       <defs>
        <path id="DejaVuSans-36" d="M 2113 2584 
Q 1688 2584 1439 2293 
Q 1191 2003 1191 1497 
Q 1191 994 1439 701 
Q 1688 409 2113 409 
Q 2538 409 2786 701 
Q 3034 994 3034 1497 
Q 3034 2003 2786 2293 
Q 2538 2584 2113 2584 
z
M 3366 4563 
L 3366 3988 
Q 3128 4100 2886 4159 
Q 2644 4219 2406 4219 
Q 1781 4219 1451 3797 
Q 1122 3375 1075 2522 
Q 1259 2794 1537 2939 
Q 1816 3084 2150 3084 
Q 2853 3084 3261 2657 
Q 3669 2231 3669 1497 
Q 3669 778 3244 343 
Q 2819 -91 2113 -91 
Q 1303 -91 875 529 
Q 447 1150 447 2328 
Q 447 3434 972 4092 
Q 1497 4750 2381 4750 
Q 2619 4750 2861 4703 
Q 3103 4656 3366 4563 
z
" transform="scale(0.015625)"/>
       </defs>
       <use xlink:href="#DejaVuSans-36"/>
       <use xlink:href="#DejaVuSans-30" transform="translate(63.623047 0)"/>
       <use xlink:href="#DejaVuSans-30" transform="translate(127.246094 0)"/>
      </g>
     </g>
    </g>
    <g id="xtick_5">
     <g id="line2d_5">
      <g>
       <use xlink:href="#me1a11241ac" x="625.905651" y="320.4" style="stroke: #000000; stroke-width: 0.8"/>
      </g>
     </g>
     <g id="text_5">
      <!-- 800 -->
      <g transform="translate(616.361901 334.998438) scale(0.1 -0.1)">
       <defs>
        <path id="DejaVuSans-38" d="M 2034 2216 
Q 1584 2216 1326 1975 
Q 1069 1734 1069 1313 
Q 1069 891 1326 650 
Q 1584 409 2034 409 
Q 2484 409 2743 651 
Q 3003 894 3003 1313 
Q 3003 1734 2745 1975 
Q 2488 2216 2034 2216 
z
M 1403 2484 
Q 997 2584 770 2862 
Q 544 3141 544 3541 
Q 544 4100 942 4425 
Q 1341 4750 2034 4750 
Q 2731 4750 3128 4425 
Q 3525 4100 3525 3541 
Q 3525 3141 3298 2862 
Q 3072 2584 2669 2484 
Q 3125 2378 3379 2068 
Q 3634 1759 3634 1313 
Q 3634 634 3220 271 
Q 2806 -91 2034 -91 
Q 1263 -91 848 271 
Q 434 634 434 1313 
Q 434 1759 690 2068 
Q 947 2378 1403 2484 
z
M 1172 3481 
Q 1172 3119 1398 2916 
Q 1625 2713 2034 2713 
Q 2441 2713 2670 2916 
Q 2900 3119 2900 3481 
Q 2900 3844 2670 4047 
Q 2441 4250 2034 4250 
Q 1625 4250 1398 4047 
Q 1172 3844 1172 3481 
z
" transform="scale(0.015625)"/>
       </defs>
       <use xlink:href="#DejaVuSans-38"/>
       <use xlink:href="#DejaVuSans-30" transform="translate(63.623047 0)"/>
       <use xlink:href="#DejaVuSans-30" transform="translate(127.246094 0)"/>
      </g>
     </g>
    </g>
    <g id="xtick_6">
     <g id="line2d_6">
      <g>
       <use xlink:href="#me1a11241ac" x="747.772973" y="320.4" style="stroke: #000000; stroke-width: 0.8"/>
      </g>
     </g>
     <g id="text_6">
      <!-- 1000 -->
      <g transform="translate(735.047973 334.998438) scale(0.1 -0.1)">
       <defs>
        <path id="DejaVuSans-31" d="M 794 531 
L 1825 531 
L 1825 4091 
L 703 3866 
L 703 4441 
L 1819 4666 
L 2450 4666 
L 2450 531 
L 3481 531 
L 3481 0 
L 794 0 
L 794 531 
z
" transform="scale(0.015625)"/>
       </defs>
       <use xlink:href="#DejaVuSans-31"/>
       <use xlink:href="#DejaVuSans-30" transform="translate(63.623047 0)"/>
       <use xlink:href="#DejaVuSans-30" transform="translate(127.246094 0)"/>
       <use xlink:href="#DejaVuSans-30" transform="translate(190.869141 0)"/>
      </g>
     </g>
    </g>
    <g id="text_7">
     <!-- Steps -->
     <g transform="translate(428.810156 348.676562) scale(0.1 -0.1)">
      <defs>
       <path id="DejaVuSans-53" d="M 3425 4513 
L 3425 3897 
Q 3066 4069 2747 4153 
Q 2428 4238 2131 4238 
Q 1616 4238 1336 4038 
Q 1056 3838 1056 3469 
Q 1056 3159 1242 3001 
Q 1428 2844 1947 2747 
L 2328 2669 
Q 3034 2534 3370 2195 
Q 3706 1856 3706 1288 
Q 3706 609 3251 259 
Q 2797 -91 1919 -91 
Q 1588 -91 1214 -16 
Q 841 59 441 206 
L 441 856 
Q 825 641 1194 531 
Q 1563 422 1919 422 
Q 2459 422 2753 634 
Q 3047 847 3047 1241 
Q 3047 1584 2836 1778 
Q 2625 1972 2144 2069 
L 1759 2144 
Q 1053 2284 737 2584 
Q 422 2884 422 3419 
Q 422 4038 858 4394 
Q 1294 4750 2059 4750 
Q 2388 4750 2728 4690 
Q 3069 4631 3425 4513 
z
" transform="scale(0.015625)"/>
       <path id="DejaVuSans-74" d="M 1172 4494 
L 1172 3500 
L 2356 3500 
L 2356 3053 
L 1172 3053 
L 1172 1153 
Q 1172 725 1289 603 
Q 1406 481 1766 481 
L 2356 481 
L 2356 0 
L 1766 0 
Q 1100 0 847 248 
Q 594 497 594 1153 
L 594 3053 
L 172 3053 
L 172 3500 
L 594 3500 
L 594 4494 
L 1172 4494 
z
" transform="scale(0.015625)"/>
       <path id="DejaVuSans-65" d="M 3597 1894 
L 3597 1613 
L 953 1613 
Q 991 1019 1311 708 
Q 1631 397 2203 397 
Q 2534 397 2845 478 
Q 3156 559 3463 722 
L 3463 178 
Q 3153 47 2828 -22 
Q 2503 -91 2169 -91 
Q 1331 -91 842 396 
Q 353 884 353 1716 
Q 353 2575 817 3079 
Q 1281 3584 2069 3584 
Q 2775 3584 3186 3129 
Q 3597 2675 3597 1894 
z
M 3022 2063 
Q 3016 2534 2758 2815 
Q 2500 3097 2075 3097 
Q 1594 3097 1305 2825 
Q 1016 2553 972 2059 
L 3022 2063 
z
" transform="scale(0.015625)"/>
       <path id="DejaVuSans-70" d="M 1159 525 
L 1159 -1331 
L 581 -1331 
L 581 3500 
L 1159 3500 
L 1159 2969 
Q 1341 3281 1617 3432 
Q 1894 3584 2278 3584 
Q 2916 3584 3314 3078 
Q 3713 2572 3713 1747 
Q 3713 922 3314 415 
Q 2916 -91 2278 -91 
Q 1894 -91 1617 61 
Q 1341 213 1159 525 
z
M 3116 1747 
Q 3116 2381 2855 2742 
Q 2594 3103 2138 3103 
Q 1681 3103 1420 2742 
Q 1159 2381 1159 1747 
Q 1159 1113 1420 752 
Q 1681 391 2138 391 
Q 2594 391 2855 752 
Q 3116 1113 3116 1747 
z
" transform="scale(0.015625)"/>
       <path id="DejaVuSans-73" d="M 2834 3397 
L 2834 2853 
Q 2591 2978 2328 3040 
Q 2066 3103 1784 3103 
Q 1356 3103 1142 2972 
Q 928 2841 928 2578 
Q 928 2378 1081 2264 
Q 1234 2150 1697 2047 
L 1894 2003 
Q 2506 1872 2764 1633 
Q 3022 1394 3022 966 
Q 3022 478 2636 193 
Q 2250 -91 1575 -91 
Q 1294 -91 989 -36 
Q 684 19 347 128 
L 347 722 
Q 666 556 975 473 
Q 1284 391 1588 391 
Q 1994 391 2212 530 
Q 2431 669 2431 922 
Q 2431 1156 2273 1281 
Q 2116 1406 1581 1522 
L 1381 1569 
Q 847 1681 609 1914 
Q 372 2147 372 2553 
Q 372 3047 722 3315 
Q 1072 3584 1716 3584 
Q 2034 3584 2315 3537 
Q 2597 3491 2834 3397 
z
" transform="scale(0.015625)"/>
      </defs>
      <use xlink:href="#DejaVuSans-53"/>
      <use xlink:href="#DejaVuSans-74" transform="translate(63.476562 0)"/>
      <use xlink:href="#DejaVuSans-65" transform="translate(102.685547 0)"/>
      <use xlink:href="#DejaVuSans-70" transform="translate(164.208984 0)"/>
      <use xlink:href="#DejaVuSans-73" transform="translate(227.685547 0)"/>
     </g>
    </g>
   </g>
   <g id="matplotlib.axis_2">
    <g id="ytick_1">
     <g id="line2d_7">
      <defs>
       <path id="meb09e181f7" d="M 0 0 
L -3.5 0 
" style="stroke: #000000; stroke-width: 0.8"/>
      </defs>
      <g>
       <use xlink:href="#meb09e181f7" x="108" y="302.971949" style="stroke: #000000; stroke-width: 0.8"/>
      </g>
     </g>
     <g id="text_8">
      <!-- 0.00 -->
      <g transform="translate(78.734375 306.771168) scale(0.1 -0.1)">
       <defs>
        <path id="DejaVuSans-2e" d="M 684 794 
L 1344 794 
L 1344 0 
L 684 0 
L 684 794 
z
" transform="scale(0.015625)"/>
       </defs>
       <use xlink:href="#DejaVuSans-30"/>
       <use xlink:href="#DejaVuSans-2e" transform="translate(63.623047 0)"/>
       <use xlink:href="#DejaVuSans-30" transform="translate(95.410156 0)"/>
       <use xlink:href="#DejaVuSans-30" transform="translate(159.033203 0)"/>
      </g>
     </g>
    </g>
    <g id="ytick_2">
     <g id="line2d_8">
      <g>
       <use xlink:href="#meb09e181f7" x="108" y="264.706291" style="stroke: #000000; stroke-width: 0.8"/>
      </g>
     </g>
     <g id="text_9">
      <!-- 0.25 -->
      <g transform="translate(78.734375 268.50551) scale(0.1 -0.1)">
       <defs>
        <path id="DejaVuSans-35" d="M 691 4666 
L 3169 4666 
L 3169 4134 
L 1269 4134 
L 1269 2991 
Q 1406 3038 1543 3061 
Q 1681 3084 1819 3084 
Q 2600 3084 3056 2656 
Q 3513 2228 3513 1497 
Q 3513 744 3044 326 
Q 2575 -91 1722 -91 
Q 1428 -91 1123 -41 
Q 819 9 494 109 
L 494 744 
Q 775 591 1075 516 
Q 1375 441 1709 441 
Q 2250 441 2565 725 
Q 2881 1009 2881 1497 
Q 2881 1984 2565 2268 
Q 2250 2553 1709 2553 
Q 1456 2553 1204 2497 
Q 953 2441 691 2322 
L 691 4666 
z
" transform="scale(0.015625)"/>
       </defs>
       <use xlink:href="#DejaVuSans-30"/>
       <use xlink:href="#DejaVuSans-2e" transform="translate(63.623047 0)"/>
       <use xlink:href="#DejaVuSans-32" transform="translate(95.410156 0)"/>
       <use xlink:href="#DejaVuSans-35" transform="translate(159.033203 0)"/>
      </g>
     </g>
    </g>
    <g id="ytick_3">
     <g id="line2d_9">
      <g>
       <use xlink:href="#meb09e181f7" x="108" y="226.440633" style="stroke: #000000; stroke-width: 0.8"/>
      </g>
     </g>
     <g id="text_10">
      <!-- 0.50 -->
      <g transform="translate(78.734375 230.239851) scale(0.1 -0.1)">
       <use xlink:href="#DejaVuSans-30"/>
       <use xlink:href="#DejaVuSans-2e" transform="translate(63.623047 0)"/>
       <use xlink:href="#DejaVuSans-35" transform="translate(95.410156 0)"/>
       <use xlink:href="#DejaVuSans-30" transform="translate(159.033203 0)"/>
      </g>
     </g>
    </g>
    <g id="ytick_4">
     <g id="line2d_10">
      <g>
       <use xlink:href="#meb09e181f7" x="108" y="188.174974" style="stroke: #000000; stroke-width: 0.8"/>
      </g>
     </g>
     <g id="text_11">
      <!-- 0.75 -->
      <g transform="translate(78.734375 191.974193) scale(0.1 -0.1)">
       <defs>
        <path id="DejaVuSans-37" d="M 525 4666 
L 3525 4666 
L 3525 4397 
L 1831 0 
L 1172 0 
L 2766 4134 
L 525 4134 
L 525 4666 
z
" transform="scale(0.015625)"/>
       </defs>
       <use xlink:href="#DejaVuSans-30"/>
       <use xlink:href="#DejaVuSans-2e" transform="translate(63.623047 0)"/>
       <use xlink:href="#DejaVuSans-37" transform="translate(95.410156 0)"/>
       <use xlink:href="#DejaVuSans-35" transform="translate(159.033203 0)"/>
      </g>
     </g>
    </g>
    <g id="ytick_5">
     <g id="line2d_11">
      <g>
       <use xlink:href="#meb09e181f7" x="108" y="149.909316" style="stroke: #000000; stroke-width: 0.8"/>
      </g>
     </g>
     <g id="text_12">
      <!-- 1.00 -->
      <g transform="translate(78.734375 153.708535) scale(0.1 -0.1)">
       <use xlink:href="#DejaVuSans-31"/>
       <use xlink:href="#DejaVuSans-2e" transform="translate(63.623047 0)"/>
       <use xlink:href="#DejaVuSans-30" transform="translate(95.410156 0)"/>
       <use xlink:href="#DejaVuSans-30" transform="translate(159.033203 0)"/>
      </g>
     </g>
    </g>
    <g id="ytick_6">
     <g id="line2d_12">
      <g>
       <use xlink:href="#meb09e181f7" x="108" y="111.643658" style="stroke: #000000; stroke-width: 0.8"/>
      </g>
     </g>
     <g id="text_13">
      <!-- 1.25 -->
      <g transform="translate(78.734375 115.442877) scale(0.1 -0.1)">
       <use xlink:href="#DejaVuSans-31"/>
       <use xlink:href="#DejaVuSans-2e" transform="translate(63.623047 0)"/>
       <use xlink:href="#DejaVuSans-32" transform="translate(95.410156 0)"/>
       <use xlink:href="#DejaVuSans-35" transform="translate(159.033203 0)"/>
      </g>
     </g>
    </g>
    <g id="ytick_7">
     <g id="line2d_13">
      <g>
       <use xlink:href="#meb09e181f7" x="108" y="73.377999" style="stroke: #000000; stroke-width: 0.8"/>
      </g>
     </g>
     <g id="text_14">
      <!-- 1.50 -->
      <g transform="translate(78.734375 77.177218) scale(0.1 -0.1)">
       <use xlink:href="#DejaVuSans-31"/>
       <use xlink:href="#DejaVuSans-2e" transform="translate(63.623047 0)"/>
       <use xlink:href="#DejaVuSans-35" transform="translate(95.410156 0)"/>
       <use xlink:href="#DejaVuSans-30" transform="translate(159.033203 0)"/>
      </g>
     </g>
    </g>
    <g id="text_15">
     <!-- Average Reward -->
     <g transform="translate(72.654687 222.542969) rotate(-90) scale(0.1 -0.1)">
      <defs>
       <path id="DejaVuSans-41" d="M 2188 4044 
L 1331 1722 
L 3047 1722 
L 2188 4044 
z
M 1831 4666 
L 2547 4666 
L 4325 0 
L 3669 0 
L 3244 1197 
L 1141 1197 
L 716 0 
L 50 0 
L 1831 4666 
z
" transform="scale(0.015625)"/>
       <path id="DejaVuSans-76" d="M 191 3500 
L 800 3500 
L 1894 563 
L 2988 3500 
L 3597 3500 
L 2284 0 
L 1503 0 
L 191 3500 
z
" transform="scale(0.015625)"/>
       <path id="DejaVuSans-72" d="M 2631 2963 
Q 2534 3019 2420 3045 
Q 2306 3072 2169 3072 
Q 1681 3072 1420 2755 
Q 1159 2438 1159 1844 
L 1159 0 
L 581 0 
L 581 3500 
L 1159 3500 
L 1159 2956 
Q 1341 3275 1631 3429 
Q 1922 3584 2338 3584 
Q 2397 3584 2469 3576 
Q 2541 3569 2628 3553 
L 2631 2963 
z
" transform="scale(0.015625)"/>
       <path id="DejaVuSans-61" d="M 2194 1759 
Q 1497 1759 1228 1600 
Q 959 1441 959 1056 
Q 959 750 1161 570 
Q 1363 391 1709 391 
Q 2188 391 2477 730 
Q 2766 1069 2766 1631 
L 2766 1759 
L 2194 1759 
z
M 3341 1997 
L 3341 0 
L 2766 0 
L 2766 531 
Q 2569 213 2275 61 
Q 1981 -91 1556 -91 
Q 1019 -91 701 211 
Q 384 513 384 1019 
Q 384 1609 779 1909 
Q 1175 2209 1959 2209 
L 2766 2209 
L 2766 2266 
Q 2766 2663 2505 2880 
Q 2244 3097 1772 3097 
Q 1472 3097 1187 3025 
Q 903 2953 641 2809 
L 641 3341 
Q 956 3463 1253 3523 
Q 1550 3584 1831 3584 
Q 2591 3584 2966 3190 
Q 3341 2797 3341 1997 
z
" transform="scale(0.015625)"/>
       <path id="DejaVuSans-67" d="M 2906 1791 
Q 2906 2416 2648 2759 
Q 2391 3103 1925 3103 
Q 1463 3103 1205 2759 
Q 947 2416 947 1791 
Q 947 1169 1205 825 
Q 1463 481 1925 481 
Q 2391 481 2648 825 
Q 2906 1169 2906 1791 
z
M 3481 434 
Q 3481 -459 3084 -895 
Q 2688 -1331 1869 -1331 
Q 1566 -1331 1297 -1286 
Q 1028 -1241 775 -1147 
L 775 -588 
Q 1028 -725 1275 -790 
Q 1522 -856 1778 -856 
Q 2344 -856 2625 -561 
Q 2906 -266 2906 331 
L 2906 616 
Q 2728 306 2450 153 
Q 2172 0 1784 0 
Q 1141 0 747 490 
Q 353 981 353 1791 
Q 353 2603 747 3093 
Q 1141 3584 1784 3584 
Q 2172 3584 2450 3431 
Q 2728 3278 2906 2969 
L 2906 3500 
L 3481 3500 
L 3481 434 
z
" transform="scale(0.015625)"/>
       <path id="DejaVuSans-20" transform="scale(0.015625)"/>
       <path id="DejaVuSans-52" d="M 2841 2188 
Q 3044 2119 3236 1894 
Q 3428 1669 3622 1275 
L 4263 0 
L 3584 0 
L 2988 1197 
Q 2756 1666 2539 1819 
Q 2322 1972 1947 1972 
L 1259 1972 
L 1259 0 
L 628 0 
L 628 4666 
L 2053 4666 
Q 2853 4666 3247 4331 
Q 3641 3997 3641 3322 
Q 3641 2881 3436 2590 
Q 3231 2300 2841 2188 
z
M 1259 4147 
L 1259 2491 
L 2053 2491 
Q 2509 2491 2742 2702 
Q 2975 2913 2975 3322 
Q 2975 3731 2742 3939 
Q 2509 4147 2053 4147 
L 1259 4147 
z
" transform="scale(0.015625)"/>
       <path id="DejaVuSans-77" d="M 269 3500 
L 844 3500 
L 1563 769 
L 2278 3500 
L 2956 3500 
L 3675 769 
L 4391 3500 
L 4966 3500 
L 4050 0 
L 3372 0 
L 2619 2869 
L 1863 0 
L 1184 0 
L 269 3500 
z
" transform="scale(0.015625)"/>
       <path id="DejaVuSans-64" d="M 2906 2969 
L 2906 4863 
L 3481 4863 
L 3481 0 
L 2906 0 
L 2906 525 
Q 2725 213 2448 61 
Q 2172 -91 1784 -91 
Q 1150 -91 751 415 
Q 353 922 353 1747 
Q 353 2572 751 3078 
Q 1150 3584 1784 3584 
Q 2172 3584 2448 3432 
Q 2725 3281 2906 2969 
z
M 947 1747 
Q 947 1113 1208 752 
Q 1469 391 1925 391 
Q 2381 391 2643 752 
Q 2906 1113 2906 1747 
Q 2906 2381 2643 2742 
Q 2381 3103 1925 3103 
Q 1469 3103 1208 2742 
Q 947 2381 947 1747 
z
" transform="scale(0.015625)"/>
      </defs>
      <use xlink:href="#DejaVuSans-41"/>
      <use xlink:href="#DejaVuSans-76" transform="translate(62.533203 0)"/>
      <use xlink:href="#DejaVuSans-65" transform="translate(121.712891 0)"/>
      <use xlink:href="#DejaVuSans-72" transform="translate(183.236328 0)"/>
      <use xlink:href="#DejaVuSans-61" transform="translate(224.349609 0)"/>
      <use xlink:href="#DejaVuSans-67" transform="translate(285.628906 0)"/>
      <use xlink:href="#DejaVuSans-65" transform="translate(349.105469 0)"/>
      <use xlink:href="#DejaVuSans-20" transform="translate(410.628906 0)"/>
      <use xlink:href="#DejaVuSans-52" transform="translate(442.416016 0)"/>
      <use xlink:href="#DejaVuSans-65" transform="translate(507.398438 0)"/>
      <use xlink:href="#DejaVuSans-77" transform="translate(568.921875 0)"/>
      <use xlink:href="#DejaVuSans-61" transform="translate(650.708984 0)"/>
      <use xlink:href="#DejaVuSans-72" transform="translate(711.988281 0)"/>
      <use xlink:href="#DejaVuSans-64" transform="translate(751.351562 0)"/>
     </g>
    </g>
   </g>
   <g id="line2d_14">
    <path d="M 138.436364 301.751974 
L 139.0457 264.257031 
L 139.655037 239.506026 
L 140.87371 213.435657 
L 142.092383 194.786678 
L 142.70172 196.837022 
L 143.311057 185.61225 
L 143.920393 178.010942 
L 144.52973 176.578641 
L 145.139066 179.096239 
L 145.748403 173.469068 
L 146.35774 169.781102 
L 146.967076 165.229333 
L 147.576413 174.314659 
L 148.185749 167.670512 
L 148.795086 164.697916 
L 149.404423 158.001354 
L 150.013759 160.869703 
L 150.623096 165.174478 
L 151.232432 154.221306 
L 151.841769 158.317859 
L 152.451106 157.275063 
L 153.669779 146.223874 
L 154.279115 155.04055 
L 155.497789 147.243486 
L 156.107125 153.976456 
L 156.716462 151.505795 
L 157.325799 142.703954 
L 157.935135 146.987801 
L 158.544472 150.144311 
L 159.153808 143.763221 
L 159.763145 145.548816 
L 160.372482 146.109406 
L 160.981818 150.56836 
L 161.591155 145.901268 
L 162.200491 142.674168 
L 162.809828 145.234292 
L 163.419165 141.391539 
L 164.028501 146.890266 
L 164.637838 144.323043 
L 165.247174 147.030506 
L 165.856511 142.178099 
L 166.465848 141.834347 
L 167.075184 139.28924 
L 167.684521 142.015383 
L 168.903194 139.351774 
L 169.512531 144.212323 
L 170.121867 143.831749 
L 170.731204 135.736096 
L 171.340541 137.952178 
L 171.949877 133.464757 
L 172.559214 142.256524 
L 173.777887 133.077021 
L 174.387224 135.549225 
L 174.99656 137.264603 
L 175.605897 134.893256 
L 176.215233 133.133275 
L 176.82457 136.250083 
L 177.433907 132.384785 
L 178.043243 133.800733 
L 178.65258 138.29676 
L 179.261916 132.978909 
L 179.871253 136.328009 
L 180.48059 140.457176 
L 181.089926 127.545837 
L 181.699263 137.729266 
L 182.3086 139.810715 
L 182.917936 133.897382 
L 183.527273 129.430451 
L 184.136609 127.212981 
L 184.745946 123.237275 
L 185.355283 124.838643 
L 185.964619 129.487379 
L 186.573956 129.253375 
L 187.183292 125.398492 
L 187.792629 129.345717 
L 188.401966 135.221664 
L 189.011302 128.329276 
L 189.620639 124.859641 
L 190.229975 123.769515 
L 190.839312 123.517734 
L 191.448649 122.779404 
L 192.057985 124.812278 
L 192.667322 122.252098 
L 193.276658 129.44513 
L 193.885995 127.853732 
L 194.495332 127.736118 
L 195.104668 127.143052 
L 195.714005 121.138524 
L 196.323342 117.870936 
L 196.932678 130.380035 
L 197.542015 116.757019 
L 198.151351 129.051908 
L 198.760688 122.072656 
L 199.370025 126.38199 
L 199.979361 124.615826 
L 200.588698 128.583733 
L 201.198034 113.494127 
L 201.807371 116.298854 
L 202.416708 119.713799 
L 203.026044 122.029163 
L 203.635381 120.416153 
L 204.244717 119.266633 
L 205.463391 119.9238 
L 206.072727 114.048607 
L 206.682064 122.205845 
L 207.2914 119.490792 
L 207.900737 119.29212 
L 208.510074 124.968093 
L 209.11941 120.83516 
L 209.728747 112.685757 
L 210.338084 118.205901 
L 210.94742 122.04307 
L 211.556757 124.309479 
L 212.166093 124.131247 
L 212.77543 115.455529 
L 213.384767 112.833198 
L 213.994103 120.048647 
L 214.60344 123.186798 
L 215.212776 110.802475 
L 215.822113 122.994263 
L 216.43145 118.343348 
L 217.040786 112.30227 
L 218.259459 117.330805 
L 218.868796 118.460047 
L 219.478133 121.921108 
L 220.087469 111.921843 
L 220.696806 111.697202 
L 221.306143 114.579983 
L 221.915479 112.259711 
L 222.524816 116.211528 
L 223.134152 108.102875 
L 223.743489 116.055074 
L 224.352826 116.300696 
L 224.962162 113.037711 
L 225.571499 118.907813 
L 226.180835 114.741742 
L 226.790172 107.95123 
L 227.399509 111.653122 
L 228.008845 113.097552 
L 228.618182 108.471345 
L 229.227518 118.229358 
L 229.836855 111.206434 
L 230.446192 109.984623 
L 231.055528 111.954092 
L 231.664865 115.523562 
L 232.274201 110.529429 
L 232.883538 110.527426 
L 233.492875 116.32982 
L 234.102211 109.676788 
L 234.711548 109.143995 
L 235.320885 104.574476 
L 236.539558 114.050611 
L 237.148894 112.832646 
L 237.758231 116.664349 
L 238.367568 103.454137 
L 238.976904 102.162606 
L 239.586241 107.268563 
L 240.195577 105.445649 
L 240.804914 112.971994 
L 241.414251 114.574863 
L 242.023587 110.047457 
L 242.632924 110.408638 
L 243.24226 118.310788 
L 243.851597 110.694557 
L 244.460934 105.516808 
L 245.07027 110.030971 
L 246.288943 108.631975 
L 246.89828 108.683684 
L 247.507617 104.981385 
L 248.116953 106.731964 
L 248.72629 107.431641 
L 249.335627 109.069413 
L 249.944963 103.967833 
L 250.5543 106.658161 
L 251.163636 99.098003 
L 251.772973 112.750505 
L 252.38231 115.720019 
L 252.991646 104.595396 
L 253.600983 99.663825 
L 254.210319 106.121312 
L 254.819656 106.250094 
L 255.428993 104.623612 
L 256.038329 100.379328 
L 256.647666 99.9368 
L 257.257002 105.907958 
L 257.866339 102.59179 
L 258.475676 106.209162 
L 259.085012 114.045073 
L 259.694349 115.407776 
L 260.303686 107.185172 
L 260.913022 103.959172 
L 261.522359 110.537771 
L 262.131695 102.265631 
L 262.741032 114.418849 
L 263.350369 106.345553 
L 263.959705 100.836034 
L 264.569042 108.380163 
L 265.178378 103.421454 
L 265.787715 101.671795 
L 266.397052 97.027849 
L 267.006388 104.490297 
L 267.615725 107.408872 
L 268.225061 105.864569 
L 269.443735 107.004863 
L 270.053071 99.655352 
L 270.662408 109.733039 
L 271.271744 110.17038 
L 271.881081 101.286187 
L 272.490418 103.316967 
L 273.099754 107.433157 
L 273.709091 104.17114 
L 274.318428 102.690809 
L 274.927764 108.139746 
L 275.537101 103.23555 
L 276.146437 102.554832 
L 276.755774 110.440191 
L 277.365111 103.121526 
L 277.974447 102.035434 
L 278.583784 103.968377 
L 279.19312 103.674075 
L 279.802457 102.638377 
L 280.411794 105.265567 
L 281.02113 103.053082 
L 281.630467 108.859618 
L 282.239803 103.30622 
L 282.84914 101.64788 
L 284.067813 100.315365 
L 284.67715 101.576889 
L 285.286486 103.72712 
L 285.895823 102.939263 
L 286.50516 109.750593 
L 287.114496 102.491789 
L 287.723833 111.456485 
L 288.33317 110.345427 
L 288.942506 100.105427 
L 289.551843 99.518781 
L 290.161179 99.940695 
L 290.770516 105.473383 
L 291.379853 102.615125 
L 291.989189 100.524931 
L 292.598526 105.88049 
L 293.207862 105.077238 
L 293.817199 107.975946 
L 294.426536 103.109963 
L 295.035872 105.734677 
L 296.254545 99.818825 
L 296.863882 107.991341 
L 297.473219 99.950703 
L 298.082555 103.348161 
L 298.691892 95.620236 
L 299.301229 105.583134 
L 299.910565 105.973643 
L 300.519902 105.118085 
L 301.129238 97.582338 
L 301.738575 102.979718 
L 302.347912 99.919481 
L 302.957248 104.304076 
L 303.566585 105.038653 
L 304.175921 102.159798 
L 304.785258 103.086255 
L 305.394595 99.542325 
L 306.003931 101.71866 
L 306.613268 111.684976 
L 307.222604 109.030754 
L 307.831941 94.240432 
L 308.441278 98.061109 
L 309.050614 99.504692 
L 309.659951 99.981196 
L 310.269287 102.69811 
L 310.878624 100.728775 
L 311.487961 101.575389 
L 312.097297 107.160144 
L 312.706634 103.721839 
L 313.315971 103.430848 
L 313.925307 93.2193 
L 314.534644 100.432765 
L 315.14398 98.320579 
L 315.753317 99.074334 
L 316.362654 104.661875 
L 316.97199 99.558218 
L 317.581327 101.706705 
L 318.190663 101.985211 
L 318.8 98.305814 
L 319.409337 98.982565 
L 320.018673 96.970484 
L 320.62801 112.025732 
L 321.237346 100.883191 
L 321.846683 100.592096 
L 322.45602 95.283036 
L 323.065356 97.445166 
L 323.674693 102.078687 
L 324.284029 100.881095 
L 324.893366 98.419842 
L 325.502703 102.770353 
L 326.112039 102.771022 
L 326.721376 105.410261 
L 327.330713 105.95079 
L 327.940049 102.306773 
L 328.549386 105.531662 
L 329.158722 100.172726 
L 329.768059 100.713209 
L 330.377396 97.124786 
L 330.986732 101.036989 
L 331.596069 100.992701 
L 332.205405 100.218308 
L 332.814742 101.210467 
L 333.424079 98.077044 
L 334.033415 98.008014 
L 334.642752 106.246164 
L 335.252088 97.962669 
L 335.861425 99.929729 
L 336.470762 98.077913 
L 337.080098 99.219779 
L 337.689435 94.23879 
L 338.298771 96.030182 
L 338.908108 94.979976 
L 339.517445 96.517167 
L 340.126781 100.264508 
L 340.736118 93.578783 
L 341.345455 95.517056 
L 341.954791 92.970139 
L 342.564128 94.571337 
L 343.173464 101.876047 
L 343.782801 94.105685 
L 344.392138 98.736567 
L 345.001474 105.197112 
L 345.610811 94.940477 
L 346.220147 103.558112 
L 346.829484 100.95448 
L 347.438821 103.043227 
L 348.048157 91.993414 
L 348.657494 99.050031 
L 349.26683 97.933965 
L 349.876167 92.423253 
L 350.485504 96.096323 
L 351.09484 92.293568 
L 351.704177 94.496903 
L 352.313514 96.070463 
L 352.92285 100.055751 
L 353.532187 94.255011 
L 354.141523 95.721913 
L 354.75086 104.17857 
L 355.360197 93.751651 
L 355.969533 101.363809 
L 356.57887 91.629691 
L 357.188206 99.070251 
L 357.797543 97.146753 
L 358.40688 103.313857 
L 359.016216 96.760755 
L 359.625553 104.423987 
L 360.234889 92.124417 
L 360.844226 98.95784 
L 361.453563 96.780985 
L 362.062899 98.28773 
L 362.672236 92.950665 
L 363.281572 96.12945 
L 363.890909 100.995493 
L 364.500246 100.726333 
L 365.718919 97.321466 
L 366.328256 99.077754 
L 366.937592 98.724866 
L 367.546929 97.907881 
L 368.156265 97.794574 
L 368.765602 104.931098 
L 369.374939 92.121311 
L 369.984275 99.46761 
L 370.593612 98.207682 
L 371.202948 102.10218 
L 371.812285 96.647917 
L 372.421622 89.655132 
L 373.030958 94.356062 
L 373.640295 96.160311 
L 374.249631 99.883439 
L 374.858968 95.753531 
L 375.468305 96.749969 
L 376.077641 92.100279 
L 376.686978 100.661851 
L 377.296314 100.466944 
L 377.905651 98.783094 
L 378.514988 94.623254 
L 379.124324 99.04539 
L 379.733661 97.817877 
L 380.342998 101.41061 
L 380.952334 91.620332 
L 381.561671 97.062325 
L 382.171007 91.636963 
L 382.780344 94.572248 
L 383.389681 105.3529 
L 383.999017 89.30582 
L 384.608354 91.838179 
L 385.21769 89.74764 
L 385.827027 97.262491 
L 386.436364 98.250088 
L 387.0457 97.672601 
L 387.655037 95.993827 
L 388.264373 97.758695 
L 388.87371 92.474834 
L 389.483047 102.008055 
L 390.092383 108.989226 
L 390.70172 91.773809 
L 391.920393 101.662738 
L 392.52973 92.710063 
L 393.139066 102.856298 
L 393.748403 102.966956 
L 394.35774 91.840794 
L 394.967076 97.306425 
L 395.576413 91.880706 
L 396.795086 94.12126 
L 397.404423 98.336552 
L 398.013759 88.842082 
L 398.623096 99.6296 
L 399.232432 92.947673 
L 399.841769 102.280224 
L 401.060442 97.200732 
L 402.279115 99.981372 
L 402.888452 96.763905 
L 403.497789 102.466233 
L 404.107125 93.956999 
L 404.716462 98.618975 
L 405.325799 96.081822 
L 405.935135 92.794786 
L 406.544472 90.74526 
L 407.153808 95.417426 
L 407.763145 92.019153 
L 408.372482 97.638759 
L 408.981818 89.149515 
L 409.591155 88.876131 
L 410.200491 98.629189 
L 410.809828 102.11159 
L 411.419165 92.517124 
L 412.028501 94.623316 
L 412.637838 93.474171 
L 413.247174 101.321997 
L 413.856511 94.575489 
L 414.465848 96.507886 
L 415.075184 97.888356 
L 415.684521 96.915996 
L 416.293857 94.378214 
L 416.903194 89.366947 
L 417.512531 95.965731 
L 418.121867 90.532854 
L 418.731204 92.79456 
L 419.340541 90.82906 
L 419.949877 95.91604 
L 420.559214 90.611124 
L 421.16855 95.347654 
L 421.777887 89.416835 
L 422.387224 99.430597 
L 422.99656 93.49672 
L 423.605897 95.630609 
L 424.215233 95.536403 
L 424.82457 95.025714 
L 425.433907 95.248304 
L 426.043243 100.634139 
L 426.65258 97.798992 
L 427.261916 87.984611 
L 427.871253 104.542819 
L 428.48059 97.978852 
L 429.089926 97.193803 
L 429.699263 93.989291 
L 430.917936 98.162766 
L 431.527273 100.015174 
L 432.136609 95.337698 
L 432.745946 100.306506 
L 433.355283 94.880193 
L 433.964619 95.953905 
L 434.573956 95.333269 
L 435.183292 95.13071 
L 435.792629 85.783929 
L 436.401966 99.77933 
L 437.011302 101.199402 
L 437.620639 100.351729 
L 438.839312 91.713675 
L 439.448649 92.110885 
L 440.057985 91.005881 
L 440.667322 102.28447 
L 441.276658 87.117422 
L 441.885995 98.226479 
L 442.495332 98.721793 
L 443.104668 94.546426 
L 443.714005 95.640625 
L 444.323342 96.332986 
L 444.932678 101.229067 
L 445.542015 87.150506 
L 446.151351 94.254744 
L 446.760688 92.665822 
L 447.370025 92.983119 
L 448.588698 92.428364 
L 449.198034 89.71712 
L 449.807371 101.006549 
L 450.416708 97.231446 
L 451.026044 103.479302 
L 452.854054 88.34019 
L 453.463391 100.028073 
L 454.072727 98.327997 
L 454.682064 94.417932 
L 455.2914 96.153587 
L 455.900737 93.859592 
L 456.510074 93.082451 
L 457.11941 92.039061 
L 457.728747 98.526029 
L 458.338084 102.90968 
L 458.94742 89.392697 
L 459.556757 93.749985 
L 460.166093 96.483385 
L 460.77543 98.340117 
L 461.384767 93.813144 
L 461.994103 98.403327 
L 462.60344 95.504451 
L 463.212776 99.993931 
L 463.822113 99.671529 
L 464.43145 91.383737 
L 465.040786 94.019916 
L 465.650123 100.40928 
L 466.868796 94.229411 
L 467.478133 94.500021 
L 468.087469 83.229178 
L 468.696806 91.731682 
L 469.306143 97.509774 
L 469.915479 99.187513 
L 470.524816 96.699088 
L 471.134152 87.105985 
L 471.743489 92.766187 
L 472.352826 93.892316 
L 472.962162 90.859493 
L 473.571499 98.514 
L 474.180835 91.072469 
L 474.790172 90.465962 
L 475.399509 92.97041 
L 476.008845 94.260573 
L 476.618182 90.02261 
L 477.227518 99.456007 
L 477.836855 94.138912 
L 478.446192 91.044115 
L 479.055528 98.946346 
L 479.664865 97.576217 
L 480.274201 96.483162 
L 480.883538 101.769851 
L 481.492875 94.215518 
L 482.102211 98.673387 
L 482.711548 92.999925 
L 483.320885 93.199765 
L 483.930221 93.975472 
L 484.539558 86.825975 
L 485.148894 90.796542 
L 485.758231 91.639697 
L 486.367568 99.640216 
L 486.976904 97.983621 
L 487.586241 92.055874 
L 488.195577 98.357499 
L 488.804914 98.23103 
L 489.414251 91.123863 
L 490.023587 98.929867 
L 490.632924 91.190194 
L 491.24226 91.70713 
L 491.851597 106.261538 
L 492.460934 95.228841 
L 493.07027 94.579546 
L 493.679607 93.712089 
L 494.288943 101.354631 
L 494.89828 99.848348 
L 495.507617 103.87255 
L 496.116953 89.676743 
L 496.72629 96.584729 
L 497.335627 93.981121 
L 497.944963 98.780715 
L 498.5543 98.134959 
L 499.163636 98.230997 
L 499.772973 99.127047 
L 500.38231 93.723881 
L 500.991646 102.371311 
L 502.210319 92.41931 
L 502.819656 89.323824 
L 503.428993 87.114591 
L 504.647666 96.259194 
L 505.257002 91.354012 
L 505.866339 97.071034 
L 506.475676 96.650138 
L 507.085012 97.062376 
L 508.303686 91.746456 
L 508.913022 97.059251 
L 509.522359 95.687381 
L 510.131695 91.9294 
L 510.741032 93.069857 
L 511.350369 98.376297 
L 511.959705 95.39703 
L 512.569042 88.441996 
L 513.178378 97.805445 
L 513.787715 97.050875 
L 514.397052 94.491937 
L 515.006388 88.160053 
L 515.615725 92.9 
L 516.225061 96.235341 
L 516.834398 95.219179 
L 517.443735 90.976235 
L 518.053071 93.1833 
L 518.662408 94.385381 
L 519.271744 92.957513 
L 519.881081 90.045208 
L 520.490418 93.940632 
L 521.099754 88.161337 
L 521.709091 93.583764 
L 522.318428 92.597381 
L 522.927764 93.56956 
L 523.537101 90.498013 
L 524.146437 94.724742 
L 524.755774 92.629564 
L 525.365111 97.241693 
L 525.974447 89.116376 
L 526.583784 96.182105 
L 527.19312 95.364834 
L 527.802457 88.068904 
L 528.411794 98.198944 
L 529.02113 89.299124 
L 529.630467 92.266251 
L 530.239803 91.9167 
L 530.84914 90.51054 
L 531.458477 96.609094 
L 532.067813 99.539502 
L 532.67715 93.163238 
L 533.286486 89.013683 
L 533.895823 88.792798 
L 534.50516 93.741546 
L 535.114496 92.874542 
L 535.723833 98.168816 
L 536.33317 93.158641 
L 536.942506 85.794876 
L 537.551843 94.358676 
L 538.161179 95.4911 
L 538.770516 96.17507 
L 539.379853 92.50738 
L 539.989189 92.267528 
L 540.598526 91.108562 
L 541.207862 91.922423 
L 541.817199 93.925838 
L 542.426536 89.502664 
L 543.035872 91.783062 
L 543.645209 97.715075 
L 544.254545 96.296349 
L 544.863882 97.079008 
L 545.473219 96.140631 
L 546.082555 95.669031 
L 546.691892 98.123166 
L 547.301229 94.683965 
L 547.910565 95.399684 
L 548.519902 93.872256 
L 549.129238 98.752514 
L 549.738575 93.297763 
L 550.347912 91.464914 
L 550.957248 95.334664 
L 551.566585 98.354297 
L 552.175921 98.809954 
L 552.785258 90.584668 
L 553.394595 89.167979 
L 554.003931 95.296016 
L 554.613268 95.511178 
L 555.222604 97.813002 
L 555.831941 91.299341 
L 556.441278 95.889712 
L 557.050614 98.856487 
L 557.659951 91.568681 
L 558.269287 95.930447 
L 558.878624 90.54839 
L 559.487961 91.528918 
L 560.097297 91.080619 
L 560.706634 98.719462 
L 561.315971 89.267063 
L 561.925307 89.469775 
L 562.534644 97.39314 
L 563.14398 92.64662 
L 563.753317 96.977146 
L 564.362654 94.077462 
L 564.97199 87.466249 
L 565.581327 99.707728 
L 566.190663 87.335459 
L 566.8 89.259702 
L 567.409337 92.436647 
L 568.018673 88.342269 
L 568.62801 96.612881 
L 569.237346 94.650928 
L 569.846683 87.648177 
L 570.45602 89.911889 
L 571.065356 89.196828 
L 571.674693 86.218057 
L 572.284029 94.842759 
L 572.893366 95.148701 
L 573.502703 98.891852 
L 574.112039 90.583949 
L 574.721376 94.030216 
L 575.330713 93.683789 
L 575.940049 90.435979 
L 576.549386 92.385268 
L 577.158722 98.763246 
L 577.768059 91.518465 
L 578.377396 90.395974 
L 578.986732 82.896301 
L 579.596069 94.02202 
L 580.205405 91.163553 
L 580.814742 98.772198 
L 581.424079 90.34636 
L 582.033415 93.916308 
L 582.642752 91.440453 
L 583.252088 98.827407 
L 583.861425 88.841601 
L 584.470762 93.168199 
L 585.080098 93.89612 
L 585.689435 92.676054 
L 586.298771 92.016961 
L 586.908108 91.799513 
L 587.517445 90.374208 
L 588.126781 89.533998 
L 588.736118 94.556612 
L 589.345455 95.065165 
L 589.954791 96.546629 
L 590.564128 90.162578 
L 591.173464 94.529942 
L 591.782801 96.03088 
L 592.392138 97.087837 
L 593.610811 80.721492 
L 594.220147 92.255448 
L 594.829484 100.843784 
L 595.438821 92.520038 
L 596.048157 92.248142 
L 596.657494 94.331513 
L 597.26683 88.078553 
L 597.876167 86.401137 
L 598.485504 92.348192 
L 599.09484 90.311037 
L 599.704177 94.109052 
L 600.313514 94.471634 
L 600.92285 91.753283 
L 601.532187 90.979003 
L 602.141523 87.507043 
L 602.75086 88.425525 
L 603.360197 99.021259 
L 603.969533 97.341532 
L 604.57887 97.700787 
L 605.188206 90.699436 
L 605.797543 93.209996 
L 606.40688 100.639012 
L 607.016216 88.763169 
L 607.625553 97.357118 
L 608.234889 95.871773 
L 608.844226 96.460422 
L 609.453563 92.247326 
L 610.062899 94.914744 
L 610.672236 91.586311 
L 611.281572 89.300699 
L 611.890909 87.691737 
L 612.500246 83.77629 
L 613.109582 100.196654 
L 613.718919 94.141914 
L 614.328256 92.855663 
L 614.937592 88.67043 
L 615.546929 93.631375 
L 616.156265 94.599654 
L 616.765602 91.610105 
L 617.374939 87.423367 
L 617.984275 92.190724 
L 618.593612 92.930965 
L 619.202948 87.418511 
L 619.812285 101.528738 
L 620.421622 94.765615 
L 621.030958 91.620918 
L 621.640295 91.073186 
L 622.249631 87.680155 
L 622.858968 91.812338 
L 623.468305 98.489216 
L 624.077641 94.554239 
L 624.686978 92.729869 
L 625.296314 97.364122 
L 625.905651 97.099067 
L 626.514988 94.308039 
L 627.124324 94.213427 
L 627.733661 97.643425 
L 628.342998 87.807485 
L 628.952334 97.19455 
L 629.561671 88.078625 
L 630.171007 94.57142 
L 630.780344 88.774647 
L 631.999017 95.403311 
L 632.608354 94.473398 
L 633.21769 88.369193 
L 633.827027 87.419313 
L 635.0457 98.909815 
L 635.655037 91.94198 
L 636.264373 98.931123 
L 636.87371 94.984949 
L 637.483047 92.462922 
L 638.092383 102.089094 
L 638.70172 93.878778 
L 639.311057 90.294541 
L 639.920393 94.838977 
L 640.52973 89.054064 
L 641.139066 94.478241 
L 641.748403 88.858013 
L 642.35774 93.650528 
L 642.967076 88.523475 
L 644.185749 98.61315 
L 644.795086 98.287127 
L 645.404423 92.789972 
L 646.013759 92.24779 
L 646.623096 88.498944 
L 647.232432 92.8595 
L 647.841769 91.293732 
L 648.451106 93.151429 
L 649.060442 90.441538 
L 649.669779 90.931246 
L 650.279115 89.654298 
L 650.888452 92.099752 
L 651.497789 90.841186 
L 652.107125 84.516313 
L 652.716462 92.123276 
L 653.325799 88.129133 
L 653.935135 98.306307 
L 654.544472 89.623497 
L 655.153808 92.530134 
L 655.763145 86.609003 
L 656.372482 91.155959 
L 656.981818 94.286441 
L 657.591155 93.188655 
L 658.200491 85.282443 
L 658.809828 89.731488 
L 659.419165 102.050371 
L 660.028501 94.267217 
L 660.637838 92.676829 
L 661.247174 92.1049 
L 661.856511 93.079136 
L 662.465848 90.079081 
L 663.075184 91.538084 
L 663.684521 98.208156 
L 664.293857 100.102174 
L 664.903194 91.769176 
L 665.512531 94.649368 
L 666.121867 100.109564 
L 666.731204 96.206747 
L 667.340541 90.447973 
L 667.949877 92.929663 
L 668.559214 89.280117 
L 669.16855 87.95958 
L 669.777887 94.145331 
L 670.387224 89.381833 
L 670.99656 91.221835 
L 671.605897 102.819066 
L 672.215233 89.432982 
L 672.82457 90.723285 
L 673.433907 92.917845 
L 674.043243 84.766044 
L 674.65258 97.779193 
L 675.261916 91.561409 
L 675.871253 90.897013 
L 676.48059 87.362118 
L 677.089926 91.17004 
L 677.699263 98.367314 
L 678.3086 87.664819 
L 678.917936 94.782277 
L 679.527273 91.782496 
L 680.136609 93.568176 
L 680.745946 92.729528 
L 681.355283 92.157319 
L 681.964619 94.688662 
L 682.573956 88.563759 
L 683.183292 88.945368 
L 683.792629 88.77723 
L 684.401966 89.56301 
L 685.620639 87.838188 
L 686.229975 87.545831 
L 686.839312 91.223875 
L 687.448649 89.354566 
L 688.057985 95.81586 
L 688.667322 87.316871 
L 689.276658 94.899887 
L 689.885995 85.751701 
L 690.495332 92.883857 
L 691.104668 101.829981 
L 691.714005 86.176017 
L 692.323342 88.725448 
L 692.932678 95.235526 
L 693.542015 97.837355 
L 694.151351 98.345115 
L 694.760688 89.253873 
L 695.370025 94.58374 
L 695.979361 95.376535 
L 696.588698 97.899269 
L 697.198034 98.228503 
L 698.416708 90.234207 
L 699.026044 94.002126 
L 699.635381 90.724722 
L 700.244717 94.882705 
L 700.854054 87.655386 
L 701.463391 96.677467 
L 702.682064 93.521157 
L 703.2914 88.230753 
L 703.900737 88.832149 
L 704.510074 93.227477 
L 705.11941 86.465984 
L 705.728747 92.001424 
L 706.338084 87.757258 
L 706.94742 98.087159 
L 708.166093 94.427384 
L 708.77543 95.722611 
L 709.384767 94.021382 
L 709.994103 93.589892 
L 710.60344 87.523229 
L 711.212776 93.084915 
L 711.822113 94.451367 
L 712.43145 87.262651 
L 713.040786 94.526478 
L 714.259459 90.44246 
L 714.868796 93.363838 
L 715.478133 90.644677 
L 716.087469 95.503293 
L 716.696806 98.157869 
L 717.306143 93.08172 
L 717.915479 92.228473 
L 718.524816 89.418426 
L 719.134152 94.636199 
L 719.743489 94.808181 
L 720.962162 85.87026 
L 721.571499 91.212528 
L 722.180835 86.540944 
L 722.790172 100.266092 
L 723.399509 91.673601 
L 724.008845 87.366286 
L 724.618182 91.664723 
L 725.227518 93.222821 
L 725.836855 93.612285 
L 726.446192 93.519828 
L 727.055528 93.682579 
L 727.664865 88.14229 
L 728.274201 89.47038 
L 728.883538 86.555471 
L 729.492875 93.829455 
L 730.102211 94.863052 
L 730.711548 87.987023 
L 731.320885 88.471337 
L 731.930221 95.973069 
L 732.539558 95.265543 
L 733.148894 91.378619 
L 733.758231 91.976782 
L 734.367568 92.759179 
L 734.976904 95.349961 
L 735.586241 93.479012 
L 736.195577 86.384222 
L 736.804914 94.0831 
L 738.023587 88.424659 
L 738.632924 101.380251 
L 739.24226 85.745451 
L 739.851597 87.532478 
L 740.460934 92.994453 
L 741.07027 96.846524 
L 741.679607 91.988903 
L 742.288943 95.221835 
L 742.89828 86.575022 
L 743.507617 95.327103 
L 744.116953 89.624226 
L 744.72629 96.832717 
L 745.335627 95.334372 
L 745.944963 91.780888 
L 746.5543 88.941716 
L 747.163636 91.083967 
L 747.163636 91.083967 
" clip-path="url(#p2e76e3718a)" style="fill: none; stroke: #1f77b4; stroke-width: 1.5; stroke-linecap: square"/>
   </g>
   <g id="line2d_15">
    <path d="M 138.436364 297.869531 
L 139.0457 306.32552 
L 139.655037 300.22617 
L 140.264373 306.223099 
L 140.87371 307.8 
L 141.483047 300.986796 
L 142.092383 301.23423 
L 142.70172 307.002601 
L 143.311057 305.406221 
L 143.920393 304.850281 
L 144.52973 128.594295 
L 145.139066 176.784149 
L 145.748403 212.186547 
L 146.35774 228.631955 
L 146.967076 254.474466 
L 147.576413 270.676781 
L 148.185749 275.139832 
L 148.795086 290.009206 
L 149.404423 280.228096 
L 150.013759 280.613671 
L 150.623096 278.421513 
L 151.841769 257.612773 
L 152.451106 233.197527 
L 153.060442 236.93067 
L 153.669779 230.225411 
L 154.279115 234.54692 
L 155.497789 227.104973 
L 156.107125 235.866112 
L 156.716462 225.822483 
L 157.325799 227.593146 
L 157.935135 227.533945 
L 158.544472 233.843899 
L 159.153808 227.687345 
L 159.763145 234.288157 
L 160.372482 230.185068 
L 160.981818 223.050304 
L 161.591155 217.466558 
L 162.200491 217.914874 
L 162.809828 211.016367 
L 163.419165 212.184384 
L 164.028501 211.815432 
L 164.637838 213.86477 
L 165.247174 220.945047 
L 165.856511 216.248714 
L 166.465848 204.605212 
L 167.075184 202.22302 
L 167.684521 209.669343 
L 168.293857 212.22143 
L 168.903194 207.628544 
L 169.512531 206.803076 
L 170.121867 193.430461 
L 170.731204 201.87477 
L 171.340541 204.257388 
L 171.949877 201.768717 
L 172.559214 205.458411 
L 173.16855 189.501802 
L 173.777887 197.879344 
L 174.387224 184.06355 
L 174.99656 184.60676 
L 175.605897 190.497104 
L 176.215233 193.33601 
L 176.82457 190.187849 
L 177.433907 187.681872 
L 179.261916 176.605191 
L 179.871253 177.802515 
L 180.48059 178.257876 
L 181.089926 177.451781 
L 181.699263 172.072743 
L 182.3086 178.624716 
L 182.917936 181.982572 
L 183.527273 173.035656 
L 184.745946 163.910532 
L 185.355283 161.044645 
L 185.964619 168.352711 
L 186.573956 164.649064 
L 187.183292 164.126588 
L 187.792629 164.780505 
L 188.401966 164.346045 
L 189.011302 165.012922 
L 189.620639 164.663154 
L 190.229975 163.11483 
L 190.839312 156.985469 
L 191.448649 156.854218 
L 192.057985 157.372671 
L 192.667322 160.554962 
L 193.276658 160.671534 
L 193.885995 152.710854 
L 194.495332 160.7348 
L 195.104668 145.876977 
L 195.714005 146.781743 
L 196.323342 154.292109 
L 196.932678 144.277615 
L 197.542015 149.696656 
L 198.151351 139.393791 
L 198.760688 140.660329 
L 199.370025 141.182998 
L 199.979361 140.854088 
L 200.588698 139.487133 
L 201.198034 143.99445 
L 201.807371 136.605649 
L 202.416708 135.296561 
L 203.026044 137.783694 
L 203.635381 141.401446 
L 204.244717 140.597834 
L 204.854054 133.64517 
L 205.463391 134.93173 
L 206.072727 138.202507 
L 206.682064 138.324666 
L 207.2914 132.863211 
L 207.900737 131.999547 
L 208.510074 132.723804 
L 209.11941 129.009283 
L 209.728747 131.565188 
L 210.338084 124.559689 
L 210.94742 134.582089 
L 212.166093 124.561744 
L 212.77543 123.319456 
L 213.384767 132.592179 
L 213.994103 131.459844 
L 214.60344 137.171587 
L 215.212776 122.455634 
L 215.822113 120.62334 
L 216.43145 116.215443 
L 217.040786 121.502266 
L 217.650123 125.035069 
L 218.259459 122.759337 
L 218.868796 124.602132 
L 219.478133 117.788851 
L 220.696806 119.344588 
L 221.306143 115.210971 
L 221.915479 119.870504 
L 222.524816 117.737926 
L 223.134152 113.708423 
L 223.743489 118.061007 
L 224.352826 119.383505 
L 224.962162 114.293118 
L 225.571499 115.471018 
L 226.180835 119.38475 
L 226.790172 116.62058 
L 227.399509 116.465083 
L 228.008845 108.567639 
L 228.618182 113.505609 
L 229.227518 109.296558 
L 229.836855 112.073305 
L 230.446192 113.021447 
L 231.055528 110.655271 
L 231.664865 113.008447 
L 232.274201 110.927943 
L 232.883538 111.987697 
L 233.492875 117.074227 
L 234.102211 111.323204 
L 234.711548 103.091901 
L 235.320885 109.407708 
L 235.930221 102.93044 
L 236.539558 108.817504 
L 237.148894 111.384422 
L 237.758231 110.399129 
L 238.367568 102.607253 
L 238.976904 104.119643 
L 239.586241 101.201976 
L 240.195577 101.585513 
L 240.804914 99.174357 
L 241.414251 98.44026 
L 242.023587 101.78185 
L 242.632924 100.181973 
L 243.24226 96.691736 
L 243.851597 105.38968 
L 244.460934 106.693928 
L 245.07027 103.769787 
L 245.679607 104.036664 
L 246.288943 103.253072 
L 246.89828 103.343502 
L 247.507617 108.077078 
L 248.116953 107.230958 
L 248.72629 93.116924 
L 249.335627 99.462587 
L 249.944963 101.04256 
L 250.5543 96.102817 
L 251.163636 98.915795 
L 251.772973 95.670744 
L 252.38231 98.411563 
L 252.991646 98.71939 
L 253.600983 97.493403 
L 254.210319 88.531295 
L 254.819656 98.827101 
L 255.428993 98.333283 
L 256.038329 87.884666 
L 256.647666 95.279715 
L 257.257002 96.092239 
L 257.866339 94.035006 
L 258.475676 95.500643 
L 259.085012 94.072605 
L 259.694349 102.057138 
L 260.303686 92.767873 
L 260.913022 94.542046 
L 261.522359 93.652648 
L 262.131695 99.221697 
L 263.350369 93.367056 
L 263.959705 98.352417 
L 264.569042 96.047167 
L 265.178378 89.718076 
L 265.787715 93.243821 
L 266.397052 91.987817 
L 267.006388 89.491251 
L 267.615725 93.411461 
L 268.225061 93.120297 
L 268.834398 91.31231 
L 269.443735 96.435118 
L 270.053071 92.129934 
L 270.662408 90.012677 
L 271.271744 87.205305 
L 271.881081 88.012499 
L 272.490418 87.593609 
L 273.099754 80.512397 
L 273.709091 90.827473 
L 274.318428 86.792503 
L 274.927764 84.717611 
L 275.537101 86.767768 
L 276.146437 87.299419 
L 276.755774 88.523101 
L 277.365111 88.854723 
L 277.974447 89.051537 
L 278.583784 90.479444 
L 279.19312 89.092979 
L 279.802457 88.509491 
L 280.411794 88.41743 
L 281.02113 88.990231 
L 281.630467 88.933018 
L 282.239803 87.104093 
L 282.84914 82.161636 
L 283.458477 85.530116 
L 284.067813 84.037138 
L 284.67715 86.825054 
L 285.286486 87.627223 
L 285.895823 84.114524 
L 286.50516 84.386149 
L 287.114496 87.256405 
L 287.723833 79.958462 
L 288.33317 90.218359 
L 288.942506 81.186102 
L 289.551843 82.50549 
L 290.161179 84.257328 
L 290.770516 83.556757 
L 291.379853 83.071978 
L 291.989189 81.682197 
L 292.598526 90.965151 
L 293.207862 80.64612 
L 293.817199 88.853042 
L 294.426536 78.459623 
L 295.035872 83.99242 
L 295.645209 80.650821 
L 296.254545 78.937006 
L 296.863882 78.678192 
L 297.473219 88.626183 
L 298.082555 79.431553 
L 298.691892 80.578475 
L 299.301229 76.730317 
L 299.910565 82.626416 
L 300.519902 82.386954 
L 301.129238 83.341524 
L 301.738575 81.466368 
L 302.347912 78.422717 
L 303.566585 83.910575 
L 304.175921 73.666984 
L 304.785258 83.72072 
L 305.394595 83.918692 
L 306.003931 77.066993 
L 306.613268 82.062625 
L 307.222604 78.036468 
L 308.441278 74.992919 
L 309.050614 75.540996 
L 309.659951 81.113555 
L 310.878624 74.876049 
L 311.487961 79.210443 
L 312.097297 78.299736 
L 312.706634 77.794051 
L 313.315971 71.62008 
L 313.925307 68.992472 
L 314.534644 74.518432 
L 315.14398 78.263827 
L 315.753317 76.774834 
L 316.362654 78.278388 
L 316.97199 79.274964 
L 317.581327 74.439127 
L 318.190663 82.192366 
L 318.8 77.326418 
L 319.409337 77.083996 
L 320.018673 79.399303 
L 320.62801 73.073842 
L 321.237346 77.336714 
L 321.846683 79.565281 
L 322.45602 78.71091 
L 323.065356 82.744004 
L 323.674693 72.011196 
L 324.284029 75.085047 
L 324.893366 84.834479 
L 325.502703 75.230504 
L 326.112039 63.829497 
L 326.721376 82.440098 
L 327.330713 76.42519 
L 327.940049 75.494785 
L 328.549386 75.794254 
L 329.158722 81.163179 
L 330.377396 74.337423 
L 330.986732 78.8075 
L 331.596069 77.542702 
L 332.205405 79.912739 
L 332.814742 78.670849 
L 333.424079 74.775583 
L 334.033415 78.050525 
L 334.642752 79.89995 
L 335.252088 83.357453 
L 335.861425 81.135509 
L 336.470762 79.650018 
L 337.080098 66.532701 
L 337.689435 75.426351 
L 338.298771 76.304854 
L 338.908108 79.88785 
L 339.517445 80.004826 
L 340.126781 75.500667 
L 340.736118 75.797819 
L 341.345455 76.395502 
L 341.954791 69.103284 
L 342.564128 72.334209 
L 343.173464 76.933187 
L 343.782801 68.974794 
L 344.392138 72.153869 
L 345.001474 79.668312 
L 345.610811 69.159811 
L 346.220147 86.126116 
L 346.829484 77.614121 
L 347.438821 79.410481 
L 348.048157 74.978426 
L 348.657494 76.165454 
L 349.26683 73.39552 
L 349.876167 71.237801 
L 350.485504 73.319156 
L 351.09484 77.77943 
L 351.704177 77.545353 
L 352.313514 68.684541 
L 353.532187 74.206147 
L 354.141523 80.607414 
L 355.360197 71.736438 
L 355.969533 75.359057 
L 356.57887 69.124696 
L 357.188206 77.592251 
L 357.797543 69.252803 
L 358.40688 76.012194 
L 359.016216 71.260594 
L 359.625553 76.995586 
L 360.234889 73.383779 
L 360.844226 74.643151 
L 361.453563 76.724701 
L 362.062899 74.994763 
L 362.672236 75.849247 
L 363.281572 72.029156 
L 363.890909 76.206465 
L 364.500246 71.132594 
L 365.109582 69.725145 
L 365.718919 69.416406 
L 366.328256 66.422271 
L 367.546929 78.652016 
L 368.765602 71.822053 
L 369.374939 75.324056 
L 369.984275 69.469944 
L 370.593612 70.820187 
L 371.202948 70.456371 
L 371.812285 75.42461 
L 372.421622 72.83112 
L 373.030958 64.745538 
L 373.640295 72.353558 
L 374.249631 71.30597 
L 374.858968 69.949445 
L 375.468305 73.443961 
L 376.077641 71.496236 
L 376.686978 73.559474 
L 377.296314 67.561556 
L 377.905651 66.595487 
L 378.514988 74.867216 
L 379.124324 71.172827 
L 379.733661 70.244004 
L 380.342998 67.121428 
L 380.952334 73.429372 
L 381.561671 71.356917 
L 382.171007 68.68511 
L 382.780344 74.839422 
L 383.389681 74.075101 
L 383.999017 72.985767 
L 384.608354 70.04655 
L 386.436364 72.55109 
L 387.0457 71.690628 
L 387.655037 77.529492 
L 388.264373 72.065886 
L 388.87371 75.596493 
L 389.483047 68.942489 
L 390.092383 70.852304 
L 390.70172 70.554125 
L 391.311057 71.689959 
L 391.920393 73.362298 
L 392.52973 66.755111 
L 393.139066 68.402569 
L 393.748403 71.003382 
L 394.35774 72.585056 
L 394.967076 74.783403 
L 395.576413 68.885982 
L 396.185749 75.667113 
L 396.795086 71.893694 
L 397.404423 75.672006 
L 398.013759 67.78246 
L 398.623096 70.149087 
L 399.232432 62.062145 
L 399.841769 73.135666 
L 400.451106 65.474155 
L 401.060442 61.29842 
L 401.669779 63.457519 
L 402.279115 64.688642 
L 402.888452 67.162073 
L 403.497789 74.685922 
L 404.107125 64.331222 
L 404.716462 71.885258 
L 405.325799 71.389057 
L 405.935135 67.910331 
L 406.544472 69.540791 
L 407.153808 69.89895 
L 407.763145 78.522796 
L 408.372482 69.738731 
L 408.981818 72.246616 
L 409.591155 68.637923 
L 410.200491 65.743877 
L 410.809828 68.899445 
L 411.419165 69.300898 
L 412.028501 70.410166 
L 412.637838 70.476664 
L 413.247174 71.91339 
L 413.856511 66.675392 
L 414.465848 69.573292 
L 415.075184 67.568085 
L 415.684521 77.305826 
L 416.293857 68.297881 
L 416.903194 66.542976 
L 418.731204 78.964231 
L 419.340541 70.197403 
L 420.559214 65.55694 
L 421.16855 69.570551 
L 421.777887 61.345874 
L 422.387224 74.048214 
L 422.99656 64.436572 
L 423.605897 61.6323 
L 424.215233 67.842782 
L 424.82457 69.156819 
L 425.433907 71.49794 
L 426.043243 72.115024 
L 426.65258 66.677787 
L 427.261916 69.171443 
L 427.871253 65.369021 
L 428.48059 66.392786 
L 429.089926 69.655643 
L 429.699263 73.584268 
L 430.3086 68.087831 
L 430.917936 66.794684 
L 431.527273 70.260537 
L 432.136609 64.461229 
L 432.745946 72.284621 
L 433.355283 67.180039 
L 433.964619 70.838499 
L 434.573956 67.608341 
L 435.183292 75.295068 
L 435.792629 68.388612 
L 436.401966 67.836418 
L 437.011302 66.811246 
L 437.620639 67.213308 
L 438.229975 62.968572 
L 438.839312 68.898845 
L 439.448649 66.152854 
L 440.057985 67.256728 
L 440.667322 67.794342 
L 441.276658 67.206755 
L 441.885995 64.824033 
L 442.495332 67.737661 
L 443.104668 73.615357 
L 443.714005 70.447535 
L 444.323342 64.718636 
L 444.932678 60.241415 
L 445.542015 62.989382 
L 446.151351 67.805289 
L 446.760688 73.927245 
L 447.370025 70.928769 
L 447.979361 65.529142 
L 448.588698 66.788148 
L 449.198034 71.861051 
L 449.807371 66.306308 
L 450.416708 70.486191 
L 451.026044 66.872242 
L 451.635381 69.582356 
L 452.244717 66.461325 
L 452.854054 71.032214 
L 453.463391 73.264396 
L 454.072727 69.115109 
L 454.682064 66.09632 
L 455.2914 63.842741 
L 455.900737 65.73604 
L 456.510074 63.219738 
L 457.11941 68.871945 
L 457.728747 70.123132 
L 458.338084 65.609386 
L 458.94742 64.644718 
L 459.556757 68.420478 
L 460.166093 65.989528 
L 461.384767 73.755934 
L 461.994103 64.896738 
L 462.60344 63.414903 
L 463.212776 67.544387 
L 463.822113 74.785447 
L 464.43145 66.425705 
L 465.040786 66.612297 
L 465.650123 69.200446 
L 466.259459 74.271984 
L 466.868796 57.803456 
L 467.478133 67.032261 
L 468.087469 63.729839 
L 468.696806 66.113342 
L 469.306143 64.567556 
L 469.915479 66.431857 
L 470.524816 66.913617 
L 471.134152 64.39081 
L 471.743489 69.970657 
L 472.352826 71.503884 
L 472.962162 65.928877 
L 473.571499 64.577791 
L 474.180835 66.62589 
L 474.790172 66.394289 
L 475.399509 70.836032 
L 476.008845 73.654866 
L 476.618182 65.535697 
L 477.227518 59.923837 
L 477.836855 68.596008 
L 478.446192 65.084106 
L 479.055528 65.365375 
L 479.664865 65.478457 
L 480.883538 68.502862 
L 481.492875 64.894843 
L 482.102211 71.783975 
L 482.711548 61.843455 
L 483.320885 64.444193 
L 483.930221 71.322561 
L 484.539558 73.001288 
L 485.148894 62.683943 
L 485.758231 64.723652 
L 486.367568 73.048837 
L 486.976904 67.513059 
L 487.586241 70.657865 
L 488.195577 68.958716 
L 488.804914 69.807609 
L 489.414251 67.717902 
L 490.023587 63.625705 
L 490.632924 68.787761 
L 491.24226 65.317684 
L 491.851597 64.310468 
L 492.460934 68.123939 
L 493.07027 59.785334 
L 493.679607 67.419562 
L 494.288943 67.387435 
L 494.89828 65.221091 
L 495.507617 64.293857 
L 496.116953 65.042114 
L 496.72629 72.131732 
L 497.335627 67.106512 
L 497.944963 65.92552 
L 499.163636 65.178625 
L 499.772973 63.070058 
L 500.38231 66.774466 
L 500.991646 55.8 
L 501.600983 68.098991 
L 502.210319 67.172663 
L 502.819656 67.556711 
L 503.428993 64.422442 
L 504.038329 69.436247 
L 504.647666 64.972245 
L 505.257002 70.127155 
L 505.866339 66.748117 
L 506.475676 68.778872 
L 507.085012 68.076901 
L 507.694349 72.601818 
L 508.913022 64.8511 
L 509.522359 69.228546 
L 510.131695 68.393045 
L 510.741032 66.943738 
L 511.350369 63.120215 
L 511.959705 66.284158 
L 512.569042 63.595074 
L 513.178378 68.306574 
L 513.787715 71.780508 
L 514.397052 73.243353 
L 515.006388 67.498509 
L 515.615725 70.761003 
L 516.225061 62.252361 
L 516.834398 66.579372 
L 517.443735 68.733952 
L 518.053071 61.647789 
L 518.662408 61.703501 
L 519.271744 66.210013 
L 519.881081 66.204685 
L 520.490418 64.772599 
L 521.099754 69.614125 
L 521.709091 63.603576 
L 522.318428 66.67217 
L 522.927764 61.45794 
L 523.537101 71.201332 
L 524.146437 62.130499 
L 524.755774 60.643049 
L 525.365111 65.478248 
L 525.974447 62.287572 
L 526.583784 68.009315 
L 527.19312 61.498437 
L 527.802457 60.90974 
L 528.411794 61.20775 
L 529.02113 63.953081 
L 529.630467 65.624955 
L 530.239803 59.623453 
L 530.84914 66.903918 
L 531.458477 71.371169 
L 532.067813 66.864313 
L 532.67715 66.245385 
L 533.286486 69.057198 
L 533.895823 61.97593 
L 535.114496 70.930898 
L 535.723833 70.626705 
L 536.33317 66.506388 
L 536.942506 67.244732 
L 537.551843 71.959198 
L 538.161179 64.465223 
L 538.770516 71.829624 
L 539.379853 72.177895 
L 539.989189 63.892595 
L 540.598526 67.28556 
L 541.207862 67.33848 
L 541.817199 62.799369 
L 542.426536 66.023729 
L 543.035872 66.258469 
L 543.645209 67.359598 
L 544.254545 69.063369 
L 544.863882 67.036102 
L 545.473219 70.950117 
L 546.082555 67.03835 
L 546.691892 69.858252 
L 547.301229 62.953224 
L 547.910565 62.743123 
L 548.519902 63.108528 
L 549.129238 64.950251 
L 549.738575 63.48832 
L 550.347912 74.436232 
L 550.957248 68.94935 
L 551.566585 65.493329 
L 552.175921 66.193914 
L 552.785258 65.467712 
L 553.394595 65.647706 
L 554.003931 60.735084 
L 554.613268 63.570446 
L 555.222604 59.754703 
L 555.831941 64.32331 
L 556.441278 61.830068 
L 557.050614 63.797126 
L 557.659951 62.504534 
L 558.269287 69.02134 
L 558.878624 70.361108 
L 559.487961 67.069218 
L 560.097297 64.891777 
L 560.706634 69.672501 
L 561.315971 68.328013 
L 561.925307 69.899116 
L 562.534644 59.47592 
L 563.14398 66.881593 
L 563.753317 61.992707 
L 564.362654 69.043362 
L 564.97199 61.867418 
L 565.581327 68.134962 
L 566.190663 62.194869 
L 566.8 74.065242 
L 567.409337 66.735887 
L 568.018673 66.021123 
L 568.62801 70.174308 
L 569.237346 70.734727 
L 569.846683 64.173877 
L 570.45602 61.307253 
L 571.065356 67.300219 
L 571.674693 63.253253 
L 572.893366 67.21429 
L 573.502703 65.814771 
L 574.112039 66.165882 
L 574.721376 62.214483 
L 575.330713 69.896597 
L 575.940049 68.681 
L 576.549386 64.141129 
L 577.158722 63.974244 
L 577.768059 69.600318 
L 578.377396 69.65059 
L 578.986732 68.972081 
L 579.596069 63.475195 
L 580.205405 69.268749 
L 580.814742 64.542665 
L 581.424079 64.771009 
L 582.033415 63.509573 
L 582.642752 63.314619 
L 583.252088 64.057881 
L 583.861425 71.96209 
L 584.470762 62.142078 
L 585.080098 66.503595 
L 585.689435 61.934212 
L 586.298771 69.170669 
L 586.908108 60.822642 
L 587.517445 67.951155 
L 588.126781 65.889117 
L 588.736118 63.132821 
L 589.345455 61.445166 
L 589.954791 64.802055 
L 590.564128 69.066591 
L 591.173464 62.687483 
L 591.782801 62.516405 
L 592.392138 65.512088 
L 593.001474 62.047923 
L 593.610811 70.231069 
L 594.220147 67.236945 
L 594.829484 62.308425 
L 596.048157 71.036572 
L 596.657494 64.591856 
L 597.26683 68.592043 
L 597.876167 63.689438 
L 598.485504 68.958723 
L 599.09484 66.978411 
L 599.704177 68.103486 
L 600.313514 66.246049 
L 600.92285 71.444812 
L 601.532187 62.028946 
L 602.141523 73.283616 
L 602.75086 60.794757 
L 603.360197 65.184989 
L 603.969533 67.694019 
L 604.57887 68.285453 
L 605.188206 58.249319 
L 605.797543 69.770961 
L 606.40688 63.170337 
L 607.016216 63.353582 
L 607.625553 68.026162 
L 608.234889 68.747677 
L 608.844226 60.35293 
L 609.453563 61.103181 
L 610.062899 66.823605 
L 610.672236 70.549401 
L 611.281572 61.864932 
L 611.890909 61.935152 
L 612.500246 68.041423 
L 613.109582 61.87446 
L 613.718919 66.781991 
L 614.328256 62.606992 
L 614.937592 64.168085 
L 615.546929 67.169254 
L 616.156265 60.16969 
L 616.765602 62.524686 
L 617.374939 64.332262 
L 617.984275 65.007672 
L 618.593612 65.968633 
L 619.202948 64.963724 
L 619.812285 68.365313 
L 620.421622 65.85871 
L 621.030958 62.009076 
L 621.640295 61.948397 
L 622.249631 59.892662 
L 622.858968 67.844177 
L 623.468305 65.267226 
L 624.077641 69.29816 
L 624.686978 65.728544 
L 625.296314 65.163594 
L 625.905651 68.928821 
L 626.514988 66.530161 
L 627.124324 63.080045 
L 627.733661 63.471168 
L 628.342998 66.312378 
L 628.952334 63.524537 
L 629.561671 64.658271 
L 630.171007 65.501842 
L 630.780344 67.930193 
L 631.389681 64.762676 
L 631.999017 62.296881 
L 632.608354 62.330563 
L 633.21769 60.973486 
L 633.827027 62.180512 
L 634.436364 74.327473 
L 635.0457 64.535115 
L 635.655037 65.129816 
L 636.264373 68.358693 
L 638.092383 62.01224 
L 638.70172 66.374857 
L 639.311057 68.96936 
L 639.920393 63.526875 
L 640.52973 60.502714 
L 642.35774 68.571152 
L 642.967076 62.442266 
L 643.576413 66.754102 
L 644.185749 68.01641 
L 644.795086 60.392541 
L 645.404423 65.89145 
L 646.013759 61.238936 
L 646.623096 64.741377 
L 647.232432 60.923913 
L 647.841769 71.388134 
L 648.451106 63.904123 
L 649.060442 62.153156 
L 649.669779 60.947425 
L 650.279115 63.445787 
L 650.888452 65.18657 
L 651.497789 65.367092 
L 652.107125 64.701245 
L 652.716462 64.905666 
L 653.325799 67.812561 
L 653.935135 65.516388 
L 654.544472 69.116288 
L 655.153808 66.671079 
L 655.763145 70.198039 
L 656.372482 65.288341 
L 656.981818 71.149022 
L 657.591155 63.236554 
L 658.200491 58.808875 
L 658.809828 65.252659 
L 659.419165 61.813299 
L 660.028501 65.921397 
L 660.637838 61.965431 
L 661.247174 60.373317 
L 661.856511 62.807874 
L 662.465848 66.266128 
L 663.075184 66.807053 
L 663.684521 62.336184 
L 664.293857 60.378462 
L 664.903194 56.156983 
L 665.512531 61.888756 
L 666.121867 61.226145 
L 666.731204 68.595344 
L 667.340541 63.617755 
L 667.949877 63.048422 
L 668.559214 64.517765 
L 669.16855 64.513576 
L 669.777887 60.417904 
L 670.387224 66.587197 
L 670.99656 64.738099 
L 671.605897 63.436813 
L 672.215233 65.172152 
L 672.82457 66.197844 
L 673.433907 59.14766 
L 674.043243 70.116262 
L 674.65258 62.275889 
L 675.261916 64.814135 
L 675.871253 58.892369 
L 676.48059 64.734089 
L 677.089926 64.377283 
L 677.699263 67.214035 
L 678.3086 70.912656 
L 678.917936 67.053033 
L 679.527273 69.142513 
L 680.136609 62.056006 
L 680.745946 68.188719 
L 681.355283 64.413188 
L 681.964619 65.979661 
L 682.573956 56.344607 
L 683.183292 65.694757 
L 684.401966 63.974476 
L 685.011302 71.894909 
L 685.620639 65.779065 
L 686.229975 65.532971 
L 686.839312 61.579291 
L 687.448649 62.51728 
L 688.057985 62.927154 
L 689.276658 66.301697 
L 689.885995 68.824 
L 690.495332 57.669778 
L 691.104668 67.962623 
L 691.714005 57.671745 
L 692.323342 58.386756 
L 692.932678 64.437768 
L 694.151351 69.278104 
L 694.760688 67.36934 
L 695.370025 63.262389 
L 695.979361 62.67346 
L 696.588698 60.097651 
L 697.198034 66.829421 
L 697.807371 64.975154 
L 698.416708 60.936639 
L 699.026044 60.410753 
L 699.635381 65.062423 
L 700.244717 62.140812 
L 700.854054 64.803464 
L 701.463391 68.095082 
L 702.072727 70.673806 
L 702.682064 65.494697 
L 703.2914 63.28637 
L 703.900737 63.913037 
L 704.510074 65.813579 
L 705.11941 64.022121 
L 705.728747 66.093521 
L 706.338084 59.32118 
L 706.94742 66.652874 
L 707.556757 68.816199 
L 708.166093 69.376429 
L 708.77543 64.678588 
L 709.384767 62.512825 
L 709.994103 64.859279 
L 710.60344 64.097803 
L 711.212776 60.180103 
L 711.822113 67.489299 
L 712.43145 61.545876 
L 713.040786 70.109627 
L 713.650123 62.892304 
L 714.259459 63.370752 
L 714.868796 65.16533 
L 715.478133 66.347437 
L 716.087469 73.36835 
L 716.696806 62.208234 
L 717.306143 58.194241 
L 717.915479 57.903493 
L 718.524816 72.638512 
L 719.134152 59.572 
L 719.743489 58.309503 
L 720.352826 68.444664 
L 720.962162 62.169584 
L 721.571499 67.434031 
L 722.180835 64.11948 
L 722.790172 62.419638 
L 723.399509 56.848735 
L 724.008845 68.068285 
L 724.618182 65.291799 
L 725.227518 66.636515 
L 725.836855 68.548491 
L 727.664865 56.595501 
L 728.274201 63.649835 
L 728.883538 59.587281 
L 729.492875 59.663324 
L 730.102211 58.818007 
L 730.711548 64.647419 
L 731.320885 62.642368 
L 731.930221 61.319633 
L 732.539558 64.712094 
L 733.148894 64.796673 
L 733.758231 67.458754 
L 734.367568 67.786453 
L 734.976904 62.339006 
L 735.586241 65.550943 
L 736.195577 60.612892 
L 736.804914 72.45032 
L 737.414251 67.469772 
L 738.023587 67.789594 
L 738.632924 65.125789 
L 739.24226 57.207345 
L 739.851597 66.834907 
L 740.460934 63.446105 
L 741.07027 64.760952 
L 741.679607 62.718362 
L 742.288943 66.09552 
L 742.89828 57.335724 
L 743.507617 64.216871 
L 744.116953 64.282658 
L 744.72629 68.097799 
L 745.335627 65.232707 
L 745.944963 59.304391 
L 747.163636 66.763677 
L 747.163636 66.763677 
" clip-path="url(#p2e76e3718a)" style="fill: none; stroke: #ff7f0e; stroke-width: 1.5; stroke-linecap: square"/>
   </g>
   <g id="patch_3">
    <path d="M 108 320.4 
L 108 43.2 
" style="fill: none; stroke: #000000; stroke-width: 0.8; stroke-linejoin: miter; stroke-linecap: square"/>
   </g>
   <g id="patch_4">
    <path d="M 777.6 320.4 
L 777.6 43.2 
" style="fill: none; stroke: #000000; stroke-width: 0.8; stroke-linejoin: miter; stroke-linecap: square"/>
   </g>
   <g id="patch_5">
    <path d="M 108 320.4 
L 777.6 320.4 
" style="fill: none; stroke: #000000; stroke-width: 0.8; stroke-linejoin: miter; stroke-linecap: square"/>
   </g>
   <g id="patch_6">
    <path d="M 108 43.2 
L 777.6 43.2 
" style="fill: none; stroke: #000000; stroke-width: 0.8; stroke-linejoin: miter; stroke-linecap: square"/>
   </g>
   <g id="text_16">
    <!-- Average Reward over Time -->
    <g transform="translate(362.033437 37.2) scale(0.12 -0.12)">
     <defs>
      <path id="DejaVuSans-6f" d="M 1959 3097 
Q 1497 3097 1228 2736 
Q 959 2375 959 1747 
Q 959 1119 1226 758 
Q 1494 397 1959 397 
Q 2419 397 2687 759 
Q 2956 1122 2956 1747 
Q 2956 2369 2687 2733 
Q 2419 3097 1959 3097 
z
M 1959 3584 
Q 2709 3584 3137 3096 
Q 3566 2609 3566 1747 
Q 3566 888 3137 398 
Q 2709 -91 1959 -91 
Q 1206 -91 779 398 
Q 353 888 353 1747 
Q 353 2609 779 3096 
Q 1206 3584 1959 3584 
z
" transform="scale(0.015625)"/>
      <path id="DejaVuSans-54" d="M -19 4666 
L 3928 4666 
L 3928 4134 
L 2272 4134 
L 2272 0 
L 1638 0 
L 1638 4134 
L -19 4134 
L -19 4666 
z
" transform="scale(0.015625)"/>
      <path id="DejaVuSans-69" d="M 603 3500 
L 1178 3500 
L 1178 0 
L 603 0 
L 603 3500 
z
M 603 4863 
L 1178 4863 
L 1178 4134 
L 603 4134 
L 603 4863 
z
" transform="scale(0.015625)"/>
      <path id="DejaVuSans-6d" d="M 3328 2828 
Q 3544 3216 3844 3400 
Q 4144 3584 4550 3584 
Q 5097 3584 5394 3201 
Q 5691 2819 5691 2113 
L 5691 0 
L 5113 0 
L 5113 2094 
Q 5113 2597 4934 2840 
Q 4756 3084 4391 3084 
Q 3944 3084 3684 2787 
Q 3425 2491 3425 1978 
L 3425 0 
L 2847 0 
L 2847 2094 
Q 2847 2600 2669 2842 
Q 2491 3084 2119 3084 
Q 1678 3084 1418 2786 
Q 1159 2488 1159 1978 
L 1159 0 
L 581 0 
L 581 3500 
L 1159 3500 
L 1159 2956 
Q 1356 3278 1631 3431 
Q 1906 3584 2284 3584 
Q 2666 3584 2933 3390 
Q 3200 3197 3328 2828 
z
" transform="scale(0.015625)"/>
     </defs>
     <use xlink:href="#DejaVuSans-41"/>
     <use xlink:href="#DejaVuSans-76" transform="translate(62.533203 0)"/>
     <use xlink:href="#DejaVuSans-65" transform="translate(121.712891 0)"/>
     <use xlink:href="#DejaVuSans-72" transform="translate(183.236328 0)"/>
     <use xlink:href="#DejaVuSans-61" transform="translate(224.349609 0)"/>
     <use xlink:href="#DejaVuSans-67" transform="translate(285.628906 0)"/>
     <use xlink:href="#DejaVuSans-65" transform="translate(349.105469 0)"/>
     <use xlink:href="#DejaVuSans-20" transform="translate(410.628906 0)"/>
     <use xlink:href="#DejaVuSans-52" transform="translate(442.416016 0)"/>
     <use xlink:href="#DejaVuSans-65" transform="translate(507.398438 0)"/>
     <use xlink:href="#DejaVuSans-77" transform="translate(568.921875 0)"/>
     <use xlink:href="#DejaVuSans-61" transform="translate(650.708984 0)"/>
     <use xlink:href="#DejaVuSans-72" transform="translate(711.988281 0)"/>
     <use xlink:href="#DejaVuSans-64" transform="translate(751.351562 0)"/>
     <use xlink:href="#DejaVuSans-20" transform="translate(814.828125 0)"/>
     <use xlink:href="#DejaVuSans-6f" transform="translate(846.615234 0)"/>
     <use xlink:href="#DejaVuSans-76" transform="translate(907.796875 0)"/>
     <use xlink:href="#DejaVuSans-65" transform="translate(966.976562 0)"/>
     <use xlink:href="#DejaVuSans-72" transform="translate(1028.5 0)"/>
     <use xlink:href="#DejaVuSans-20" transform="translate(1069.613281 0)"/>
     <use xlink:href="#DejaVuSans-54" transform="translate(1101.400391 0)"/>
     <use xlink:href="#DejaVuSans-69" transform="translate(1159.359375 0)"/>
     <use xlink:href="#DejaVuSans-6d" transform="translate(1187.142578 0)"/>
     <use xlink:href="#DejaVuSans-65" transform="translate(1284.554688 0)"/>
    </g>
   </g>
   <g id="legend_1">
    <g id="patch_7">
     <path d="M 115 80.55625 
L 218.2 80.55625 
Q 220.2 80.55625 220.2 78.55625 
L 220.2 50.2 
Q 220.2 48.2 218.2 48.2 
L 115 48.2 
Q 113 48.2 113 50.2 
L 113 78.55625 
Q 113 80.55625 115 80.55625 
z
" style="fill: #ffffff; opacity: 0.8; stroke: #cccccc; stroke-linejoin: miter"/>
    </g>
    <g id="line2d_16">
     <path d="M 117 56.298437 
L 127 56.298437 
L 137 56.298437 
" style="fill: none; stroke: #1f77b4; stroke-width: 1.5; stroke-linecap: square"/>
    </g>
    <g id="text_17">
     <!-- $\epsilon = 0.1$, $Q_1 = 0$ -->
     <g transform="translate(145 59.798437) scale(0.1 -0.1)">
      <defs>
       <path id="DejaVuSans-Oblique-3b5" d="M 1263 1888 
Q 925 1963 778 2166 
Q 669 2309 669 2503 
Q 669 3034 1175 3344 
Q 1575 3588 2188 3588 
Q 2425 3588 2684 3550 
Q 2944 3513 3234 3438 
L 3134 2916 
Q 2847 3006 2606 3047 
Q 2359 3088 2138 3088 
Q 1766 3088 1522 2944 
Q 1228 2772 1228 2522 
Q 1228 2356 1381 2241 
Q 1563 2103 1925 2103 
L 2409 2103 
L 2319 1628 
L 1856 1628 
Q 1425 1628 1172 1469 
Q 828 1253 828 916 
Q 828 703 1013 563 
Q 1244 388 1716 388 
Q 2006 388 2284 444 
Q 2563 503 2806 619 
L 2700 84 
Q 2403 -3 2131 -47 
Q 1859 -91 1609 -91 
Q 866 -91 516 194 
Q 250 413 250 781 
Q 250 1278 600 1584 
Q 859 1813 1263 1888 
z
" transform="scale(0.015625)"/>
       <path id="DejaVuSans-3d" d="M 678 2906 
L 4684 2906 
L 4684 2381 
L 678 2381 
L 678 2906 
z
M 678 1631 
L 4684 1631 
L 4684 1100 
L 678 1100 
L 678 1631 
z
" transform="scale(0.015625)"/>
       <path id="DejaVuSans-2c" d="M 750 794 
L 1409 794 
L 1409 256 
L 897 -744 
L 494 -744 
L 750 256 
L 750 794 
z
" transform="scale(0.015625)"/>
       <path id="DejaVuSans-Oblique-51" d="M 2309 -84 
Q 2275 -88 2237 -89 
Q 2200 -91 2125 -91 
Q 1250 -91 756 411 
Q 263 913 263 1797 
Q 263 2319 452 2844 
Q 641 3369 978 3788 
Q 1369 4269 1858 4509 
Q 2347 4750 2938 4750 
Q 3794 4750 4287 4245 
Q 4781 3741 4781 2869 
Q 4781 1928 4265 1147 
Q 3750 366 2919 44 
L 3553 -825 
L 2847 -825 
L 2309 -84 
z
M 2919 4238 
Q 2400 4238 2003 3986 
Q 1606 3734 1313 3219 
Q 1125 2891 1026 2522 
Q 928 2153 928 1778 
Q 928 1128 1239 775 
Q 1550 422 2119 422 
Q 2631 422 3032 676 
Q 3434 931 3719 1434 
Q 3909 1772 4009 2142 
Q 4109 2513 4109 2881 
Q 4109 3528 3796 3883 
Q 3484 4238 2919 4238 
z
" transform="scale(0.015625)"/>
      </defs>
      <use xlink:href="#DejaVuSans-Oblique-3b5" transform="translate(0 0.78125)"/>
      <use xlink:href="#DejaVuSans-3d" transform="translate(73.535156 0.78125)"/>
      <use xlink:href="#DejaVuSans-30" transform="translate(176.806641 0.78125)"/>
      <use xlink:href="#DejaVuSans-2e" transform="translate(240.429688 0.78125)"/>
      <use xlink:href="#DejaVuSans-31" transform="translate(272.216797 0.78125)"/>
      <use xlink:href="#DejaVuSans-2c" transform="translate(335.839844 0.78125)"/>
      <use xlink:href="#DejaVuSans-20" transform="translate(367.626953 0.78125)"/>
      <use xlink:href="#DejaVuSans-Oblique-51" transform="translate(399.414062 0.78125)"/>
      <use xlink:href="#DejaVuSans-31" transform="translate(478.125 -15.625) scale(0.7)"/>
      <use xlink:href="#DejaVuSans-3d" transform="translate(544.87793 0.78125)"/>
      <use xlink:href="#DejaVuSans-30" transform="translate(648.149414 0.78125)"/>
     </g>
    </g>
    <g id="line2d_17">
     <path d="M 117 70.976562 
L 127 70.976562 
L 137 70.976562 
" style="fill: none; stroke: #ff7f0e; stroke-width: 1.5; stroke-linecap: square"/>
    </g>
    <g id="text_18">
     <!-- $\epsilon = 0$, $Q_1 = 5$ -->
     <g transform="translate(145 74.476562) scale(0.1 -0.1)">
      <use xlink:href="#DejaVuSans-Oblique-3b5" transform="translate(0 0.78125)"/>
      <use xlink:href="#DejaVuSans-3d" transform="translate(73.535156 0.78125)"/>
      <use xlink:href="#DejaVuSans-30" transform="translate(176.806641 0.78125)"/>
      <use xlink:href="#DejaVuSans-2c" transform="translate(240.429688 0.78125)"/>
      <use xlink:href="#DejaVuSans-20" transform="translate(272.216797 0.78125)"/>
      <use xlink:href="#DejaVuSans-Oblique-51" transform="translate(304.003906 0.78125)"/>
      <use xlink:href="#DejaVuSans-31" transform="translate(382.714844 -15.625) scale(0.7)"/>
      <use xlink:href="#DejaVuSans-3d" transform="translate(449.467773 0.78125)"/>
      <use xlink:href="#DejaVuSans-35" transform="translate(552.739258 0.78125)"/>
     </g>
    </g>
   </g>
  </g>
 </g>
 <defs>
  <clipPath id="p2e76e3718a">
   <rect x="108" y="43.2" width="669.6" height="277.2"/>
  </clipPath>
 </defs>
</svg>
