<?xml version="1.0" encoding="UTF-8" standalone="no"?>
<!-- Generator: Adobe Illustrator 24.3.0, SVG Export Plug-In . SVG Version: 6.00 Build 0)  -->

<svg
   version="1.1"
   id="Wortmarke"
   x="0px"
   y="0px"
   viewBox="-133 -17 344.263 91.071965"
   xml:space="preserve"
   sodipodi:docname="inf-logo.svg"
   width="115.22581"
   height="30.482046"
   inkscape:version="1.2.1 (9c6d41e, 2022-07-14)"
   xmlns:inkscape="http://www.inkscape.org/namespaces/inkscape"
   xmlns:sodipodi="http://sodipodi.sourceforge.net/DTD/sodipodi-0.dtd"
   xmlns="http://www.w3.org/2000/svg"
   xmlns:svg="http://www.w3.org/2000/svg"><defs
   id="defs55" /><sodipodi:namedview
   id="namedview53"
   pagecolor="#ffffff"
   bordercolor="#000000"
   borderopacity="0.25"
   inkscape:showpageshadow="2"
   inkscape:pageopacity="0.0"
   inkscape:pagecheckerboard="0"
   inkscape:deskcolor="#d1d1d1"
   showgrid="false"
   inkscape:zoom="4.9666437"
   inkscape:cx="87.483626"
   inkscape:cy="11.27522"
   inkscape:window-width="1512"
   inkscape:window-height="916"
   inkscape:window-x="0"
   inkscape:window-y="38"
   inkscape:window-maximized="0"
   inkscape:current-layer="Wortmarke" />
<g
   id="g50">
	<g
   id="g44">
		<path
   style="fill:#191915"
   d="M 74.842,9.411 C 74.622,9.382 74.384,9.353 74.128,9.323 73.872,9.294 73.583,9.279 73.261,9.279 c -1.391,0 -2.086,0.71 -2.086,2.129 v 1.888 h 3.448 v 1.01 h -3.448 v 9.966 H 70.077 V 14.306 H 67.88 v -1.01 h 2.196 v -1.932 c 0,-0.409 0.066,-0.801 0.198,-1.174 0.132,-0.373 0.326,-0.703 0.582,-0.988 0.256,-0.286 0.578,-0.508 0.966,-0.669 0.388,-0.161 0.838,-0.242 1.351,-0.242 0.322,0 0.615,0.011 0.878,0.033 0.263,0.022 0.527,0.055 0.791,0.099 z"
   id="path2" />
		<path
   style="fill:#191915"
   d="m 86.108,24.273 c -0.131,0.029 -0.219,0.047 -0.263,0.055 -0.044,0.008 -0.132,0.011 -0.264,0.011 -0.337,0 -0.619,-0.059 -0.846,-0.176 -0.227,-0.117 -0.406,-0.274 -0.538,-0.472 -0.131,-0.198 -0.223,-0.424 -0.274,-0.681 -0.051,-0.256 -0.077,-0.53 -0.077,-0.823 -0.146,0.395 -0.355,0.739 -0.626,1.032 -0.271,0.293 -0.582,0.538 -0.934,0.735 -0.351,0.198 -0.732,0.348 -1.142,0.45 -0.41,0.102 -0.828,0.153 -1.252,0.153 -0.527,0 -1.021,-0.077 -1.482,-0.23 -0.461,-0.153 -0.864,-0.376 -1.208,-0.669 -0.344,-0.292 -0.611,-0.647 -0.802,-1.064 -0.19,-0.417 -0.285,-0.889 -0.285,-1.416 0,-0.98 0.34,-1.752 1.021,-2.316 0.681,-0.564 1.57,-0.882 2.668,-0.955 l 4.041,-0.285 v -1.076 c 0,-0.907 -0.274,-1.551 -0.824,-1.932 -0.549,-0.38 -1.241,-0.571 -2.075,-0.571 -0.878,0 -1.611,0.198 -2.196,0.593 -0.586,0.395 -0.908,1.003 -0.966,1.822 h -1.098 c 0.044,-0.556 0.179,-1.046 0.406,-1.471 0.227,-0.424 0.527,-0.783 0.9,-1.075 0.374,-0.293 0.809,-0.516 1.307,-0.67 0.498,-0.153 1.047,-0.23 1.647,-0.23 0.366,0 0.739,0.033 1.12,0.099 0.38,0.065 0.739,0.179 1.076,0.34 0.337,0.162 0.637,0.37 0.901,0.626 0.263,0.256 0.468,0.574 0.615,0.955 0.132,0.337 0.212,0.681 0.242,1.032 0.029,0.352 0.044,0.71 0.044,1.076 v 5.005 c 0,0.381 0.047,0.673 0.143,0.878 0.095,0.205 0.333,0.308 0.714,0.308 0.132,0 0.234,-0.007 0.307,-0.022 z m -2.261,-5.642 -3.931,0.241 c -0.82,0.059 -1.472,0.289 -1.955,0.691 -0.483,0.403 -0.725,0.941 -0.725,1.614 0,0.79 0.26,1.383 0.779,1.778 0.52,0.396 1.175,0.593 1.966,0.593 0.688,0 1.277,-0.128 1.768,-0.384 0.491,-0.256 0.89,-0.589 1.197,-0.999 0.307,-0.41 0.534,-0.875 0.681,-1.394 0.146,-0.519 0.22,-1.042 0.22,-1.569 z"
   id="path4" />
		<path
   style="fill:#191915"
   d="M 97.265,24.273 93.4,18.412 90.523,21.551 v 2.722 h -1.12 V 8.423 h 1.12 V 19.97 l 6.171,-6.673 h 1.384 l -3.887,4.237 4.414,6.739 z"
   id="path6" />
		<path
   style="fill:#191915"
   d="m 108.509,24.251 -0.132,-1.998 c -0.161,0.351 -0.37,0.669 -0.626,0.955 -0.256,0.285 -0.549,0.527 -0.878,0.724 -0.329,0.198 -0.685,0.348 -1.065,0.45 -0.381,0.102 -0.762,0.154 -1.142,0.154 -1.274,0 -2.237,-0.359 -2.888,-1.076 -0.651,-0.717 -0.977,-1.698 -0.977,-2.942 v -7.244 h 1.098 v 7.178 c 0,0.966 0.22,1.709 0.659,2.228 0.439,0.52 1.164,0.78 2.174,0.78 0.673,0 1.244,-0.132 1.713,-0.396 0.469,-0.263 0.846,-0.615 1.131,-1.054 0.285,-0.439 0.49,-0.94 0.615,-1.503 0.124,-0.563 0.187,-1.145 0.187,-1.746 v -5.488 h 1.098 v 10.976 h -0.967 z"
   id="path8" />
		<path
   style="fill:#191915"
   d="m 117.008,24.273 c -0.118,0.029 -0.253,0.058 -0.407,0.088 -0.153,0.029 -0.348,0.044 -0.582,0.044 -0.703,0 -1.245,-0.187 -1.625,-0.56 -0.381,-0.373 -0.571,-0.962 -0.571,-1.767 V 8.423 h 1.098 v 13.61 c 0,0.381 0.073,0.695 0.219,0.944 0.146,0.249 0.454,0.374 0.923,0.374 0.219,0 0.391,0 0.516,0 0.124,0 0.267,-0.015 0.428,-0.044 v 0.966 z"
   id="path10" />
		<path
   style="fill:#191915"
   d="m 125.287,24.163 c -0.307,0.074 -0.611,0.135 -0.911,0.187 -0.3,0.051 -0.604,0.077 -0.912,0.077 -1.025,0 -1.753,-0.296 -2.185,-0.889 -0.432,-0.593 -0.648,-1.365 -0.648,-2.316 v -6.915 h -2.196 v -1.01 h 2.196 v -3.03 l 1.098,-0.263 v 3.293 h 3.404 v 1.01 h -3.404 v 6.871 c 0,0.322 0.025,0.618 0.077,0.889 0.051,0.271 0.146,0.505 0.285,0.702 0.139,0.198 0.326,0.352 0.56,0.461 0.234,0.11 0.534,0.165 0.9,0.165 0.293,0 0.582,-0.019 0.868,-0.055 0.286,-0.036 0.574,-0.084 0.867,-0.143 v 0.966 z"
   id="path12" />
		<path
   style="fill:#191915"
   d="m 137.366,24.273 c -0.131,0.029 -0.219,0.047 -0.263,0.055 -0.044,0.008 -0.132,0.011 -0.264,0.011 -0.337,0 -0.619,-0.059 -0.846,-0.176 -0.227,-0.117 -0.406,-0.274 -0.538,-0.472 -0.131,-0.198 -0.223,-0.424 -0.274,-0.681 -0.051,-0.256 -0.077,-0.53 -0.077,-0.823 -0.146,0.395 -0.355,0.739 -0.626,1.032 -0.271,0.293 -0.582,0.538 -0.934,0.735 -0.351,0.198 -0.732,0.348 -1.142,0.45 -0.41,0.102 -0.828,0.153 -1.252,0.153 -0.527,0 -1.021,-0.077 -1.482,-0.23 -0.461,-0.153 -0.864,-0.376 -1.208,-0.669 -0.344,-0.292 -0.611,-0.647 -0.802,-1.064 -0.19,-0.417 -0.285,-0.889 -0.285,-1.416 0,-0.98 0.34,-1.752 1.021,-2.316 0.681,-0.564 1.57,-0.882 2.668,-0.955 l 4.041,-0.285 v -1.076 c 0,-0.907 -0.274,-1.551 -0.824,-1.932 -0.549,-0.38 -1.241,-0.571 -2.075,-0.571 -0.878,0 -1.611,0.198 -2.196,0.593 -0.586,0.395 -0.908,1.003 -0.966,1.822 h -1.098 c 0.044,-0.556 0.179,-1.046 0.406,-1.471 0.227,-0.424 0.527,-0.783 0.9,-1.075 0.374,-0.293 0.809,-0.516 1.307,-0.67 0.498,-0.153 1.047,-0.23 1.647,-0.23 0.366,0 0.739,0.033 1.12,0.099 0.38,0.065 0.739,0.179 1.076,0.34 0.337,0.162 0.637,0.37 0.901,0.626 0.263,0.256 0.468,0.574 0.615,0.955 0.132,0.337 0.212,0.681 0.242,1.032 0.029,0.352 0.044,0.71 0.044,1.076 v 5.005 c 0,0.381 0.047,0.673 0.143,0.878 0.095,0.205 0.333,0.308 0.714,0.308 0.132,0 0.234,-0.007 0.307,-0.022 z m -2.262,-5.642 -3.931,0.241 c -0.82,0.059 -1.472,0.289 -1.955,0.691 -0.483,0.403 -0.725,0.941 -0.725,1.614 0,0.79 0.26,1.383 0.779,1.778 0.52,0.396 1.175,0.593 1.966,0.593 0.688,0 1.277,-0.128 1.768,-0.384 0.491,-0.256 0.89,-0.589 1.197,-0.999 0.307,-0.41 0.534,-0.875 0.681,-1.394 0.146,-0.519 0.22,-1.042 0.22,-1.569 z M 129.57,10.597 V 9.213 h 1.318 v 1.383 h -1.318 z m 4.041,0 V 9.213 h 1.318 v 1.383 h -1.318 z"
   id="path14" />
		<path
   style="fill:#191915"
   d="m 145.755,24.163 c -0.307,0.074 -0.611,0.135 -0.911,0.187 -0.3,0.051 -0.604,0.077 -0.912,0.077 -1.025,0 -1.753,-0.296 -2.185,-0.889 -0.432,-0.593 -0.648,-1.365 -0.648,-2.316 v -6.915 h -2.196 v -1.01 h 2.196 v -3.03 l 1.098,-0.263 v 3.293 h 3.404 v 1.01 h -3.404 v 6.871 c 0,0.322 0.025,0.618 0.077,0.889 0.051,0.271 0.146,0.505 0.285,0.702 0.139,0.198 0.326,0.352 0.56,0.461 0.234,0.11 0.534,0.165 0.9,0.165 0.293,0 0.582,-0.019 0.868,-0.055 0.286,-0.036 0.574,-0.084 0.867,-0.143 v 0.966 z"
   id="path16" />
		<path
   style="fill:#191915"
   d="m 159.02,9.411 c -0.22,-0.029 -0.458,-0.058 -0.714,-0.088 -0.256,-0.029 -0.545,-0.044 -0.867,-0.044 -1.391,0 -2.086,0.71 -2.086,2.129 v 1.888 h 3.448 v 1.01 h -3.448 v 9.966 h -1.098 v -9.966 h -2.196 v -1.01 h 2.196 v -1.932 c 0,-0.409 0.066,-0.801 0.198,-1.174 0.132,-0.373 0.326,-0.703 0.582,-0.988 0.256,-0.286 0.578,-0.508 0.966,-0.669 0.388,-0.161 0.838,-0.242 1.351,-0.242 0.322,0 0.615,0.011 0.878,0.033 0.263,0.022 0.527,0.055 0.791,0.099 v 0.988 z"
   id="path18" />
		<path
   style="fill:#191915"
   d="m 168.574,24.251 -0.132,-1.998 c -0.161,0.351 -0.37,0.669 -0.626,0.955 -0.256,0.285 -0.549,0.527 -0.878,0.724 -0.329,0.198 -0.685,0.348 -1.065,0.45 -0.381,0.102 -0.762,0.154 -1.142,0.154 -1.274,0 -2.237,-0.359 -2.888,-1.076 -0.651,-0.717 -0.977,-1.698 -0.977,-2.942 v -7.244 h 1.098 v 7.178 c 0,0.966 0.22,1.709 0.659,2.228 0.439,0.52 1.164,0.78 2.174,0.78 0.673,0 1.244,-0.132 1.713,-0.396 0.469,-0.263 0.846,-0.615 1.131,-1.054 0.285,-0.439 0.49,-0.94 0.615,-1.503 0.124,-0.563 0.187,-1.145 0.187,-1.746 v -5.488 h 1.098 v 10.976 h -0.967 z M 162.468,10.597 V 9.213 h 1.318 v 1.383 h -1.318 z m 4.041,0 V 9.213 h 1.318 v 1.383 h -1.318 z"
   id="path20" />
		<path
   style="fill:#191915"
   d="m 179.62,14.351 c -0.176,-0.044 -0.355,-0.073 -0.538,-0.088 -0.183,-0.015 -0.362,-0.022 -0.538,-0.022 -0.688,0 -1.255,0.139 -1.702,0.417 -0.447,0.278 -0.801,0.644 -1.065,1.098 -0.264,0.454 -0.45,0.966 -0.56,1.537 -0.11,0.571 -0.165,1.142 -0.165,1.712 v 5.269 h -1.098 V 13.297 h 0.966 l 0.132,2.217 c 0.249,-0.761 0.699,-1.339 1.351,-1.734 0.651,-0.395 1.365,-0.593 2.141,-0.593 0.176,0 0.355,0.004 0.538,0.011 0.183,0.008 0.362,0.026 0.538,0.055 z"
   id="path22" />
		<path
   style="fill:#191915"
   d="m 69.264,33.204 v -1.537 h 1.537 v 1.537 z m 0.197,14.027 V 36.255 h 1.164 v 10.976 z"
   id="path24" />
		<path
   style="fill:#191915"
   d="m 82.704,47.231 v -7.178 c 0,-0.966 -0.22,-1.709 -0.659,-2.229 -0.439,-0.519 -1.164,-0.779 -2.174,-0.779 -0.674,0 -1.245,0.136 -1.713,0.406 -0.469,0.271 -0.846,0.625 -1.131,1.064 -0.285,0.439 -0.491,0.941 -0.615,1.504 -0.125,0.563 -0.187,1.138 -0.187,1.723 V 47.23 H 75.127 V 36.255 h 0.966 l 0.132,1.998 c 0.146,-0.351 0.351,-0.666 0.615,-0.944 0.264,-0.278 0.56,-0.516 0.89,-0.713 0.329,-0.198 0.684,-0.352 1.065,-0.461 0.38,-0.109 0.761,-0.165 1.142,-0.165 1.274,0 2.236,0.359 2.888,1.076 0.651,0.717 0.978,1.698 0.978,2.942 v 7.244 h -1.099 z"
   id="path26" />
		<path
   style="fill:#191915"
   d="m 93.487,32.37 c -0.22,-0.029 -0.458,-0.058 -0.714,-0.088 -0.256,-0.029 -0.545,-0.044 -0.867,-0.044 -1.391,0 -2.086,0.71 -2.086,2.129 v 1.888 h 3.448 v 1.01 H 89.82 v 9.966 h -1.098 v -9.966 h -2.196 v -1.01 h 2.196 v -1.932 c 0,-0.409 0.066,-0.801 0.198,-1.174 0.132,-0.373 0.326,-0.703 0.582,-0.988 0.256,-0.286 0.578,-0.508 0.966,-0.669 0.388,-0.161 0.838,-0.242 1.351,-0.242 0.322,0 0.615,0.011 0.878,0.033 0.263,0.022 0.527,0.055 0.791,0.099 v 0.988 z"
   id="path28" />
		<path
   style="fill:#191915"
   d="m 104.029,41.743 c 0,0.937 -0.117,1.771 -0.352,2.503 -0.235,0.732 -0.637,1.383 -1.208,1.954 -0.381,0.381 -0.838,0.695 -1.373,0.944 -0.534,0.249 -1.146,0.373 -1.833,0.373 -0.688,0 -1.3,-0.125 -1.834,-0.373 -0.535,-0.249 -0.992,-0.563 -1.373,-0.944 -0.571,-0.571 -0.974,-1.222 -1.208,-1.954 -0.234,-0.732 -0.351,-1.566 -0.351,-2.503 0,-0.936 0.117,-1.771 0.351,-2.502 0.234,-0.731 0.637,-1.383 1.208,-1.954 0.381,-0.38 0.838,-0.695 1.373,-0.944 0.534,-0.249 1.146,-0.374 1.834,-0.374 0.688,0 1.299,0.125 1.833,0.374 0.535,0.249 0.992,0.563 1.373,0.944 0.571,0.571 0.973,1.222 1.208,1.954 0.235,0.732 0.352,1.566 0.352,2.502 z m -1.12,0 c 0,-0.717 -0.081,-1.39 -0.242,-2.02 -0.161,-0.629 -0.491,-1.2 -0.988,-1.712 -0.293,-0.292 -0.637,-0.527 -1.032,-0.702 -0.395,-0.176 -0.856,-0.264 -1.383,-0.264 -0.527,0 -0.988,0.088 -1.384,0.264 -0.395,0.175 -0.739,0.41 -1.032,0.702 -0.498,0.513 -0.827,1.083 -0.988,1.712 -0.161,0.629 -0.241,1.303 -0.241,2.02 0,0.717 0.08,1.391 0.241,2.02 0.161,0.629 0.491,1.2 0.988,1.712 0.293,0.293 0.637,0.527 1.032,0.703 0.396,0.176 0.856,0.263 1.384,0.263 0.527,0 0.988,-0.087 1.383,-0.263 0.396,-0.176 0.739,-0.41 1.032,-0.703 0.498,-0.512 0.827,-1.083 0.988,-1.712 0.161,-0.629 0.242,-1.303 0.242,-2.02 z"
   id="path30" />
		<path
   style="fill:#191915"
   d="m 113.165,37.309 c -0.176,-0.044 -0.355,-0.073 -0.538,-0.088 -0.183,-0.015 -0.362,-0.022 -0.538,-0.022 -0.688,0 -1.255,0.139 -1.702,0.417 -0.447,0.278 -0.801,0.644 -1.065,1.098 -0.264,0.454 -0.45,0.966 -0.56,1.537 -0.11,0.571 -0.165,1.142 -0.165,1.712 v 5.269 h -1.098 V 36.255 h 0.966 l 0.132,2.217 c 0.249,-0.761 0.699,-1.339 1.351,-1.734 0.651,-0.395 1.365,-0.593 2.141,-0.593 0.176,0 0.355,0.004 0.538,0.011 0.183,0.008 0.362,0.026 0.538,0.055 z"
   id="path32" />
		<path
   style="fill:#191915"
   d="m 130.03,47.231 v -7.178 c 0,-0.951 -0.197,-1.698 -0.593,-2.239 -0.396,-0.541 -1.069,-0.813 -2.021,-0.813 -0.425,0 -0.794,0.066 -1.109,0.198 -0.315,0.132 -0.597,0.315 -0.846,0.549 -0.425,0.41 -0.747,0.893 -0.966,1.449 -0.22,0.557 -0.33,1.164 -0.33,1.822 v 6.212 h -1.12 v -7.178 c 0,-0.951 -0.202,-1.698 -0.604,-2.239 -0.403,-0.542 -1.08,-0.813 -2.032,-0.813 -0.425,0 -0.794,0.066 -1.109,0.198 -0.315,0.132 -0.597,0.315 -0.846,0.549 -0.498,0.468 -0.842,1.054 -1.032,1.756 -0.19,0.702 -0.285,1.449 -0.285,2.239 v 5.488 h -1.098 V 36.255 h 0.966 l 0.132,1.888 c 0.292,-0.629 0.725,-1.148 1.295,-1.559 0.571,-0.41 1.252,-0.615 2.042,-0.615 0.966,0 1.731,0.216 2.295,0.647 0.563,0.432 0.956,1.007 1.175,1.724 0.292,-0.688 0.728,-1.255 1.307,-1.702 0.578,-0.446 1.321,-0.669 2.229,-0.669 0.644,0 1.197,0.099 1.658,0.296 0.461,0.198 0.838,0.476 1.131,0.834 0.293,0.358 0.509,0.783 0.648,1.273 0.139,0.491 0.208,1.028 0.208,1.614 v 7.244 h -1.095 z"
   id="path34" />
		<path
   style="fill:#191915"
   d="m 144.416,47.231 c -0.131,0.029 -0.219,0.047 -0.263,0.055 -0.044,0.008 -0.132,0.011 -0.264,0.011 -0.337,0 -0.619,-0.059 -0.846,-0.176 -0.227,-0.117 -0.406,-0.274 -0.538,-0.472 -0.131,-0.198 -0.223,-0.424 -0.274,-0.681 -0.051,-0.256 -0.077,-0.53 -0.077,-0.823 -0.146,0.395 -0.355,0.739 -0.626,1.032 -0.271,0.293 -0.582,0.538 -0.934,0.735 -0.351,0.198 -0.732,0.348 -1.142,0.45 -0.41,0.102 -0.828,0.153 -1.252,0.153 -0.527,0 -1.021,-0.077 -1.482,-0.23 -0.461,-0.153 -0.864,-0.376 -1.208,-0.669 -0.344,-0.292 -0.611,-0.647 -0.802,-1.064 -0.19,-0.417 -0.285,-0.889 -0.285,-1.416 0,-0.98 0.34,-1.752 1.021,-2.316 0.681,-0.564 1.57,-0.882 2.668,-0.955 l 4.041,-0.285 v -1.076 c 0,-0.907 -0.274,-1.551 -0.824,-1.932 -0.549,-0.38 -1.241,-0.571 -2.075,-0.571 -0.878,0 -1.611,0.198 -2.196,0.593 -0.586,0.395 -0.908,1.003 -0.966,1.822 h -1.098 c 0.044,-0.556 0.179,-1.046 0.406,-1.471 0.227,-0.424 0.527,-0.783 0.9,-1.075 0.374,-0.293 0.809,-0.516 1.307,-0.67 0.498,-0.153 1.047,-0.23 1.647,-0.23 0.366,0 0.739,0.033 1.12,0.099 0.38,0.065 0.739,0.179 1.076,0.34 0.337,0.162 0.637,0.37 0.901,0.626 0.263,0.256 0.468,0.574 0.615,0.955 0.132,0.337 0.212,0.681 0.242,1.032 0.029,0.352 0.044,0.71 0.044,1.076 v 5.005 c 0,0.381 0.047,0.673 0.143,0.878 0.095,0.205 0.333,0.308 0.714,0.308 0.132,0 0.234,-0.007 0.307,-0.022 z m -2.262,-5.641 -3.931,0.241 c -0.82,0.059 -1.472,0.289 -1.955,0.691 -0.483,0.403 -0.725,0.941 -0.725,1.614 0,0.79 0.26,1.383 0.779,1.778 0.52,0.396 1.175,0.593 1.966,0.593 0.688,0 1.277,-0.128 1.768,-0.384 0.491,-0.256 0.89,-0.589 1.197,-0.999 0.307,-0.41 0.534,-0.875 0.681,-1.394 0.146,-0.519 0.22,-1.042 0.22,-1.569 z"
   id="path36" />
		<path
   style="fill:#191915"
   d="m 152.805,47.122 c -0.307,0.074 -0.611,0.135 -0.911,0.187 -0.3,0.051 -0.604,0.077 -0.912,0.077 -1.025,0 -1.753,-0.296 -2.185,-0.889 -0.432,-0.593 -0.648,-1.365 -0.648,-2.316 v -6.915 h -2.196 v -1.01 h 2.196 v -3.03 l 1.098,-0.263 v 3.293 h 3.404 v 1.01 h -3.404 v 6.871 c 0,0.322 0.025,0.618 0.077,0.889 0.051,0.271 0.146,0.505 0.285,0.702 0.139,0.198 0.326,0.352 0.56,0.461 0.234,0.11 0.534,0.165 0.9,0.165 0.293,0 0.582,-0.019 0.868,-0.055 0.286,-0.036 0.574,-0.084 0.867,-0.143 v 0.966 z"
   id="path38" />
		<path
   style="fill:#191915"
   d="m 155.704,33.204 v -1.537 h 1.537 v 1.537 z m 0.197,14.027 V 36.255 h 1.164 v 10.976 z"
   id="path40" />
		<path
   style="fill:#191915"
   d="m 169.43,47.231 -3.865,-5.861 -2.877,3.139 v 2.722 h -1.12 v -15.85 h 1.12 v 11.547 l 6.171,-6.673 h 1.384 l -3.887,4.237 4.414,6.739 z"
   id="path42" />
	</g>
	<rect
   x="35.561001"
   y="0.026000001"
   style="fill:#c4002d"
   width="6.5970001"
   height="6.5970001"
   id="rect46" />
	<path
   style="fill:#8bb533"
   d="m 54.563,40.449 v 6.65 h -7.49 C 39.96,47.099 35.602,42.077 35.602,35.48 L 35.611,20.064 18.339,20.063 v 27.063 h -6.58 V 20.063 H 0 V 13.492 H 11.76 V 11.55 C 11.76,5.005 16.126,0 23.239,0 h 7.656 v 6.623 h -7.656 c -3.36,0 -4.9,1.75 -4.9,4.926 v 1.942 H 42.191 L 42.173,35.48 c 0,3.202 1.54,4.97 4.9,4.97 h 7.49 z"
   id="path48" />
</g>
</svg>
