<?xml version="1.0" encoding="UTF-8" standalone="no"?>
<svg
   width="706.58124pt"
   height="322.67438pt"
   viewBox="0 0 706.58124 322.67438"
   version="1.1"
   id="svg110"
   sodipodi:docname="mab-actions-opt.svg"
   inkscape:version="1.3.2 (091e20e, 2023-11-25)"
   xmlns:inkscape="http://www.inkscape.org/namespaces/inkscape"
   xmlns:sodipodi="http://sodipodi.sourceforge.net/DTD/sodipodi-0.dtd"
   xmlns:xlink="http://www.w3.org/1999/xlink"
   xmlns="http://www.w3.org/2000/svg"
   xmlns:svg="http://www.w3.org/2000/svg"
   xmlns:rdf="http://www.w3.org/1999/02/22-rdf-syntax-ns#"
   xmlns:cc="http://creativecommons.org/ns#"
   xmlns:dc="http://purl.org/dc/elements/1.1/">
  <sodipodi:namedview
     id="namedview110"
     pagecolor="#ffffff"
     bordercolor="#000000"
     borderopacity="0.25"
     inkscape:showpageshadow="2"
     inkscape:pageopacity="0.0"
     inkscape:pagecheckerboard="0"
     inkscape:deskcolor="#d1d1d1"
     inkscape:document-units="pt"
     inkscape:zoom="1.2105989"
     inkscape:cx="281.26575"
     inkscape:cy="97.0594"
     inkscape:window-width="1512"
     inkscape:window-height="854"
     inkscape:window-x="0"
     inkscape:window-y="33"
     inkscape:window-maximized="1"
     inkscape:current-layer="svg110" />
  <metadata
     id="metadata1">
    <rdf:RDF>
      <cc:Work>
        <dc:type
           rdf:resource="http://purl.org/dc/dcmitype/StillImage" />
        <dc:date>2026-03-23T23:19:47.331537</dc:date>
        <dc:format>image/svg+xml</dc:format>
        <dc:creator>
          <cc:Agent>
            <dc:title>Matplotlib v3.10.7, https://matplotlib.org/</dc:title>
          </cc:Agent>
        </dc:creator>
      </cc:Work>
    </rdf:RDF>
  </metadata>
  <defs
     id="defs1">
    <style
       type="text/css"
       id="style1">*{stroke-linejoin: round; stroke-linecap: butt}</style>
  </defs>
  <g
     id="patch_2"
     transform="translate(-71.41875,-28.081875)">
    <path
       d="M 108,320.4 H 777.6 V 43.2 H 108 Z"
       style="fill:#ffffff"
       id="path2" />
  </g>
  <g
     id="matplotlib.axis_1"
     transform="translate(-71.41875,-28.081875)">
    <g
       id="xtick_1">
      <g
         id="line2d_1">
        <defs
           id="defs2">
          <path
             id="m7ca5485374"
             d="M 0,0 V 3.5"
             style="stroke:#000000;stroke-width:0.8" />
        </defs>
        <g
           id="g2">
          <use
             xlink:href="#m7ca5485374"
             x="138.43637"
             y="320.39999"
             style="stroke:#000000;stroke-width:0.8"
             id="use2" />
        </g>
      </g>
      <g
         id="text_1">
        <!-- 0 -->
        <g
           transform="matrix(0.1,0,0,-0.1,135.25511,334.99844)"
           id="g3">
          <defs
             id="defs3">
            <path
               id="DejaVuSans-30"
               d="m 2034,4250 q -487,0 -733,-480 -245,-479 -245,-1442 0,-959 245,-1439 246,-480 733,-480 491,0 736,480 246,480 246,1439 0,963 -246,1442 -245,480 -736,480 z m 0,500 q 785,0 1199,-621 414,-620 414,-1801 0,-1178 -414,-1799 -414,-620 -1199,-620 -784,0 -1198,620 -414,621 -414,1799 0,1181 414,1801 414,621 1198,621 z"
               transform="scale(0.015625)" />
          </defs>
          <use
             xlink:href="#DejaVuSans-30"
             id="use3" />
        </g>
      </g>
    </g>
    <g
       id="xtick_2">
      <g
         id="line2d_2">
        <g
           id="g4">
          <use
             xlink:href="#m7ca5485374"
             x="260.30368"
             y="320.39999"
             style="stroke:#000000;stroke-width:0.8"
             id="use4" />
        </g>
      </g>
      <g
         id="text_2">
        <!-- 200 -->
        <g
           transform="matrix(0.1,0,0,-0.1,250.75994,334.99844)"
           id="g7">
          <defs
             id="defs4">
            <path
               id="DejaVuSans-32"
               d="M 1228,531 H 3431 V 0 H 469 v 531 q 359,372 979,998 621,627 780,809 303,340 423,576 121,236 121,464 0,372 -261,606 -261,235 -680,235 -297,0 -627,-103 -329,-103 -704,-313 v 638 q 381,153 712,231 332,78 607,78 725,0 1156,-363 431,-362 431,-968 0,-288 -108,-546 -107,-257 -392,-607 -78,-91 -497,-524 Q 1991,1309 1228,531 Z"
               transform="scale(0.015625)" />
          </defs>
          <use
             xlink:href="#DejaVuSans-32"
             id="use5" />
          <use
             xlink:href="#DejaVuSans-30"
             transform="translate(63.623047)"
             id="use6" />
          <use
             xlink:href="#DejaVuSans-30"
             transform="translate(127.24609)"
             id="use7" />
        </g>
      </g>
    </g>
    <g
       id="xtick_3">
      <g
         id="line2d_3">
        <g
           id="g8">
          <use
             xlink:href="#m7ca5485374"
             x="382.17102"
             y="320.39999"
             style="stroke:#000000;stroke-width:0.8"
             id="use8" />
        </g>
      </g>
      <g
         id="text_3">
        <!-- 400 -->
        <g
           transform="matrix(0.1,0,0,-0.1,372.62726,334.99844)"
           id="g11">
          <defs
             id="defs8">
            <path
               id="DejaVuSans-34"
               d="M 2419,4116 825,1625 h 1594 z m -166,550 h 794 V 1625 h 666 V 1100 H 3047 V 0 H 2419 V 1100 H 313 v 609 z"
               transform="scale(0.015625)" />
          </defs>
          <use
             xlink:href="#DejaVuSans-34"
             id="use9" />
          <use
             xlink:href="#DejaVuSans-30"
             transform="translate(63.623047)"
             id="use10" />
          <use
             xlink:href="#DejaVuSans-30"
             transform="translate(127.24609)"
             id="use11" />
        </g>
      </g>
    </g>
    <g
       id="xtick_4">
      <g
         id="line2d_4">
        <g
           id="g12">
          <use
             xlink:href="#m7ca5485374"
             x="504.03833"
             y="320.39999"
             style="stroke:#000000;stroke-width:0.8"
             id="use12" />
        </g>
      </g>
      <g
         id="text_4">
        <!-- 600 -->
        <g
           transform="matrix(0.1,0,0,-0.1,494.49458,334.99844)"
           id="g15">
          <defs
             id="defs12">
            <path
               id="DejaVuSans-36"
               d="m 2113,2584 q -425,0 -674,-291 -248,-290 -248,-796 0,-503 248,-796 249,-292 674,-292 425,0 673,292 248,293 248,796 0,506 -248,796 -248,291 -673,291 z m 1253,1979 v -575 q -238,112 -480,171 -242,60 -480,60 -625,0 -955,-422 -329,-422 -376,-1275 184,272 462,417 279,145 613,145 703,0 1111,-427 408,-426 408,-1160 0,-719 -425,-1154 -425,-434 -1131,-434 -810,0 -1238,620 -428,621 -428,1799 0,1106 525,1764 525,658 1409,658 238,0 480,-47 242,-47 505,-140 z"
               transform="scale(0.015625)" />
          </defs>
          <use
             xlink:href="#DejaVuSans-36"
             id="use13" />
          <use
             xlink:href="#DejaVuSans-30"
             transform="translate(63.623047)"
             id="use14" />
          <use
             xlink:href="#DejaVuSans-30"
             transform="translate(127.24609)"
             id="use15" />
        </g>
      </g>
    </g>
    <g
       id="xtick_5">
      <g
         id="line2d_5">
        <g
           id="g16">
          <use
             xlink:href="#m7ca5485374"
             x="625.90564"
             y="320.39999"
             style="stroke:#000000;stroke-width:0.8"
             id="use16" />
        </g>
      </g>
      <g
         id="text_5">
        <!-- 800 -->
        <g
           transform="matrix(0.1,0,0,-0.1,616.3619,334.99844)"
           id="g19">
          <defs
             id="defs16">
            <path
               id="DejaVuSans-38"
               d="m 2034,2216 q -450,0 -708,-241 -257,-241 -257,-662 0,-422 257,-663 258,-241 708,-241 450,0 709,242 260,243 260,662 0,421 -258,662 -257,241 -711,241 z m -631,268 q -406,100 -633,378 -226,279 -226,679 0,559 398,884 399,325 1092,325 697,0 1094,-325 397,-325 397,-884 0,-400 -227,-679 -226,-278 -629,-378 456,-106 710,-416 255,-309 255,-755 Q 3634,634 3220,271 2806,-91 2034,-91 1263,-91 848,271 434,634 434,1313 q 0,446 256,755 257,310 713,416 z m -231,997 q 0,-362 226,-565 227,-203 636,-203 407,0 636,203 230,203 230,565 0,363 -230,566 -229,203 -636,203 -409,0 -636,-203 -226,-203 -226,-566 z"
               transform="scale(0.015625)" />
          </defs>
          <use
             xlink:href="#DejaVuSans-38"
             id="use17" />
          <use
             xlink:href="#DejaVuSans-30"
             transform="translate(63.623047)"
             id="use18" />
          <use
             xlink:href="#DejaVuSans-30"
             transform="translate(127.24609)"
             id="use19" />
        </g>
      </g>
    </g>
    <g
       id="xtick_6">
      <g
         id="line2d_6">
        <g
           id="g20">
          <use
             xlink:href="#m7ca5485374"
             x="747.77295"
             y="320.39999"
             style="stroke:#000000;stroke-width:0.8"
             id="use20" />
        </g>
      </g>
      <g
         id="text_6">
        <!-- 1000 -->
        <g
           transform="matrix(0.1,0,0,-0.1,735.04797,334.99844)"
           id="g24">
          <defs
             id="defs20">
            <path
               id="DejaVuSans-31"
               d="M 794,531 H 1825 V 4091 L 703,3866 v 575 l 1116,225 h 631 V 531 H 3481 V 0 H 794 Z"
               transform="scale(0.015625)" />
          </defs>
          <use
             xlink:href="#DejaVuSans-31"
             id="use21" />
          <use
             xlink:href="#DejaVuSans-30"
             transform="translate(63.623047)"
             id="use22" />
          <use
             xlink:href="#DejaVuSans-30"
             transform="translate(127.24609)"
             id="use23" />
          <use
             xlink:href="#DejaVuSans-30"
             transform="translate(190.86914)"
             id="use24" />
        </g>
      </g>
    </g>
    <g
       id="text_7">
      <!-- Steps -->
      <g
         transform="matrix(0.1,0,0,-0.1,428.81016,348.67656)"
         id="g29">
        <defs
           id="defs24">
          <path
             id="DejaVuSans-53"
             d="m 3425,4513 v -616 q -359,172 -678,256 -319,85 -616,85 -515,0 -795,-200 -280,-200 -280,-569 0,-310 186,-468 186,-157 705,-254 l 381,-78 q 706,-135 1042,-474 336,-339 336,-907 0,-679 -455,-1029 -454,-350 -1332,-350 -331,0 -705,75 -373,75 -773,222 v 650 q 384,-215 753,-325 369,-109 725,-109 540,0 834,212 294,213 294,607 0,343 -211,537 -211,194 -692,291 l -385,75 q -706,140 -1022,440 -315,300 -315,835 0,619 436,975 436,356 1201,356 329,0 669,-60 341,-59 697,-177 z"
             transform="scale(0.015625)" />
          <path
             id="DejaVuSans-74"
             d="M 1172,4494 V 3500 H 2356 V 3053 H 1172 V 1153 q 0,-428 117,-550 117,-122 477,-122 h 590 V 0 H 1766 Q 1100,0 847,248 594,497 594,1153 V 3053 H 172 v 447 h 422 v 994 z"
             transform="scale(0.015625)" />
          <path
             id="DejaVuSans-65"
             d="M 3597,1894 V 1613 H 953 q 38,-594 358,-905 320,-311 892,-311 331,0 642,81 311,81 618,244 V 178 Q 3153,47 2828,-22 2503,-91 2169,-91 1331,-91 842,396 353,884 353,1716 q 0,859 464,1363 464,505 1252,505 706,0 1117,-455 411,-454 411,-1235 z m -575,169 q -6,471 -264,752 -258,282 -683,282 -481,0 -770,-272 -289,-272 -333,-766 z"
             transform="scale(0.015625)" />
          <path
             id="DejaVuSans-70"
             d="M 1159,525 V -1331 H 581 v 4831 h 578 v -531 q 182,312 458,463 277,152 661,152 638,0 1036,-506 399,-506 399,-1331 0,-825 -399,-1332 -398,-506 -1036,-506 -384,0 -661,152 -276,152 -458,464 z m 1957,1222 q 0,634 -261,995 -261,361 -717,361 -457,0 -718,-361 -261,-361 -261,-995 0,-634 261,-995 261,-361 718,-361 456,0 717,361 261,361 261,995 z"
             transform="scale(0.015625)" />
          <path
             id="DejaVuSans-73"
             d="m 2834,3397 v -544 q -243,125 -506,187 -262,63 -544,63 -428,0 -642,-131 -214,-131 -214,-394 0,-200 153,-314 153,-114 616,-217 l 197,-44 q 612,-131 870,-370 258,-239 258,-667 0,-488 -386,-773 Q 2250,-91 1575,-91 1294,-91 989,-36 684,19 347,128 v 594 q 319,-166 628,-249 309,-82 613,-82 406,0 624,139 219,139 219,392 0,234 -158,359 -157,125 -692,241 l -200,47 q -534,112 -772,345 -237,233 -237,639 0,494 350,762 350,269 994,269 318,0 599,-47 282,-46 519,-140 z"
             transform="scale(0.015625)" />
        </defs>
        <use
           xlink:href="#DejaVuSans-53"
           id="use25" />
        <use
           xlink:href="#DejaVuSans-74"
           transform="translate(63.476562)"
           id="use26" />
        <use
           xlink:href="#DejaVuSans-65"
           transform="translate(102.68555)"
           id="use27" />
        <use
           xlink:href="#DejaVuSans-70"
           transform="translate(164.20898)"
           id="use28" />
        <use
           xlink:href="#DejaVuSans-73"
           transform="translate(227.68555)"
           id="use29" />
      </g>
    </g>
  </g>
  <g
     id="matplotlib.axis_2"
     transform="translate(-71.41875,-28.081875)">
    <g
       id="ytick_1">
      <g
         id="line2d_7">
        <defs
           id="defs29">
          <path
             id="md70b2fadb8"
             d="M 0,0 H -3.5"
             style="stroke:#000000;stroke-width:0.8" />
        </defs>
        <g
           id="g30">
          <use
             xlink:href="#md70b2fadb8"
             x="108"
             y="276.35562"
             style="stroke:#000000;stroke-width:0.8"
             id="use30" />
        </g>
      </g>
      <g
         id="text_8">
        <!-- 0.2 -->
        <g
           transform="matrix(0.1,0,0,-0.1,85.096875,280.15484)"
           id="g33">
          <defs
             id="defs30">
            <path
               id="DejaVuSans-2e"
               d="m 684,794 h 660 V 0 H 684 Z"
               transform="scale(0.015625)" />
          </defs>
          <use
             xlink:href="#DejaVuSans-30"
             id="use31" />
          <use
             xlink:href="#DejaVuSans-2e"
             transform="translate(63.623047)"
             id="use32" />
          <use
             xlink:href="#DejaVuSans-32"
             transform="translate(95.410156)"
             id="use33" />
        </g>
      </g>
    </g>
    <g
       id="ytick_2">
      <g
         id="line2d_8">
        <g
           id="g34">
          <use
             xlink:href="#md70b2fadb8"
             x="108"
             y="217.02661"
             style="stroke:#000000;stroke-width:0.8"
             id="use34" />
        </g>
      </g>
      <g
         id="text_9">
        <!-- 0.4 -->
        <g
           transform="matrix(0.1,0,0,-0.1,85.096875,220.82582)"
           id="g37">
          <use
             xlink:href="#DejaVuSans-30"
             id="use35" />
          <use
             xlink:href="#DejaVuSans-2e"
             transform="translate(63.623047)"
             id="use36" />
          <use
             xlink:href="#DejaVuSans-34"
             transform="translate(95.410156)"
             id="use37" />
        </g>
      </g>
    </g>
    <g
       id="ytick_3">
      <g
         id="line2d_9">
        <g
           id="g38">
          <use
             xlink:href="#md70b2fadb8"
             x="108"
             y="157.69759"
             style="stroke:#000000;stroke-width:0.8"
             id="use38" />
        </g>
      </g>
      <g
         id="text_10">
        <!-- 0.6 -->
        <g
           transform="matrix(0.1,0,0,-0.1,85.096875,161.49681)"
           id="g41">
          <use
             xlink:href="#DejaVuSans-30"
             id="use39" />
          <use
             xlink:href="#DejaVuSans-2e"
             transform="translate(63.623047)"
             id="use40" />
          <use
             xlink:href="#DejaVuSans-36"
             transform="translate(95.410156)"
             id="use41" />
        </g>
      </g>
    </g>
    <g
       id="ytick_4">
      <g
         id="line2d_10">
        <g
           id="g42">
          <use
             xlink:href="#md70b2fadb8"
             x="108"
             y="98.368568"
             style="stroke:#000000;stroke-width:0.8"
             id="use42" />
        </g>
      </g>
      <g
         id="text_11">
        <!-- 0.8 -->
        <g
           transform="matrix(0.1,0,0,-0.1,85.096875,102.16779)"
           id="g45">
          <use
             xlink:href="#DejaVuSans-30"
             id="use43" />
          <use
             xlink:href="#DejaVuSans-2e"
             transform="translate(63.623047)"
             id="use44" />
          <use
             xlink:href="#DejaVuSans-38"
             transform="translate(95.410156)"
             id="use45" />
        </g>
      </g>
    </g>
    <g
       id="text_12">
      <!-- % Optimal Action -->
      <g
         transform="matrix(0,-0.1,-0.1,0,79.017187,225.17109)"
         id="g61">
        <defs
           id="defs45">
          <path
             id="DejaVuSans-25"
             d="m 4653,2053 q -272,0 -427,-231 -154,-231 -154,-644 0,-406 154,-639 155,-233 427,-233 266,0 420,233 155,233 155,639 0,410 -155,642 -154,233 -420,233 z m 0,397 q 494,0 784,-344 291,-343 291,-928 0,-584 -292,-927 -292,-342 -783,-342 -500,0 -791,342 -290,343 -290,927 0,588 292,930 292,342 789,342 z M 1428,4353 q -269,0 -424,-233 -154,-232 -154,-639 0,-412 153,-644 153,-231 425,-231 272,0 426,231 155,232 155,644 0,403 -156,637 -156,235 -425,235 z m 2822,397 h 500 L 1831,-91 h -500 z m -2822,0 q 494,0 787,-342 294,-342 294,-927 0,-590 -292,-931 -292,-341 -789,-341 -497,0 -786,342 -289,343 -289,930 0,582 290,925 291,344 785,344 z"
             transform="scale(0.015625)" />
          <path
             id="DejaVuSans-20"
             transform="scale(0.015625)"
             d="" />
          <path
             id="DejaVuSans-4f"
             d="m 2522,4238 q -688,0 -1093,-513 -404,-512 -404,-1397 0,-881 404,-1394 405,-512 1093,-512 687,0 1089,512 402,513 402,1394 0,885 -402,1397 -402,513 -1089,513 z m 0,512 q 981,0 1568,-658 588,-658 588,-1764 0,-1103 -588,-1761 -587,-658 -1568,-658 -984,0 -1574,656 -589,657 -589,1763 0,1106 589,1764 590,658 1574,658 z"
             transform="scale(0.015625)" />
          <path
             id="DejaVuSans-69"
             d="m 603,3500 h 575 V 0 H 603 Z m 0,1363 h 575 V 4134 H 603 Z"
             transform="scale(0.015625)" />
          <path
             id="DejaVuSans-6d"
             d="m 3328,2828 q 216,388 516,572 300,184 706,184 547,0 844,-383 297,-382 297,-1088 V 0 h -578 v 2094 q 0,503 -179,746 -178,244 -543,244 -447,0 -707,-297 -259,-296 -259,-809 V 0 h -578 v 2094 q 0,506 -178,748 -178,242 -550,242 -441,0 -701,-298 -259,-298 -259,-808 V 0 H 581 v 3500 h 578 v -544 q 197,322 472,475 275,153 653,153 382,0 649,-194 267,-193 395,-562 z"
             transform="scale(0.015625)" />
          <path
             id="DejaVuSans-61"
             d="m 2194,1759 q -697,0 -966,-159 -269,-159 -269,-544 0,-306 202,-486 202,-179 548,-179 479,0 768,339 289,339 289,901 v 128 z m 1147,238 V 0 H 2766 V 531 Q 2569,213 2275,61 1981,-91 1556,-91 q -537,0 -855,302 -317,302 -317,808 0,590 395,890 396,300 1180,300 h 807 v 57 q 0,397 -261,614 -261,217 -733,217 -300,0 -585,-72 -284,-72 -546,-216 v 532 q 315,122 612,182 297,61 578,61 760,0 1135,-394 375,-393 375,-1193 z"
             transform="scale(0.015625)" />
          <path
             id="DejaVuSans-6c"
             d="m 603,4863 h 575 V 0 H 603 Z"
             transform="scale(0.015625)" />
          <path
             id="DejaVuSans-41"
             d="M 2188,4044 1331,1722 h 1716 z m -357,622 h 716 L 4325,0 H 3669 L 3244,1197 H 1141 L 716,0 H 50 Z"
             transform="scale(0.015625)" />
          <path
             id="DejaVuSans-63"
             d="m 3122,3366 v -538 q -244,135 -489,202 -245,67 -495,67 -560,0 -870,-355 -309,-354 -309,-995 0,-641 309,-996 310,-354 870,-354 250,0 495,67 245,67 489,202 V 134 Q 2881,22 2623,-34 2366,-91 2075,-91 1284,-91 818,406 353,903 353,1747 q 0,856 470,1346 471,491 1290,491 265,0 518,-55 253,-54 491,-163 z"
             transform="scale(0.015625)" />
          <path
             id="DejaVuSans-6f"
             d="m 1959,3097 q -462,0 -731,-361 -269,-361 -269,-989 0,-628 267,-989 268,-361 733,-361 460,0 728,362 269,363 269,988 0,622 -269,986 -268,364 -728,364 z m 0,487 q 750,0 1178,-488 429,-487 429,-1349 Q 3566,888 3137,398 2709,-91 1959,-91 1206,-91 779,398 353,888 353,1747 q 0,862 426,1349 427,488 1180,488 z"
             transform="scale(0.015625)" />
          <path
             id="DejaVuSans-6e"
             d="M 3513,2113 V 0 h -575 v 2094 q 0,497 -194,743 -194,247 -581,247 -466,0 -735,-297 -269,-296 -269,-809 V 0 H 581 v 3500 h 578 v -544 q 207,316 486,472 280,156 646,156 603,0 912,-373 310,-373 310,-1098 z"
             transform="scale(0.015625)" />
        </defs>
        <use
           xlink:href="#DejaVuSans-25"
           id="use46" />
        <use
           xlink:href="#DejaVuSans-20"
           transform="translate(95.019531)"
           id="use47" />
        <use
           xlink:href="#DejaVuSans-4f"
           transform="translate(126.80664)"
           id="use48" />
        <use
           xlink:href="#DejaVuSans-70"
           transform="translate(205.51758)"
           id="use49" />
        <use
           xlink:href="#DejaVuSans-74"
           transform="translate(268.99414)"
           id="use50" />
        <use
           xlink:href="#DejaVuSans-69"
           transform="translate(308.20312)"
           id="use51" />
        <use
           xlink:href="#DejaVuSans-6d"
           transform="translate(335.98633)"
           id="use52" />
        <use
           xlink:href="#DejaVuSans-61"
           transform="translate(433.39844)"
           id="use53" />
        <use
           xlink:href="#DejaVuSans-6c"
           transform="translate(494.67773)"
           id="use54" />
        <use
           xlink:href="#DejaVuSans-20"
           transform="translate(522.46094)"
           id="use55" />
        <use
           xlink:href="#DejaVuSans-41"
           transform="translate(554.24805)"
           id="use56" />
        <use
           xlink:href="#DejaVuSans-63"
           transform="translate(620.90625)"
           id="use57" />
        <use
           xlink:href="#DejaVuSans-74"
           transform="translate(675.88672)"
           id="use58" />
        <use
           xlink:href="#DejaVuSans-69"
           transform="translate(715.0957)"
           id="use59" />
        <use
           xlink:href="#DejaVuSans-6f"
           transform="translate(742.87891)"
           id="use60" />
        <use
           xlink:href="#DejaVuSans-6e"
           transform="translate(804.06055)"
           id="use61" />
      </g>
    </g>
  </g>
  <g
     id="line2d_11"
     transform="translate(-71.41875,-28.081875)">
    <path
       d="m 138.43636,306.16845 0.60934,-13.2007 0.60934,-9.34432 0.60933,-4.30136 1.82801,-18.39199 0.60934,-1.03826 0.60934,-4.89465 0.60933,-0.44496 0.60934,-3.85639 0.60934,-0.88993 0.60933,-4.89465 1.21868,-3.41142 0.60933,-3.26309 0.60934,-1.03826 0.60934,1.77987 0.60933,-4.74632 0.60934,1.63155 1.21867,-3.70807 0.60934,-2.81813 0.60934,1.9282 1.21867,-4.44968 0.60933,-3.85638 0.60934,1.63154 0.60934,-1.18658 1.21867,-3.85638 0.60934,-0.14833 0.60933,-0.59329 0.60934,-0.88993 0.60934,-0.14832 0.60933,-4.00471 0.60934,0.59329 0.60934,1.92819 0.60933,-2.66981 0.60934,-1.3349 0.60934,1.03826 0.60933,-2.22484 0.60934,-0.74161 0.60934,0.29664 0.60933,-0.59329 0.60934,0.29665 1.21867,-2.81813 0.60934,2.07652 0.60934,-2.22484 0.60933,-0.44497 0.60934,2.81813 0.60934,-7.8611 0.60933,1.33491 0.60934,-1.18658 0.60934,-0.59329 0.60933,1.03825 0.60934,0.74162 0.60934,-2.66981 0.60933,0.29665 0.60934,-1.9282 0.60934,-2.6698 0.60933,0.29664 0.60934,0.59329 0.60934,-2.07651 0.60933,0.88993 0.60934,-1.48322 1.21867,1.92819 0.60934,-0.88994 0.60934,-2.81812 0.60933,-1.33491 0.60934,1.9282 0.60934,-0.59329 0.60933,-2.81813 0.60934,-0.29665 0.60934,-2.52148 0.60933,1.48323 0.60934,-0.44497 0.60934,0.14832 0.60933,-0.14832 0.60934,-1.03826 0.60934,0.88994 0.60933,-0.14833 0.60934,-4.30135 0.60933,1.48322 0.60934,-0.44496 0.60934,-0.74162 0.60933,2.96645 0.60934,-3.26309 0.60934,0.88993 0.60933,-0.44496 0.60934,-1.18658 0.60934,3.70806 0.60933,-4.89464 0.60934,-1.77987 0.60934,1.48322 0.60933,-2.07651 0.60934,4.0047 1.82801,-6.52619 0.60934,1.03826 0.60933,-4.00471 0.60934,2.07652 0.60934,-3.2631 0.60933,4.74632 0.60934,0.29665 0.60934,-3.2631 0.60933,-1.92819 0.60934,1.77987 0.60934,-0.29665 0.60933,-3.85638 0.60934,3.11477 0.60934,1.48323 0.60933,-0.59329 0.60934,-1.48323 0.60934,-2.96645 0.60933,-0.88994 0.60934,1.18658 0.60934,1.48323 0.60933,0.59329 0.60934,-3.11477 1.21867,2.52148 0.60934,0.74161 0.60934,-4.598 0.60933,2.96645 0.60934,-2.22483 1.21867,-6.22955 0.60934,2.81813 0.60934,0.14832 0.60933,1.92819 0.60934,-4.89464 0.60934,1.92819 0.60933,-0.59329 0.60934,-2.07651 0.60934,2.22484 0.60933,-2.37317 0.60934,2.37317 0.60934,-1.48323 0.60933,-0.59329 0.60934,0.29664 0.60933,-2.22483 0.60934,-1.33491 0.60934,1.18658 0.60933,3.55975 0.60934,-2.37317 0.60934,-1.3349 0.60934,-0.88993 0.60933,-2.22484 0.60934,2.6698 0.60933,-1.03825 0.60934,-4.598 1.21867,4.00471 0.60934,-3.2631 0.60934,-2.22484 1.21867,4.15303 0.60934,-0.59329 0.60933,3.11478 1.21868,-6.82284 0.60933,1.63155 0.60934,-1.77987 0.60934,0.29664 0.60933,-0.88993 0.60934,2.96645 0.60934,-2.52149 1.21867,4.74633 0.60934,-5.93291 0.60933,1.18658 0.60934,0.14833 0.60934,-1.77987 0.60933,-1.18658 0.60934,-1.48323 0.60934,0.59329 0.60933,-1.77987 0.60934,1.92819 0.60934,0.88994 0.60933,-0.59329 0.60934,1.77987 0.60934,-4.74632 0.60933,1.92819 1.82801,-5.19129 0.60934,3.55974 0.60934,-2.07651 0.60933,-0.59329 0.60934,-0.14833 0.60934,-0.88993 0.60933,4.30135 0.60934,-5.9329 0.60934,3.2631 0.60933,2.52148 0.60934,-3.70806 0.60934,1.03825 0.60933,-1.92819 0.60934,-0.74161 1.21867,2.07651 0.60934,-0.88993 0.60933,0.29664 0.60934,-1.03825 0.60934,-3.2631 0.60933,2.52148 0.60934,-0.88993 0.60934,-0.44497 0.60933,0.29665 0.60934,-1.18658 0.60934,1.03825 0.60933,-0.74161 0.60934,1.03826 0.60934,2.22484 h 0.60933 l 1.21868,-2.96645 0.60933,-0.74162 1.21868,4.00471 0.60933,-4.598 0.60934,2.96645 0.60934,-1.63154 0.60933,1.77987 0.60934,-1.18658 0.60934,-2.07652 0.60933,0.74161 0.60934,-1.18658 0.60934,3.85639 0.60933,1.3349 1.21868,-6.37787 0.60933,2.81813 0.60934,-3.41142 0.60934,4.598 0.60933,-1.3349 0.60934,-0.29665 0.60934,-1.92819 0.60933,-0.44497 0.60934,-0.29664 0.60934,2.81813 0.60933,-1.63155 0.60934,-3.11478 0.60934,2.07652 0.60933,1.48323 0.60934,-2.81813 0.60934,1.63154 0.60933,-0.59329 0.60934,-2.52148 0.60934,2.37316 1.21867,1.77987 1.21867,-6.82283 0.60934,4.598 0.60933,-2.66981 0.60934,2.22484 0.60934,0.29664 h 0.60934 l 0.60933,-3.70806 0.60934,2.22484 0.60934,3.85638 1.21867,-5.78458 0.60934,0.14833 0.60933,2.52148 1.21867,-1.92819 0.60934,-1.48323 0.60934,1.18658 0.60933,-2.22484 0.60934,1.63155 0.60934,2.22484 0.60933,-1.48323 h 0.60934 l 0.60934,-3.11477 0.60933,2.66981 0.60934,-2.37316 0.60934,5.04296 0.60933,-3.26309 0.60934,-0.44497 0.60934,0.59329 0.60933,0.14832 0.60934,-0.29664 0.60934,-3.2631 0.60933,0.59329 0.60934,-0.44497 0.60934,0.44497 0.60933,2.52148 0.60934,-0.14832 0.60934,2.66981 0.60933,-5.63626 0.60934,-1.77987 0.60934,3.2631 0.60933,-1.9282 0.60934,2.96645 0.60934,-5.9329 0.60933,6.52619 0.60934,-4.74632 0.60934,4.44968 1.21867,-3.70807 0.60934,2.22484 0.60933,-3.11477 h 0.60934 l 0.60934,5.04297 0.60933,0.74161 0.60934,-3.55974 0.60934,2.6698 0.60933,-5.04296 0.60934,1.63155 0.60934,-1.33491 0.60933,1.18658 0.60934,-2.81813 1.21867,3.41142 0.60934,-0.29664 0.60933,-4.15303 0.60934,2.6698 0.60934,1.18658 0.60933,-2.81813 0.60934,1.63155 0.60934,-0.29664 0.60933,-2.52149 0.60934,0.44497 0.60934,2.07652 0.60933,-2.66981 0.60934,1.63155 0.60934,0.59329 0.60934,0.88994 0.60933,-1.9282 0.60934,-1.03826 0.60933,2.66981 0.60934,-0.29664 0.60934,-2.22484 0.60933,1.77987 0.60934,-3.41142 0.60934,3.26309 0.60933,-0.29664 0.60934,-0.44497 0.60934,-2.52148 0.60933,2.37316 0.60934,-2.66981 0.60934,-0.44496 0.60933,1.3349 0.60934,-1.63155 0.60934,-0.44497 0.60933,1.18658 0.60934,3.70807 0.60934,-0.59329 0.60933,-5.33961 0.60934,4.15303 0.60934,-3.2631 0.60933,4.89464 0.60934,-3.41141 0.60934,0.88993 0.60933,-3.11477 0.60934,5.19129 0.60934,-0.59329 1.21867,-0.59329 0.60934,-2.22484 0.60933,1.03826 0.60934,-3.11478 0.60934,6.5262 0.60933,-3.41142 0.60934,-0.88994 0.60934,1.03826 0.60933,-1.77987 0.60934,0.14832 0.60934,2.81813 0.60933,-1.77987 0.60934,-1.03826 0.60934,1.77987 0.60933,0.29665 0.60934,-2.22484 0.60934,1.63155 0.60933,0.29664 0.60934,2.07652 0.60933,-4.44968 0.60934,2.22484 0.60934,-0.59329 0.60933,0.29664 0.60934,-2.6698 0.60934,1.3349 0.60933,-1.63155 0.60934,1.48323 1.21867,1.63155 0.60934,-1.63155 0.60934,-4.15303 0.60933,3.41142 0.60934,-2.96645 0.60934,1.48322 0.60933,-0.88993 0.60934,-0.29665 0.60934,1.48323 0.60933,0.29664 0.60934,0.44497 0.60934,-3.41142 0.60933,2.07651 0.60934,-1.77987 0.60934,0.88994 0.60933,1.48323 0.60934,-4.15304 0.60934,3.11478 0.60933,2.07651 0.60934,-5.78458 1.21867,7.56445 0.60934,-4.59799 0.60934,2.22483 0.60933,-1.48322 0.60934,0.14832 0.60934,1.63155 0.60933,-3.55974 0.60934,-2.22484 0.60934,2.96645 0.60933,1.63155 0.60934,-2.07652 0.60934,-0.44497 0.60933,-1.18658 0.60934,2.37317 0.60934,1.63154 0.60933,-4.30135 1.21868,1.92819 0.60933,2.07652 0.60934,0.14832 0.60933,-3.2631 0.60934,-0.14832 0.60934,-0.44497 0.60933,-1.03825 0.60934,2.07651 0.60934,-1.03826 0.60933,-0.59329 0.60934,-0.29664 0.60934,2.52148 0.60933,-1.03826 0.60934,-0.59329 0.60934,-3.11477 0.60934,3.70806 0.60933,2.66981 0.60934,-3.2631 0.60934,-1.18658 0.60933,2.52149 0.60934,-0.14833 0.60933,-1.18658 0.60934,-2.07651 0.60934,2.52148 0.60933,1.9282 0.60934,-0.29665 0.60934,-4.15303 0.60933,-0.29665 0.60934,1.63155 0.60934,2.81813 0.60933,1.18658 0.60934,-2.37316 0.60934,-0.29665 0.60933,-2.07651 1.21868,-3.11477 0.60933,5.48793 0.60934,-3.55974 0.60934,1.48322 0.60933,4.00471 0.60934,0.29665 0.60934,-2.96645 1.21867,-1.33491 0.60934,-1.3349 0.60933,1.3349 0.60934,-0.29664 0.60934,0.44497 h 0.60933 l 0.60934,0.88993 h 0.60934 l 0.60933,-0.59329 0.60934,-1.18658 0.60934,1.63155 0.60933,0.44497 0.60934,-1.9282 0.60934,3.2631 1.21867,-4.44968 0.60934,2.81813 0.60933,-1.48322 0.60934,3.70806 0.60934,-5.9329 0.60933,-0.14832 0.60934,-1.03826 0.60933,1.92819 0.60934,0.59329 0.60934,-2.37316 0.60933,5.19129 0.60934,-0.59329 0.60934,-3.55974 0.60933,3.41142 0.60934,-1.63155 0.60934,1.92819 0.60933,-3.41142 1.21868,4.00471 0.60933,-4.74632 0.60934,1.77987 0.60934,0.14832 0.60933,-1.48322 0.60934,4.00471 0.60934,-1.33491 0.60933,-3.70806 0.60934,2.81813 h 0.60934 l 0.60933,-2.96645 0.60934,-0.88994 0.60934,5.78458 0.60933,-4.74632 0.60934,1.77987 0.60934,0.74161 0.60933,-3.70806 1.21868,4.598 0.60933,-2.81813 0.60934,-1.18658 0.60934,-1.48323 0.60933,1.77987 0.60934,2.22484 0.60934,0.14833 0.60933,-2.52149 0.60934,3.11478 0.60934,2.22483 0.60933,-2.96645 0.60934,-0.74161 0.60934,1.3349 0.60933,-2.6698 1.21868,1.3349 0.60933,-2.22484 0.60934,1.33491 0.60934,0.74161 0.60933,-1.77987 0.60934,2.96645 0.60934,-3.11477 0.60933,-1.77988 0.60934,-0.29664 0.60934,0.74161 0.60933,1.92819 0.60934,-0.88993 0.60933,3.41142 0.60934,-2.81813 0.60934,0.74161 0.60933,2.22484 0.60934,-2.37316 0.60934,1.48323 0.60934,-0.74162 0.60933,-2.22483 0.60934,1.3349 0.60934,-1.03826 0.60933,1.03826 0.60934,0.74161 0.60934,-3.2631 0.60933,1.48323 0.60934,-2.96645 0.60933,4.598 1.21868,-2.07652 1.21867,2.22484 0.60934,3.55974 0.60933,-4.30135 0.60934,0.44497 1.21867,1.92819 0.60934,-2.66981 0.60934,2.37316 0.60933,-5.04296 0.60934,0.88993 0.60934,3.2631 h 0.60933 l 0.60934,-1.77987 0.60934,-0.74161 0.60933,-2.07652 0.60934,4.15303 0.60934,1.48323 0.60933,-5.48794 0.60934,2.22484 0.60934,0.88993 0.60933,-1.77987 0.60934,2.81813 0.60934,1.77987 0.60933,-4.598 1.21868,3.41142 0.60933,-0.44496 0.60934,-4.15304 0.60934,0.29665 0.60933,0.74161 0.60934,-1.92819 0.60934,1.77987 0.60933,0.44497 0.60934,-0.88994 0.60934,1.18658 0.60933,-0.29664 0.60934,0.74161 0.60934,-2.37316 0.60933,1.03826 0.60934,0.14832 0.60933,-0.59329 0.60934,1.03826 0.60934,0.44497 0.60933,-3.11478 0.60934,0.59329 0.60934,2.96645 0.60934,-0.74161 0.60933,-2.07652 0.60934,1.63155 0.60933,-1.3349 0.60934,2.52148 0.60934,-1.48322 0.60933,2.22483 0.60934,-3.26309 0.60934,4.30135 0.60933,-3.41142 0.60934,-0.44496 0.60934,2.22484 0.60933,-0.74162 0.60934,-2.07651 0.60934,1.48322 0.60933,1.18658 0.60934,-2.6698 0.60934,4.74632 0.60933,-2.81813 0.60934,-1.77987 0.60934,-0.44497 0.60933,0.88994 0.60934,-1.18658 0.60934,-3.11478 0.60933,1.9282 0.60934,4.15303 0.60934,-2.81813 0.60933,2.07651 0.60934,-1.48322 0.60934,1.18658 0.60933,0.59329 0.60934,-0.59329 0.60934,-3.2631 0.60933,2.22484 0.60934,-1.92819 0.60934,-2.96645 0.60933,5.9329 0.60934,-3.85639 0.60934,2.96645 0.60933,1.18658 0.60934,-0.59329 0.60934,1.03826 0.60933,-2.52148 0.60934,-3.11477 0.60934,3.41141 0.60933,-3.85638 0.60934,5.19129 0.60934,-1.9282 0.60933,-2.37316 0.60934,2.96645 0.60933,-3.26309 0.60934,5.19129 0.60934,-2.81813 h 0.60933 l 0.60934,-1.03826 0.60934,2.52148 0.60934,-0.59329 0.60933,0.29665 0.60934,-2.66981 0.60933,0.88994 0.60934,1.63155 0.60934,-2.07652 0.60934,2.81813 1.21867,-7.267805 0.60933,4.004705 0.60934,0.88994 0.60934,-0.29665 0.60933,1.18658 0.60934,-0.74161 0.60934,1.77987 0.60933,0.29665 0.60934,-3.11478 0.60934,-1.48322 0.60933,2.96645 0.60934,-1.48323 0.60934,-1.18658 0.60933,1.33491 0.60934,-1.33491 0.60934,0.44497 h 0.60933 l 0.60934,4.00471 0.60934,-0.14832 0.60933,-3.55974 0.60934,1.63154 0.60934,-1.18658 0.60933,0.74162 0.60934,-0.29665 0.60934,2.07652 0.60933,-5.784582 0.60934,4.004712 0.60934,-2.07652 0.60933,0.14832 0.60934,1.33491 0.60934,1.77987 0.60933,-2.37316 0.60934,1.18658 0.60934,2.37316 0.60933,-0.44497 0.60934,-3.2631 0.60934,1.03826 0.60933,-1.18658 0.60934,-0.44497 0.60934,0.44497 0.60933,1.48323 0.60934,-0.29665 0.60934,1.18658 0.60933,-4.00471 0.60934,2.22484 0.60934,-1.03826 0.60933,3.70807 0.60934,-2.81813 0.60933,1.48322 0.60934,-2.81812 0.60934,3.70806 0.60934,-1.48323 0.60933,-1.18658 h 0.60934 l 1.21867,0.29665 0.60934,1.92819 0.60933,-1.18658 0.60934,-2.22484 0.60934,-1.186577 0.60934,1.038257 0.60933,3.85639 0.60934,-4.15303 0.60933,0.14832 0.60934,-0.741615 0.60934,5.191285 0.60933,-4.0047 0.60934,-1.186585 0.60934,1.038255 0.60933,1.48323 h 0.60934 l 0.60934,-1.48323 0.60933,1.48323 0.60934,0.88993 0.60934,-1.3349 0.60933,-3.263095 0.60934,1.18658 h 0.60934 l 0.60933,1.334905 0.60934,-2.966453 0.60934,5.042963 0.60933,-4.449673 0.60934,3.559743 0.60934,-0.44497 0.60933,2.37316 1.21868,-4.74632 1.21867,0.88994 0.60934,-1.631553 0.60933,2.966453 0.60934,-0.44497 0.60934,0.44497 h 0.60933 l 0.60934,-0.88994 0.60934,3.55974 0.60933,-4.0047 0.60934,0.14832 0.60934,-3.856388 0.60933,5.784578 0.60934,-3.114772 0.60934,0.593292 h 0.60933 l 0.60934,-1.186583 0.60933,-0.59329 1.21868,1.631548 0.60934,0.889935 h 0.60933 l 0.60934,-1.334902 h 0.60933 l 0.60934,1.483222 0.60934,-2.373158 0.60934,3.263098 0.60933,-2.966453 0.60934,0.148323 0.60933,2.81813 0.60934,1.18658 0.60934,-2.37316 0.60933,1.77987 0.60934,-0.74161 0.60934,-1.18658 1.21867,4.89464 0.60934,-6.37787 0.60933,-0.889935 0.60934,-1.186581 0.60934,2.669806 0.60933,-0.59329 h 0.60934 l 0.60934,0.148322 0.60933,0.889938 0.60934,-1.186583 0.60934,-0.889935 0.60933,5.042968 0.60934,-4.00471 0.60934,0.889935 0.60933,2.076515 0.60934,-0.29664 0.60934,-3.559745 0.60933,3.411415 0.60934,-2.669803 0.60934,-0.741612 0.60933,5.784575 0.60934,-6.229543 0.60934,-0.741613 1.21867,4.449676 0.60934,0.29665 0.60933,-1.03826 0.60934,-3.708066 0.60934,5.487936 0.60933,-0.59329 0.60934,-1.03826 0.60934,0.29665 0.60933,-2.521488 0.60934,2.076518 0.60934,0.74161 0.60933,-2.224838 0.60934,2.818128 0.60934,0.59329 0.60933,-0.59329 0.60934,-2.521482 0.60933,-0.889936 0.60934,5.932898 1.21867,-5.48793 0.60934,2.52148 0.60934,-1.48322 0.60933,-2.521486 0.60934,6.081226 0.60934,-3.708065 0.60933,-0.889935 0.60934,1.18658 1.21868,1.77987 0.60933,-4.301353 0.60934,-0.296645 0.60933,2.373161 0.60934,-0.296645 0.60934,0.296645 0.60933,1.631547 0.60934,-0.88993 0.60934,0.88993 0.60933,2.66981 0.60934,-10.382582 1.21867,7.416132 0.60934,-4.301358 0.60934,3.708068 0.60933,-1.928198 0.60934,0.889936 0.60934,-0.593291 0.60933,1.038258 0.60934,-1.928193 0.60934,0.148323 0.60933,-0.741613 0.60934,1.038258 0.60934,1.334903 h 0.60933 l 0.60934,-3.708064 0.60934,2.224838 0.60933,-0.59329 0.60934,-0.889935 0.60934,1.631548 0.60933,2.52148 0.60934,0.74162 0.60934,-1.928197 0.60933,-0.741613 0.60934,-2.224838 0.60934,5.339608 0.60933,-1.3349 0.60934,-0.59329 0.60934,-2.669806 0.60933,0.593291 0.60934,-2.669806 0.60934,1.928193 0.60933,0.148322 0.60934,0.741613 0.60933,2.373163 0.60934,-1.186582 0.60934,-2.818129 0.60934,2.373161 0.60933,-1.038258 0.60934,1.18658 0.60933,-4.004708 0.60934,4.153031 0.60934,0.889935 0.60934,-1.77987 0.60933,2.22484 0.60934,-3.114776 1.21867,0.889936 0.60934,-1.186581 0.60934,1.928193 0.60933,3.856388 0.60934,-6.377871 0.60933,0.148323 h 0.60934 l 0.60934,-0.444968 0.60933,7.712776 0.60934,-6.971163 0.60934,1.631548 0.60933,-1.038258 1.21868,2.076516 0.60933,-1.631548 0.60934,1.18658 1.82801,-1.631548 0.60934,0.444968 0.60933,5.636255 0.60934,-8.602706 0.60934,5.784576 0.60933,-5.191286 0.60934,3.708064 0.60934,-0.889936 0.60933,-1.928193 0.60934,-1.483225 1.21867,2.966451 h 0.60934 l 0.60934,1.77987 0.60933,-2.818128 0.60934,-2.076516 0.60934,4.153031 0.60933,-2.521483 0.60934,1.928193 0.60934,0.889936 0.60933,-1.928194 0.60934,1.631548 0.60934,0.148323 0.60933,0.296645 0.60934,1.77987 0.60934,-5.784579 0.60933,3.411419 0.60934,-1.038258 0.60933,-3.114773 0.60934,6.377871 0.60934,-2.076518 0.60933,-1.483225 0.60934,0.59329 0.60934,1.186581 0.60934,2.521482 0.60933,-3.708063 0.60934,1.038258 0.60933,-2.966451 0.60934,-0.296645 0.60934,2.076516 0.60934,-0.148323 0.60933,0.296645 0.60934,-2.224838 0.60933,2.521483 h 0.60934 l 0.60934,1.631548 0.60933,-5.487934 0.60934,7.416124 0.60934,-4.153028 0.60933,-1.038258 0.60934,0.889936 0.60934,-1.631548 0.60933,4.746318 0.60934,-1.186577 0.60934,-2.818129 0.60933,6.081226 0.60934,-5.636258 0.60934,0.148322 0.60933,-0.889935 0.60934,2.669806 0.60934,-1.779871 0.60933,-0.889935 0.60934,2.669806 0.60934,-0.296645 0.60933,-2.373161 0.60934,2.818129 0.60934,-3.411419 0.60933,1.928193 0.60934,-3.263096 0.60934,1.779871 v 0"
       clip-path="url(#pc67d3aa5b0)"
       style="fill:none;stroke:#1f77b4;stroke-width:1.5;stroke-linecap:square"
       id="path61" />
  </g>
  <g
     id="patch_3"
     transform="translate(-71.41875,-28.081875)">
    <path
       d="M 108,320.4 V 43.2"
       style="fill:none;stroke:#000000;stroke-width:0.8;stroke-linecap:square;stroke-linejoin:miter"
       id="path63" />
  </g>
  <g
     id="patch_4"
     transform="translate(-71.41875,-28.081875)">
    <path
       d="M 777.6,320.4 V 43.2"
       style="fill:none;stroke:#000000;stroke-width:0.8;stroke-linecap:square;stroke-linejoin:miter"
       id="path64" />
  </g>
  <g
     id="patch_5"
     transform="translate(-71.41875,-28.081875)">
    <path
       d="M 108,320.4 H 777.6"
       style="fill:none;stroke:#000000;stroke-width:0.8;stroke-linecap:square;stroke-linejoin:miter"
       id="path65" />
  </g>
  <g
     id="patch_6"
     transform="translate(-71.41875,-28.081875)">
    <path
       d="M 108,43.2 H 777.6"
       style="fill:none;stroke:#000000;stroke-width:0.8;stroke-linecap:square;stroke-linejoin:miter"
       id="path66" />
  </g>
  <g
     id="text_13"
     transform="translate(-71.41875,-28.081875)">
    <!-- Optimal Action Percentage -->
    <g
       transform="matrix(0.12,0,0,-0.12,362.70844,37.2)"
       id="g90">
      <defs
         id="defs66">
        <path
           id="DejaVuSans-50"
           d="M 1259,4147 V 2394 h 794 q 441,0 681,228 241,228 241,650 0,419 -241,647 -240,228 -681,228 z m -631,519 h 1425 q 785,0 1186,-355 402,-355 402,-1039 0,-691 -402,-1044 -401,-353 -1186,-353 H 1259 V 0 H 628 Z"
           transform="scale(0.015625)" />
        <path
           id="DejaVuSans-72"
           d="m 2631,2963 q -97,56 -211,82 -114,27 -251,27 -488,0 -749,-317 -261,-317 -261,-911 V 0 H 581 v 3500 h 578 v -544 q 182,319 472,473 291,155 707,155 59,0 131,-8 72,-7 159,-23 z"
           transform="scale(0.015625)" />
        <path
           id="DejaVuSans-67"
           d="m 2906,1791 q 0,625 -258,968 -257,344 -723,344 -462,0 -720,-344 -258,-343 -258,-968 0,-622 258,-966 258,-344 720,-344 466,0 723,344 258,344 258,966 z M 3481,434 q 0,-893 -397,-1329 -396,-436 -1215,-436 -303,0 -572,45 -269,45 -522,139 v 559 q 253,-137 500,-202 247,-66 503,-66 566,0 847,295 281,295 281,892 V 616 Q 2728,306 2450,153 2172,0 1784,0 1141,0 747,490 353,981 353,1791 q 0,812 394,1302 394,491 1037,491 388,0 666,-153 278,-153 456,-462 v 531 h 575 z"
           transform="scale(0.015625)" />
      </defs>
      <use
         xlink:href="#DejaVuSans-4f"
         id="use66" />
      <use
         xlink:href="#DejaVuSans-70"
         transform="translate(78.710938)"
         id="use67" />
      <use
         xlink:href="#DejaVuSans-74"
         transform="translate(142.1875)"
         id="use68" />
      <use
         xlink:href="#DejaVuSans-69"
         transform="translate(181.39648)"
         id="use69" />
      <use
         xlink:href="#DejaVuSans-6d"
         transform="translate(209.17969)"
         id="use70" />
      <use
         xlink:href="#DejaVuSans-61"
         transform="translate(306.5918)"
         id="use71" />
      <use
         xlink:href="#DejaVuSans-6c"
         transform="translate(367.87109)"
         id="use72" />
      <use
         xlink:href="#DejaVuSans-20"
         transform="translate(395.6543)"
         id="use73" />
      <use
         xlink:href="#DejaVuSans-41"
         transform="translate(427.44141)"
         id="use74" />
      <use
         xlink:href="#DejaVuSans-63"
         transform="translate(494.09961)"
         id="use75" />
      <use
         xlink:href="#DejaVuSans-74"
         transform="translate(549.08008)"
         id="use76" />
      <use
         xlink:href="#DejaVuSans-69"
         transform="translate(588.28906)"
         id="use77" />
      <use
         xlink:href="#DejaVuSans-6f"
         transform="translate(616.07227)"
         id="use78" />
      <use
         xlink:href="#DejaVuSans-6e"
         transform="translate(677.25391)"
         id="use79" />
      <use
         xlink:href="#DejaVuSans-20"
         transform="translate(740.63281)"
         id="use80" />
      <use
         xlink:href="#DejaVuSans-50"
         transform="translate(772.41992)"
         id="use81" />
      <use
         xlink:href="#DejaVuSans-65"
         transform="translate(829.09766)"
         id="use82" />
      <use
         xlink:href="#DejaVuSans-72"
         transform="translate(890.62109)"
         id="use83" />
      <use
         xlink:href="#DejaVuSans-63"
         transform="translate(929.48437)"
         id="use84" />
      <use
         xlink:href="#DejaVuSans-65"
         transform="translate(984.46484)"
         id="use85" />
      <use
         xlink:href="#DejaVuSans-6e"
         transform="translate(1045.9883)"
         id="use86" />
      <use
         xlink:href="#DejaVuSans-74"
         transform="translate(1109.3672)"
         id="use87" />
      <use
         xlink:href="#DejaVuSans-61"
         transform="translate(1148.5762)"
         id="use88" />
      <use
         xlink:href="#DejaVuSans-67"
         transform="translate(1209.8555)"
         id="use89" />
      <use
         xlink:href="#DejaVuSans-65"
         transform="translate(1273.332)"
         id="use90" />
    </g>
  </g>
  <g
     id="patch_7"
     transform="translate(-71.41875,-28.081875)">
    <path
       d="m 115,80.55625 h 103.2 q 2,0 2,-2 V 50.2 q 0,-2 -2,-2 H 115 q -2,0 -2,2 v 28.35625 q 0,2 2,2 z"
       style="opacity:0.8;fill:#ffffff;stroke:#cccccc;stroke-linejoin:miter"
       id="path90" />
  </g>
  <g
     id="line2d_13"
     transform="translate(-71.41875,-28.081875)">
    <path
       d="m 117,56.298437 h 10 10"
       style="fill:none;stroke:#1f77b4;stroke-width:1.5;stroke-linecap:square"
       id="path91" />
  </g>
  <g
     id="text_14"
     transform="translate(-71.41875,-28.081875)">
    <!-- $\epsilon = 0.1$, $Q_1 = 0$ -->
    <g
       transform="matrix(0.1,0,0,-0.1,145,59.798437)"
       id="g101">
      <defs
         id="defs91">
        <path
           id="DejaVuSans-Oblique-3b5"
           d="m 1263,1888 q -338,75 -485,278 -109,143 -109,337 0,531 506,841 400,244 1013,244 237,0 496,-38 260,-37 550,-112 l -100,-522 q -287,90 -528,131 -247,41 -468,41 -372,0 -616,-144 -294,-172 -294,-422 0,-166 153,-281 182,-138 544,-138 h 484 l -90,-475 h -463 q -431,0 -684,-159 -344,-216 -344,-553 0,-213 185,-353 231,-175 703,-175 290,0 568,56 279,59 522,175 L 2700,84 Q 2403,-3 2131,-47 1859,-91 1609,-91 866,-91 516,194 250,413 250,781 q 0,497 350,803 259,229 663,304 z"
           transform="scale(0.015625)" />
        <path
           id="DejaVuSans-3d"
           d="M 678,2906 H 4684 V 2381 H 678 Z m 0,-1275 H 4684 V 1100 H 678 Z"
           transform="scale(0.015625)" />
        <path
           id="DejaVuSans-2c"
           d="m 750,794 h 659 V 256 L 897,-744 H 494 L 750,256 Z"
           transform="scale(0.015625)" />
        <path
           id="DejaVuSans-Oblique-51"
           d="m 2309,-84 q -34,-4 -72,-5 -37,-2 -112,-2 -875,0 -1369,502 -493,502 -493,1386 0,522 189,1047 189,525 526,944 391,481 880,721 489,241 1080,241 856,0 1349,-505 494,-504 494,-1376 0,-941 -516,-1722 Q 3750,366 2919,44 l 634,-869 h -706 z m 610,4322 q -519,0 -916,-252 -397,-252 -690,-767 -188,-328 -287,-697 -98,-369 -98,-744 0,-650 311,-1003 311,-353 880,-353 512,0 913,254 402,255 687,758 190,338 290,708 100,371 100,739 0,647 -313,1002 -312,355 -877,355 z"
           transform="scale(0.015625)" />
      </defs>
      <use
         xlink:href="#DejaVuSans-Oblique-3b5"
         transform="translate(0,0.78125)"
         id="use91" />
      <use
         xlink:href="#DejaVuSans-3d"
         transform="translate(73.535156,0.78125)"
         id="use92" />
      <use
         xlink:href="#DejaVuSans-30"
         transform="translate(176.80664,0.78125)"
         id="use93" />
      <use
         xlink:href="#DejaVuSans-2e"
         transform="translate(240.42969,0.78125)"
         id="use94" />
      <use
         xlink:href="#DejaVuSans-31"
         transform="translate(272.2168,0.78125)"
         id="use95" />
      <use
         xlink:href="#DejaVuSans-2c"
         transform="translate(335.83984,0.78125)"
         id="use96" />
      <use
         xlink:href="#DejaVuSans-20"
         transform="translate(367.62695,0.78125)"
         id="use97" />
      <use
         xlink:href="#DejaVuSans-Oblique-51"
         transform="translate(399.41406,0.78125)"
         id="use98" />
      <use
         xlink:href="#DejaVuSans-31"
         transform="matrix(0.7,0,0,0.7,478.125,-15.625)"
         id="use99" />
      <use
         xlink:href="#DejaVuSans-3d"
         transform="translate(544.87793,0.78125)"
         id="use100" />
      <use
         xlink:href="#DejaVuSans-30"
         transform="translate(648.14941,0.78125)"
         id="use101" />
    </g>
  </g>
  <g
     id="g111"
     class="fragment"
     transform="translate(-71.41875,-28.081875)">
    <g
       id="line2d_12">
      <path
         d="m 138.43636,304.09194 0.60934,2.81812 0.60934,-3.70806 0.60933,2.07652 0.60934,1.3349 0.60934,-0.29665 h 0.60933 l 0.60934,1.48323 0.60934,-0.59329 0.60933,-1.18658 0.60934,-100.26604 0.60934,51.3196 0.60933,22.10006 0.60934,6.22955 0.60934,8.89935 0.60933,2.96645 0.60934,-0.88994 0.60934,-5.19128 0.60933,-3.11478 0.60934,-2.07651 0.60934,-1.33491 0.60933,-4.15303 0.60934,2.66981 0.60934,-12.60742 0.60933,4.74632 0.60934,-2.37316 0.60933,-0.88993 0.60934,-0.44497 0.60934,0.74161 0.60933,1.77987 0.60934,-8.15774 0.60934,5.48794 0.60933,-5.33961 0.60934,5.48793 0.60934,-6.22955 0.60933,5.63626 0.60934,-5.48794 0.60934,-4.44967 0.60933,1.77987 0.60934,-0.29665 0.60934,-8.30606 0.60933,1.9282 0.60934,-2.52149 0.60934,1.03826 0.60933,5.78458 0.60934,-5.9329 0.60934,-2.07652 0.60933,-3.41142 0.60934,10.23426 1.82801,-17.20542 0.60934,3.41142 0.60933,1.3349 0.60934,1.63155 0.60934,-5.19129 0.60933,1.18658 0.60934,-2.37316 0.60934,0.29665 0.60933,-7.26781 0.60934,-2.07651 0.60934,2.22484 0.60933,-1.48323 0.60934,3.2631 0.60934,-0.29665 0.60933,-7.2678 0.60934,1.77987 0.60934,-4.74632 0.60933,1.77987 0.60934,-5.33961 0.60934,8.00941 0.60933,-8.89935 0.60934,1.92819 h 0.60934 l 0.60933,3.55974 0.60934,-5.78458 0.60934,-4.30135 0.60933,0.88994 h 0.60934 l 0.60934,-3.11478 0.60933,2.07652 0.60934,-4.89465 0.60934,3.11478 0.60933,-4.15303 0.60934,0.88993 0.60933,-5.33961 0.60934,5.04297 0.60934,-2.37316 0.60933,2.52148 0.60934,-3.2631 0.60934,-4.74632 0.60933,0.29665 0.60934,2.96645 0.60934,-2.22484 0.60933,-4.30135 0.60934,-1.18658 0.60934,2.07651 0.60933,-6.22955 0.60934,-4.59799 0.60934,1.92819 0.60933,-2.07652 0.60934,1.48323 0.60934,-1.63155 0.60933,4.44968 0.60934,-4.30136 0.60934,-1.63154 0.60933,1.63154 0.60934,-0.29664 0.60934,-3.2631 0.60933,-1.77987 0.60934,2.37316 0.60934,-0.14832 1.21867,-4.30135 0.60934,1.77987 0.60933,1.03825 0.60934,-6.67451 0.60934,1.03826 0.60933,-6.52619 0.60934,9.93761 0.60934,-3.2631 0.60933,-5.04297 0.60934,2.22484 0.60934,-2.22484 0.60933,3.55975 0.60934,-1.48323 1.21867,-10.23426 0.60934,-0.74161 0.60934,5.33961 0.60933,-0.74161 0.60934,2.07652 0.60934,-1.9282 0.60933,-0.14832 h 0.60934 l 0.60934,-1.03826 0.60933,-4.89464 0.60934,0.88993 0.60934,-5.9329 0.60933,3.2631 0.60934,-2.66981 0.60934,-0.59329 0.60933,0.14832 0.60934,-6.08122 0.60933,6.82284 0.60934,1.77987 0.60934,-2.96645 0.60933,2.96645 0.60934,-4.00471 0.60934,-6.08123 0.60934,3.2631 0.60933,0.29665 0.60934,2.52148 0.60933,-2.37316 0.60934,-0.44497 0.60934,-0.59329 0.60933,-2.07651 1.21868,1.03825 0.60933,-0.88993 0.60934,-0.14832 0.60934,-5.19129 0.60933,1.48322 0.60934,-4.89464 0.60934,1.03826 0.60933,0.44496 0.60934,-0.88993 0.60934,-2.52149 1.21867,-1.77987 0.60934,4.598 0.60933,1.63155 0.60934,-3.41142 0.60934,2.52149 0.60933,0.14832 0.60934,-5.19129 0.60934,3.2631 0.60933,0.44496 0.60934,-5.04296 0.60934,1.18658 0.60933,-0.29665 0.60934,-4.89464 0.60934,3.11477 1.21867,-4.44968 0.60934,3.11478 0.60933,-0.74161 0.60934,-5.33962 0.60934,-1.18658 0.60933,2.37316 0.60934,-2.6698 0.60934,2.37316 0.60933,-0.14832 0.60934,-5.04297 1.21867,7.86109 0.60934,-7.86109 0.60934,2.52148 0.60933,1.33491 0.60934,-2.81813 0.60934,0.59329 0.60933,-1.03826 0.60934,-1.63155 0.60933,2.22484 0.60934,-1.92819 0.60934,3.26309 0.60933,-0.88993 0.60934,-3.41142 0.60934,-1.63155 1.21867,3.85639 0.60934,-1.03826 0.60933,2.07652 0.60934,-0.44497 1.21867,-4.44968 0.60934,0.29665 0.60934,0.59329 1.21867,-5.04297 0.60934,2.81813 0.60933,-3.11477 0.60934,0.14832 0.60934,-2.96645 0.60933,4.15303 0.60934,-1.18658 0.60934,-0.88994 0.60933,-3.11477 0.60934,2.07652 0.60934,1.63154 0.60933,0.88994 0.60934,-0.29665 0.60934,-1.3349 0.60933,-2.07651 0.60934,-0.44497 1.21867,2.6698 0.60934,-5.48793 0.60934,-0.88994 0.60933,-1.48322 0.60934,2.81813 0.60934,1.77987 0.60933,-3.2631 0.60934,0.59329 0.60934,1.18658 0.60933,-5.04296 0.60934,6.82283 0.60934,-7.71277 0.60933,4.74632 0.60934,-5.48793 0.60934,0.59329 0.60933,2.37316 0.60934,-1.48323 0.60934,-0.44497 0.60933,0.88994 0.60934,-0.59329 0.60934,-2.96645 0.60933,2.07652 0.60934,-0.29665 0.60933,-1.3349 0.60934,-3.41142 1.21868,5.78458 0.60933,-2.37316 0.60934,-1.48323 0.60934,0.88994 0.60933,-3.11478 0.60934,3.2631 0.60934,1.18658 0.60933,-4.89464 0.60934,-0.74162 0.60933,2.81813 0.60934,-1.18658 0.60934,1.3349 0.60933,-0.59329 0.60934,1.48323 0.60934,-1.3349 0.60933,-0.14833 0.60934,-1.03825 0.60934,0.14832 0.60933,-0.14832 0.60934,-1.18658 0.60934,0.29664 0.60933,-2.669805 0.60934,2.818125 0.60934,-2.07651 0.60933,2.22484 0.60934,-0.88994 0.60934,-5.487933 0.60933,1.77987 0.60934,0.59329 0.60934,-2.224838 0.60933,1.038258 0.60934,1.928193 0.60934,-0.444968 0.60933,0.889936 0.60934,0.593292 0.60934,-4.004711 1.21867,-2.076516 0.60934,3.856387 0.60933,-1.483226 0.60934,-0.444967 1.21867,3.411418 0.60934,-3.114773 0.60934,1.631548 0.60933,-1.779871 0.60934,-0.444968 0.60934,-1.18658 0.60933,0.59329 0.60934,2.521483 0.60934,-4.153031 0.60933,-1.483225 1.21868,1.631548 0.60933,0.741613 0.60934,-1.631548 0.60933,0.741612 0.60934,2.076516 0.60934,-2.076516 0.60933,-1.038258 0.60934,1.631548 0.60934,1.038258 0.60933,-1.038258 0.60934,0.296646 0.60934,1.18658 0.60933,-1.779871 0.60934,1.483226 0.60934,-0.148323 0.60933,0.59329 0.60934,-3.411418 0.60934,2.669806 0.60934,-0.148323 0.60933,-1.334903 0.60934,0.444968 0.60933,0.59329 0.60934,-1.18658 0.60934,-2.966451 0.60933,2.224838 0.60934,2.818128 0.60934,0.741613 0.60933,-2.373161 0.60934,0.889936 0.60934,0.148322 0.60933,1.631548 0.60934,-3.559741 0.60934,-0.59329 0.60933,-2.224838 0.60934,1.77987 1.82801,-2.37316 0.60934,1.038257 0.60933,1.631548 0.60934,0.444968 0.60934,-0.296645 0.60933,-2.966451 0.60934,-1.631548 0.60934,2.076516 0.60933,-2.224838 0.60934,1.483225 1.21867,-1.038258 0.60934,-1.77987 0.60934,2.076515 0.60933,1.038258 0.60934,-1.18658 0.60934,0.741612 0.60933,-1.038257 0.60934,-2.669806 0.60934,1.334903 0.60933,-0.741613 0.60934,1.483226 0.60934,-2.076516 0.60933,5.487934 0.60934,-2.224838 0.60934,-1.779871 0.60933,2.224838 0.60934,-1.483225 0.60934,-0.444968 0.60933,0.593291 0.60934,-1.334903 0.60933,-0.741613 0.60934,0.59329 0.60934,-0.889935 0.60933,-1.18658 0.60934,0.59329 0.60934,-2.076516 0.60933,-0.889935 0.60934,0.59329 0.60934,2.669806 0.60933,-1.334903 0.60934,-0.444968 0.60934,-0.59329 0.60933,0.296645 0.60934,0.889935 0.60934,-1.18658 h 0.60933 l 0.60934,-0.741613 0.60934,0.444968 0.60933,-2.373161 0.60934,0.296645 0.60934,2.966451 0.60933,0.59329 0.60934,-0.889935 0.60934,0.59329 0.60933,1.631548 1.21868,-2.521483 0.60933,-1.038258 0.60934,2.224838 0.60934,-2.076515 0.60933,0.59329 0.60934,-1.334903 0.60934,-0.296645 0.60933,-0.59329 0.60934,-2.521483 0.60934,2.224838 0.60933,0.148322 0.60934,3.263096 0.60934,-1.18658 0.60933,-2.669806 0.60934,0.148323 0.60934,1.334903 0.60933,0.741612 0.60934,-0.148322 0.60934,-0.296645 0.60933,-1.334903 0.60934,0.296645 h 0.60934 l 0.60933,-0.741613 0.60934,-0.444967 1.21867,-1.483226 0.60934,-0.148322 0.60933,0.741612 0.60934,1.631548 0.60934,-0.889935 0.60933,3.263096 0.60934,-3.856386 0.60934,0.741613 0.60933,-1.038258 1.21868,-1.038258 0.60934,1.928193 0.60933,1.038258 0.60934,-1.186581 0.60934,0.593291 0.60933,-0.296645 0.60934,-2.076516 0.60933,-0.59329 0.60934,1.334903 0.60934,0.889935 0.60933,-2.076516 0.60934,-1.483225 0.60934,1.928193 0.60933,1.038258 0.60934,0.444967 0.60934,-0.296645 0.60933,0.148323 0.60934,-2.373161 0.60934,-1.038258 0.60933,1.334903 0.60934,-1.483225 0.60934,1.18658 0.60933,1.779871 0.60934,-2.224838 0.60934,-0.741613 0.60933,-2.521483 1.21868,2.669805 0.60933,-1.18658 0.60934,1.483225 1.21867,0.889936 0.60934,-0.889936 0.60934,-0.59329 0.60933,-2.076515 1.21868,1.928193 0.60933,1.77987 0.60934,-4.004708 0.60934,3.856386 0.60933,-0.444968 0.60934,-0.741613 0.60934,-0.296645 0.60933,-2.37316 0.60934,-0.296645 0.60934,0.59329 1.21867,-1.631548 0.60934,0.59329 h 0.60933 l 0.60934,3.114773 0.60933,-2.076515 0.60934,2.37316 h 0.60934 l 0.60933,-0.444967 0.60934,0.148322 0.60934,-1.18658 0.60933,0.444968 0.60934,-0.148323 0.60934,0.444968 0.60933,0.148322 0.60934,-0.59329 0.60934,0.148323 0.60933,0.59329 0.60934,-2.818129 0.60934,0.593291 0.60933,0.148322 0.60934,1.334903 0.60934,-0.741613 0.60933,-0.296645 0.60934,3.263096 0.60934,-3.263096 0.60933,-1.038258 0.60934,0.741613 0.60934,-0.148322 0.60933,0.444967 1.21868,-2.076515 0.60933,0.59329 0.60934,1.334903 0.60934,0.148322 0.60933,-1.631548 0.60934,2.669806 0.60934,-1.038258 0.60933,-1.483225 0.60934,-1.038258 0.60934,-0.59329 0.60933,1.77987 0.60934,-1.038257 0.60934,0.296645 0.60933,0.444967 1.21868,-0.296645 0.60933,-1.18658 0.60934,-0.444968 0.60934,-0.296645 0.60933,0.444968 0.60934,-1.631548 0.60934,2.076515 0.60933,-0.741612 0.60934,2.224838 0.60934,-1.779871 0.60933,-0.444967 0.60934,0.59329 0.60934,0.148322 0.60933,-0.444967 0.60934,-0.59329 1.21867,1.631548 0.60934,-0.444968 2.43735,2.521483 0.60933,-0.296645 0.60934,-0.741613 0.60934,-1.334903 h 0.60933 l 0.60934,2.521484 0.60934,-1.779871 0.60933,-0.59329 0.60934,-0.889935 h 0.60933 l 0.60934,1.18658 0.60934,1.631548 0.60933,-1.77987 0.60934,0.889935 0.60934,-0.148323 0.60933,-1.038258 1.21868,0.593291 0.60933,-3.411419 0.60934,1.038258 0.60934,-0.148323 1.21867,0.889936 0.60934,-1.038258 0.60933,1.038258 0.60934,1.483225 0.60934,-1.18658 0.60933,0.889935 0.60934,-1.779871 0.60934,0.444968 0.60933,1.631548 0.60934,-0.296645 0.60934,0.444968 0.60933,-2.521484 0.60934,-1.483225 0.60934,2.224838 0.60933,-1.631548 0.60934,0.148323 0.60934,-0.59329 0.60933,-0.296646 0.60934,1.483226 0.60934,-1.334903 0.60933,1.038258 0.60934,0.148322 0.60934,-0.59329 0.60933,-0.296645 0.60934,2.224838 0.60934,0.59329 0.60933,-1.18658 0.60934,-0.148323 1.21867,-1.483225 0.60934,0.889935 h 0.60933 l 0.60934,-0.889935 h 0.60934 l 0.60933,-1.483225 0.60934,-0.741613 0.60934,1.18658 0.60934,0.148323 0.60933,0.889935 0.60934,0.148323 0.60933,-0.296645 h 0.60934 l 0.60934,1.334902 0.60933,-0.296645 0.60934,0.296645 0.60934,-1.038257 0.60933,-0.444968 0.60934,-0.741613 0.60934,0.296645 1.21867,-2.669805 0.60934,2.076515 0.60933,-0.296645 0.60934,-0.148322 0.60934,0.296645 0.60933,-1.038258 0.60934,0.148322 h 0.60934 l 0.60933,0.296645 0.60934,-0.741612 0.60934,0.741612 0.60933,3.114774 0.60934,-2.373161 0.60934,0.444968 0.60933,1.631548 0.60934,-1.334903 0.60934,-0.889935 0.60933,1.77987 0.60934,-0.59329 0.60934,0.444968 0.60933,0.148322 0.60934,-0.741613 0.60934,0.593291 0.60933,-2.521484 0.60934,-0.296645 0.60934,1.334903 0.60933,-1.334903 0.60934,0.296645 0.60934,-0.296645 0.60933,1.038258 0.60934,2.373161 0.60934,-1.334903 0.60933,0.59329 0.60934,-0.59329 0.60934,0.444968 0.60933,-1.038258 0.60934,2.521483 0.60933,-0.296645 0.60934,-0.889935 0.60934,0.148322 0.60933,-1.483225 0.60934,-0.444968 0.60934,0.296645 1.21867,1.038258 0.60934,-1.334903 0.60933,1.334903 0.60934,-0.296645 h 0.60934 l 0.60934,0.741613 0.60933,-1.334903 0.60934,-1.038258 0.60933,0.741613 0.60934,0.296645 0.60934,-1.483226 1.21867,0.59329 0.60934,-1.631547 0.60933,0.889935 0.60934,1.18658 0.60934,0.741613 0.60933,0.148322 0.60934,-0.59329 0.60934,1.483226 0.60933,-1.483226 0.60934,-0.148322 0.60934,2.521483 0.60933,-1.483226 1.21868,1.928193 0.60933,0.148323 0.60934,-1.334903 0.60934,-0.296645 0.60933,-0.444968 0.60934,1.038258 0.60934,-2.224838 0.60933,1.038258 0.60934,-0.59329 0.60934,0.889935 h 0.60933 l 0.60934,1.038258 h 0.60934 l 0.60933,-0.741613 0.60934,-1.631548 0.60934,0.59329 1.21867,-0.59329 0.60934,-0.741613 0.60933,1.928193 0.60934,-0.741612 0.60934,0.741612 h 0.60933 l 0.60934,-0.296645 0.60934,-0.889935 0.60933,0.296645 0.60934,-0.59329 0.60934,1.038258 0.60933,-1.186581 0.60934,0.444968 0.60933,-0.889935 0.60934,1.038258 0.60934,-0.444968 0.60934,0.444968 0.60933,0.296645 0.60934,-0.741613 0.60933,0.296645 0.60934,-0.148322 0.60934,-1.779871 0.60933,1.18658 0.60934,-1.18658 0.60934,-0.741613 0.60934,0.296645 0.60933,-0.148322 0.60934,0.889935 0.60933,-0.296645 1.21868,1.038258 0.60933,-0.889935 0.60934,0.296645 0.60934,0.889935 0.60933,0.59329 0.60934,-0.741613 0.60934,-0.444967 0.60933,0.148322 0.60934,0.741613 0.60934,0.296645 0.60933,-0.148322 0.60934,-1.038258 0.60934,0.148322 0.60933,0.444968 0.60934,0.148322 0.60934,-0.59329 0.60933,0.741613 0.60934,-1.038258 h 0.60934 l 0.60933,-0.59329 0.60934,-0.296645 1.21867,2.521483 0.60934,-1.334903 0.60934,0.444968 0.60933,0.889935 h 0.60934 l 1.82801,-1.928193 0.60934,-0.741613 0.60933,0.148323 0.60934,0.889935 0.60934,-0.148322 0.60933,1.483225 0.60934,-0.296645 0.60934,-1.18658 0.60933,0.741612 0.60934,-0.741612 0.60933,1.18658 0.60934,-1.038258 0.60934,-0.148322 0.60934,-1.038258 0.60933,0.741613 0.60934,-0.444968 0.60933,0.148323 0.60934,-0.593291 0.60934,0.444968 0.60934,-0.59329 0.60933,0.59329 0.60934,-0.59329 0.60933,0.59329 0.60934,0.148323 0.60934,-0.444968 0.60933,0.444968 0.60934,0.889935 0.60934,-1.779871 0.60933,-0.296645 0.60934,0.444968 0.60934,0.59329 0.60933,-1.038258 0.60934,-0.59329 0.60934,-0.296645 0.60933,-0.148323 0.60934,0.741613 0.60934,-0.296645 0.60933,1.334903 1.21868,-1.928193 0.60933,0.444967 0.60934,0.148323 0.60934,0.444968 h 0.60933 l 0.60934,-1.038258 0.60934,1.483225 0.60933,-1.483225 0.60934,1.928193 0.60934,0.148322 0.60933,-1.038257 0.60934,-0.148323 1.21867,-0.59329 0.60934,-1.038258 0.60934,-0.296645 1.21867,0.889935 0.60934,-0.889935 0.60933,-0.148323 h 0.60934 l 0.60934,0.889936 0.60933,0.444967 0.60934,-0.889935 h 0.60934 l 0.60933,-1.18658 0.60934,-0.889935 0.60934,1.18658 0.60933,-0.296645 0.60934,0.59329 0.60933,-0.148323 h 0.60934 l 0.60934,0.741613 0.60933,1.038258 0.60934,-0.444968 0.60934,1.038258 0.60933,-1.483225 h 0.60934 l 0.60934,-0.444968 0.60933,1.038258 0.60934,-0.444968 0.60934,0.59329 0.60934,1.038258 0.60933,-0.741613 h 0.60934 l 0.60933,-0.296645 0.60934,1.186581 1.21867,-1.038258 0.60934,0.148322 0.60934,-1.77987 0.60933,0.741613 0.60934,0.296645 0.60934,-1.186581 0.60933,-0.296645 0.60934,0.59329 0.60934,0.148323 0.60933,-0.59329 0.60934,-0.148323 0.60934,0.741613 0.60933,-0.741613 0.60934,-0.296645 1.82801,2.373161 0.60934,-0.741613 0.60933,-0.444967 0.60934,0.444967 0.60934,-0.889935 0.60933,1.631548 h 0.60934 l 0.60934,-1.483226 h 0.60933 l 0.60934,0.741613 h 1.21867 l 0.60934,-1.334903 0.60934,1.186581 0.60933,-0.444968 0.60934,0.148323 0.60934,-1.038258 0.60933,1.334903 0.60934,-0.148323 0.60934,-1.334903 h 0.60933 l 0.60934,-0.148322 0.60933,0.148322 0.60934,1.186581 0.60934,-2.076516 0.60934,-0.148323 0.60933,0.296646 0.60934,0.444967 0.60933,1.18658 0.60934,-1.483225 h 0.60934 l 0.60934,1.18658 h 0.60933 l 1.21867,0.593291 0.60934,-1.038258 h 0.60934 l 0.60934,-0.148323 h 0.60933 l 0.60934,0.296645 0.60933,-0.741612 0.60934,2.076515 0.60934,-2.224838 0.60933,-0.444968 0.60934,0.444968 0.60934,1.483225 0.60933,-0.741612 0.60934,0.59329 0.60934,-1.038258 0.60933,1.038258 0.60934,-0.889935 0.60934,0.444967 0.60933,0.296645 h 0.60934 l 0.60934,-0.741612 0.60933,-0.296645 0.60934,-0.148323 0.60934,-0.59329 0.60933,0.296645 0.60934,0.741613 0.60934,-0.296645 0.60933,0.59329 0.60934,0.148322 h 0.60934 l 0.60933,-0.444967 0.60934,-0.296645 0.60934,0.741612 0.60933,-0.741612 1.21868,1.334902 0.60933,-1.18658 0.60934,0.889935 0.60934,-1.18658 0.60933,-0.148322 0.60934,-0.444968 0.60934,-0.59329 0.60933,0.148322 0.60934,0.889936 0.60934,-1.631548 0.60933,0.148322 0.60934,0.444968 0.60933,0.148322 0.60934,-0.59329 0.60934,1.038258 0.60933,-0.148323 0.60934,0.444968 0.60934,0.148323 0.60934,-0.741613 0.60933,1.038258 0.60934,0.444967 0.60933,-0.296645 0.60934,-0.59329 0.60934,0.296645 0.60934,-0.59329 0.60933,0.296645 0.60934,0.148323 0.60933,0.444967 0.60934,-1.18658 0.60934,1.038258 0.60933,-0.148323 0.60934,-0.59329 0.60934,0.889935 0.60933,-0.889935 0.60934,0.741613 0.60934,-0.741613 0.60933,0.148322 0.60934,-0.296645 0.60934,-0.59329 0.60933,0.444968 0.60934,-1.038258 0.60934,1.18658 0.60933,0.296645 h 0.60934 l 0.60934,0.593291 0.60933,-0.296645 0.60934,-0.593291 h 0.60934 l 0.60933,-0.148322 0.60934,0.296645 0.60934,0.148322 0.60933,-0.59329 0.60934,0.296645 0.60934,1.038258 v 0"
         clip-path="url(#pc67d3aa5b0)"
         style="fill:none;stroke:#ff7f0e;stroke-width:1.5;stroke-linecap:square"
         id="path62" />
    </g>
    <g
       id="line2d_14">
      <path
         d="m 117,70.976562 h 10 10"
         style="fill:none;stroke:#ff7f0e;stroke-width:1.5;stroke-linecap:square"
         id="path101" />
    </g>
    <g
       id="text_15">
      <!-- $\epsilon = 0$, $Q_1 = 5$ -->
      <g
         transform="matrix(0.1,0,0,-0.1,145,74.476562)"
         id="g110">
        <defs
           id="defs101">
          <path
             id="DejaVuSans-35"
             d="M 691,4666 H 3169 V 4134 H 1269 V 2991 q 137,47 274,70 138,23 276,23 781,0 1237,-428 457,-428 457,-1159 Q 3513,744 3044,326 2575,-91 1722,-91 1428,-91 1123,-41 819,9 494,109 v 635 q 281,-153 581,-228 300,-75 634,-75 541,0 856,284 316,284 316,772 0,487 -316,771 -315,285 -856,285 -253,0 -505,-56 -251,-56 -513,-175 z"
             transform="scale(0.015625)" />
        </defs>
        <use
           xlink:href="#DejaVuSans-Oblique-3b5"
           transform="translate(0,0.78125)"
           id="use102" />
        <use
           xlink:href="#DejaVuSans-3d"
           transform="translate(73.535156,0.78125)"
           id="use103" />
        <use
           xlink:href="#DejaVuSans-30"
           transform="translate(176.80664,0.78125)"
           id="use104" />
        <use
           xlink:href="#DejaVuSans-2c"
           transform="translate(240.42969,0.78125)"
           id="use105" />
        <use
           xlink:href="#DejaVuSans-20"
           transform="translate(272.2168,0.78125)"
           id="use106" />
        <use
           xlink:href="#DejaVuSans-Oblique-51"
           transform="translate(304.00391,0.78125)"
           id="use107" />
        <use
           xlink:href="#DejaVuSans-31"
           transform="matrix(0.7,0,0,0.7,382.71484,-15.625)"
           id="use108" />
        <use
           xlink:href="#DejaVuSans-3d"
           transform="translate(449.46777,0.78125)"
           id="use109" />
        <use
           xlink:href="#DejaVuSans-35"
           transform="translate(552.73926,0.78125)"
           id="use110" />
      </g>
    </g>
  </g>
  <defs
     id="defs110">
    <clipPath
       id="pc67d3aa5b0">
      <rect
         x="108"
         y="43.200001"
         width="669.59998"
         height="277.20001"
         id="rect110" />
    </clipPath>
  </defs>
</svg>
