<?xml version="1.0" encoding="UTF-8" standalone="no"?>
<!-- Created with Inkscape (http://www.inkscape.org/) -->

<svg
   width="108.36656mm"
   height="180.424mm"
   viewBox="0 0 108.36656 180.42399"
   version="1.1"
   id="svg2331"
   inkscape:version="1.3.2 (091e20e, 2023-11-25)"
   sodipodi:docname="ELM.svg"
   xmlns:inkscape="http://www.inkscape.org/namespaces/inkscape"
   xmlns:sodipodi="http://sodipodi.sourceforge.net/DTD/sodipodi-0.dtd"
   xmlns="http://www.w3.org/2000/svg"
   xmlns:svg="http://www.w3.org/2000/svg"
   xmlns:rdf="http://www.w3.org/1999/02/22-rdf-syntax-ns#"
   xmlns:cc="http://creativecommons.org/ns#"
   xmlns:dc="http://purl.org/dc/elements/1.1/"
   xmlns:ns2="http://www.iki.fi/pav/software/textext/">
  <sodipodi:namedview
     id="base"
     pagecolor="#ffffff"
     bordercolor="#666666"
     borderopacity="1.0"
     inkscape:pageopacity="0.0"
     inkscape:pageshadow="2"
     inkscape:zoom="0.7"
     inkscape:cx="7.1428571"
     inkscape:cy="203.57143"
     inkscape:document-units="mm"
     inkscape:current-layer="layer1"
     showgrid="false"
     inkscape:window-width="1920"
     inkscape:window-height="1022"
     inkscape:window-x="0"
     inkscape:window-y="30"
     inkscape:window-maximized="1"
     inkscape:showpageshadow="2"
     inkscape:pagecheckerboard="0"
     inkscape:deskcolor="#d1d1d1"
     showguides="false" />
  <defs
     id="defs2325">
    <defs
       id="id-5b93e23b-b924-4ee2-90bb-69184e3bd569">
      <g
         id="id-a0dd74f6-002b-4e2a-af00-d2643e443903">
        <g
           id="id-34597c9d-6483-4c9e-bd2d-80aa30d4233e">
          <path
             d="M 3.328125,-3.015625 C 3.390625,-3.265625 3.625,-4.1875 4.3125,-4.1875 c 0.046875,0 0.296875,0 0.5,0.125 C 4.53125,-4 4.34375,-3.765625 4.34375,-3.515625 c 0,0.15625 0.109375,0.34375 0.375,0.34375 0.21875,0 0.53125,-0.171875 0.53125,-0.578125 0,-0.515625 -0.578125,-0.65625 -0.921875,-0.65625 -0.578125,0 -0.921875,0.53125 -1.046875,0.75 -0.25,-0.65625 -0.78125,-0.75 -1.078125,-0.75 -1.03125,0 -1.609375,1.28125 -1.609375,1.53125 0,0.109375 0.109375,0.109375 0.125,0.109375 0.078125,0 0.109375,-0.03125 0.125,-0.109375 0.34375,-1.0625 1,-1.3125 1.34375,-1.3125 0.1875,0 0.53125,0.09375 0.53125,0.671875 0,0.3125 -0.171875,0.96875 -0.53125,2.375 -0.15625,0.609375 -0.515625,1.03125 -0.953125,1.03125 -0.0625,0 -0.28125,0 -0.5,-0.125 0.25,-0.0625 0.46875,-0.265625 0.46875,-0.546875 0,-0.265625 -0.21875,-0.34375 -0.359375,-0.34375 -0.3125,0 -0.546875,0.25 -0.546875,0.578125 0,0.453125 0.484375,0.65625 0.921875,0.65625 0.671875,0 1.03125,-0.703125 1.046875,-0.75 0.125,0.359375 0.484375,0.75 1.078125,0.75 1.03125,0 1.59375,-1.28125 1.59375,-1.53125 0,-0.109375 -0.078125,-0.109375 -0.109375,-0.109375 -0.09375,0 -0.109375,0.046875 -0.140625,0.109375 -0.328125,1.078125 -1,1.3125 -1.3125,1.3125 -0.390625,0 -0.546875,-0.3125 -0.546875,-0.65625 0,-0.21875 0.046875,-0.4375 0.15625,-0.875 z m 0,0"
             id="id-c37e9223-a276-499c-8992-c134dc08ba03" />
        </g>
        <g
           id="id-e94394e6-d006-42e0-add3-67efe78a8be4">
          <path
             d="m 4.84375,-3.796875 c 0.046875,-0.140625 0.046875,-0.15625 0.046875,-0.234375 0,-0.171875 -0.140625,-0.265625 -0.296875,-0.265625 -0.09375,0 -0.25,0.0625 -0.34375,0.203125 -0.015625,0.0625 -0.109375,0.359375 -0.140625,0.546875 -0.078125,0.25 -0.140625,0.53125 -0.203125,0.796875 l -0.453125,1.796875 c -0.03125,0.140625 -0.46875,0.84375 -1.125,0.84375 -0.5,0 -0.609375,-0.4375 -0.609375,-0.8125 C 1.71875,-1.375 1.890625,-2 2.21875,-2.875 2.375,-3.28125 2.421875,-3.390625 2.421875,-3.59375 c 0,-0.4375 -0.3125,-0.8125 -0.8125,-0.8125 -0.953125,0 -1.3125,1.453125 -1.3125,1.53125 0,0.109375 0.09375,0.109375 0.109375,0.109375 0.109375,0 0.109375,-0.03125 0.15625,-0.1875 0.28125,-0.9375 0.671875,-1.234375 1.015625,-1.234375 0.078125,0 0.25,0 0.25,0.3125 0,0.25 -0.109375,0.515625 -0.171875,0.703125 -0.40625,1.0625 -0.578125,1.625 -0.578125,2.09375 0,0.890625 0.625,1.1875 1.21875,1.1875 0.390625,0 0.71875,-0.171875 1,-0.453125 -0.125,0.515625 -0.25,1.015625 -0.640625,1.546875 -0.265625,0.328125 -0.640625,0.625 -1.09375,0.625 -0.140625,0 -0.59375,-0.03125 -0.765625,-0.421875 0.15625,0 0.296875,0 0.421875,-0.125 C 1.328125,1.203125 1.421875,1.0625 1.421875,0.875 1.421875,0.5625 1.15625,0.53125 1.0625,0.53125 0.828125,0.53125 0.5,0.6875 0.5,1.171875 c 0,0.5 0.4375,0.875 1.0625,0.875 1.015625,0 2.046875,-0.90625 2.328125,-2.03125 z m 0,0"
             id="id-dc75d2e2-e24b-47aa-8f09-1e89bf0fa767" />
        </g>
        <g
           id="id-8a061d66-00a4-4c2f-8328-671f2f81d3c2">
          <path
             d="m 0.84375,-0.4375 c -0.015625,0.09375 -0.0625,0.265625 -0.0625,0.28125 0,0.15625 0.125,0.21875 0.234375,0.21875 0.125,0 0.234375,-0.078125 0.28125,-0.140625 0.03125,-0.0625 0.078125,-0.296875 0.125,-0.4375 0.03125,-0.125 0.109375,-0.453125 0.140625,-0.625 0.046875,-0.15625 0.09375,-0.3125 0.125,-0.46875 0.078125,-0.28125 0.09375,-0.34375 0.296875,-0.625 C 2.171875,-2.515625 2.5,-2.875 3.03125,-2.875 c 0.390625,0 0.40625,0.359375 0.40625,0.484375 0,0.421875 -0.296875,1.1875 -0.40625,1.484375 -0.078125,0.203125 -0.109375,0.265625 -0.109375,0.375 0,0.375 0.296875,0.59375 0.65625,0.59375 0.703125,0 1,-0.953125 1,-1.0625 0,-0.09375 -0.078125,-0.09375 -0.109375,-0.09375 -0.09375,0 -0.09375,0.046875 -0.125,0.125 C 4.1875,-0.40625 3.875,-0.125 3.609375,-0.125 c -0.15625,0 -0.1875,-0.09375 -0.1875,-0.25 0,-0.15625 0.046875,-0.25 0.171875,-0.5625 0.078125,-0.21875 0.359375,-0.953125 0.359375,-1.34375 0,-0.671875 -0.53125,-0.796875 -0.90625,-0.796875 -0.578125,0 -0.96875,0.359375 -1.171875,0.640625 -0.046875,-0.484375 -0.453125,-0.640625 -0.75,-0.640625 -0.296875,0 -0.453125,0.21875 -0.546875,0.375 -0.15625,0.265625 -0.25,0.65625 -0.25,0.703125 0,0.078125 0.09375,0.078125 0.125,0.078125 0.09375,0 0.09375,-0.015625 0.140625,-0.203125 0.109375,-0.40625 0.25,-0.75 0.515625,-0.75 0.1875,0 0.234375,0.15625 0.234375,0.34375 0,0.125 -0.0625,0.390625 -0.125,0.578125 -0.046875,0.1875 -0.109375,0.46875 -0.140625,0.625 z m 0,0"
             id="id-f36955de-5f92-4054-9347-f8b64f3a3ab7" />
        </g>
        <g
           id="id-63e87214-8925-4cec-a0f7-1eb2129a4ba6">
          <path
             d="m 3.03125,-0.5625 c -0.046875,0.140625 -0.109375,0.375 -0.109375,0.40625 0,0.15625 0.125,0.21875 0.234375,0.21875 0.140625,0 0.25,-0.078125 0.28125,-0.140625 0.03125,-0.0625 0.09375,-0.296875 0.125,-0.4375 0.03125,-0.125 0.109375,-0.453125 0.15625,-0.625 0.03125,-0.15625 0.078125,-0.3125 0.109375,-0.46875 0.078125,-0.296875 0.078125,-0.3125 0.21875,-0.53125 C 4.265625,-2.484375 4.625,-2.875 5.15625,-2.875 c 0.390625,0 0.421875,0.3125 0.421875,0.484375 0,0.421875 -0.296875,1.1875 -0.421875,1.484375 -0.0625,0.203125 -0.09375,0.265625 -0.09375,0.375 0,0.375 0.296875,0.59375 0.65625,0.59375 0.703125,0 1,-0.953125 1,-1.0625 0,-0.09375 -0.078125,-0.09375 -0.109375,-0.09375 -0.09375,0 -0.09375,0.046875 -0.125,0.125 C 6.328125,-0.40625 6.015625,-0.125 5.75,-0.125 c -0.15625,0 -0.1875,-0.09375 -0.1875,-0.25 0,-0.15625 0.046875,-0.25 0.171875,-0.5625 0.078125,-0.21875 0.359375,-0.953125 0.359375,-1.34375 0,-0.109375 0,-0.40625 -0.25,-0.609375 -0.125,-0.078125 -0.328125,-0.1875 -0.65625,-0.1875 -0.625,0 -1,0.421875 -1.234375,0.703125 C 3.90625,-2.96875 3.40625,-3.078125 3.046875,-3.078125 2.46875,-3.078125 2.078125,-2.71875 1.875,-2.4375 1.828125,-2.921875 1.421875,-3.078125 1.125,-3.078125 c -0.296875,0 -0.453125,0.21875 -0.546875,0.375 -0.15625,0.265625 -0.25,0.65625 -0.25,0.703125 0,0.078125 0.09375,0.078125 0.125,0.078125 0.09375,0 0.09375,-0.015625 0.140625,-0.203125 0.109375,-0.40625 0.25,-0.75 0.515625,-0.75 0.1875,0 0.234375,0.15625 0.234375,0.34375 0,0.125 -0.0625,0.390625 -0.125,0.578125 -0.046875,0.1875 -0.109375,0.46875 -0.140625,0.625 L 0.84375,-0.4375 c -0.015625,0.09375 -0.0625,0.265625 -0.0625,0.28125 0,0.15625 0.125,0.21875 0.234375,0.21875 0.125,0 0.234375,-0.078125 0.28125,-0.140625 0.03125,-0.0625 0.078125,-0.296875 0.125,-0.4375 0.03125,-0.125 0.109375,-0.453125 0.140625,-0.625 0.046875,-0.15625 0.09375,-0.3125 0.125,-0.46875 0.078125,-0.28125 0.09375,-0.34375 0.296875,-0.625 C 2.171875,-2.515625 2.5,-2.875 3.03125,-2.875 c 0.390625,0 0.40625,0.359375 0.40625,0.484375 0,0.171875 -0.015625,0.265625 -0.125,0.65625 z m 0,0"
             id="id-3d6a4ede-2693-496a-bbd8-0bbb6af5abeb" />
        </g>
        <g
           id="id-718c9701-66fb-45c9-8d18-c368c188d2e0">
          <path
             d="M 2.5,-6.921875 1.15625,-5.5625 1.328125,-5.390625 2.5,-6.40625 3.640625,-5.390625 3.8125,-5.5625 Z m 0,0"
             id="id-e06f3f59-ddcc-4ce2-8d9d-3e81d574314e" />
        </g>
      </g>
    </defs>
    <defs
       id="id-f5d54bf2-a0b8-4608-805d-b8fb8b4f350a">
      <g
         id="id-3105fb05-f8e5-4c4b-98a0-9dd7338bbe96">
        <g
           id="id-02ac5e43-cdd5-4a4a-bd31-9e4fc88f8185">
          <path
             d="m 7.1875,-3.375 c 0,-2.03125 -1.5,-3.65625 -3.3125,-3.65625 -1.796875,0 -3.3125,1.59375 -3.3125,3.65625 0,2.046875 1.53125,3.59375 3.3125,3.59375 1.8125,0 3.3125,-1.578125 3.3125,-3.59375 z M 3.875,-0.015625 c -0.984375,0 -2.34375,-0.859375 -2.34375,-3.359375 0,-2.5625 1.375,-3.4375 2.34375,-3.4375 1,0 2.34375,0.90625 2.34375,3.4375 0,2.53125 -1.40625,3.359375 -2.34375,3.359375 z M 5.65625,-4.125 h -0.25 v 0.34375 H 2.34375 V -4.125 h -0.25 v 1.4375 h 0.25 v -0.34375 h 3.0625 v 0.34375 h 0.25 z m 0,0"
             id="id-a3d143a6-d82c-46e7-b28a-3f82967655a5" />
        </g>
        <g
           id="id-1e2d832b-af81-4d39-9363-91c97b05bb6a">
          <path
             d="M 2.46875,-5.21875 C 1.15625,-4.296875 0.796875,-2.8125 0.796875,-1.75 c 0,0.984375 0.296875,2.515625 1.671875,3.484375 0.0625,0 0.140625,0 0.140625,-0.078125 0,-0.046875 -0.015625,-0.0625 -0.0625,-0.109375 C 1.609375,0.703125 1.28125,-0.46875 1.28125,-1.734375 1.28125,-3.625 2,-4.546875 2.5625,-5.0625 2.59375,-5.09375 2.609375,-5.109375 2.609375,-5.140625 2.609375,-5.21875 2.53125,-5.21875 2.46875,-5.21875 Z m 0,0"
             id="id-1ada5d74-21d0-463e-907c-9b76b6018247" />
        </g>
        <g
           id="id-775bc390-4af0-41b7-affc-c0efd98a579d">
          <path
             d="m 2.328125,-4.4375 c 0,-0.1875 0,-0.1875 -0.203125,-0.1875 -0.453125,0.4375 -1.078125,0.4375 -1.359375,0.4375 v 0.25 c 0.15625,0 0.625,0 1,-0.1875 v 3.546875 c 0,0.234375 0,0.328125 -0.6875,0.328125 H 0.8125 V 0 c 0.125,0 0.984375,-0.03125 1.234375,-0.03125 0.21875,0 1.09375,0.03125 1.25,0.03125 V -0.25 H 3.03125 c -0.703125,0 -0.703125,-0.09375 -0.703125,-0.328125 z m 0,0"
             id="id-c5fcc004-9b48-4bde-87c0-04ba51165c91" />
        </g>
        <g
           id="id-a5172568-03cd-4f25-a8db-94da866e4e8f">
          <path
             d="m 0.625,-5.21875 c -0.046875,0 -0.125,0 -0.125,0.078125 0,0.03125 0.015625,0.046875 0.0625,0.109375 0.59375,0.546875 1.265625,1.484375 1.265625,3.28125 0,1.453125 -0.453125,2.5625 -1.203125,3.234375 -0.125,0.125 -0.125,0.125 -0.125,0.171875 0,0.03125 0.015625,0.078125 0.078125,0.078125 0.09375,0 0.75,-0.453125 1.21875,-1.328125 0.296875,-0.578125 0.5,-1.328125 0.5,-2.140625 C 2.296875,-2.71875 2,-4.25 0.625,-5.21875 Z m 0,0"
             id="id-e2049fd4-43e8-4b6e-bdfa-fe35065b3666" />
        </g>
        <g
           id="id-60d29fc9-5bf5-4750-897e-015780b8491c">
          <path
             d="M 3.515625,-1.265625 H 3.28125 c -0.015625,0.15625 -0.09375,0.5625 -0.1875,0.625 C 3.046875,-0.59375 2.515625,-0.59375 2.40625,-0.59375 H 1.125 c 0.734375,-0.640625 0.984375,-0.84375 1.390625,-1.171875 0.515625,-0.40625 1,-0.84375 1,-1.5 0,-0.84375 -0.734375,-1.359375 -1.625,-1.359375 -0.859375,0 -1.453125,0.609375 -1.453125,1.25 0,0.34375 0.296875,0.390625 0.375,0.390625 0.15625,0 0.359375,-0.125 0.359375,-0.375 0,-0.125 -0.046875,-0.375 -0.40625,-0.375 C 0.984375,-4.21875 1.453125,-4.375 1.78125,-4.375 c 0.703125,0 1.0625,0.546875 1.0625,1.109375 0,0.609375 -0.4375,1.078125 -0.65625,1.328125 L 0.515625,-0.265625 C 0.4375,-0.203125 0.4375,-0.1875 0.4375,0 h 2.875 z m 0,0"
             id="id-a91aa85a-4a46-4ece-9d5b-905f6682401c" />
        </g>
        <g
           id="id-923c33be-9eab-41ac-bc46-b2e5f60050fa">
          <path
             d="m 2.03125,-0.015625 c 0,-0.65625 -0.25,-1.046875 -0.640625,-1.046875 -0.328125,0 -0.53125,0.25 -0.53125,0.53125 C 0.859375,-0.265625 1.0625,0 1.390625,0 1.5,0 1.640625,-0.046875 1.734375,-0.125 1.765625,-0.15625 1.78125,-0.15625 1.78125,-0.15625 c 0.015625,0 0.015625,0 0.015625,0.140625 0,0.75 -0.34375,1.34375 -0.671875,1.671875 -0.109375,0.109375 -0.109375,0.125 -0.109375,0.15625 0,0.078125 0.046875,0.109375 0.09375,0.109375 0.109375,0 0.921875,-0.765625 0.921875,-1.9375 z m 0,0"
             id="id-01580061-2245-4f32-95b3-08fd9ecac74a" />
        </g>
        <g
           id="id-f86a4250-9e36-47d9-abe3-5fd7ee0e0f9c">
          <path
             d="m 2.375,-6.8125 c 0,0 0,-0.109375 -0.125,-0.109375 -0.21875,0 -0.953125,0.078125 -1.21875,0.109375 -0.078125,0 -0.1875,0.015625 -0.1875,0.1875 0,0.125 0.09375,0.125 0.25,0.125 0.46875,0 0.484375,0.0625 0.484375,0.171875 0,0.0625 -0.078125,0.40625 -0.125,0.609375 l -0.828125,3.25 c -0.109375,0.5 -0.15625,0.671875 -0.15625,1.015625 0,0.9375 0.53125,1.5625 1.265625,1.5625 1.171875,0 2.40625,-1.484375 2.40625,-2.921875 0,-0.90625 -0.53125,-1.59375 -1.328125,-1.59375 -0.453125,0 -0.875,0.296875 -1.171875,0.59375 z M 1.453125,-3.046875 C 1.5,-3.265625 1.5,-3.28125 1.59375,-3.390625 2.078125,-4.03125 2.53125,-4.1875 2.796875,-4.1875 c 0.359375,0 0.625,0.296875 0.625,0.9375 0,0.59375 -0.328125,1.734375 -0.515625,2.109375 -0.328125,0.671875 -0.78125,1.03125 -1.171875,1.03125 -0.34375,0 -0.671875,-0.265625 -0.671875,-1 0,-0.203125 0,-0.390625 0.15625,-1.015625 z m 0,0"
             id="id-cc5db248-7542-4272-8aca-6402b4c8e8d6" />
        </g>
        <g
           id="id-eb9bace8-24cf-4a40-b72d-5f0aee696b7c">
          <path
             d="m 2.875,-4.1875 c 0.0625,-0.25 0.078125,-0.328125 0.71875,-0.328125 0.21875,0 0.28125,0 0.28125,-0.140625 0,-0.015625 0,-0.109375 -0.109375,-0.109375 -0.15625,0 -0.34375,0.015625 -0.515625,0.03125 -0.171875,0 -0.390625,0 -0.5625,0 -0.140625,0 -0.328125,0 -0.484375,0 -0.140625,0 -0.3125,-0.03125 -0.453125,-0.03125 -0.03125,0 -0.140625,0 -0.140625,0.15625 0,0.09375 0.078125,0.09375 0.21875,0.09375 0.015625,0 0.140625,0 0.265625,0.015625 0.15625,0.015625 0.171875,0.03125 0.171875,0.109375 0,0 0,0.046875 -0.03125,0.140625 l -0.9375,3.703125 C 1.234375,-0.3125 1.21875,-0.25 0.6875,-0.25 c -0.109375,0 -0.203125,0 -0.203125,0.140625 C 0.484375,0 0.5625,0 0.6875,0 h 3.5 c 0.1875,0 0.1875,0 0.25,-0.140625 0.0625,-0.1875 0.59375,-1.53125 0.59375,-1.59375 0,-0.015625 -0.015625,-0.09375 -0.125,-0.09375 -0.078125,0 -0.09375,0.03125 -0.140625,0.140625 C 4.5,-1.03125 4.1875,-0.25 2.921875,-0.25 H 2.125 c -0.203125,0 -0.21875,-0.015625 -0.21875,-0.078125 0,0 0,-0.03125 0.03125,-0.140625 z m 0,0"
             id="id-6ff38710-d1c8-488d-9ab2-f228f82c4e4c" />
        </g>
      </g>
    </defs>
  </defs>
  <metadata
     id="metadata2328">
    <rdf:RDF>
      <cc:Work
         rdf:about="">
        <dc:format>image/svg+xml</dc:format>
        <dc:type
           rdf:resource="http://purl.org/dc/dcmitype/StillImage" />
      </cc:Work>
    </rdf:RDF>
  </metadata>
  <g
     id="layer1"
     inkscape:groupmode="layer"
     inkscape:label="Ebene 1"
     transform="translate(35.130841,-85.337809)">
    <g
       id="g2"
       transform="translate(0,43.937735)">
      <path
         inkscape:connector-curvature="0"
         style="fill:#000000;fill-opacity:1;stroke:none;stroke-width:0"
         d="m -22.408764,94.541638 c 0.08597,-0.352535 0.40836,-1.652506 1.354036,-1.652506 0.06448,0 0.408361,0 0.687765,0.176268 -0.386868,0.08813 -0.644779,0.418634 -0.644779,0.771169 0,0.220334 0.150448,0.484735 0.515823,0.484735 0.300897,0 0.73075,-0.242368 0.73075,-0.815236 0,-0.727103 -0.795228,-0.925403 -1.268066,-0.925403 -0.795228,0 -1.268066,0.749135 -1.440007,1.057603 -0.343882,-0.925403 -1.074632,-1.057603 -1.482992,-1.057603 -1.418514,0 -2.213742,1.806739 -2.213742,2.159274 0,0.154234 0.150449,0.154234 0.171941,0.154234 0.107464,0 0.150449,-0.04407 0.171942,-0.154234 0.472838,-1.498272 1.375528,-1.850807 1.848366,-1.850807 0.257912,0 0.73075,0.132201 0.73075,0.947437 0,0.440668 -0.236419,1.366071 -0.73075,3.349078 -0.214926,0.859303 -0.709257,1.454205 -1.311051,1.454205 -0.08597,0 -0.386867,0 -0.687764,-0.176267 0.343882,-0.08813 0.644779,-0.374568 0.644779,-0.771169 0,-0.374568 -0.300897,-0.484735 -0.49433,-0.484735 -0.429853,0 -0.752243,0.352534 -0.752243,0.815236 0,0.638969 0.666272,0.925403 1.268066,0.925403 0.924183,0 1.418514,-0.991504 1.440007,-1.057604 0.171941,0.506769 0.666271,1.057604 1.482992,1.057604 1.418514,0 2.192249,-1.80674 2.192249,-2.159274 0,-0.154234 -0.107463,-0.154234 -0.150449,-0.154234 -0.128955,0 -0.150448,0.0661 -0.193433,0.154234 -0.451346,1.520305 -1.375529,1.850806 -1.805382,1.850806 -0.537316,0 -0.752242,-0.440668 -0.752242,-0.925403 0,-0.308468 0.06448,-0.616936 0.214926,-1.233871 z m 0,0"
         id="path3173" />
      <path
         inkscape:connector-curvature="0"
         style="fill:#000000;fill-opacity:1;stroke:none;stroke-width:0"
         d="m -15.952032,94.643344 c 0,-0.264401 0,-0.264401 -0.279404,-0.264401 -0.623287,0.616935 -1.482992,0.616935 -1.86986,0.616935 v 0.352535 c 0.214927,0 0.859706,0 1.375529,-0.264401 v 5.001588 c 0,0.3305 0,0.4627 -0.945676,0.4627 h -0.365375 v 0.35253 c 0.171941,0 1.354036,-0.0441 1.697919,-0.0441 0.300897,0 1.504484,0.0441 1.719411,0.0441 v -0.35253 h -0.365375 c -0.967169,0 -0.967169,-0.1322 -0.967169,-0.4627 z m 0,0"
         id="path3177" />
    </g>
    <g
       id="g3"
       transform="translate(0,47.897585)">
      <ellipse
         ry="1.0394346"
         rx="0.94494045"
         cy="-134.71191"
         cx="20.598913"
         id="path1691"
         style="fill:#000000;fill-opacity:1;fill-rule:evenodd;stroke:#000000;stroke-width:0.5;stroke-linecap:butt;stroke-linejoin:round;stroke-miterlimit:4;stroke-dasharray:none;stroke-dashoffset:0;stroke-opacity:1"
         transform="scale(-1)" />
      <ellipse
         ry="1.0394346"
         rx="0.94494045"
         cy="-126.44368"
         cx="20.598913"
         id="path1691-6"
         style="fill:#000000;fill-opacity:1;fill-rule:evenodd;stroke:#000000;stroke-width:0.5;stroke-linecap:butt;stroke-linejoin:round;stroke-miterlimit:4;stroke-dasharray:none;stroke-dashoffset:0;stroke-opacity:1"
         transform="scale(-1)" />
      <ellipse
         ry="1.0394346"
         rx="0.94494045"
         cy="-118.17544"
         cx="20.598913"
         id="path1691-6-0"
         style="fill:#000000;fill-opacity:1;fill-rule:evenodd;stroke:#000000;stroke-width:0.5;stroke-linecap:butt;stroke-linejoin:round;stroke-miterlimit:4;stroke-dasharray:none;stroke-dashoffset:0;stroke-opacity:1"
         transform="scale(-1)" />
    </g>
    <g
       id="g1"
       transform="translate(0,43.391685)">
      <g
         transform="matrix(1.3953294,0,0,1.3953294,-24.942964,166.60052)"
         id="g5213"
         style="fill:#000000;fill-opacity:1">
        <path
           d="M 3.328125,-3.015625 C 3.390625,-3.265625 3.625,-4.1875 4.3125,-4.1875 c 0.046875,0 0.296875,0 0.5,0.125 C 4.53125,-4 4.34375,-3.765625 4.34375,-3.515625 c 0,0.15625 0.109375,0.34375 0.375,0.34375 0.21875,0 0.53125,-0.171875 0.53125,-0.578125 0,-0.515625 -0.578125,-0.65625 -0.921875,-0.65625 -0.578125,0 -0.921875,0.53125 -1.046875,0.75 -0.25,-0.65625 -0.78125,-0.75 -1.078125,-0.75 -1.03125,0 -1.609375,1.28125 -1.609375,1.53125 0,0.109375 0.109375,0.109375 0.125,0.109375 0.078125,0 0.109375,-0.03125 0.125,-0.109375 0.34375,-1.0625 1,-1.3125 1.34375,-1.3125 0.1875,0 0.53125,0.09375 0.53125,0.671875 0,0.3125 -0.171875,0.96875 -0.53125,2.375 -0.15625,0.609375 -0.515625,1.03125 -0.953125,1.03125 -0.0625,0 -0.28125,0 -0.5,-0.125 0.25,-0.0625 0.46875,-0.265625 0.46875,-0.546875 0,-0.265625 -0.21875,-0.34375 -0.359375,-0.34375 -0.3125,0 -0.546875,0.25 -0.546875,0.578125 0,0.453125 0.484375,0.65625 0.921875,0.65625 0.671875,0 1.03125,-0.703125 1.046875,-0.75 0.125,0.359375 0.484375,0.75 1.078125,0.75 1.03125,0 1.59375,-1.28125 1.59375,-1.53125 0,-0.109375 -0.078125,-0.109375 -0.109375,-0.109375 -0.09375,0 -0.109375,0.046875 -0.140625,0.109375 -0.328125,1.078125 -1,1.3125 -1.3125,1.3125 -0.390625,0 -0.546875,-0.3125 -0.546875,-0.65625 0,-0.21875 0.046875,-0.4375 0.15625,-0.875 z m 0,0"
           id="id-983a0e1e-22f6-43e2-9f58-3f66a54cff28" />
      </g>
      <g
         transform="matrix(1.3953294,0,0,1.3953294,-16.997959,168.68514)"
         id="g3380"
         style="fill:#000000;fill-opacity:1">
        <path
           d="m 0.84375,-0.4375 c -0.015625,0.09375 -0.0625,0.265625 -0.0625,0.28125 0,0.15625 0.125,0.21875 0.234375,0.21875 0.125,0 0.234375,-0.078125 0.28125,-0.140625 0.03125,-0.0625 0.078125,-0.296875 0.125,-0.4375 0.03125,-0.125 0.109375,-0.453125 0.140625,-0.625 0.046875,-0.15625 0.09375,-0.3125 0.125,-0.46875 0.078125,-0.28125 0.09375,-0.34375 0.296875,-0.625 C 2.171875,-2.515625 2.5,-2.875 3.03125,-2.875 c 0.390625,0 0.40625,0.359375 0.40625,0.484375 0,0.421875 -0.296875,1.1875 -0.40625,1.484375 -0.078125,0.203125 -0.109375,0.265625 -0.109375,0.375 0,0.375 0.296875,0.59375 0.65625,0.59375 0.703125,0 1,-0.953125 1,-1.0625 0,-0.09375 -0.078125,-0.09375 -0.109375,-0.09375 -0.09375,0 -0.09375,0.046875 -0.125,0.125 C 4.1875,-0.40625 3.875,-0.125 3.609375,-0.125 c -0.15625,0 -0.1875,-0.09375 -0.1875,-0.25 0,-0.15625 0.046875,-0.25 0.171875,-0.5625 0.078125,-0.21875 0.359375,-0.953125 0.359375,-1.34375 0,-0.671875 -0.53125,-0.796875 -0.90625,-0.796875 -0.578125,0 -0.96875,0.359375 -1.171875,0.640625 -0.046875,-0.484375 -0.453125,-0.640625 -0.75,-0.640625 -0.296875,0 -0.453125,0.21875 -0.546875,0.375 -0.15625,0.265625 -0.25,0.65625 -0.25,0.703125 0,0.078125 0.09375,0.078125 0.125,0.078125 0.09375,0 0.09375,-0.015625 0.140625,-0.203125 0.109375,-0.40625 0.25,-0.75 0.515625,-0.75 0.1875,0 0.234375,0.15625 0.234375,0.34375 0,0.125 -0.0625,0.390625 -0.125,0.578125 -0.046875,0.1875 -0.109375,0.46875 -0.140625,0.625 z m 0,0"
           id="id-24b23ff0-5d7a-4bf2-b991-536846d16e25" />
      </g>
    </g>
    <g
       id="g13"
       transform="translate(-114.05431,47.499803)">
      <path
         inkscape:connector-curvature="0"
         style="fill:#000000;fill-opacity:1;stroke:none;stroke-width:0"
         d="m 177.86632,97.67799 -1.84836,1.916906 0.23641,0.242368 1.61195,-1.432172 1.56896,1.432172 0.23642,-0.242368 z m 0,0"
         id="path3189" />
      <path
         inkscape:connector-curvature="0"
         style="fill:#000000;fill-opacity:1;stroke:none;stroke-width:0"
         d="m 180.14935,102.08467 c 0.0645,-0.1983 0.0645,-0.22033 0.0645,-0.3305 0,-0.24237 -0.19344,-0.37457 -0.40836,-0.37457 -0.12896,0 -0.34389,0.0881 -0.47284,0.28644 -0.0215,0.0881 -0.15045,0.50677 -0.19344,0.77117 -0.10746,0.35253 -0.19343,0.74913 -0.2794,1.1237 l -0.62329,2.53384 c -0.043,0.1983 -0.64478,1.18981 -1.54747,1.18981 -0.68776,0 -0.83821,-0.61694 -0.83821,-1.14574 0,-0.63897 0.23642,-1.52031 0.68776,-2.75418 0.21493,-0.57287 0.27941,-0.7271 0.27941,-1.01353 0,-0.61694 -0.42985,-1.14574 -1.11762,-1.14574 -1.31105,0 -1.80538,2.04911 -1.80538,2.15927 0,0.15424 0.12896,0.15424 0.15045,0.15424 0.15045,0 0.15045,-0.0441 0.21493,-0.2644 0.38686,-1.32201 0.92418,-1.74064 1.39702,-1.74064 0.10746,0 0.34388,0 0.34388,0.44066 0,0.35254 -0.15045,0.72711 -0.23642,0.99151 -0.55881,1.49827 -0.79523,2.29147 -0.79523,2.95247 0,1.25591 0.85971,1.67454 1.67643,1.67454 0.53731,0 0.98866,-0.24236 1.37553,-0.63897 -0.17194,0.72711 -0.34389,1.43218 -0.8812,2.18131 -0.36538,0.4627 -0.8812,0.88134 -1.50449,0.88134 -0.19343,0 -0.81672,-0.0441 -1.05314,-0.5949 0.21493,0 0.40836,0 0.58031,-0.17627 0.15044,-0.11017 0.2794,-0.30847 0.2794,-0.57287 0,-0.44067 -0.36537,-0.48473 -0.49433,-0.48473 -0.32239,0 -0.77374,0.22033 -0.77374,0.90337 0,0.70506 0.6018,1.23387 1.4615,1.23387 1.39703,0 2.81554,-1.27794 3.20241,-2.86435 z m 0,0"
         id="path3193" />
      <path
         inkscape:connector-curvature="0"
         style="fill:#000000;fill-opacity:1;stroke:none;stroke-width:0"
         d="m 183.40849,103.28804 c 0,-0.2644 0,-0.2644 -0.2794,-0.2644 -0.62329,0.61694 -1.48299,0.61694 -1.86986,0.61694 v 0.35253 c 0.21493,0 0.8597,0 1.37553,-0.2644 v 5.00158 c 0,0.3305 0,0.46271 -0.94568,0.46271 h -0.36537 v 0.35253 c 0.17194,0 1.35403,-0.0441 1.69792,-0.0441 0.30089,0 1.50448,0.0441 1.71941,0.0441 V 109.193 h -0.36538 c -0.96717,0 -0.96717,-0.13221 -0.96717,-0.46271 z m 0,0"
         id="path3197" />
    </g>
    <g
       id="g12"
       transform="translate(-114.05431,47.499803)">
      <g
         transform="matrix(1.4101185,0,0,1.4101185,171.8919,153.11859)"
         id="g2014"
         style="fill:#000000;fill-opacity:1">
        <path
           d="M 2.5,-6.921875 1.15625,-5.5625 1.328125,-5.390625 2.5,-6.40625 3.640625,-5.390625 3.8125,-5.5625 Z m 0,0"
           id="id-537000b9-bb4e-4039-9af2-0bef23ab7a1f" />
      </g>
      <g
         transform="matrix(1.4101185,0,0,1.4101185,170.92738,153.11859)"
         id="g1355"
         style="fill:#000000;fill-opacity:1">
        <path
           d="m 4.84375,-3.796875 c 0.046875,-0.140625 0.046875,-0.15625 0.046875,-0.234375 0,-0.171875 -0.140625,-0.265625 -0.296875,-0.265625 -0.09375,0 -0.25,0.0625 -0.34375,0.203125 -0.015625,0.0625 -0.109375,0.359375 -0.140625,0.546875 -0.078125,0.25 -0.140625,0.53125 -0.203125,0.796875 l -0.453125,1.796875 c -0.03125,0.140625 -0.46875,0.84375 -1.125,0.84375 -0.5,0 -0.609375,-0.4375 -0.609375,-0.8125 C 1.71875,-1.375 1.890625,-2 2.21875,-2.875 2.375,-3.28125 2.421875,-3.390625 2.421875,-3.59375 c 0,-0.4375 -0.3125,-0.8125 -0.8125,-0.8125 -0.953125,0 -1.3125,1.453125 -1.3125,1.53125 0,0.109375 0.09375,0.109375 0.109375,0.109375 0.109375,0 0.109375,-0.03125 0.15625,-0.1875 0.28125,-0.9375 0.671875,-1.234375 1.015625,-1.234375 0.078125,0 0.25,0 0.25,0.3125 0,0.25 -0.109375,0.515625 -0.171875,0.703125 -0.40625,1.0625 -0.578125,1.625 -0.578125,2.09375 0,0.890625 0.625,1.1875 1.21875,1.1875 0.390625,0 0.71875,-0.171875 1,-0.453125 -0.125,0.515625 -0.25,1.015625 -0.640625,1.546875 -0.265625,0.328125 -0.640625,0.625 -1.09375,0.625 -0.140625,0 -0.59375,-0.03125 -0.765625,-0.421875 0.15625,0 0.296875,0 0.421875,-0.125 C 1.328125,1.203125 1.421875,1.0625 1.421875,0.875 1.421875,0.5625 1.15625,0.53125 1.0625,0.53125 0.828125,0.53125 0.5,0.6875 0.5,1.171875 c 0,0.5 0.4375,0.875 1.0625,0.875 1.015625,0 2.046875,-0.90625 2.328125,-2.03125 z m 0,0"
           id="id-9724e395-7388-48b0-a29c-6dcb5f5f2907" />
      </g>
      <g
         transform="matrix(1.4101185,0,0,1.4101185,177.8158,155.2253)"
         id="g8755"
         style="fill:#000000;fill-opacity:1">
        <path
           d="m 3.03125,-0.5625 c -0.046875,0.140625 -0.109375,0.375 -0.109375,0.40625 0,0.15625 0.125,0.21875 0.234375,0.21875 0.140625,0 0.25,-0.078125 0.28125,-0.140625 0.03125,-0.0625 0.09375,-0.296875 0.125,-0.4375 0.03125,-0.125 0.109375,-0.453125 0.15625,-0.625 0.03125,-0.15625 0.078125,-0.3125 0.109375,-0.46875 0.078125,-0.296875 0.078125,-0.3125 0.21875,-0.53125 C 4.265625,-2.484375 4.625,-2.875 5.15625,-2.875 c 0.390625,0 0.421875,0.3125 0.421875,0.484375 0,0.421875 -0.296875,1.1875 -0.421875,1.484375 -0.0625,0.203125 -0.09375,0.265625 -0.09375,0.375 0,0.375 0.296875,0.59375 0.65625,0.59375 0.703125,0 1,-0.953125 1,-1.0625 0,-0.09375 -0.078125,-0.09375 -0.109375,-0.09375 -0.09375,0 -0.09375,0.046875 -0.125,0.125 C 6.328125,-0.40625 6.015625,-0.125 5.75,-0.125 c -0.15625,0 -0.1875,-0.09375 -0.1875,-0.25 0,-0.15625 0.046875,-0.25 0.171875,-0.5625 0.078125,-0.21875 0.359375,-0.953125 0.359375,-1.34375 0,-0.109375 0,-0.40625 -0.25,-0.609375 -0.125,-0.078125 -0.328125,-0.1875 -0.65625,-0.1875 -0.625,0 -1,0.421875 -1.234375,0.703125 C 3.90625,-2.96875 3.40625,-3.078125 3.046875,-3.078125 2.46875,-3.078125 2.078125,-2.71875 1.875,-2.4375 1.828125,-2.921875 1.421875,-3.078125 1.125,-3.078125 c -0.296875,0 -0.453125,0.21875 -0.546875,0.375 -0.15625,0.265625 -0.25,0.65625 -0.25,0.703125 0,0.078125 0.09375,0.078125 0.125,0.078125 0.09375,0 0.09375,-0.015625 0.140625,-0.203125 0.109375,-0.40625 0.25,-0.75 0.515625,-0.75 0.1875,0 0.234375,0.15625 0.234375,0.34375 0,0.125 -0.0625,0.390625 -0.125,0.578125 -0.046875,0.1875 -0.109375,0.46875 -0.140625,0.625 L 0.84375,-0.4375 c -0.015625,0.09375 -0.0625,0.265625 -0.0625,0.28125 0,0.15625 0.125,0.21875 0.234375,0.21875 0.125,0 0.234375,-0.078125 0.28125,-0.140625 0.03125,-0.0625 0.078125,-0.296875 0.125,-0.4375 0.03125,-0.125 0.109375,-0.453125 0.140625,-0.625 0.046875,-0.15625 0.09375,-0.3125 0.125,-0.46875 0.078125,-0.28125 0.09375,-0.34375 0.296875,-0.625 C 2.171875,-2.515625 2.5,-2.875 3.03125,-2.875 c 0.390625,0 0.40625,0.359375 0.40625,0.484375 0,0.171875 -0.015625,0.265625 -0.125,0.65625 z m 0,0"
           id="id-4f417117-6ed7-4472-aebd-44adb87d7af6" />
      </g>
    </g>
    <ellipse
       ry="1.0394346"
       rx="0.94494045"
       cy="-182.60905"
       cx="-65.263695"
       id="ellipse3"
       style="fill:#000000;fill-opacity:1;fill-rule:evenodd;stroke:#000000;stroke-width:0.5;stroke-linecap:butt;stroke-linejoin:round;stroke-miterlimit:4;stroke-dasharray:none;stroke-dashoffset:0;stroke-opacity:1"
       transform="scale(-1)" />
    <ellipse
       ry="1.0394346"
       rx="0.94494045"
       cy="-174.34082"
       cx="-65.263695"
       id="ellipse4"
       style="fill:#000000;fill-opacity:1;fill-rule:evenodd;stroke:#000000;stroke-width:0.5;stroke-linecap:butt;stroke-linejoin:round;stroke-miterlimit:4;stroke-dasharray:none;stroke-dashoffset:0;stroke-opacity:1"
       transform="scale(-1)" />
    <ellipse
       ry="1.0394346"
       rx="0.94494045"
       cy="-166.07265"
       cx="-65.263695"
       id="ellipse5"
       style="fill:#000000;fill-opacity:1;fill-rule:evenodd;stroke:#000000;stroke-width:0.5;stroke-linecap:butt;stroke-linejoin:round;stroke-miterlimit:4;stroke-dasharray:none;stroke-dashoffset:0;stroke-opacity:1"
       transform="scale(-1)" />
    <path
       style="fill:none;stroke:#000000;stroke-width:0.3;stroke-dasharray:none;stroke-opacity:0.996255"
       d="M 17.922076,95.225037 0.54955582,140.39379 18.055709,117.80938 0.54955582,174.47067 17.922076,163.11171 0.54955582,208.14663 18.055709,253.44881 0.28228697,174.2034 18.189345,231.13181 0.54955582,208.013 18.055709,208.28026 0.28228697,174.6043 17.922076,184.89418 0.28228697,207.87936 17.78844,140.79469 0.28228697,140.52742 18.055709,253.18155"
       id="path19" />
    <path
       style="fill:none;stroke:#000000;stroke-width:0.3;stroke-dasharray:none;stroke-opacity:0.996255"
       d="M 0.41592272,174.47067 17.78844,95.625941 0.01501812,208.14663 0.28228697,208.013"
       id="path20" />
    <path
       style="fill:none;stroke:#000000;stroke-width:0.3;stroke-dasharray:none;stroke-opacity:0.996255"
       d="M 17.78844,163.11171 0.41592272,140.92833 17.922076,184.89418"
       id="path21" />
    <path
       style="fill:none;stroke:#000000;stroke-width:0.3;stroke-dasharray:none;stroke-opacity:0.996255"
       d="M 17.78844,208.013 0.68319157,140.66106"
       id="path22" />
    <path
       style="fill:none;stroke:#000000;stroke-width:0.3;stroke-dasharray:none;stroke-opacity:0.996255"
       d="M 17.78844,230.33 0.28228697,140.52742"
       id="path23" />
    <path
       style="fill:none;stroke:#000000;stroke-width:0.3;stroke-dasharray:none;stroke-opacity:0.996255"
       d="M 0.41592272,174.2034 18.055709,140.52742"
       id="path24" />
    <path
       style="fill:none;stroke:#000000;stroke-width:0.3;stroke-dasharray:none;stroke-opacity:0.996255"
       d="M 17.922076,118.47756 0.28228697,208.28026"
       id="path25" />
    <path
       style="fill:none;stroke:#000000;stroke-width:0.3;stroke-dasharray:none;stroke-opacity:0.996255"
       d="M 44.103247,151.19192 26.527355,95.062236 44.292234,197.494 26.338366,117.3629 Z"
       id="path26" />
    <path
       style="fill:none;stroke:#000000;stroke-width:0.3;stroke-dasharray:none;stroke-opacity:0.996255"
       d="M 44.103247,151.19192 25.771401,140.41958 44.292234,196.54906 26.338366,162.72019 Z"
       id="path27" />
    <path
       style="fill:none;stroke:#000000;stroke-width:0.3;stroke-dasharray:none;stroke-opacity:0.996255"
       d="M 44.292234,196.73805 26.527355,185.96573 43.914258,151.38091 26.527355,208.6443 Z"
       id="path28" />
    <path
       style="fill:none;stroke:#000000;stroke-width:0.3;stroke-dasharray:none;stroke-opacity:0.996255"
       d="M 43.914258,197.30501 26.527355,230.18894 43.914258,151.56989 26.527355,253.24549 Z"
       id="path29" />
    <circle
       style="fill:#ffffff;fill-opacity:1;fill-rule:evenodd;stroke:#000000;stroke-width:0.6;stroke-linecap:butt;stroke-linejoin:round;stroke-miterlimit:4;stroke-dasharray:none;stroke-dashoffset:0;stroke-opacity:1"
       id="path878"
       cx="140.67838"
       cy="3.7254708"
       r="4.310678"
       transform="rotate(90)" />
    <circle
       style="fill:#ffffff;fill-opacity:1;fill-rule:evenodd;stroke:#000000;stroke-width:0.6;stroke-linecap:butt;stroke-linejoin:round;stroke-miterlimit:4;stroke-dasharray:none;stroke-dashoffset:0;stroke-opacity:1"
       id="path878-9"
       cx="174.34073"
       cy="3.7254708"
       r="4.310678"
       transform="rotate(90)" />
    <circle
       style="fill:#ffffff;fill-opacity:1;fill-rule:evenodd;stroke:#000000;stroke-width:0.6;stroke-linecap:butt;stroke-linejoin:round;stroke-miterlimit:4;stroke-dasharray:none;stroke-dashoffset:0;stroke-opacity:1"
       id="path878-2"
       cx="208.00351"
       cy="3.7254708"
       r="4.310678"
       transform="rotate(90)" />
    <circle
       style="fill:#ffffff;fill-opacity:1;fill-rule:evenodd;stroke:#000000;stroke-width:0.6;stroke-linecap:butt;stroke-linejoin:round;stroke-miterlimit:4;stroke-dasharray:none;stroke-dashoffset:0;stroke-opacity:1"
       id="path878-9-2-7-1-3"
       cx="151.50108"
       cy="-48.605282"
       r="4.310678"
       transform="rotate(90)" />
    <circle
       style="fill:#ffffff;fill-opacity:1;fill-rule:evenodd;stroke:#000000;stroke-width:0.6;stroke-linecap:butt;stroke-linejoin:round;stroke-miterlimit:4;stroke-dasharray:none;stroke-dashoffset:0;stroke-opacity:1"
       id="path878-2-3-6-9"
       cx="197.18069"
       cy="-48.605282"
       r="4.310678"
       transform="rotate(90)" />
    <g
       id="g19"
       transform="translate(-18.057836,37.117145)"
       style="fill:#ffffff;stroke:#000000">
      <g
         id="g11"
         style="fill:#ffffff;stroke:#000000">
        <circle
           style="fill:#ffffff;fill-opacity:1;fill-rule:evenodd;stroke:#000000;stroke-width:0.6;stroke-linecap:butt;stroke-linejoin:round;stroke-miterlimit:4;stroke-dasharray:none;stroke-dashoffset:0;stroke-opacity:1"
           id="path878-0-7"
           cx="58.123009"
           cy="-40.497738"
           r="4.310678"
           transform="rotate(90)" />
        <circle
           style="fill:#ffffff;fill-opacity:1;fill-rule:evenodd;stroke:#000000;stroke-width:0.6;stroke-linecap:butt;stroke-linejoin:round;stroke-miterlimit:4;stroke-dasharray:none;stroke-dashoffset:0;stroke-opacity:1"
           id="path878-9-2-3"
           cx="103.32364"
           cy="-40.497738"
           r="4.310678"
           transform="rotate(90)" />
        <circle
           r="4.310678"
           cy="-40.497746"
           cx="171.12459"
           id="path878-2-3-6"
           style="fill:#ffffff;fill-opacity:1;fill-rule:evenodd;stroke:#000000;stroke-width:0.6;stroke-linecap:butt;stroke-linejoin:round;stroke-miterlimit:4;stroke-dasharray:none;stroke-dashoffset:0;stroke-opacity:1"
           transform="rotate(90)" />
        <circle
           r="4.310678"
           cy="-40.497746"
           cx="148.52426"
           id="path878-9-2-7-1"
           style="fill:#ffffff;fill-opacity:1;fill-rule:evenodd;stroke:#000000;stroke-width:0.6;stroke-linecap:butt;stroke-linejoin:round;stroke-miterlimit:4;stroke-dasharray:none;stroke-dashoffset:0;stroke-opacity:1"
           transform="rotate(90)" />
        <circle
           style="fill:#ffffff;fill-opacity:1;fill-rule:evenodd;stroke:#000000;stroke-width:0.6;stroke-linecap:butt;stroke-linejoin:round;stroke-miterlimit:4;stroke-dasharray:none;stroke-dashoffset:0;stroke-opacity:1"
           id="circle7"
           cx="80.72332"
           cy="-40.497738"
           r="4.310678"
           transform="rotate(90)" />
        <circle
           style="fill:#ffffff;fill-opacity:1;fill-rule:evenodd;stroke:#000000;stroke-width:0.6;stroke-linecap:butt;stroke-linejoin:round;stroke-miterlimit:4;stroke-dasharray:none;stroke-dashoffset:0;stroke-opacity:1"
           id="circle8"
           cx="125.92395"
           cy="-40.497738"
           r="4.310678"
           transform="rotate(90)" />
        <circle
           r="4.310678"
           cy="-40.497746"
           cx="216.32521"
           id="circle9"
           style="fill:#ffffff;fill-opacity:1;fill-rule:evenodd;stroke:#000000;stroke-width:0.6;stroke-linecap:butt;stroke-linejoin:round;stroke-miterlimit:4;stroke-dasharray:none;stroke-dashoffset:0;stroke-opacity:1"
           transform="rotate(90)" />
        <circle
           r="4.310678"
           cy="-40.497746"
           cx="193.7249"
           id="circle10"
           style="fill:#ffffff;fill-opacity:1;fill-rule:evenodd;stroke:#000000;stroke-width:0.6;stroke-linecap:butt;stroke-linejoin:round;stroke-miterlimit:4;stroke-dasharray:none;stroke-dashoffset:0;stroke-opacity:1"
           transform="rotate(90)" />
      </g>
    </g>
    <g
       transform="matrix(1.00682,0,0,1.00682,-38.305324,76.953537)"
       ns2:version="1.10.2"
       ns2:texconverter="pdflatex"
       ns2:pdfconverter="inkscape"
       ns2:text="$\\hat\\Theta\\sim \\mathcal{N}(0,1)$"
       ns2:preamble="/Users/msebpeit/Library/Application Support/org.inkscape.Inkscape/config/inkscape/extensions/textext/default_packages.tex"
       ns2:scale="2.8539821259199836"
       ns2:alignment="middle center"
       ns2:stroke-to-path="0"
       ns2:inkscapeversion="1.3.2"
       id="g5582"
       ns2:jacobian_sqrt="1.00682">
      <defs
         id="id-167c7ebb-7ee5-482c-a153-326688b717e5">
        <g
           id="id-03aa087d-9f29-41a8-b438-cfd53faffdcc">
          <g
             id="id-cfdc7def-82f9-462a-9a51-8b2a4c180131">
            <path
               d="M 2.5,-6.921875 1.15625,-5.5625 1.328125,-5.390625 2.5,-6.40625 3.640625,-5.390625 3.8125,-5.5625 Z m 0,0"
               id="id-107bc330-2ff7-4649-b78f-c0cf9766f776" />
          </g>
          <g
             id="id-6d89eab8-737c-4afa-bcf5-a6ceee3ddfbb">
            <path
               d="m 7.1875,-3.375 c 0,-2.03125 -1.5,-3.65625 -3.3125,-3.65625 -1.796875,0 -3.3125,1.59375 -3.3125,3.65625 0,2.046875 1.53125,3.59375 3.3125,3.59375 1.8125,0 3.3125,-1.578125 3.3125,-3.59375 z M 3.875,-0.015625 c -0.984375,0 -2.34375,-0.859375 -2.34375,-3.359375 0,-2.5625 1.375,-3.4375 2.34375,-3.4375 1,0 2.34375,0.90625 2.34375,3.4375 0,2.53125 -1.40625,3.359375 -2.34375,3.359375 z M 5.65625,-4.125 h -0.25 v 0.34375 H 2.34375 V -4.125 h -0.25 v 1.4375 h 0.25 v -0.34375 h 3.0625 v 0.34375 h 0.25 z m 0,0"
               id="id-4d489c5b-e4f2-476e-87d9-e5cbde79efcf" />
          </g>
          <g
             id="id-a7a9553b-5515-461e-8c9f-b68d82ce19a1">
            <path
               d="m 3.296875,2.390625 c 0,-0.03125 0,-0.046875 -0.171875,-0.21875 C 1.890625,0.921875 1.5625,-0.96875 1.5625,-2.5 c 0,-1.734375 0.375,-3.46875 1.609375,-4.703125 0.125,-0.125 0.125,-0.140625 0.125,-0.171875 0,-0.078125 -0.03125,-0.109375 -0.09375,-0.109375 -0.109375,0 -1,0.6875 -1.59375,1.953125 -0.5,1.09375 -0.625,2.203125 -0.625,3.03125 0,0.78125 0.109375,1.984375 0.65625,3.125 C 2.25,1.84375 3.09375,2.5 3.203125,2.5 c 0.0625,0 0.09375,-0.03125 0.09375,-0.109375 z m 0,0"
               id="id-48988edb-9b0d-4b2d-a5fd-4478d9282590" />
          </g>
          <g
             id="id-b6bc8a43-b2bc-4087-8694-55cf1d1ec55e">
            <path
               d="m 4.578125,-3.1875 c 0,-0.796875 -0.046875,-1.59375 -0.390625,-2.328125 -0.453125,-0.96875 -1.28125,-1.125 -1.6875,-1.125 -0.609375,0 -1.328125,0.265625 -1.75,1.1875 -0.3125,0.6875 -0.359375,1.46875 -0.359375,2.265625 0,0.75 0.03125,1.640625 0.453125,2.40625 0.421875,0.796875 1.15625,1 1.640625,1 0.53125,0 1.296875,-0.203125 1.734375,-1.15625 0.3125,-0.6875 0.359375,-1.46875 0.359375,-2.25 z M 2.484375,0 C 2.09375,0 1.5,-0.25 1.328125,-1.203125 1.21875,-1.796875 1.21875,-2.71875 1.21875,-3.3125 c 0,-0.640625 0,-1.296875 0.078125,-1.828125 0.1875,-1.1875 0.9375,-1.28125 1.1875,-1.28125 0.328125,0 0.984375,0.1875 1.171875,1.171875 0.109375,0.5625 0.109375,1.3125 0.109375,1.9375 0,0.75 0,1.421875 -0.109375,2.0625 C 3.5,-0.296875 2.9375,0 2.484375,0 Z m 0,0"
               id="id-1fbb42a3-f5a8-4eb7-99c6-ae30f204421f" />
          </g>
          <g
             id="id-313d83d8-e699-4aaf-be8d-c01eece5e931">
            <path
               d="m 2.9375,-6.375 c 0,-0.25 0,-0.265625 -0.234375,-0.265625 C 2.078125,-6 1.203125,-6 0.890625,-6 v 0.3125 c 0.203125,0 0.78125,0 1.296875,-0.265625 v 5.171875 c 0,0.359375 -0.03125,0.46875 -0.921875,0.46875 h -0.3125 V 0 c 0.34375,-0.03125 1.203125,-0.03125 1.609375,-0.03125 0.390625,0 1.265625,0 1.609375,0.03125 v -0.3125 h -0.3125 c -0.90625,0 -0.921875,-0.109375 -0.921875,-0.46875 z m 0,0"
               id="id-d8c29724-6ba3-4478-9a0b-5a799767d0fd" />
          </g>
          <g
             id="id-38384b33-c392-4a8d-95a5-c27b45e0419c">
            <path
               d="m 2.875,-2.5 c 0,-0.765625 -0.109375,-1.96875 -0.65625,-3.109375 -0.59375,-1.21875 -1.453125,-1.875 -1.546875,-1.875 -0.0625,0 -0.109375,0.046875 -0.109375,0.109375 0,0.03125 0,0.046875 0.1875,0.234375 0.984375,0.984375 1.546875,2.5625 1.546875,4.640625 0,1.71875 -0.359375,3.46875 -1.59375,4.71875 C 0.5625,2.34375 0.5625,2.359375 0.5625,2.390625 0.5625,2.453125 0.609375,2.5 0.671875,2.5 0.765625,2.5 1.671875,1.8125 2.25,0.546875 2.765625,-0.546875 2.875,-1.65625 2.875,-2.5 Z m 0,0"
               id="id-94b14b40-c669-4b0d-9af3-b2ce1b4ec1c0" />
          </g>
          <g
             id="id-5529378d-7461-47d5-9c66-62d3fdddb5ee">
            <path
               d="m 7.203125,-3.328125 c 0,-0.21875 -0.0625,-0.328125 -0.140625,-0.328125 -0.046875,0 -0.140625,0.078125 -0.140625,0.265625 -0.046875,0.953125 -0.703125,1.5 -1.40625,1.5 -0.625,0 -1.09375,-0.421875 -1.59375,-0.84375 -0.5,-0.46875 -1.015625,-0.921875 -1.703125,-0.921875 -1.078125,0 -1.671875,1.09375 -1.671875,2 0,0.328125 0.125,0.328125 0.140625,0.328125 0.109375,0 0.140625,-0.203125 0.140625,-0.234375 0.046875,-1.09375 0.78125,-1.53125 1.390625,-1.53125 0.625,0 1.109375,0.421875 1.59375,0.84375 0.515625,0.46875 1.03125,0.921875 1.703125,0.921875 1.09375,0 1.6875,-1.09375 1.6875,-2 z m 0,0"
               id="id-92432eed-06ab-4ba1-8515-71e62856f591" />
          </g>
          <g
             id="id-976459ea-7213-4511-b9a0-dd734716f45e">
            <path
               d="m 3.046875,-5.71875 c 0.1875,0.515625 0.40625,1.265625 0.84375,2.484375 C 4.53125,-1.53125 4.8125,-0.921875 5.40625,0.03125 5.546875,0.234375 5.5625,0.25 5.65625,0.25 5.796875,0.25 6,0.125 6.109375,0.046875 6.25,-0.078125 6.265625,-0.09375 6.375,-0.578125 6.96875,-3.203125 7.71875,-5.9375 7.921875,-6.390625 7.9375,-6.40625 8.140625,-6.78125 9.359375,-6.8125 9.5625,-6.8125 9.75,-7.34375 9.75,-7.5625 c 0,-0.15625 -0.0625,-0.15625 -0.203125,-0.15625 -1,0 -1.4375,0.40625 -1.5625,0.546875 -0.28125,0.359375 -0.515625,1.078125 -0.96875,2.75 C 6.65625,-3.15625 6.34375,-1.859375 6.03125,-0.5625 5.484375,-1.390625 5.171875,-2.1875 4.6875,-3.46875 4.171875,-4.890625 3.84375,-5.921875 3.578125,-6.8125 c -0.0625,-0.203125 -0.0625,-0.21875 -0.15625,-0.21875 -0.015625,0 -0.21875,0 -0.515625,0.25 C 2.8125,-6.703125 2.796875,-6.609375 2.796875,-6.5 c -0.28125,2.65625 -1.21875,5.28125 -1.484375,5.75 -0.09375,0.15625 -0.203125,0.328125 -0.40625,0.328125 -0.09375,0 -0.484375,-0.046875 -0.75,-0.28125 C 0.109375,-0.75 0.09375,-0.75 0.078125,-0.75 c -0.15625,0 -0.375,0.5 -0.375,0.734375 C -0.296875,0.296875 0.3125,0.5 0.59375,0.5 1.234375,0.5 1.75,-0.90625 1.90625,-1.359375 2.546875,-3.171875 2.859375,-4.65625 3.046875,-5.71875 Z m 0,0"
               id="id-1ce17b68-b980-4741-968b-92ebfe81876c" />
          </g>
          <g
             id="id-0ef7eb03-92f9-4b08-9c5f-3a2feafd6d5f">
            <path
               d="m 2.03125,-0.015625 c 0,-0.65625 -0.25,-1.046875 -0.640625,-1.046875 -0.328125,0 -0.53125,0.25 -0.53125,0.53125 C 0.859375,-0.265625 1.0625,0 1.390625,0 1.5,0 1.640625,-0.046875 1.734375,-0.125 1.765625,-0.15625 1.78125,-0.15625 1.78125,-0.15625 c 0.015625,0 0.015625,0 0.015625,0.140625 0,0.75 -0.34375,1.34375 -0.671875,1.671875 -0.109375,0.109375 -0.109375,0.125 -0.109375,0.15625 0,0.078125 0.046875,0.109375 0.09375,0.109375 0.109375,0 0.921875,-0.765625 0.921875,-1.9375 z m 0,0"
               id="id-6b90d45c-4cbd-4522-870c-8c7a4aeef803" />
          </g>
        </g>
      </defs>
      <g
         fill="#000000"
         fill-opacity="1"
         id="id-ae88968a-1fab-4f54-b98e-478278838c1f"
         transform="translate(-146.12152,-109.03102)">
        <g
           transform="translate(150.096,132.246)"
           id="g9899">
          <path
             d="M 2.5,-6.921875 1.15625,-5.5625 1.328125,-5.390625 2.5,-6.40625 3.640625,-5.390625 3.8125,-5.5625 Z m 0,0"
             id="id-d0839f26-6053-4229-b074-6d4aca87b8bd" />
        </g>
      </g>
      <g
         fill="#000000"
         fill-opacity="1"
         id="id-752151cb-4ada-4feb-840f-56716e5641cf"
         transform="translate(-146.12152,-109.03102)">
        <g
           transform="translate(148.712,134.765)"
           id="g1388">
          <path
             d="m 7.1875,-3.375 c 0,-2.03125 -1.5,-3.65625 -3.3125,-3.65625 -1.796875,0 -3.3125,1.59375 -3.3125,3.65625 0,2.046875 1.53125,3.59375 3.3125,3.59375 1.8125,0 3.3125,-1.578125 3.3125,-3.59375 z M 3.875,-0.015625 c -0.984375,0 -2.34375,-0.859375 -2.34375,-3.359375 0,-2.5625 1.375,-3.4375 2.34375,-3.4375 1,0 2.34375,0.90625 2.34375,3.4375 0,2.53125 -1.40625,3.359375 -2.34375,3.359375 z M 5.65625,-4.125 h -0.25 v 0.34375 H 2.34375 V -4.125 h -0.25 v 1.4375 h 0.25 v -0.34375 h 3.0625 v 0.34375 h 0.25 z m 0,0"
             id="id-9e2e8ddb-9d4e-49a0-9e67-104cbe91cae6" />
        </g>
      </g>
      <g
         fill="#000000"
         fill-opacity="1"
         id="id-848361b2-ab44-4d79-af99-90d69fcd4625"
         transform="translate(-147.69826,-109.03102)">
        <g
           transform="translate(159.228,134.765)"
           id="g155">
          <path
             d="m 7.203125,-3.328125 c 0,-0.21875 -0.0625,-0.328125 -0.140625,-0.328125 -0.046875,0 -0.140625,0.078125 -0.140625,0.265625 -0.046875,0.953125 -0.703125,1.5 -1.40625,1.5 -0.625,0 -1.09375,-0.421875 -1.59375,-0.84375 -0.5,-0.46875 -1.015625,-0.921875 -1.703125,-0.921875 -1.078125,0 -1.671875,1.09375 -1.671875,2 0,0.328125 0.125,0.328125 0.140625,0.328125 0.109375,0 0.140625,-0.203125 0.140625,-0.234375 0.046875,-1.09375 0.78125,-1.53125 1.390625,-1.53125 0.625,0 1.109375,0.421875 1.59375,0.84375 0.515625,0.46875 1.03125,0.921875 1.703125,0.921875 1.09375,0 1.6875,-1.09375 1.6875,-2 z m 0,0"
             id="id-f3a1955e-b62f-4efa-a84a-eed26071fcb0" />
        </g>
      </g>
      <g
         fill="#000000"
         fill-opacity="1"
         id="id-2c7d0b72-a185-4f3c-8ade-2a80b83e9a23"
         transform="translate(-149.275,-109.03102)">
        <g
           transform="translate(169.747,134.765)"
           id="g1091">
          <path
             d="m 3.046875,-5.71875 c 0.1875,0.515625 0.40625,1.265625 0.84375,2.484375 C 4.53125,-1.53125 4.8125,-0.921875 5.40625,0.03125 5.546875,0.234375 5.5625,0.25 5.65625,0.25 5.796875,0.25 6,0.125 6.109375,0.046875 6.25,-0.078125 6.265625,-0.09375 6.375,-0.578125 6.96875,-3.203125 7.71875,-5.9375 7.921875,-6.390625 7.9375,-6.40625 8.140625,-6.78125 9.359375,-6.8125 9.5625,-6.8125 9.75,-7.34375 9.75,-7.5625 c 0,-0.15625 -0.0625,-0.15625 -0.203125,-0.15625 -1,0 -1.4375,0.40625 -1.5625,0.546875 -0.28125,0.359375 -0.515625,1.078125 -0.96875,2.75 C 6.65625,-3.15625 6.34375,-1.859375 6.03125,-0.5625 5.484375,-1.390625 5.171875,-2.1875 4.6875,-3.46875 4.171875,-4.890625 3.84375,-5.921875 3.578125,-6.8125 c -0.0625,-0.203125 -0.0625,-0.21875 -0.15625,-0.21875 -0.015625,0 -0.21875,0 -0.515625,0.25 C 2.8125,-6.703125 2.796875,-6.609375 2.796875,-6.5 c -0.28125,2.65625 -1.21875,5.28125 -1.484375,5.75 -0.09375,0.15625 -0.203125,0.328125 -0.40625,0.328125 -0.09375,0 -0.484375,-0.046875 -0.75,-0.28125 C 0.109375,-0.75 0.09375,-0.75 0.078125,-0.75 c -0.15625,0 -0.375,0.5 -0.375,0.734375 C -0.296875,0.296875 0.3125,0.5 0.59375,0.5 1.234375,0.5 1.75,-0.90625 1.90625,-1.359375 2.546875,-3.171875 2.859375,-4.65625 3.046875,-5.71875 Z m 0,0"
             id="id-886a142e-1ca8-44a7-9abe-508d9a114b70" />
        </g>
      </g>
      <g
         fill="#000000"
         fill-opacity="1"
         id="id-c353469c-8fba-46ee-9fe5-1e933b63f60d"
         transform="translate(-149.275,-109.03102)">
        <g
           transform="translate(179.387,134.765)"
           id="g1635">
          <path
             d="m 3.296875,2.390625 c 0,-0.03125 0,-0.046875 -0.171875,-0.21875 C 1.890625,0.921875 1.5625,-0.96875 1.5625,-2.5 c 0,-1.734375 0.375,-3.46875 1.609375,-4.703125 0.125,-0.125 0.125,-0.140625 0.125,-0.171875 0,-0.078125 -0.03125,-0.109375 -0.09375,-0.109375 -0.109375,0 -1,0.6875 -1.59375,1.953125 -0.5,1.09375 -0.625,2.203125 -0.625,3.03125 0,0.78125 0.109375,1.984375 0.65625,3.125 C 2.25,1.84375 3.09375,2.5 3.203125,2.5 c 0.0625,0 0.09375,-0.03125 0.09375,-0.109375 z m 0,0"
             id="id-b48f9542-7063-4dac-b2a0-11ee75e49c84" />
        </g>
        <g
           transform="translate(183.261,134.765)"
           id="g6981">
          <path
             d="m 4.578125,-3.1875 c 0,-0.796875 -0.046875,-1.59375 -0.390625,-2.328125 -0.453125,-0.96875 -1.28125,-1.125 -1.6875,-1.125 -0.609375,0 -1.328125,0.265625 -1.75,1.1875 -0.3125,0.6875 -0.359375,1.46875 -0.359375,2.265625 0,0.75 0.03125,1.640625 0.453125,2.40625 0.421875,0.796875 1.15625,1 1.640625,1 0.53125,0 1.296875,-0.203125 1.734375,-1.15625 0.3125,-0.6875 0.359375,-1.46875 0.359375,-2.25 z M 2.484375,0 C 2.09375,0 1.5,-0.25 1.328125,-1.203125 1.21875,-1.796875 1.21875,-2.71875 1.21875,-3.3125 c 0,-0.640625 0,-1.296875 0.078125,-1.828125 0.1875,-1.1875 0.9375,-1.28125 1.1875,-1.28125 0.328125,0 0.984375,0.1875 1.171875,1.171875 0.109375,0.5625 0.109375,1.3125 0.109375,1.9375 0,0.75 0,1.421875 -0.109375,2.0625 C 3.5,-0.296875 2.9375,0 2.484375,0 Z m 0,0"
             id="id-2d996303-b995-45a1-a3d1-4032e88829d8" />
        </g>
      </g>
      <g
         fill="#000000"
         fill-opacity="1"
         id="id-ac3ac9f8-796b-4170-b488-cb6ca436e519"
         transform="translate(-149.275,-109.03102)">
        <g
           transform="translate(188.242,134.765)"
           id="g5123">
          <path
             d="m 2.03125,-0.015625 c 0,-0.65625 -0.25,-1.046875 -0.640625,-1.046875 -0.328125,0 -0.53125,0.25 -0.53125,0.53125 C 0.859375,-0.265625 1.0625,0 1.390625,0 1.5,0 1.640625,-0.046875 1.734375,-0.125 1.765625,-0.15625 1.78125,-0.15625 1.78125,-0.15625 c 0.015625,0 0.015625,0 0.015625,0.140625 0,0.75 -0.34375,1.34375 -0.671875,1.671875 -0.109375,0.109375 -0.109375,0.125 -0.109375,0.15625 0,0.078125 0.046875,0.109375 0.09375,0.109375 0.109375,0 0.921875,-0.765625 0.921875,-1.9375 z m 0,0"
             id="id-1ba5539a-a281-47e8-b453-5817b39a89f9" />
        </g>
      </g>
      <g
         fill="#000000"
         fill-opacity="1"
         id="id-976ad3c3-f4f0-4dee-a73c-b571b5096fc6"
         transform="translate(-149.275,-109.03102)">
        <g
           transform="translate(192.67,134.765)"
           id="g747">
          <path
             d="m 2.9375,-6.375 c 0,-0.25 0,-0.265625 -0.234375,-0.265625 C 2.078125,-6 1.203125,-6 0.890625,-6 v 0.3125 c 0.203125,0 0.78125,0 1.296875,-0.265625 v 5.171875 c 0,0.359375 -0.03125,0.46875 -0.921875,0.46875 h -0.3125 V 0 c 0.34375,-0.03125 1.203125,-0.03125 1.609375,-0.03125 0.390625,0 1.265625,0 1.609375,0.03125 v -0.3125 h -0.3125 c -0.90625,0 -0.921875,-0.109375 -0.921875,-0.46875 z m 0,0"
             id="id-fbe353e6-1c6b-4eb9-97e6-d85ed10b4b60" />
        </g>
        <g
           transform="translate(197.651,134.765)"
           id="g3440">
          <path
             d="m 2.875,-2.5 c 0,-0.765625 -0.109375,-1.96875 -0.65625,-3.109375 -0.59375,-1.21875 -1.453125,-1.875 -1.546875,-1.875 -0.0625,0 -0.109375,0.046875 -0.109375,0.109375 0,0.03125 0,0.046875 0.1875,0.234375 0.984375,0.984375 1.546875,2.5625 1.546875,4.640625 0,1.71875 -0.359375,3.46875 -1.59375,4.71875 C 0.5625,2.34375 0.5625,2.359375 0.5625,2.390625 0.5625,2.453125 0.609375,2.5 0.671875,2.5 0.765625,2.5 1.671875,1.8125 2.25,0.546875 2.765625,-0.546875 2.875,-1.65625 2.875,-2.5 Z m 0,0"
             id="id-7ab48fbf-718f-4395-9cbf-6051c76480f0" />
        </g>
      </g>
    </g>
    <g
       transform="matrix(1.00682,0,0,1.00682,34.996989,111.35881)"
       ns2:version="1.10.2"
       ns2:texconverter="pdflatex"
       ns2:pdfconverter="inkscape"
       ns2:text="$\\Theta_{\\mathsf{trainable}}$"
       ns2:preamble="/Users/msebpeit/Library/Application Support/org.inkscape.Inkscape/config/inkscape/extensions/textext/default_packages.tex"
       ns2:scale="2.8539821259199836"
       ns2:alignment="middle center"
       ns2:stroke-to-path="0"
       ns2:inkscapeversion="1.3.2"
       id="g37"
       ns2:jacobian_sqrt="1.00682">
      <defs
         id="id-c235559e-4dfa-41f4-a0a9-bfbf7c97c8f2">
        <g
           id="id-662caec7-4d56-47a9-b189-69966620aadb">
          <g
             id="id-9f10aecf-276d-4b4b-886f-9fc8e97ab73a">
            <path
               d="m 7.1875,-3.375 c 0,-2.03125 -1.5,-3.65625 -3.3125,-3.65625 -1.796875,0 -3.3125,1.59375 -3.3125,3.65625 0,2.046875 1.53125,3.59375 3.3125,3.59375 1.8125,0 3.3125,-1.578125 3.3125,-3.59375 z M 3.875,-0.015625 c -0.984375,0 -2.34375,-0.859375 -2.34375,-3.359375 0,-2.5625 1.375,-3.4375 2.34375,-3.4375 1,0 2.34375,0.90625 2.34375,3.4375 0,2.53125 -1.40625,3.359375 -2.34375,3.359375 z M 5.65625,-4.125 h -0.25 v 0.34375 H 2.34375 V -4.125 h -0.25 v 1.4375 h 0.25 v -0.34375 h 3.0625 v 0.34375 h 0.25 z m 0,0"
               id="id-19f954c7-440b-4bae-bbec-26e2a168abd9" />
          </g>
          <g
             id="id-81415e51-8933-4d6e-a4ec-5cb22684fd77">
            <path
               d="m 1.3125,-2.65625 h 1.03125 v -0.4375 H 1.3125 V -3.984375 H 0.78125 V -3.09375 H 0.140625 v 0.4375 H 0.75 v 1.765625 c 0,0.46875 0.125,0.953125 0.625,0.953125 0.5,0 0.890625,-0.15625 1.09375,-0.25 l -0.125,-0.453125 C 2.125,-0.46875 1.875,-0.40625 1.671875,-0.40625 1.390625,-0.40625 1.3125,-0.703125 1.3125,-1.015625 Z m 0,0"
               id="id-b97137c1-3328-4bfd-afa8-c8cc9f5996b0" />
          </g>
          <g
             id="id-6d9d5523-6772-447b-b1d5-1810ddbab386">
            <path
               d="m 1.171875,-1.484375 c 0,-0.75 0.640625,-1.15625 1.25,-1.15625 V -3.15625 C 1.828125,-3.15625 1.40625,-2.875 1.125,-2.5 V -3.140625 H 0.59375 V 0 h 0.578125 z m 0,0"
               id="id-4672820a-8285-42ae-a3c3-9e2c9f7a3bdd" />
          </g>
          <g
             id="id-1e10c361-cd23-44cd-bca9-ee81f3c4ec52">
            <path
               d="m 2.96875,-2 c 0,-0.71875 -0.546875,-1.203125 -1.234375,-1.203125 -0.4375,0 -0.765625,0.09375 -1.15625,0.296875 l 0.03125,0.515625 C 0.84375,-2.546875 1.1875,-2.75 1.734375,-2.75 c 0.3125,0 0.625,0.234375 0.625,0.75 v 0.28125 C 1.328125,-1.6875 0.3125,-1.46875 0.3125,-0.828125 0.3125,-0.46875 0.546875,0.0625 1.15625,0.0625 1.46875,0.0625 2.015625,0 2.390625,-0.265625 V 0 H 2.96875 Z m -0.609375,1.015625 c 0,0.140625 0,0.3125 -0.234375,0.46875 -0.234375,0.125 -0.5,0.125 -0.578125,0.125 -0.390625,0 -0.671875,-0.171875 -0.671875,-0.4375 0,-0.453125 1.171875,-0.484375 1.484375,-0.5 z m 0,0"
               id="id-b34a20cf-e9c5-4ebf-a14f-58f1e1afdc53" />
          </g>
          <g
             id="id-9a6fdc38-bcba-49fb-8a4f-6b594f27490c">
            <path
               d="M 1.21875,-4.78125 H 0.515625 v 0.703125 H 1.21875 Z m -0.046875,1.6875 H 0.578125 V 0 h 0.59375 z m 0,0"
               id="id-7787c13e-d696-4388-9827-5a61ee200309" />
          </g>
          <g
             id="id-519e8ce7-c796-485d-98ad-998500b86bc0">
            <path
               d="m 3.234375,-2.0625 c 0,-0.546875 -0.15625,-1.09375 -1.015625,-1.09375 -0.390625,0 -0.78125,0.15625 -1.078125,0.515625 v -0.5 h -0.5625 V 0 H 1.1875 v -1.6875 c 0,-0.46875 0.1875,-1.015625 0.734375,-1.015625 0.71875,0 0.71875,0.484375 0.71875,0.6875 V 0 h 0.59375 z m 0,0"
               id="id-e8a650f4-9805-4ba6-b212-5cf81baf416e" />
          </g>
          <g
             id="id-2a7c4fbe-0677-4caf-a06f-c04647c131f6">
            <path
               d="M 1.171875,-4.84375 H 0.59375 V 0 H 1.203125 V -0.328125 C 1.359375,-0.1875 1.6875,0.0625 2.1875,0.0625 c 0.765625,0 1.375,-0.703125 1.375,-1.609375 0,-0.84375 -0.46875,-1.609375 -1.171875,-1.609375 -0.4375,0 -0.859375,0.125 -1.21875,0.390625 z m 0.03125,2.65625 c 0,-0.125 0,-0.203125 0.234375,-0.359375 0.109375,-0.0625 0.296875,-0.15625 0.53125,-0.15625 0.46875,0 1,0.3125 1,1.15625 0,0.84375 -0.578125,1.15625 -1.078125,1.15625 -0.25,0 -0.5,-0.125 -0.6875,-0.4375 z m 0,0"
               id="id-1da9e487-c0fd-4eef-9334-816b79f570e3" />
          </g>
          <g
             id="id-b6eb36c2-e0e0-4141-b32b-d840e397dfd8">
            <path
               d="M 1.171875,-4.84375 H 0.578125 V 0 h 0.59375 z m 0,0"
               id="id-8057936c-31d6-4713-9e8b-bcd565c091cd" />
          </g>
          <g
             id="id-b586a44c-4c1b-4e95-b277-5cbea40054a6">
            <path
               d="m 3,-0.765625 c -0.390625,0.28125 -0.828125,0.375 -1.125,0.375 -0.609375,0 -1.078125,-0.5 -1.09375,-1.140625 H 3.0625 c 0,-0.3125 -0.03125,-0.78125 -0.296875,-1.171875 -0.25,-0.359375 -0.671875,-0.5 -1.015625,-0.5 -0.84375,0 -1.5,0.75 -1.5,1.640625 0,0.890625 0.6875,1.625 1.609375,1.625 0.40625,0 0.828125,-0.109375 1.171875,-0.328125 z M 0.828125,-1.9375 C 0.984375,-2.5 1.40625,-2.734375 1.75,-2.734375 c 0.3125,0 0.765625,0.140625 0.890625,0.796875 z m 0,0"
               id="id-bba3146e-3b5a-44ed-93dc-96ace7612847" />
          </g>
        </g>
      </defs>
      <g
         fill="#000000"
         fill-opacity="1"
         id="id-12f0fe94-1861-4a7d-a517-b18f899b2a9d"
         transform="translate(-149.275,-127.734)">
        <g
           transform="translate(148.712,134.765)"
           id="g3432">
          <path
             d="m 7.1875,-3.375 c 0,-2.03125 -1.5,-3.65625 -3.3125,-3.65625 -1.796875,0 -3.3125,1.59375 -3.3125,3.65625 0,2.046875 1.53125,3.59375 3.3125,3.59375 1.8125,0 3.3125,-1.578125 3.3125,-3.59375 z M 3.875,-0.015625 c -0.984375,0 -2.34375,-0.859375 -2.34375,-3.359375 0,-2.5625 1.375,-3.4375 2.34375,-3.4375 1,0 2.34375,0.90625 2.34375,3.4375 0,2.53125 -1.40625,3.359375 -2.34375,3.359375 z M 5.65625,-4.125 h -0.25 v 0.34375 H 2.34375 V -4.125 h -0.25 v 1.4375 h 0.25 v -0.34375 h 3.0625 v 0.34375 h 0.25 z m 0,0"
             id="id-72efd985-6867-4a49-95ac-02a6456e513d" />
        </g>
      </g>
      <g
         fill="#000000"
         fill-opacity="1"
         id="id-97c68c19-1a42-451a-8f30-cda848ae1b24"
         transform="translate(-149.275,-127.734)">
        <g
           transform="translate(156.461,136.259)"
           id="g749">
          <path
             d="m 1.3125,-2.65625 h 1.03125 v -0.4375 H 1.3125 V -3.984375 H 0.78125 V -3.09375 H 0.140625 v 0.4375 H 0.75 v 1.765625 c 0,0.46875 0.125,0.953125 0.625,0.953125 0.5,0 0.890625,-0.15625 1.09375,-0.25 l -0.125,-0.453125 C 2.125,-0.46875 1.875,-0.40625 1.671875,-0.40625 1.390625,-0.40625 1.3125,-0.703125 1.3125,-1.015625 Z m 0,0"
             id="id-db6404fd-ccfd-46ff-96ed-26a2508f471a" />
        </g>
        <g
           transform="translate(159.137,136.259)"
           id="g291">
          <path
             d="m 1.171875,-1.484375 c 0,-0.75 0.640625,-1.15625 1.25,-1.15625 V -3.15625 C 1.828125,-3.15625 1.40625,-2.875 1.125,-2.5 V -3.140625 H 0.59375 V 0 h 0.578125 z m 0,0"
             id="id-36c3d9ab-d670-490e-acce-aa483b34e637" />
        </g>
        <g
           transform="translate(161.668,136.259)"
           id="g6982">
          <path
             d="m 2.96875,-2 c 0,-0.71875 -0.546875,-1.203125 -1.234375,-1.203125 -0.4375,0 -0.765625,0.09375 -1.15625,0.296875 l 0.03125,0.515625 C 0.84375,-2.546875 1.1875,-2.75 1.734375,-2.75 c 0.3125,0 0.625,0.234375 0.625,0.75 v 0.28125 C 1.328125,-1.6875 0.3125,-1.46875 0.3125,-0.828125 0.3125,-0.46875 0.546875,0.0625 1.15625,0.0625 1.46875,0.0625 2.015625,0 2.390625,-0.265625 V 0 H 2.96875 Z m -0.609375,1.015625 c 0,0.140625 0,0.3125 -0.234375,0.46875 -0.234375,0.125 -0.5,0.125 -0.578125,0.125 -0.390625,0 -0.671875,-0.171875 -0.671875,-0.4375 0,-0.453125 1.171875,-0.484375 1.484375,-0.5 z m 0,0"
             id="id-6eafb7cc-35f8-41dd-883d-b7244390b884" />
        </g>
        <g
           transform="translate(165.227,136.259)"
           id="g8539">
          <path
             d="M 1.21875,-4.78125 H 0.515625 v 0.703125 H 1.21875 Z m -0.046875,1.6875 H 0.578125 V 0 h 0.59375 z m 0,0"
             id="id-8a8efa04-80c9-4eb8-9063-bd23b0dd3dfe" />
        </g>
        <g
           transform="translate(166.995,136.259)"
           id="g5486">
          <path
             d="m 3.234375,-2.0625 c 0,-0.546875 -0.15625,-1.09375 -1.015625,-1.09375 -0.390625,0 -0.78125,0.15625 -1.078125,0.515625 v -0.5 h -0.5625 V 0 H 1.1875 v -1.6875 c 0,-0.46875 0.1875,-1.015625 0.734375,-1.015625 0.71875,0 0.71875,0.484375 0.71875,0.6875 V 0 h 0.59375 z m 0,0"
             id="id-5f5fb5ee-50bb-42dc-960c-aa547197dc2e" />
        </g>
        <g
           transform="translate(170.821,136.259)"
           id="g7173">
          <path
             d="m 2.96875,-2 c 0,-0.71875 -0.546875,-1.203125 -1.234375,-1.203125 -0.4375,0 -0.765625,0.09375 -1.15625,0.296875 l 0.03125,0.515625 C 0.84375,-2.546875 1.1875,-2.75 1.734375,-2.75 c 0.3125,0 0.625,0.234375 0.625,0.75 v 0.28125 C 1.328125,-1.6875 0.3125,-1.46875 0.3125,-0.828125 0.3125,-0.46875 0.546875,0.0625 1.15625,0.0625 1.46875,0.0625 2.015625,0 2.390625,-0.265625 V 0 H 2.96875 Z m -0.609375,1.015625 c 0,0.140625 0,0.3125 -0.234375,0.46875 -0.234375,0.125 -0.5,0.125 -0.578125,0.125 -0.390625,0 -0.671875,-0.171875 -0.671875,-0.4375 0,-0.453125 1.171875,-0.484375 1.484375,-0.5 z m 0,0"
             id="id-5e4c873b-911b-4a12-85db-34261479c5d7" />
        </g>
        <g
           transform="translate(174.38,136.259)"
           id="g7321">
          <path
             d="M 1.171875,-4.84375 H 0.59375 V 0 H 1.203125 V -0.328125 C 1.359375,-0.1875 1.6875,0.0625 2.1875,0.0625 c 0.765625,0 1.375,-0.703125 1.375,-1.609375 0,-0.84375 -0.46875,-1.609375 -1.171875,-1.609375 -0.4375,0 -0.859375,0.125 -1.21875,0.390625 z m 0.03125,2.65625 c 0,-0.125 0,-0.203125 0.234375,-0.359375 0.109375,-0.0625 0.296875,-0.15625 0.53125,-0.15625 0.46875,0 1,0.3125 1,1.15625 0,0.84375 -0.578125,1.15625 -1.078125,1.15625 -0.25,0 -0.5,-0.125 -0.6875,-0.4375 z m 0,0"
             id="id-da86c947-a09b-4d23-a9dc-78b8a06e0048" />
        </g>
        <g
           transform="translate(178.206,136.259)"
           id="g8989">
          <path
             d="M 1.171875,-4.84375 H 0.578125 V 0 h 0.59375 z m 0,0"
             id="id-59915290-82dd-4ccd-9435-a182837b5dc3" />
        </g>
        <g
           transform="translate(179.974,136.259)"
           id="g4701">
          <path
             d="m 3,-0.765625 c -0.390625,0.28125 -0.828125,0.375 -1.125,0.375 -0.609375,0 -1.078125,-0.5 -1.09375,-1.140625 H 3.0625 c 0,-0.3125 -0.03125,-0.78125 -0.296875,-1.171875 -0.25,-0.359375 -0.671875,-0.5 -1.015625,-0.5 -0.84375,0 -1.5,0.75 -1.5,1.640625 0,0.890625 0.6875,1.625 1.609375,1.625 0.40625,0 0.828125,-0.109375 1.171875,-0.328125 z M 0.828125,-1.9375 C 0.984375,-2.5 1.40625,-2.734375 1.75,-2.734375 c 0.3125,0 0.765625,0.140625 0.890625,0.796875 z m 0,0"
             id="id-ebefc017-4f56-464d-b9f7-66ef177628c8" />
        </g>
      </g>
    </g>
  </g>
</svg>
